<svg xmlns:dc="http://purl.org/dc/elements/1.1/" xmlns:cc="http://creativecommons.org/ns#" xmlns:rdf="http://www.w3.org/1999/02/22-rdf-syntax-ns#" xmlns:svg="http://www.w3.org/2000/svg" xmlns="http://www.w3.org/2000/svg" xmlns:sodipodi="http://sodipodi.sourceforge.net/DTD/sodipodi-0.dtd" xmlns:inkscape="http://www.inkscape.org/namespaces/inkscape" aria-hidden="true" focusable="false" data-prefix="far" data-icon="file-image" role="img" viewBox="0 0 512 512" class="svg-inline--fa fa-file-image fa-w-12 fa-9x" version="1.1" id="svg4" sodipodi:docname="image-png-symbolic.svg" width="512" height="512" inkscape:version="0.92.4 (5da689c313, 2019-01-14)">
  <metadata id="metadata10" color="#53b7ec" fill="#53b7ec">
    <rdf:RDF>
      <cc:Work rdf:about="">
        <dc:format>image/svg+xml</dc:format>
        <dc:type rdf:resource="http://purl.org/dc/dcmitype/StillImage"/>
        <dc:title/>
      </cc:Work>
    </rdf:RDF>
  </metadata>
  <defs id="defs8" color="#53b7ec" fill="#53b7ec"/>
  <sodipodi:namedview pagecolor="#ffffff" bordercolor="#666666" borderopacity="1" objecttolerance="10" gridtolerance="10" guidetolerance="10" inkscape:pageopacity="0" inkscape:pageshadow="2" inkscape:window-width="1920" inkscape:window-height="1051" id="namedview6" showgrid="false" inkscape:zoom="0.4609375" inkscape:cx="192" inkscape:cy="256" inkscape:window-x="0" inkscape:window-y="0" inkscape:window-maximized="1" inkscape:current-layer="svg4" color="#53b7ec" fill="#53b7ec"/>
  <path d="M 433.9,97.9 350,14 C 341,5 328.8,-0.1 316.1,-0.1 H 112 C 85.5,0 64,21.5 64,48 v 416 c 0,26.5 21.5,48 48,48 h 288 c 26.5,0 48,-21.5 48,-48 V 131.9 c 0,-12.7 -5.1,-25 -14.1,-34 z M 396.1,128 H 320 V 51.9 Z M 112,464 V 48 h 160 v 104 c 0,13.3 10.7,24 24,24 h 104 v 288 z m 32,-48 H 368 V 288 l -23.5,-23.5 c -4.7,-4.7 -12.3,-4.7 -17,0 L 240,352 200.5,312.5 c -4.7,-4.7 -12.3,-4.7 -17,0 L 144,352 Z m 48,-240 c -26.5,0 -48,21.5 -48,48 0,26.5 21.5,48 48,48 26.5,0 48,-21.5 48,-48 0,-26.5 -21.5,-48 -48,-48 z" class="" id="path2" inkscape:connector-curvature="0" style="color:#53b7ec;fill:#53b7ec"/>
</svg>