<?xml version="1.0" encoding="UTF-8" standalone="no"?>

<svg

   xmlns:dc="http://purl.org/dc/elements/1.1/"

   xmlns:cc="http://creativecommons.org/ns#"

   xmlns:rdf="http://www.w3.org/1999/02/22-rdf-syntax-ns#"

   xmlns:svg="http://www.w3.org/2000/svg"

   xmlns="http://www.w3.org/2000/svg"

   xmlns:sodipodi="http://sodipodi.sourceforge.net/DTD/sodipodi-0.dtd"

   xmlns:inkscape="http://www.inkscape.org/namespaces/inkscape"

   inkscape:version="1.0rc1 (09960d6, 2020-04-09)"

   height="512"

   width="512"

   sodipodi:docname="application-x-ar-symbolic.svg"

   id="svg4"

   version="1.1"

   class="svg-inline--fa fa-file-archive fa-w-12 fa-9x"

   viewBox="0 0 512 512"

   role="img"

   data-icon="file-archive"

   data-prefix="fas"

   focusable="false"

   aria-hidden="true">

  <metadata

     id="metadata10">

    <rdf:RDF>

      <cc:Work

         rdf:about="">

        <dc:format>image/svg+xml</dc:format>

        <dc:type

           rdf:resource="http://purl.org/dc/dcmitype/StillImage" />

        <dc:title></dc:title>

      </cc:Work>

    </rdf:RDF>

  </metadata>

  <defs

     id="defs8" />

  <sodipodi:namedview

     inkscape:current-layer="svg4"

     inkscape:cy="256"

     inkscape:cx="192"

     inkscape:zoom="1.3964844"

     showgrid="false"

     id="namedview6"

     inkscape:window-height="480"

     inkscape:window-width="640"

     inkscape:pageshadow="2"

     inkscape:pageopacity="0"

     guidetolerance="10"

     gridtolerance="10"

     objecttolerance="10"

     borderopacity="1"

     bordercolor="#666666"

     pagecolor="#ffffff" />

  <path

     inkscape:connector-curvature="0"

     id="path2"

     class=""

     d="M 441,105 343.1,7 C 338.6,2.5 332.5,0 326.1,0 H 320 v 128 h 128 v -6.1 c 0,-6.3 -2.5,-12.4 -7,-16.9 z M 192.4,336 c -17.9,0 -32.4,12.1 -32.4,27 0,15 14.6,27 32.5,27 17.9,0 32.4,-12.1 32.4,-27 0,-14.9 -14.6,-27 -32.5,-27 z M 288,136 V 0 h -63.6 v 32 h -32 V 0 H 88 C 74.7,0 64,10.7 64,24 v 464 c 0,13.3 10.7,24 24,24 h 336 c 13.3,0 24,-10.7 24,-24 V 160 H 312 c -13.2,0 -24,-10.8 -24,-24 z M 159.9,32 h 32 v 32 h -32 z m 32.3,384 c -33.2,0 -58,-30.4 -51.4,-62.9 L 160.4,256 v -32 h 32 v -32 h -32 v -32 h 32 v -32 h -32 V 96 h 32 V 64 h 32 v 32 h -32 v 32 h 32 v 32 h -32 v 32 h 32 v 32 h -32 v 32 h 22.1 c 5.7,0 10.7,4.1 11.8,9.7 l 17.3,87.7 C 250,385.8 225.2,416 192.2,416 Z"

     fill="#53b7ec" />

</svg>

