<?xml version="1.0" encoding="UTF-8" standalone="no"?><svg   xmlns:dc="http://purl.org/dc/elements/1.1/"   xmlns:cc="http://creativecommons.org/ns#"   xmlns:rdf="http://www.w3.org/1999/02/22-rdf-syntax-ns#"   xmlns:svg="http://www.w3.org/2000/svg"   xmlns="http://www.w3.org/2000/svg"   xmlns:sodipodi="http://sodipodi.sourceforge.net/DTD/sodipodi-0.dtd"   xmlns:inkscape="http://www.inkscape.org/namespaces/inkscape"   aria-hidden="true"   focusable="false"   data-prefix="fas"   data-icon="file-archive"   role="img"   viewBox="0 0 512 512"   class="svg-inline--fa fa-file-archive fa-w-12 fa-9x"   version="1.1"   id="svg4"   sodipodi:docname="folder-tar-symbolic.svg"   width="512"   height="512"   inkscape:version="1.0rc1 (09960d6, 2020-04-09)">  <metadata     id="metadata10">    <rdf:RDF>      <cc:Work         rdf:about="">        <dc:format>image/svg+xml</dc:format>        <dc:type           rdf:resource="http://purl.org/dc/dcmitype/StillImage" />        <dc:title />      </cc:Work>    </rdf:RDF>  </metadata>  <defs     id="defs8" />  <sodipodi:namedview     inkscape:document-rotation="0"     pagecolor="#ffffff"     bordercolor="#666666"     borderopacity="1"     objecttolerance="10"     gridtolerance="10"     guidetolerance="10"     inkscape:pageopacity="0"     inkscape:pageshadow="2"     inkscape:window-width="640"     inkscape:window-height="480"     id="namedview6"     showgrid="false"     inkscape:zoom="1.3964844"     inkscape:cx="192"     inkscape:cy="256"     inkscape:current-layer="svg4" />  <path     style="stroke-width:0.839844"     fill="#53b7ec"     d="M 411.3711,129.18359 329.15039,46.878906 C 325.3711,43.099609 320.24805,41 314.87305,41 H 309.75 v 107.5 h 107.5 v -5.12305 c 0,-5.29101 -2.09961,-10.41406 -5.8789,-14.19336 z M 202.58594,323.1875 c -15.0332,0 -27.21094,10.16211 -27.21094,22.67578 0,12.59766 12.26172,22.67578 27.29492,22.67578 15.03321,0 27.21094,-10.16211 27.21094,-22.67578 0,-12.51367 -12.26172,-22.67578 -27.29492,-22.67578 z M 282.875,155.21875 V 41 h -53.41406 v 26.875 h -26.875 V 41 H 114.90625 C 103.73633,41 94.75,49.986328 94.75,61.15625 v 389.6875 C 94.75,462.01367 103.73633,471 114.90625,471 h 282.1875 C 408.26367,471 417.25,462.01367 417.25,450.84375 V 175.375 H 303.03125 c -11.08594,0 -20.15625,-9.07031 -20.15625,-20.15625 z M 175.29102,67.875 h 26.875 V 94.75 h -26.875 z m 27.12695,322.5 c -27.88281,0 -48.71094,-25.53125 -43.16797,-52.82617 L 175.71094,256 v -26.875 h 26.875 V 202.25 h -26.875 v -26.875 h 26.875 V 148.5 h -26.875 v -26.875 h 26.875 V 94.75 h 26.875 v 26.875 h -26.875 V 148.5 h 26.875 v 26.875 h -26.875 v 26.875 h 26.875 v 26.875 h -26.875 V 256 h 18.56055 c 4.7871,0 8.98633,3.44336 9.91015,8.14649 l 14.5293,73.65429 c 5.375,27.21094 -15.45312,52.57422 -43.16797,52.57422 z"     class=""     id="path2"     inkscape:connector-curvature="0" /></svg>