<?xml version="1.0" encoding="UTF-8" standalone="no"?>
<svg
   xmlns:dc="http://purl.org/dc/elements/1.1/"
   xmlns:cc="http://creativecommons.org/ns#"
   xmlns:rdf="http://www.w3.org/1999/02/22-rdf-syntax-ns#"
   xmlns:svg="http://www.w3.org/2000/svg"
   xmlns="http://www.w3.org/2000/svg"
   xmlns:sodipodi="http://sodipodi.sourceforge.net/DTD/sodipodi-0.dtd"
   xmlns:inkscape="http://www.inkscape.org/namespaces/inkscape"
   inkscape:version="1.0rc1 (09960d6, 2020-04-09)"
   height="512"
   width="512"
   sodipodi:docname="folder-script-symbolic.svg"
   id="svg4"
   version="1.1"
   class="svg-inline--fa fa-code fa-w-20 fa-9x"
   viewBox="0 0 512 512"
   role="img"
   data-icon="code"
   data-prefix="fas"
   focusable="false"
   aria-hidden="true">
  <metadata
     id="metadata10">
    <rdf:RDF>
      <cc:Work
         rdf:about="">
        <dc:format>image/svg+xml</dc:format>
        <dc:type
           rdf:resource="http://purl.org/dc/dcmitype/StillImage" />
        <dc:title></dc:title>
      </cc:Work>
    </rdf:RDF>
  </metadata>
  <defs
     id="defs8" />
  <sodipodi:namedview
     inkscape:current-layer="svg4"
     inkscape:cy="256"
     inkscape:cx="320"
     inkscape:zoom="1.290625"
     showgrid="false"
     id="namedview6"
     inkscape:window-height="480"
     inkscape:window-width="640"
     inkscape:pageshadow="2"
     inkscape:pageopacity="0"
     guidetolerance="10"
     gridtolerance="10"
     objecttolerance="10"
     borderopacity="1"
     bordercolor="#666666"
     pagecolor="#ffffff" />
  <path
     style="stroke-width:0.671822"
     inkscape:connector-curvature="0"
     id="path2"
     class=""
     d="m 228.38809,427.63862 -40.98117,-11.89126 c -4.29966,-1.20928 -6.71822,-5.71049 -5.50894,-10.01016 L 273.60175,89.846252 c 1.20928,-4.299664 5.71049,-6.718225 10.01016,-5.508945 l 40.98117,11.891259 c 4.29966,1.20928 6.71822,5.710494 5.50894,10.010154 l -91.70377,315.89095 c -1.27646,4.29967 -5.71049,6.78541 -10.01016,5.50895 z m -76.58776,-75.37849 29.22428,-31.17257 c 3.09038,-3.29193 2.88883,-8.53214 -0.53746,-11.55534 l -60.86712,-53.54426 60.86712,-53.54425 c 3.42629,-3.0232 3.69502,-8.26342 0.53746,-11.55535 l -29.22428,-31.17257 c -3.0232,-3.22474 -8.12905,-3.42629 -11.42098,-0.33591 l -96.809628,90.69605 c -3.426294,3.15756 -3.426294,8.59932 0,11.75689 l 96.809628,90.76322 c 3.29193,3.09038 8.39778,2.95602 11.42098,-0.33591 z M 371.62065,352.66322 468.43028,261.9 c 3.42629,-3.15756 3.42629,-8.59933 0,-11.75689 L 371.62065,159.3127 c -3.22474,-3.0232 -8.33059,-2.88884 -11.42098,0.33591 l -29.22428,31.17257 c -3.09038,3.29193 -2.88883,8.53215 0.53746,11.55535 l 60.86712,53.61143 -60.86712,53.54426 c -3.42629,3.0232 -3.69502,8.26341 -0.53746,11.55534 l 29.22428,31.17257 c 3.0232,3.29193 8.12905,3.42629 11.42098,0.40309 z"
     fill="#53b7ec" />
</svg>
