<?xml version="1.0" encoding="UTF-8" standalone="no"?>
<svg
   xmlns:dc="http://purl.org/dc/elements/1.1/"
   xmlns:cc="http://creativecommons.org/ns#"
   xmlns:rdf="http://www.w3.org/1999/02/22-rdf-syntax-ns#"
   xmlns:svg="http://www.w3.org/2000/svg"
   xmlns="http://www.w3.org/2000/svg"
   xmlns:sodipodi="http://sodipodi.sourceforge.net/DTD/sodipodi-0.dtd"
   xmlns:inkscape="http://www.inkscape.org/namespaces/inkscape"
   inkscape:version="1.0rc1 (09960d6, 2020-04-09)"
   height="512"
   width="512"
   sodipodi:docname="folder-music-symbolic.svg"
   id="svg4"
   version="1.1"
   class="svg-inline--fa fa-boombox fa-w-20 fa-9x"
   viewBox="0 0 512 512"
   role="img"
   data-icon="boombox"
   data-prefix="fas"
   focusable="false"
   aria-hidden="true">
  <metadata
     id="metadata10">
    <rdf:RDF>
      <cc:Work
         rdf:about="">
        <dc:format>image/svg+xml</dc:format>
        <dc:type
           rdf:resource="http://purl.org/dc/dcmitype/StillImage" />
        <dc:title></dc:title>
      </cc:Work>
    </rdf:RDF>
  </metadata>
  <defs
     id="defs8" />
  <sodipodi:namedview
     inkscape:current-layer="svg4"
     inkscape:cy="256"
     inkscape:cx="320"
     inkscape:zoom="1.290625"
     showgrid="false"
     id="namedview6"
     inkscape:window-height="480"
     inkscape:window-width="640"
     inkscape:pageshadow="2"
     inkscape:pageopacity="0"
     guidetolerance="10"
     gridtolerance="10"
     objecttolerance="10"
     borderopacity="1"
     bordercolor="#666666"
     pagecolor="#ffffff" />
  <path
     style="stroke-width:0.671875"
     inkscape:connector-curvature="0"
     id="path2"
     class=""
     d="M 352.75,256 A 53.75,53.75 0 1 0 406.5,309.75 53.810469,53.810469 0 0 0 352.75,256 Z m -193.5,0 A 53.75,53.75 0 1 0 213,309.75 53.810469,53.810469 0 0 0 159.25,256 Z M 449.5,193.47531 V 121.625 A 37.665312,37.665312 0 0 0 411.875,84 H 100.125 A 37.665312,37.665312 0 0 0 62.5,121.625 v 71.85031 A 32.155937,32.155937 0 0 0 41,223.75 v 172 A 32.25,32.25 0 0 0 73.25,428 h 365.5 A 32.25,32.25 0 0 0 471,395.75 v -172 A 32.155937,32.155937 0 0 0 449.5,193.47531 Z M 159.25,385 A 75.25,75.25 0 1 1 234.5,309.75 75.25,75.25 0 0 1 159.25,385 Z m 107.5,-215 h -21.5 A 10.75,10.75 0 0 0 234.5,180.75 V 191.5 H 213 V 180.75 A 10.75,10.75 0 0 0 202.25,170 h -21.5 A 10.75,10.75 0 0 0 170,180.75 V 191.5 H 94.75 v -69.875 a 5.375,5.375 0 0 1 5.375,-5.375 h 311.75 a 5.375,5.375 0 0 1 5.375,5.375 V 191.5 H 342 V 180.75 A 10.75,10.75 0 0 0 331.25,170 h -21.5 A 10.75,10.75 0 0 0 299,180.75 V 191.5 H 277.5 V 180.75 A 10.75,10.75 0 0 0 266.75,170 Z m 86,215 A 75.25,75.25 0 1 1 428,309.75 75.25,75.25 0 0 1 352.75,385 Z"
     fill="#53b7ec" />
</svg>
