<?xml version="1.0" encoding="UTF-8" standalone="no"?>
<svg
   xmlns:dc="http://purl.org/dc/elements/1.1/"
   xmlns:cc="http://creativecommons.org/ns#"
   xmlns:rdf="http://www.w3.org/1999/02/22-rdf-syntax-ns#"
   xmlns:svg="http://www.w3.org/2000/svg"
   xmlns="http://www.w3.org/2000/svg"
   xmlns:sodipodi="http://sodipodi.sourceforge.net/DTD/sodipodi-0.dtd"
   xmlns:inkscape="http://www.inkscape.org/namespaces/inkscape"
   inkscape:version="1.0rc1 (09960d6, 2020-04-09)"
   height="640"
   width="640"
   sodipodi:docname="folder-cloud-symbolic.svg"
   id="svg4"
   version="1.1"
   class="svg-inline--fa fa-clouds fa-w-20 fa-9x"
   viewBox="0 0 640 640"
   role="img"
   data-icon="clouds"
   data-prefix="fas"
   focusable="false"
   aria-hidden="true">
  <metadata
     id="metadata10">
    <rdf:RDF>
      <cc:Work
         rdf:about="">
        <dc:format>image/svg+xml</dc:format>
        <dc:type
           rdf:resource="http://purl.org/dc/dcmitype/StillImage" />
        <dc:title></dc:title>
      </cc:Work>
    </rdf:RDF>
  </metadata>
  <defs
     id="defs8" />
  <sodipodi:namedview
     inkscape:current-layer="svg4"
     inkscape:cy="256"
     inkscape:cx="320"
     inkscape:zoom="1.3859375"
     showgrid="false"
     id="namedview6"
     inkscape:window-height="480"
     inkscape:window-width="640"
     inkscape:pageshadow="2"
     inkscape:pageopacity="0"
     guidetolerance="10"
     gridtolerance="10"
     objecttolerance="10"
     borderopacity="1"
     bordercolor="#666666"
     pagecolor="#ffffff" />
  <path
     style="stroke-width:0.812618"
     inkscape:connector-curvature="0"
     id="path2"
     class=""
     d="m 502.02639,372.00754 c -0.48757,0 -0.89388,0.16252 -1.30019,0.16252 0.89388,-4.22561 1.30019,-8.61375 1.30019,-13.16441 0,-35.9177 -29.09172,-65.00942 -65.00943,-65.00942 -19.99039,0 -37.6242,9.18258 -49.56968,23.40339 -15.11469,-29.17298 -45.34408,-49.40716 -80.44916,-49.40716 -50.30105,0 -91.0132,40.71215 -91.0132,91.01319 0,5.93211 0.6501,11.62044 1.7065,17.2275 -31.12326,10.23899 -53.71404,39.24944 -53.71404,73.7857 0,43.06874 34.94257,78.01131 78.01131,78.01131 h 260.0377 c 43.06874,0 78.01131,-34.94257 78.01131,-78.01131 0,-43.06874 -34.94257,-78.01131 -78.01131,-78.01131 z M 306.99812,241.98869 c 33.07354,0 63.87175,13.97703 85.64991,37.78673 7.96366,-4.55066 16.65867,-7.63861 25.67872,-9.58889 3.49426,-8.77627 5.68833,-18.12138 5.68833,-28.19784 0,-43.06874 -34.94257,-78.01131 -78.01131,-78.01131 -11.45791,0 -22.26573,2.60038 -32.0984,7.06978 -12.92063,-34.455 -45.91291,-59.07732 -84.91856,-59.07732 -45.83165,0 -83.45585,34.04869 -89.71301,78.17383 -0.40631,0 -0.81262,-0.16252 -1.30019,-0.16252 -43.068742,0 -78.011307,34.94257 -78.011307,78.01131 0,43.06874 34.942565,78.01131 78.011307,78.01131 h 53.30773 c 6.5822,-58.34596 55.66432,-104.01508 115.71678,-104.01508 z"
     fill="#53b7ec" />
</svg>
