<?xml version="1.0" encoding="UTF-8" standalone="no"?>
<svg
   xmlns:dc="http://purl.org/dc/elements/1.1/"
   xmlns:cc="http://creativecommons.org/ns#"
   xmlns:rdf="http://www.w3.org/1999/02/22-rdf-syntax-ns#"
   xmlns:svg="http://www.w3.org/2000/svg"
   xmlns="http://www.w3.org/2000/svg"
   xmlns:sodipodi="http://sodipodi.sourceforge.net/DTD/sodipodi-0.dtd"
   xmlns:inkscape="http://www.inkscape.org/namespaces/inkscape"
   inkscape:version="1.0rc1 (09960d6, 2020-04-09)"
   height="512"
   width="512"
   sodipodi:docname="folder-image-people-symbolic.svg"
   id="svg4"
   version="1.1"
   class="svg-inline--fa fa-user fa-w-14 fa-9x"
   viewBox="0 0 512 512"
   role="img"
   data-icon="user"
   data-prefix="fas"
   focusable="false"
   aria-hidden="true">
  <metadata
     id="metadata10">
    <rdf:RDF>
      <cc:Work
         rdf:about="">
        <dc:format>image/svg+xml</dc:format>
        <dc:type
           rdf:resource="http://purl.org/dc/dcmitype/StillImage" />
        <dc:title></dc:title>
      </cc:Work>
    </rdf:RDF>
  </metadata>
  <defs
     id="defs8" />
  <sodipodi:namedview
     inkscape:current-layer="svg4"
     inkscape:cy="256"
     inkscape:cx="224"
     inkscape:zoom="1.3964844"
     showgrid="false"
     id="namedview6"
     inkscape:window-height="480"
     inkscape:window-width="640"
     inkscape:pageshadow="2"
     inkscape:pageopacity="0"
     guidetolerance="10"
     gridtolerance="10"
     objecttolerance="10"
     borderopacity="1"
     bordercolor="#666666"
     pagecolor="#ffffff" />
  <path
     style="stroke-width:0.839844"
     inkscape:connector-curvature="0"
     id="path2"
     color="#53b7ec"
     class=""
     d="M 256,256 C 315.37695,256 363.5,207.87695 363.5,148.5 363.5,89.123047 315.37695,41 256,41 196.62305,41 148.5,89.123047 148.5,148.5 148.5,207.87695 196.62305,256 256,256 Z m 75.25,26.875 h -14.02539 c -18.64453,8.56641 -39.38867,13.4375 -61.22461,13.4375 -21.83594,0 -42.49609,-4.87109 -61.22461,-13.4375 H 180.75 c -62.31641,0 -112.875,50.55859 -112.875,112.875 v 34.9375 C 67.875,452.94336 85.931641,471 108.1875,471 h 295.625 c 22.25586,0 40.3125,-18.05664 40.3125,-40.3125 V 395.75 c 0,-62.31641 -50.55859,-112.875 -112.875,-112.875 z"
     fill="#53b7ec" />
</svg>
