<?xml version="1.0" encoding="UTF-8" standalone="no"?>
<svg
   xmlns:dc="http://purl.org/dc/elements/1.1/"
   xmlns:cc="http://creativecommons.org/ns#"
   xmlns:rdf="http://www.w3.org/1999/02/22-rdf-syntax-ns#"
   xmlns:svg="http://www.w3.org/2000/svg"
   xmlns="http://www.w3.org/2000/svg"
   xmlns:sodipodi="http://sodipodi.sourceforge.net/DTD/sodipodi-0.dtd"
   xmlns:inkscape="http://www.inkscape.org/namespaces/inkscape"
   width="64"
   height="64"
   version="1"
   id="svg18"
   sodipodi:docname="blueman-serial-symbolic.svg"
   inkscape:version="0.92.4 (5da689c313, 2019-01-14)">
  <metadata
     id="metadata24">
    <rdf:RDF>
      <cc:Work
         rdf:about="">
        <dc:format>image/svg+xml</dc:format>
        <dc:type
           rdf:resource="http://purl.org/dc/dcmitype/StillImage" />
      </cc:Work>
    </rdf:RDF>
  </metadata>
  <defs
     id="defs22" />
  <sodipodi:namedview
     pagecolor="#ffffff"
     bordercolor="#666666"
     borderopacity="1"
     objecttolerance="10"
     gridtolerance="10"
     guidetolerance="10"
     inkscape:pageopacity="0"
     inkscape:pageshadow="2"
     inkscape:window-width="973"
     inkscape:window-height="698"
     id="namedview20"
     showgrid="false"
     inkscape:zoom="3.6875"
     inkscape:cx="32"
     inkscape:cy="32"
     inkscape:window-x="483"
     inkscape:window-y="239"
     inkscape:window-maximized="0"
     inkscape:current-layer="svg18" />
  <path
     style="opacity:0.2"
     d="m 4.0000004,53.168069 0,1.999971 c 0,1.569978 1.2495821,2.83196 2.80076,2.83196 L 57.20004,58 C 58.750017,58 60,56.738018 60,55.16804 l 0,-1.999971 c 0,1.569978 -1.249983,2.831959 -2.79996,2.831959 l -50.3992796,0 c -1.5503779,0 -2.79996,-1.261981 -2.79996,-2.831959 z"
     id="path2" />
  <path
     style="fill:#b7b7b7"
     d="m 11.999886,5.0003861 39.999428,0 0,19.9997139 -39.999428,0 z"
     id="path4" />
  <rect
     style="fill:#53b7ec;fill-opacity:1"
     width="56"
     height="34"
     x="4"
     y="23"
     rx="2.8"
     ry="2.834"
     id="rect6" />
  <g
     style="opacity:0.4"
     transform="matrix(1.9999714,0,0,1.9999714,5.760572e-5,-0.9995281)"
     id="g14">
    <rect
       width="16"
       height="2"
       x="8"
       y="16"
       id="rect8" />
    <rect
       width="12"
       height="2"
       x="10"
       y="20"
       id="rect10" />
    <rect
       width="8"
       height="2"
       x="12"
       y="24"
       id="rect12" />
  </g>
  <path
     style="opacity:0.2;fill:#ffffff"
     d="M 12 5 L 12 6 L 52 6 L 52 5 L 12 5 z"
     id="path16" />
</svg>
