<svg xmlns:dc="http://purl.org/dc/elements/1.1/" xmlns:cc="http://creativecommons.org/ns#" xmlns:rdf="http://www.w3.org/1999/02/22-rdf-syntax-ns#" xmlns:svg="http://www.w3.org/2000/svg" xmlns="http://www.w3.org/2000/svg" xmlns:sodipodi="http://sodipodi.sourceforge.net/DTD/sodipodi-0.dtd" xmlns:inkscape="http://www.inkscape.org/namespaces/inkscape" aria-hidden="true" focusable="false" data-prefix="fas" data-icon="info" role="img" viewBox="0 0 512 512" class="svg-inline--fa fa-info fa-w-6 fa-9x" version="1.1" id="svg4" sodipodi:docname="gnome-info-symbolic.svg" width="512" height="512" inkscape:version="0.92.4 (5da689c313, 2019-01-14)">
  <metadata id="metadata10" color="#53b7ec" fill="#53b7ec">
    <rdf:RDF>
      <cc:Work rdf:about="">
        <dc:format>image/svg+xml</dc:format>
        <dc:type rdf:resource="http://purl.org/dc/dcmitype/StillImage"/>
        <dc:title/>
      </cc:Work>
    </rdf:RDF>
  </metadata>
  <defs id="defs8" color="#53b7ec" fill="#53b7ec"/>
  <sodipodi:namedview pagecolor="#ffffff" bordercolor="#666666" borderopacity="1" objecttolerance="10" gridtolerance="10" guidetolerance="10" inkscape:pageopacity="0" inkscape:pageshadow="2" inkscape:window-width="1920" inkscape:window-height="1051" id="namedview6" showgrid="false" inkscape:zoom="0.4609375" inkscape:cx="96" inkscape:cy="256" inkscape:window-x="0" inkscape:window-y="0" inkscape:window-maximized="1" inkscape:current-layer="svg4" color="#53b7ec" fill="#53b7ec"/>
  <path d="m 186,424.229 h 20 V 279.771 h -20 c -11.046,0 -20,-8.954 -20,-20 V 212 c 0,-11.046 8.954,-20 20,-20 h 112 c 11.046,0 20,8.954 20,20 v 212.229 h 20 c 11.046,0 20,8.954 20,20 V 492 c 0,11.046 -8.954,20 -20,20 H 186 c -11.046,0 -20,-8.954 -20,-20 v -47.771 c 0,-11.046 8.954,-20 20,-20 z M 262,0 c -39.765,0 -72,32.235 -72,72 0,39.765 32.235,72 72,72 39.765,0 72,-32.235 72,-72 C 334,32.235 301.764,0 262,0 Z" class="" id="path2" inkscape:connector-curvature="0" style="color:#53b7ec;fill:#53b7ec"/>
</svg>