<?xml version="1.0" encoding="UTF-8" standalone="no"?>
<svg
   xmlns:dc="http://purl.org/dc/elements/1.1/"
   xmlns:cc="http://creativecommons.org/ns#"
   xmlns:rdf="http://www.w3.org/1999/02/22-rdf-syntax-ns#"
   xmlns:svg="http://www.w3.org/2000/svg"
   xmlns="http://www.w3.org/2000/svg"
   xmlns:sodipodi="http://sodipodi.sourceforge.net/DTD/sodipodi-0.dtd"
   xmlns:inkscape="http://www.inkscape.org/namespaces/inkscape"
   inkscape:version="1.0alpha (9dee831, 2019-01-15)"
   sodipodi:docname="gnome-shutdown-symbolic.svg"
   id="svg4"
   version="1.1"
   class="svg-inline--fa fa-power-off fa-w-16 fa-9x"
   viewBox="0 0 512 512"
   role="img"
   data-icon="power-off"
   data-prefix="fas"
   focusable="false"
   aria-hidden="true">
  <metadata
     fill="#53b7ec"
     color="#53b7ec"
     id="metadata10">
    <rdf:RDF>
      <cc:Work
         rdf:about="">
        <dc:format>image/svg+xml</dc:format>
        <dc:type
           rdf:resource="http://purl.org/dc/dcmitype/StillImage" />
      </cc:Work>
    </rdf:RDF>
  </metadata>
  <defs
     fill="#53b7ec"
     color="#53b7ec"
     id="defs8" />
  <sodipodi:namedview
     inkscape:document-rotation="0"
     fill="#53b7ec"
     color="#53b7ec"
     inkscape:current-layer="svg4"
     inkscape:window-maximized="1"
     inkscape:window-y="0"
     inkscape:window-x="0"
     inkscape:cy="224.26755"
     inkscape:cx="344.68141"
     inkscape:zoom="1.3037281"
     showgrid="false"
     id="namedview6"
     inkscape:window-height="2131"
     inkscape:window-width="3840"
     inkscape:pageshadow="2"
     inkscape:pageopacity="0"
     guidetolerance="10"
     gridtolerance="10"
     objecttolerance="10"
     borderopacity="1"
     bordercolor="#666666"
     pagecolor="#ffffff" />
  <g
     transform="matrix(15.548509,0,0,15.548509,-331.76352,0.59650391)"
     id="system-shutdown">
    <path
       inkscape:connector-curvature="0"
       style="fill:#53b7ec;fill-opacity:1"
       fill="#53b7ec"
       d="m 37,4 v 9 h 2 V 4 h -1 z m 3,0.1699219 V 5.1914062 A 11,11 0 0 1 49,16 11,11 0 0 1 38,27 11,11 0 0 1 27,16 11,11 0 0 1 36,5.1894532 V 4.1816407 A 12,12 0 0 0 26,16 12,12 0 0 0 38,28 12,12 0 0 0 50,16 12,12 0 0 0 40,4.1699219 Z"
       class="ColorScheme-Text"
       id="path52" />
    <path
       inkscape:connector-curvature="0"
       fill="none"
       d="M 22,0 V 32 H 54 V 0 Z"
       id="path54" />
  </g>
</svg>
