<?xml version="1.0" encoding="UTF-8" standalone="no"?>
<svg
   xmlns:dc="http://purl.org/dc/elements/1.1/"
   xmlns:cc="http://creativecommons.org/ns#"
   xmlns:rdf="http://www.w3.org/1999/02/22-rdf-syntax-ns#"
   xmlns:svg="http://www.w3.org/2000/svg"
   xmlns="http://www.w3.org/2000/svg"
   xmlns:xlink="http://www.w3.org/1999/xlink"
   xmlns:sodipodi="http://sodipodi.sourceforge.net/DTD/sodipodi-0.dtd"
   xmlns:inkscape="http://www.inkscape.org/namespaces/inkscape"
   height="48"
   width="48"
   version="1.1"
   id="svg43"
   sodipodi:docname="org.kde.plasma.simplemenu-symbolic.svg"
   inkscape:version="1.0alpha (9dee831, 2019-01-15)">
  <metadata
     id="metadata49">
    <rdf:RDF>
      <cc:Work
         rdf:about="">
        <dc:format>image/svg+xml</dc:format>
        <dc:type
           rdf:resource="http://purl.org/dc/dcmitype/StillImage" />
      </cc:Work>
    </rdf:RDF>
  </metadata>
  <defs
     id="defs47" />
  <sodipodi:namedview
     pagecolor="#ffffff"
     bordercolor="#666666"
     inkscape:document-rotation="0"
     borderopacity="1"
     objecttolerance="10"
     gridtolerance="10"
     guidetolerance="10"
     inkscape:pageopacity="0"
     inkscape:pageshadow="2"
     inkscape:window-width="1833"
     inkscape:window-height="1285"
     id="namedview45"
     showgrid="false"
     inkscape:zoom="7.1668221"
     inkscape:cx="54.395833"
     inkscape:cy="37.272167"
     inkscape:window-x="684"
     inkscape:window-y="832"
     inkscape:window-maximized="0"
     inkscape:current-layer="svg43" />
  <linearGradient
     id="a">
    <stop
       offset="0"
       id="stop2" />
    <stop
       offset="1"
       stop-opacity="0"
       id="stop4" />
  </linearGradient>
  <linearGradient
     id="b"
     gradientUnits="userSpaceOnUse"
     x1="16"
     x2="34.942"
     xlink:href="#a"
     y1="11"
     y2="29.942" />
  <linearGradient
     id="c"
     gradientTransform="matrix(.70710678 .70710678 -.70710678 .70710678 0 0)"
     gradientUnits="userSpaceOnUse"
     x1="31.021"
     x2="43.104"
     xlink:href="#a"
     y1="-9.896"
     y2="-9.896" />
  <linearGradient
     id="d"
     gradientUnits="userSpaceOnUse"
     x1="23.716"
     x2="26.348"
     xlink:href="#a"
     y1="13.219"
     y2="15.851" />
  <linearGradient
     id="e"
     gradientTransform="matrix(1.0454421 0 0 1.0298842 46.076843 3.856842)"
     gradientUnits="userSpaceOnUse"
     x1="-45.221867"
     x2=".691726"
     y1="-4.91011"
     y2="41.697075">
    <stop
       offset="0"
       stop-color="#2bc0ff"
       id="stop10" />
    <stop
       offset="1"
       stop-color="#1d99f3"
       id="stop12" />
  </linearGradient>
  <path
     style="fill:#53b7ec;fill-opacity:1"
     d="m5.9999998-.00000914h36.0000012c3.600001 0 6.000001 2.40000654 6.000001 6.00000714v36c0 3.600002-2.4 6.000008-6.000001 6.000008h-36.0000012c-3.6000002 0-6.00000022-2.400006-6.00000022-6.000008v-36c0-3.6000006 2.40000002-6.00000714 6.00000022-6.00000714z"
     transform="matrix(.83333329 0 0 .83333329 4 4.000002)"
     id="path15" />
  <g
     transform="translate(-38 -2)"
     id="g29">
    <circle
       cx="24"
       cy="24"
       opacity=".539"
       r="7"
       id="circle17" />
    <circle
       cx="24"
       cy="24"
       opacity=".539"
       r="9"
       id="circle19" />
    <path
       d="m22.5 11c-.277 0-.5.223-.5.5l-1 4.5v8 8l1 4.5c0 .277.223.5.5.5h3c.277 0 .43991-.229596.5-.5l1-4.5v-8-8l-1-4.5c-.06009-.270404-.223-.5-.5-.5z"
       opacity=".539"
       id="path21" />
    <path
       d="m13.746952 15.868272c-.195869.195869-.195869.511238 0 .707107l2.474873 3.889087 5.656855 5.656854 5.656854 5.656855 3.889087 2.474873c.195869.195869.511238.195869.707107 0l2.12132-2.12132c.195869-.195869.148715-.473412 0-.707107l-2.474873-3.889087-5.656855-5.656854-5.656854-5.656855-3.889087-2.474873c-.233695-.148715-.511238-.195869-.707107 0z"
       opacity=".539"
       id="path23" />
    <path
       d="m34.235965 15.868272c.195869.195869.195869.511238 0 .707107l-2.474873 3.889087-5.656855 5.656854-5.656854 5.656855-3.889087 2.474873c-.195869.195869-.511238.195869-.707107 0l-2.12132-2.12132c-.195869-.195869-.148715-.473412 0-.707107l2.474873-3.889087 5.656855-5.656854 5.656854-5.656855 3.889087-2.474873c.233695-.148715.511238-.195869.707107 0z"
       opacity=".539"
       id="path25" />
    <path
       d="m37 22.5c0-.277-.223-.5-.5-.5l-4.5-1h-8-8l-4.5 1c-.277 0-.5.223-.5.5v3c0 .277.229596.43991.5.5l4.5 1h8 8l4.5-1c.270404-.06009.5-.223.5-.5z"
       opacity=".539"
       id="path27" />
  </g>
  <path
     d="m15.208984 14.617188c-.123062-.0059-.241909.03097-.339843.128906l-2.123047 2.123047c-.195869.195869-.195869.511162 0 .707031l2.193359 3.445312c-.175549.354193-.327571.719568-.455078 1.09375l-3.984375.884766c-.277 0-.5.223-.5.5v3c0 .277.229596.43991.5.5l3.986328.886719c.12346.370523.270907.732616.441406 1.083984l-2.197265 3.453125c-.148715.233695-.195869.511162 0 .707031l2.121093 2.123047c.19587.195869.511163.195869.707032 0l3.453125-2.199218c.357212.177942.725864.331927 1.103515.460937l.884766 3.984375c0 .277.223.5.5.5h3c.277 0 .43991-.229596.5-.5l.886719-3.986328c.376029-.125362.743365-.275428 1.099609-.449219l3.4375 2.189453c.195869.195869.511162.195869.707031 0l2.123047-2.123047c.195869-.195869.148715-.473336 0-.707031l-.9375-1.472656-.699218.279297-2.240235-3.359375c-1.128979 2.510379-3.624392 4.126092-6.376953 4.128906-3.865993 0-7-3.134007-7-7 .0031-2.700827 1.559779-5.15891 4-6.316406v-2.152344c-.336475.11516-.665829.250162-.986328.404297l-3.4375-2.189453c-.116848-.07436-.244125-.123012-.367188-.128906z"
     fill="#fff"
     id="path37" />
  <path
     d="m26 10-5 .462891v19.537109l5-1v-8l6 9 5-2-6.5-8.414062 6.503906-8.585938-5.236328-1-5.767578 8.5z"
     fill="#fff"
     id="path39" />
</svg>
