<svg xmlns:dc="http://purl.org/dc/elements/1.1/" xmlns:cc="http://creativecommons.org/ns#" xmlns:rdf="http://www.w3.org/1999/02/22-rdf-syntax-ns#" xmlns:svg="http://www.w3.org/2000/svg" xmlns="http://www.w3.org/2000/svg" xmlns:sodipodi="http://sodipodi.sourceforge.net/DTD/sodipodi-0.dtd" xmlns:inkscape="http://www.inkscape.org/namespaces/inkscape" aria-hidden="true" focusable="false" data-prefix="fas" data-icon="desktop" role="img" viewBox="0 0 576 512" class="svg-inline--fa fa-desktop fa-w-18 fa-9x" version="1.1" id="svg4" sodipodi:docname="mate-preferences-desktop-display-symbolic.svg" inkscape:version="0.92.4 (5da689c313, 2019-01-14)">
  <metadata id="metadata10" color="#53b7ec" fill="#53b7ec">
    <rdf:RDF>
      <cc:Work rdf:about="">
        <dc:format>image/svg+xml</dc:format>
        <dc:type rdf:resource="http://purl.org/dc/dcmitype/StillImage"/>
      </cc:Work>
    </rdf:RDF>
  </metadata>
  <defs id="defs8" color="#53b7ec" fill="#53b7ec"/>
  <sodipodi:namedview pagecolor="#ffffff" bordercolor="#666666" borderopacity="1" objecttolerance="10" gridtolerance="10" guidetolerance="10" inkscape:pageopacity="0" inkscape:pageshadow="2" inkscape:window-width="1920" inkscape:window-height="1051" id="namedview6" showgrid="false" inkscape:zoom="0.4609375" inkscape:cx="288" inkscape:cy="256" inkscape:window-x="0" inkscape:window-y="0" inkscape:window-maximized="1" inkscape:current-layer="svg4" color="#53b7ec" fill="#53b7ec"/>
  <path d="M 503.08475,30.237288 H 73.932203 c -23.692796,0 -42.915254,19.222458 -42.915254,42.915255 V 359.25424 c 0,23.69279 19.222458,42.91525 42.915254,42.91525 H 245.59322 l -14.30508,42.91526 h -64.37289 c -11.8911,0 -21.45762,9.56653 -21.45762,21.45762 0,11.8911 9.56652,21.45763 21.45762,21.45763 h 243.18644 c 11.8911,0 21.45763,-9.56653 21.45763,-21.45763 0,-11.89109 -9.56653,-21.45762 -21.45763,-21.45762 h -64.37287 l -14.3051,-42.91526 H 503.08475 C 526.77754,402.16949 546,382.94703 546,359.25424 V 73.152543 C 546,49.459746 526.77754,30.237288 503.08475,30.237288 Z M 488.77966,344.94915 H 88.237291 V 87.457628 H 488.77966 Z" class="" id="path2" inkscape:connector-curvature="0" style="color:#53b7ec;fill:#53b7ec;stroke-width:0.89406782"/>
</svg>