<svg xmlns:dc="http://purl.org/dc/elements/1.1/" xmlns:cc="http://creativecommons.org/ns#" xmlns:rdf="http://www.w3.org/1999/02/22-rdf-syntax-ns#" xmlns:svg="http://www.w3.org/2000/svg" xmlns="http://www.w3.org/2000/svg" xmlns:sodipodi="http://sodipodi.sourceforge.net/DTD/sodipodi-0.dtd" xmlns:inkscape="http://www.inkscape.org/namespaces/inkscape" aria-hidden="true" focusable="false" data-prefix="fas" data-icon="spinner" role="img" viewBox="0 0 512 512" class="svg-inline--fa fa-spinner fa-w-16 fa-9x" version="1.1" id="svg4" sodipodi:docname="preferences-system-splash-symbolic.svg" inkscape:version="0.92.4 (5da689c313, 2019-01-14)">
  <metadata id="metadata10" color="#53b7ec" fill="#53b7ec">
    <rdf:RDF>
      <cc:Work rdf:about="">
        <dc:format>image/svg+xml</dc:format>
        <dc:type rdf:resource="http://purl.org/dc/dcmitype/StillImage"/>
      </cc:Work>
    </rdf:RDF>
  </metadata>
  <defs id="defs8" color="#53b7ec" fill="#53b7ec"/>
  <sodipodi:namedview pagecolor="#ffffff" bordercolor="#666666" borderopacity="1" objecttolerance="10" gridtolerance="10" guidetolerance="10" inkscape:pageopacity="0" inkscape:pageshadow="2" inkscape:window-width="1920" inkscape:window-height="1051" id="namedview6" showgrid="false" inkscape:zoom="0.4609375" inkscape:cx="256" inkscape:cy="256" inkscape:window-x="0" inkscape:window-y="0" inkscape:window-maximized="1" inkscape:current-layer="svg4" color="#53b7ec" fill="#53b7ec"/>
  <path d="m 293.79661,75.08475 c 0,23.47707 -19.0314,42.50847 -42.50847,42.50847 -23.47708,0 -42.50848,-19.0314 -42.50848,-42.50847 0,-23.477081 19.0314,-42.508479 42.50848,-42.508479 23.47707,0 42.50847,19.031398 42.50847,42.508479 z m -42.50847,325.8983 c -23.47708,0 -42.50848,19.0314 -42.50848,42.50848 0,23.47707 19.0314,42.50847 42.50848,42.50847 23.47707,0 42.50847,-19.0314 42.50847,-42.50847 0,-23.47708 -19.0314,-42.50848 -42.50847,-42.50848 z M 435.49153,216.77966 c -23.47708,0 -42.50848,19.0314 -42.50848,42.50848 0,23.47707 19.0314,42.50847 42.50848,42.50847 23.47707,0 42.50847,-19.0314 42.50847,-42.50847 0,-23.47708 -19.0314,-42.50848 -42.50847,-42.50848 z m -325.89831,42.50848 c 0,-23.47708 -19.0314,-42.50848 -42.50847,-42.50848 -23.477081,0 -42.508479,19.0314 -42.508479,42.50848 0,23.47707 19.031398,42.50847 42.508479,42.50847 23.47707,0 42.50847,-19.0314 42.50847,-42.50847 z m 11.44364,87.7428 c -23.47708,0 -42.50848,19.0314 -42.50848,42.50848 0,23.47707 19.0314,42.50847 42.50848,42.50847 23.47707,0 42.50847,-19.0314 42.50847,-42.50847 0,-23.4762 -19.03228,-42.50848 -42.50847,-42.50848 z m 260.50256,0 c -23.47708,0 -42.50848,19.0314 -42.50848,42.50848 0,23.47707 19.0314,42.50847 42.50848,42.50847 23.47707,0 42.50847,-19.0314 42.50847,-42.50847 0,-23.4762 -19.0314,-42.50848 -42.50847,-42.50848 z M 121.03686,86.52838 c -23.47708,0 -42.50848,19.0314 -42.50848,42.50848 0,23.47707 19.0314,42.50847 42.50848,42.50847 23.47707,0 42.50847,-19.0314 42.50847,-42.50847 0,-23.47708 -19.03228,-42.50848 -42.50847,-42.50848 z" class="" id="path2" inkscape:connector-curvature="0" style="color:#53b7ec;fill:#53b7ec;stroke-width:0.88559324"/>
</svg>