<svg xmlns="http://www.w3.org/2000/svg" height="32" width="32">
    <style type="text/css" id="current-color-scheme" color="#53b7ec" fill="#53b7ec" style="">
        .ColorScheme-Text {
            color:#232629;
        }
        .ColorScheme-NegativeText {
            color:#da4453;
        }
    </style>
    <g class="ColorScheme-Text" fill="#53b7ec" color="#53b7ec" style="">
        <path d="M3 10v12h25v-3c.554 0 1-.446 1-1v-4c0-.554-.446-1-1-1v-3zm1 1h23v10H4z"/>
        <path d="M5 12h21v8H5z"/>
    </g>
    <rect class="ColorScheme-NegativeText" fill="#53b7ec" height="10" rx="1" width="10" x="22" y="16" color="#53b7ec" style=""/>
    <path d="M24.707 18l-.707.707L26.293 21 24 23.293l.707.707L27 21.707 29.293 24l.707-.707L27.707 21 30 18.707 29.293 18 27 20.293z" style="fill: #ffffff;"/>
</svg>