<?xml version="1.0" encoding="UTF-8" standalone="no"?>
<svg
   xmlns:dc="http://purl.org/dc/elements/1.1/"
   xmlns:cc="http://creativecommons.org/ns#"
   xmlns:rdf="http://www.w3.org/1999/02/22-rdf-syntax-ns#"
   xmlns:svg="http://www.w3.org/2000/svg"
   xmlns="http://www.w3.org/2000/svg"
   xmlns:sodipodi="http://sodipodi.sourceforge.net/DTD/sodipodi-0.dtd"
   xmlns:inkscape="http://www.inkscape.org/namespaces/inkscape"
   inkscape:version="1.0rc1 (09960d6, 2020-04-09)"
   height="512"
   width="512"
   sodipodi:docname="vcs-added-symbolic.svg"
   id="svg4"
   version="1.1"
   class="svg-inline--fa fa-plus fa-w-14 fa-9x"
   viewBox="0 0 512 512"
   role="img"
   data-icon="plus"
   data-prefix="fas"
   focusable="false"
   aria-hidden="true">
  <metadata
     id="metadata10">
    <rdf:RDF>
      <cc:Work
         rdf:about="">
        <dc:format>image/svg+xml</dc:format>
        <dc:type
           rdf:resource="http://purl.org/dc/dcmitype/StillImage" />
        <dc:title></dc:title>
      </cc:Work>
    </rdf:RDF>
  </metadata>
  <defs
     id="defs8" />
  <sodipodi:namedview
     inkscape:current-layer="svg4"
     inkscape:cy="293.62282"
     inkscape:cx="213.97528"
     inkscape:zoom="1.3964844"
     showgrid="false"
     id="namedview6"
     inkscape:window-height="480"
     inkscape:window-width="640"
     inkscape:pageshadow="2"
     inkscape:pageopacity="0"
     guidetolerance="10"
     gridtolerance="10"
     objecttolerance="10"
     borderopacity="1"
     bordercolor="#666666"
     pagecolor="#ffffff" />
  <path
     style="stroke-width:0.959821;fill:#008000"
     inkscape:connector-curvature="0"
     id="path2"
     d="M 440.28571,209.92857 H 302.07143 V 71.714286 C 302.07143,54.754241 288.31719,41 271.35714,41 h -30.71428 c -16.96005,0 -30.71429,13.754241 -30.71429,30.714286 V 209.92857 H 71.714286 C 54.754241,209.92857 41,223.68281 41,240.64286 v 30.71428 c 0,16.96005 13.754241,30.71429 30.714286,30.71429 H 209.92857 v 138.21428 c 0,16.96005 13.75424,30.71429 30.71429,30.71429 h 30.71428 c 16.96005,0 30.71429,-13.75424 30.71429,-30.71429 V 302.07143 H 440.28571 C 457.24576,302.07143 471,288.31719 471,271.35714 v -30.71428 c 0,-16.96005 -13.75424,-30.71429 -30.71429,-30.71429 z" />
</svg>
