<?xml version="1.0" encoding="UTF-8" standalone="no"?>
<svg
   xmlns:dc="http://purl.org/dc/elements/1.1/"
   xmlns:cc="http://creativecommons.org/ns#"
   xmlns:rdf="http://www.w3.org/1999/02/22-rdf-syntax-ns#"
   xmlns:svg="http://www.w3.org/2000/svg"
   xmlns="http://www.w3.org/2000/svg"
   xmlns:sodipodi="http://sodipodi.sourceforge.net/DTD/sodipodi-0.dtd"
   xmlns:inkscape="http://www.inkscape.org/namespaces/inkscape"
   aria-hidden="true"
   focusable="false"
   data-prefix="fas"
   data-icon="address-book"
   role="img"
   viewBox="0 0 512 512"
   class="svg-inline--fa fa-address-book fa-w-14 fa-9x"
   version="1.1"
   id="svg4"
   sodipodi:docname="x-office-address-book.svg"
   width="512"
   height="512"
   inkscape:version="1.0rc1 (09960d6, 2020-04-09)">
  <metadata
     id="metadata10">
    <rdf:RDF>
      <cc:Work
         rdf:about="">
        <dc:format>image/svg+xml</dc:format>
        <dc:type
           rdf:resource="http://purl.org/dc/dcmitype/StillImage" />
        <dc:title />
      </cc:Work>
    </rdf:RDF>
  </metadata>
  <defs
     id="defs8" />
  <sodipodi:namedview
     pagecolor="#ffffff"
     bordercolor="#666666"
     inkscape:document-rotation="0"
     borderopacity="1"
     objecttolerance="10"
     gridtolerance="10"
     guidetolerance="10"
     inkscape:pageopacity="0"
     inkscape:pageshadow="2"
     inkscape:window-width="1790"
     inkscape:window-height="1355"
     id="namedview6"
     showgrid="false"
     inkscape:zoom="0.8648078"
     inkscape:cx="130.08006"
     inkscape:cy="365.34152"
     inkscape:window-x="787"
     inkscape:window-y="616"
     inkscape:window-maximized="0"
     inkscape:current-layer="svg4" />
  <path
     fill="#787878"
     d="m 434.04687,175.375 c 5.54297,0 10.07813,-4.53516 10.07813,-10.07813 v -33.59375 c 0,-5.54297 -4.53516,-10.07812 -10.07813,-10.07812 H 417.25 V 81.312499 c 0,-22.25586 -18.05664,-40.312501 -40.3125,-40.312501 H 108.18749 c -22.255851,0 -40.312492,18.056641 -40.312492,40.312501 V 430.6875 c 0,22.25585 18.056641,40.3125 40.312492,40.3125 H 376.9375 c 22.25586,0 40.3125,-18.05665 40.3125,-40.3125 V 390.375 h 16.79687 c 5.54297,0 10.07813,-4.53515 10.07813,-10.07812 v -33.59375 c 0,-5.54297 -4.53516,-10.07813 -10.07813,-10.07813 H 417.25 v -53.75001 h 16.79687 c 5.54297,0 10.07813,-4.53515 10.07813,-10.07812 v -33.59375 c 0,-5.54297 -4.53516,-10.07812 -10.07813,-10.07812 H 417.25 v -53.75 z M 242.5625,148.49999 c 29.64648,0 53.75001,24.10353 53.75001,53.75001 0,29.64649 -24.10353,53.75 -53.75001,53.75 -29.64649,0 -53.75,-24.10351 -53.75,-53.75 0,-29.64648 24.10351,-53.75001 53.75,-53.75001 z M 336.625,347.375 c 0,8.90234 -8.39844,16.125 -18.8125,16.125 h -150.5 C 156.89844,363.5 148.5,356.27734 148.5,347.375 V 331.25 c 0,-26.70704 25.27929,-48.37501 56.4375,-48.37501 h 4.19922 c 10.33008,4.28322 21.58399,6.71876 33.42578,6.71876 11.8418,0 23.17969,-2.43554 33.42579,-6.71876 h 4.19922 c 31.15819,0 56.43749,21.66797 56.43749,48.37501 z"
     class=""
     id="path2"
     inkscape:connector-curvature="0"
     style="stroke-width:0.839844" />
</svg>
