<?xml version="1.0" encoding="UTF-8" standalone="no"?>
<svg
   xmlns:dc="http://purl.org/dc/elements/1.1/"
   xmlns:cc="http://creativecommons.org/ns#"
   xmlns:rdf="http://www.w3.org/1999/02/22-rdf-syntax-ns#"
   xmlns:svg="http://www.w3.org/2000/svg"
   xmlns="http://www.w3.org/2000/svg"
   xmlns:sodipodi="http://sodipodi.sourceforge.net/DTD/sodipodi-0.dtd"
   xmlns:inkscape="http://www.inkscape.org/namespaces/inkscape"
   inkscape:version="1.0rc1 (09960d6, 2020-04-09)"
   sodipodi:docname="preferences-system-windows-effect-flipswitch-symbolic.svg"
   id="svg4"
   version="1.1"
   class="svg-inline--fa fa-layer-group fa-w-16 fa-9x"
   viewBox="0 0 512 512"
   role="img"
   data-icon="layer-group"
   data-prefix="fas"
   focusable="false"
   aria-hidden="true">
  <metadata
     id="metadata10">
    <rdf:RDF>
      <cc:Work
         rdf:about="">
        <dc:format>image/svg+xml</dc:format>
        <dc:type
           rdf:resource="http://purl.org/dc/dcmitype/StillImage" />
        <dc:title></dc:title>
      </cc:Work>
    </rdf:RDF>
  </metadata>
  <defs
     id="defs8" />
  <sodipodi:namedview
     inkscape:current-layer="svg4"
     inkscape:cy="256"
     inkscape:cx="256"
     inkscape:zoom="1.3964844"
     showgrid="false"
     id="namedview6"
     inkscape:window-height="480"
     inkscape:window-width="640"
     inkscape:pageshadow="2"
     inkscape:pageopacity="0"
     guidetolerance="10"
     gridtolerance="10"
     objecttolerance="10"
     borderopacity="1"
     bordercolor="#666666"
     pagecolor="#ffffff" />
  <path
     style="stroke-width:0.839836"
     inkscape:connector-curvature="0"
     id="path2"
     class=""
     d="m 51.424459,165.31769 195.631291,88.74542 c 5.71088,2.5951 12.16922,2.5951 17.8801,0 l 195.63129,-88.74542 c 13.89928,-6.30716 13.89928,-27.31145 0,-33.61862 L 264.94425,42.945253 a 21.505669,21.505669 0 0 0 -17.8801,0 L 51.424459,131.69068 c -13.899279,6.30716 -13.899279,27.31985 0,33.62701 z M 460.57554,239.45837 411.78949,217.3455 276.03848,278.88026 c -6.34916,2.88063 -13.09304,4.34194 -20.03848,4.34194 -6.94544,0 -13.68092,-1.46131 -20.03848,-4.34194 L 100.2189,217.3455 51.424459,239.45837 c -13.899279,6.29877 -13.899279,27.29466 0,33.59343 l 195.631291,88.67823 c 5.71088,2.5867 12.16922,2.5867 17.8801,0 L 460.57554,273.0518 c 13.89928,-6.29877 13.89928,-27.29466 0,-33.59343 z m 0,107.33099 -48.60128,-22.02889 -135.93578,61.61874 c -6.34916,2.88063 -13.09304,4.34195 -20.03848,4.34195 -6.94544,0 -13.68092,-1.46132 -20.03848,-4.34195 L 100.03414,324.76047 51.424459,346.78936 c -13.899279,6.29876 -13.899279,27.29465 0,33.59342 l 195.631291,88.67824 c 5.71088,2.58669 12.16922,2.58669 17.8801,0 l 195.63969,-88.67824 c 13.89928,-6.29877 13.89928,-27.29466 0,-33.59342 z"
     fill="#787878"
     color="#787878" />
</svg>
