<?xml version="1.0" encoding="UTF-8" standalone="no"?>
<svg
   xmlns:dc="http://purl.org/dc/elements/1.1/"
   xmlns:cc="http://creativecommons.org/ns#"
   xmlns:rdf="http://www.w3.org/1999/02/22-rdf-syntax-ns#"
   xmlns:svg="http://www.w3.org/2000/svg"
   xmlns="http://www.w3.org/2000/svg"
   xmlns:sodipodi="http://sodipodi.sourceforge.net/DTD/sodipodi-0.dtd"
   xmlns:inkscape="http://www.inkscape.org/namespaces/inkscape"
   inkscape:version="1.0rc1 (09960d6, 2020-04-09)"
   height="512"
   width="512"
   sodipodi:docname="preferences-system-network-proxy-symbolic.svg"
   id="svg4"
   version="1.1"
   class="svg-inline--fa fa-project-diagram fa-w-20 fa-9x"
   viewBox="0 0 512 512"
   role="img"
   data-icon="project-diagram"
   data-prefix="fas"
   focusable="false"
   aria-hidden="true">
  <metadata
     id="metadata10">
    <rdf:RDF>
      <cc:Work
         rdf:about="">
        <dc:format>image/svg+xml</dc:format>
        <dc:type
           rdf:resource="http://purl.org/dc/dcmitype/StillImage" />
        <dc:title></dc:title>
      </cc:Work>
    </rdf:RDF>
  </metadata>
  <defs
     id="defs8" />
  <sodipodi:namedview
     inkscape:current-layer="svg4"
     inkscape:cy="256"
     inkscape:cx="320"
     inkscape:zoom="1.290625"
     showgrid="false"
     id="namedview6"
     inkscape:window-height="480"
     inkscape:window-width="640"
     inkscape:pageshadow="2"
     inkscape:pageopacity="0"
     guidetolerance="10"
     gridtolerance="10"
     objecttolerance="10"
     borderopacity="1"
     bordercolor="#666666"
     pagecolor="#ffffff" />
  <path
     style="stroke-width:0.671875"
     inkscape:connector-curvature="0"
     id="path2"
     class=""
     d="m 299,299 h -86 c -11.87203,0 -21.5,9.62797 -21.5,21.5 v 86 c 0,11.87203 9.62797,21.5 21.5,21.5 h 86 c 11.87203,0 21.5,-9.62797 21.5,-21.5 v -86 C 320.5,308.62797 310.87203,299 299,299 Z M 170,105.5 C 170,93.627969 160.37203,84 148.5,84 h -86 C 50.627969,84 41,93.627969 41,105.5 v 86 c 0,11.87203 9.627969,21.5 21.5,21.5 h 64.31188 l 49.15437,86.02687 C 183.42406,286.22094 197.14375,277.5 213,277.5 h 0.18812 L 170,201.92078 V 170 H 320.5 V 127 H 170 Z M 449.5,84 h -86 C 351.62797,84 342,93.627969 342,105.5 v 86 c 0,11.87203 9.62797,21.5 21.5,21.5 h 86 c 11.87203,0 21.5,-9.62797 21.5,-21.5 v -86 C 471,93.627969 461.37203,84 449.5,84 Z"
     fill="#787878" />
</svg>
