<?xml version="1.0" encoding="UTF-8" standalone="no"?>
<svg
   xmlns:dc="http://purl.org/dc/elements/1.1/"
   xmlns:cc="http://creativecommons.org/ns#"
   xmlns:rdf="http://www.w3.org/1999/02/22-rdf-syntax-ns#"
   xmlns:svg="http://www.w3.org/2000/svg"
   xmlns="http://www.w3.org/2000/svg"
   xmlns:sodipodi="http://sodipodi.sourceforge.net/DTD/sodipodi-0.dtd"
   xmlns:inkscape="http://www.inkscape.org/namespaces/inkscape"
   inkscape:version="1.0rc1 (09960d6, 2020-04-09)"
   sodipodi:docname="flashlight-off-symbolic.svg"
   id="svg9"
   version="1.1"
   width="16"
   viewBox="0 0 4.2333332 4.2333335"
   height="16">
  <metadata
     id="metadata15">
    <rdf:RDF>
      <cc:Work
         rdf:about="">
        <dc:format>image/svg+xml</dc:format>
        <dc:type
           rdf:resource="http://purl.org/dc/dcmitype/StillImage" />
      </cc:Work>
    </rdf:RDF>
  </metadata>
  <defs
     id="defs13" />
  <sodipodi:namedview
     inkscape:current-layer="svg9"
     inkscape:cy="8"
     inkscape:cx="8"
     inkscape:zoom="44.6875"
     showgrid="false"
     id="namedview11"
     inkscape:window-height="480"
     inkscape:window-width="640"
     inkscape:pageshadow="2"
     inkscape:pageopacity="0"
     guidetolerance="10"
     gridtolerance="10"
     objecttolerance="10"
     borderopacity="1"
     bordercolor="#666666"
     pagecolor="#ffffff" />
  <style
     style=""
     fill="#3498db"
     color="#3498db"
     id="current-color-scheme"
     type="text/css">.ColorScheme-Text{color:#232629;}.ColorScheme-NegativeText{color:#da4453;}</style>
  <g
     id="g7"
     style=""
     fill="#3498db"
     color="#3498db"
     transform="translate(0 -292.76666)">
    <path
       id="path3"
       transform="matrix(.26458333 0 0 .26458333 0 292.76666)"
       class="ColorScheme-Text"
       style="fill:#3498db;fill-opacity:1;stroke:none"
       d="m7.0273438 5 2.0039062 2h.96875v.96875l1 .9980469v-1.9667969c.356978-.6183307 1.016502-.9994331 1.730469-1h1.269531v4h-1.269531c-.333719-.000265-.652906-.090283-.9375-.2421875l1.24414 1.2421875h.962891 1v-6h-1-1.269531c-.851739.0015874-1.662651.3651528-2.230469 1h-1.5v-1zm-6.0273438 1v1 2 1h6.9824219l-1-1h-4.9824219v-2h2.9824219l-1-1z" />
    <path
       id="path5"
       class="ColorScheme-NegativeText"
       style="fill:#3498db;fill-opacity:1;stroke:none"
       d="m.52916667 293.48291.1870886-.18709 2.98791133 2.98106-.1870891.19394z" />
  </g>
</svg>
