<svg xmlns="http://www.w3.org/2000/svg" viewBox="0 0 16 16">
  <defs id="defs3051" color="#53b7ec" fill="#53b7ec" style="">
    <style type="text/css" id="current-color-scheme">
      .ColorScheme-Text {
        color:#232629;
      }
      .ColorScheme-Highlight {
        color:#3daee9;
      }
      </style>
  </defs>
  <path style="" d="M 2,2 2,7 7,7 7,2 2,2 Z M 9,2 9,7 14,7 14,2 9,2 Z M 3,3 6,3 6,6 3,6 3,3 Z m 7,0 3,0 0,3 -3,0 0,-3 z M 2,9 2,14 7,14 7,9 2,9 Z m 1,1 3,0 0,3 -3,0 0,-3 z" class="ColorScheme-Text" color="#53b7ec" fill="#53b7ec"/>
  <path style="" d="M 11.5,8 A 1.5,1.5 0 0 0 10,9.5 l 0,1.5 -1,0 0,3 5,0 0,-3 -1,0 0,-1.5 A 1.5,1.5 0 0 0 11.5,8 m 0,1 A 0.5,0.5 0 0 1 12,9.5 l 0,1.5 -1,0 0,-1.5 A 0.5,0.5 0 0 1 11.5,9" class="ColorScheme-Highlight" color="#53b7ec" fill="#53b7ec"/>
</svg>