<svg xmlns:dc="http://purl.org/dc/elements/1.1/" xmlns:cc="http://creativecommons.org/ns#" xmlns:rdf="http://www.w3.org/1999/02/22-rdf-syntax-ns#" xmlns:svg="http://www.w3.org/2000/svg" xmlns="http://www.w3.org/2000/svg" xmlns:sodipodi="http://sodipodi.sourceforge.net/DTD/sodipodi-0.dtd" xmlns:inkscape="http://www.inkscape.org/namespaces/inkscape" inkscape:version="1.0alpha (9dee831, 2019-01-15)" height="512" width="512" sodipodi:docname="folder-images-symbolic.svg" id="svg4" version="1.1" class="svg-inline--fa fa-file-image fa-w-12 fa-9x" viewBox="0 0 512 512" role="img" data-icon="file-image" data-prefix="fas" focusable="false" aria-hidden="true">
  <metadata id="metadata10" color="#53b7ec" fill="#53b7ec">
    <rdf:RDF>
      <cc:Work rdf:about="">
        <dc:format>image/svg+xml</dc:format>
        <dc:type rdf:resource="http://purl.org/dc/dcmitype/StillImage"/>
        <dc:title/>
      </cc:Work>
    </rdf:RDF>
  </metadata>
  <defs id="defs8" color="#53b7ec" fill="#53b7ec"/>
  <sodipodi:namedview inkscape:current-layer="svg4" inkscape:window-maximized="0" inkscape:window-y="0" inkscape:window-x="0" inkscape:cy="272.02023" inkscape:cx="172.13818" inkscape:zoom="1.3437791" showgrid="false" id="namedview6" inkscape:window-height="1585" inkscape:window-width="1959" inkscape:pageshadow="2" inkscape:pageopacity="0" guidetolerance="10" gridtolerance="10" objecttolerance="10" borderopacity="1" inkscape:document-rotation="0" bordercolor="#666666" pagecolor="#ffffff" color="#53b7ec" fill="#53b7ec"/>
  <path inkscape:connector-curvature="0" id="path2" color="#53b7ec" class="" d="M 452,121.941 V 128 H 324 V 0 h 6.059 a 24,24 0 0 1 16.97,7.029 L 444.97,104.97 A 24.002,24.002 0 0 1 452,121.941 Z M 316,160 c -13.2,0 -24,-10.8 -24,-24 V 0 H 92 C 78.745,0 68,10.745 68,24 v 464 c 0,13.255 10.745,24 24,24 h 336 c 13.255,0 24,-10.745 24,-24 V 160 Z m -135.455,16 c 26.51,0 48,21.49 48,48 0,26.51 -21.49,48 -48,48 -26.51,0 -48,-21.49 -48,-48 0,-26.51 21.491,-48 48,-48 z m 208,240 h -256 L 133.03,367.515 172.545,328 c 4.686,-4.686 11.799,-4.201 16.485,0.485 L 228.545,368 332.06,264.485 c 4.686,-4.686 12.284,-4.686 16.971,0 L 388.545,304 Z" fill="#53b7ec"/>
</svg>