<svg xmlns="http://www.w3.org/2000/svg" viewBox="0 0 16 16">
  <defs id="defs3051" color="#53b7ec" fill="#53b7ec" style="">
    <style type="text/css" id="current-color-scheme">
      .ColorScheme-Text {
        color:#232629;
      }
      .ColorScheme-Highlight {
        color:#3daee9;
      }
      </style>
  </defs>
  <path style="" d="m 3,2 0,3 10,0 0,-3 z m 1,1 8,0 0,1 -8,0 z m -1,5 0,6 7,0 3,-3 0,-3 -9,0 z m 1,1 8,0 0,1 -3,0 0,3 -5,0 z" class="ColorScheme-Text" color="#53b7ec" fill="#53b7ec"/>
  <path style="" d="M 2,6 2,7 4,7 4,6 2,6 Z M 7,6 7,7 9,7 9,6 7,6 Z m 5,0 0,1 2,0 0,-1 -2,0 z" class="ColorScheme-Highlight" color="#53b7ec" fill="#53b7ec"/>
</svg>