<svg xmlns="http://www.w3.org/2000/svg" viewBox="0 0 16 16">
  <defs id="defs3051" color="#53b7ec" fill="#53b7ec" style="">
    <style type="text/css" id="current-color-scheme">
      .ColorScheme-Text {
        color:#232629;
      }
      </style>
  </defs>
 <path style="" d="M8 2A3 3 0 0 0 5 5 3 3 0 0 0 8 8 3 3 0 0 0 11 5 3 3 0 0 0 8 2M8 3A2 2 0 0 1 10 5 2 2 0 0 1 8 7 2 2 0 0 1 6 5 2 2 0 0 1 8 3M8 9A5 4.5 0 0 0 3 13.5 5 4.5 0 0 0 3.033203 14H8V13H4.045A4 3.5 0 0 1 8 10zM11 9V11H9V12H11V14H12V12H14V11H12V9z" class="ColorScheme-Text" color="#53b7ec" fill="#53b7ec"/>
</svg>