<svg xmlns:rdf="http://www.w3.org/1999/02/22-rdf-syntax-ns#" xmlns="http://www.w3.org/2000/svg" xmlns:cc="http://creativecommons.org/ns#" xmlns:dc="http://purl.org/dc/elements/1.1/" id="svg3699" height="16" viewBox="0 0 16 16" width="16" version="1.1">

 <g id="layer1" transform="translate(0 -1036.4)" color="#53b7ec" fill="#53b7ec" style="">
  <path id="path4303" class="ColorScheme-Text" style="fill:currentColor" d="m5 2v2 5h1v-5h7v5h1v-5-2h-9zm-2.9141 7.3008l-0.707 0.7072 1.4141 1.414-1.4141 1.414 0.707 0.707 1.4141-1.414 1.4141 1.414 0.707-0.707-1.4141-1.414 1.4141-1.414-0.707-0.7072-1.4141 1.4142-1.4141-1.4142zm8.0001 0l-0.7071 0.7072 1.4141 1.414-1.4141 1.414 0.7071 0.707 1.414-1.414 1.414 1.414 0.707-0.707-1.414-1.414 1.414-1.414-0.707-0.7072-1.414 1.4142-1.414-1.4142z" transform="translate(0,1036.4)"/>
 </g>
</svg>