<svg xmlns:dc="http://purl.org/dc/elements/1.1/" xmlns:cc="http://creativecommons.org/ns#" xmlns:rdf="http://www.w3.org/1999/02/22-rdf-syntax-ns#" xmlns:svg="http://www.w3.org/2000/svg" xmlns="http://www.w3.org/2000/svg" xmlns:sodipodi="http://sodipodi.sourceforge.net/DTD/sodipodi-0.dtd" xmlns:inkscape="http://www.inkscape.org/namespaces/inkscape" aria-hidden="true" focusable="false" data-prefix="fas" data-icon="volume-down" role="img" viewBox="0 0 512 512" class="svg-inline--fa fa-volume-down fa-w-12 fa-9x" version="1.1" id="svg4" sodipodi:docname="alsamixergui.svg" width="512" height="512" inkscape:version="0.92.4 (5da689c313, 2019-01-14)">
  <metadata id="metadata10" color="#53b7ec" fill="#53b7ec">
    <rdf:RDF>
      <cc:Work rdf:about="">
        <dc:format>image/svg+xml</dc:format>
        <dc:type rdf:resource="http://purl.org/dc/dcmitype/StillImage"/>
        <dc:title/>
      </cc:Work>
    </rdf:RDF>
  </metadata>
  <defs id="defs8" color="#53b7ec" fill="#53b7ec"/>
  <sodipodi:namedview pagecolor="#ffffff" bordercolor="#666666" borderopacity="1" objecttolerance="10" gridtolerance="10" guidetolerance="10" inkscape:pageopacity="0" inkscape:pageshadow="2" inkscape:window-width="1920" inkscape:window-height="1051" id="namedview6" showgrid="false" inkscape:zoom="0.4609375" inkscape:cx="192" inkscape:cy="256" inkscape:window-x="0" inkscape:window-y="0" inkscape:window-maximized="1" inkscape:current-layer="svg4" color="#53b7ec" fill="#53b7ec"/>
  <path d="M 279.03,72.04 190.06,161 H 88 c -13.26,0 -24,10.74 -24,24 v 144 c 0,13.25 10.74,24 24,24 h 102.06 l 88.97,88.95 C 294.06,456.98 320,446.42 320,424.98 V 89.02 C 320,67.55 294.04,57.04 279.03,72.04 Z m 123.2,108.08 c -11.58,-6.33 -26.19,-2.16 -32.61,9.45 -6.39,11.61 -2.16,26.2 9.45,32.61 12.91,7.1 20.93,20.44 20.93,34.82 0,14.38 -8.02,27.72 -20.92,34.81 -11.61,6.41 -15.84,21 -9.45,32.61 6.43,11.66 21.05,15.8 32.61,9.45 28.23,-15.55 45.77,-45 45.77,-76.88 0,-31.88 -17.54,-61.32 -45.78,-76.87 z" class="" id="path2" inkscape:connector-curvature="0" style="color:#53b7ec;fill:#53b7ec"/>
</svg>