<?xml version="1.0" encoding="UTF-8" standalone="no"?>
<svg
   xmlns:dc="http://purl.org/dc/elements/1.1/"
   xmlns:cc="http://creativecommons.org/ns#"
   xmlns:rdf="http://www.w3.org/1999/02/22-rdf-syntax-ns#"
   xmlns:svg="http://www.w3.org/2000/svg"
   xmlns="http://www.w3.org/2000/svg"
   xmlns:sodipodi="http://sodipodi.sourceforge.net/DTD/sodipodi-0.dtd"
   xmlns:inkscape="http://www.inkscape.org/namespaces/inkscape"
   inkscape:version="1.0rc1 (09960d6, 2020-04-09)"
   sodipodi:docname="tag-folder-symbolic.svg"
   id="svg4"
   version="1.1"
   class="svg-inline--fa fa-envelope fa-w-16 fa-9x"
   viewBox="0 0 512 512"
   role="img"
   data-icon="envelope"
   data-prefix="fas"
   focusable="false"
   aria-hidden="true">
  <metadata
     id="metadata10">
    <rdf:RDF>
      <cc:Work
         rdf:about="">
        <dc:format>image/svg+xml</dc:format>
        <dc:type
           rdf:resource="http://purl.org/dc/dcmitype/StillImage" />
      </cc:Work>
    </rdf:RDF>
  </metadata>
  <defs
     id="defs8" />
  <sodipodi:namedview
     inkscape:current-layer="svg4"
     inkscape:cy="256"
     inkscape:cx="256"
     inkscape:zoom="1.3964844"
     showgrid="false"
     id="namedview6"
     inkscape:window-height="480"
     inkscape:window-width="640"
     inkscape:pageshadow="2"
     inkscape:pageopacity="0"
     guidetolerance="10"
     gridtolerance="10"
     objecttolerance="10"
     borderopacity="1"
     bordercolor="#666666"
     pagecolor="#ffffff" />
  <path
     inkscape:connector-curvature="0"
     id="path2"
     style="stroke-width:0.840495"
     class=""
     d="M 462.85352,201.15729 C 466.12891,198.54974 471,200.98906 471,205.11068 V 377.125 c 0,22.29036 -18.05664,40.375 -40.3125,40.375 H 81.3125 C 59.056641,417.5 41,399.41536 41,377.125 V 205.19479 c 0,-4.20573 4.787109,-6.56094 8.146484,-3.95338 18.8125,14.63593 43.75586,33.22526 129.419926,95.55416 17.7207,12.95365 47.61914,40.20677 77.43359,40.03854 29.98242,0.25235 60.46875,-27.58958 77.51758,-40.03854 85.66406,-62.3289 110.52344,-81.00234 129.33594,-95.63828 z M 256,309.83333 c 19.48437,0.33646 47.53516,-24.56145 61.64453,-34.82343 C 429.0918,194.00755 437.57422,186.94193 463.27344,166.75443 468.14453,162.96927 471,157.08125 471,150.85677 V 134.875 C 471,112.58464 452.94336,94.5 430.6875,94.5 H 81.3125 C 59.056641,94.5 41,112.58464 41,134.875 v 15.98177 c 0,6.22448 2.855469,12.02839 7.726562,15.89766 25.699219,20.10338 34.181641,27.25312 145.628908,108.25547 14.10937,10.26198 42.16015,35.15989 61.64453,34.82343 z"
     fill="#53b7ec"
     color="#53b7ec" />
</svg>
