<?xml version="1.0" encoding="UTF-8" standalone="no"?>
<svg
   xmlns:dc="http://purl.org/dc/elements/1.1/"
   xmlns:cc="http://creativecommons.org/ns#"
   xmlns:rdf="http://www.w3.org/1999/02/22-rdf-syntax-ns#"
   xmlns:svg="http://www.w3.org/2000/svg"
   xmlns="http://www.w3.org/2000/svg"
   xmlns:sodipodi="http://sodipodi.sourceforge.net/DTD/sodipodi-0.dtd"
   xmlns:inkscape="http://www.inkscape.org/namespaces/inkscape"
   width="512"
   height="512"
   version="1.1"
   id="svg8"
   sodipodi:docname="drive-harddisk-encrypted-symbolic.svg"
   inkscape:version="1.0rc1 (09960d6, 2020-04-09)">
  <metadata
     fill="#53b7ec"
     color="#53b7ec"
     id="metadata14">
    <rdf:RDF>
      <cc:Work
         rdf:about="">
        <dc:format>image/svg+xml</dc:format>
        <dc:type
           rdf:resource="http://purl.org/dc/dcmitype/StillImage" />
        <dc:title></dc:title>
      </cc:Work>
    </rdf:RDF>
  </metadata>
  <defs
     fill="#53b7ec"
     color="#53b7ec"
     id="defs12" />
  <sodipodi:namedview
     fill="#53b7ec"
     color="#53b7ec"
     pagecolor="#ffffff"
     bordercolor="#666666"
     inkscape:document-rotation="0"
     borderopacity="1"
     objecttolerance="10"
     gridtolerance="10"
     guidetolerance="10"
     inkscape:pageopacity="0"
     inkscape:pageshadow="2"
     inkscape:window-width="2199"
     inkscape:window-height="1189"
     id="namedview10"
     showgrid="false"
     inkscape:zoom="0.38265066"
     inkscape:cx="-359.24833"
     inkscape:cy="866.43139"
     inkscape:window-x="424"
     inkscape:window-y="708"
     inkscape:window-maximized="0"
     inkscape:current-layer="svg8" />
  <path
     style="stroke-width:0.746528"
     inkscape:connector-curvature="0"
     id="path2-3"
     class=""
     d="M 471,291.83334 V 363.5 c 0,19.79044 -16.04288,35.83334 -35.83333,35.83334 H 76.83334 C 57.04288,399.33334 41,383.29044 41,363.5 V 291.83334 C 41,272.04288 57.04288,256 76.83334,256 H 435.16667 C 454.95712,256 471,272.04288 471,291.83334 Z M 435.16667,232.1111 a 59.39151,59.39151 0 0 1 22.97588,4.60235 L 386.08247,128.62295 A 35.835573,35.835573 0 0 0 356.26689,112.66666 H 155.73311 a 35.833333,35.833333 0 0 0 -29.81483,15.95629 l -72.06083,108.0905 a 59.39151,59.39151 0 0 1 22.97589,-4.60235 z m -35.83334,71.66668 c -13.19338,0 -23.88889,10.69549 -23.88889,23.88888 0,13.19339 10.69551,23.8889 23.88889,23.8889 13.19339,0 23.88889,-10.69551 23.88889,-23.8889 0,-13.19339 -10.6955,-23.88888 -23.88889,-23.88888 z m -71.66666,0 c -13.19339,0 -23.88889,10.69549 -23.88889,23.88888 0,13.19339 10.6955,23.8889 23.88889,23.8889 13.19338,0 23.88889,-10.69551 23.88889,-23.8889 0,-13.19339 -10.69551,-23.88888 -23.88889,-23.88888 z"
     fill="#53b7ec" />
  <path
     style="fill:#ff0000;stroke-width:0.469213"
     inkscape:connector-curvature="0"
     id="path2"
     class=""
     d="m 187.68473,240.98521 h -11.2611 v -33.78328 c 0,-39.31994 -32.00023,-71.32016 -71.32018,-71.32016 -39.31995,0 -71.32023,32.00022 -71.32023,71.32016 v 33.78328 H 22.52218 C 10.08806,240.98521 0,251.07325 0,263.50737 v 90.08869 c 0,12.4341 10.08806,22.52217 22.52218,22.52217 h 165.16255 c 12.4341,0 22.52217,-10.08807 22.52217,-22.52217 v -90.08869 c 0,-12.43412 -10.08807,-22.52216 -22.52217,-22.52216 z m -48.79803,0 H 71.32018 v -33.78328 c 0,-18.62766 15.15556,-33.78323 33.78327,-33.78323 18.62771,0 33.78325,15.15557 33.78325,33.78323 z" />
</svg>
