<?xml version="1.0" encoding="UTF-8" standalone="no"?>
<svg
   xmlns:dc="http://purl.org/dc/elements/1.1/"
   xmlns:cc="http://creativecommons.org/ns#"
   xmlns:rdf="http://www.w3.org/1999/02/22-rdf-syntax-ns#"
   xmlns:svg="http://www.w3.org/2000/svg"
   xmlns="http://www.w3.org/2000/svg"
   xmlns:sodipodi="http://sodipodi.sourceforge.net/DTD/sodipodi-0.dtd"
   xmlns:inkscape="http://www.inkscape.org/namespaces/inkscape"
   inkscape:version="1.0rc1 (09960d6, 2020-04-09)"
   sodipodi:docname="network-wireless-connected-00-symbolic.svg"
   id="svg8"
   version="1.1"
   viewBox="0 0 16 16">
  <metadata
     id="metadata12">
    <rdf:RDF>
      <cc:Work
         rdf:about="">
        <dc:format>image/svg+xml</dc:format>
        <dc:type
           rdf:resource="http://purl.org/dc/dcmitype/StillImage" />
      </cc:Work>
    </rdf:RDF>
  </metadata>
  <sodipodi:namedview
     inkscape:current-layer="svg8"
     inkscape:cy="8"
     inkscape:cx="8"
     inkscape:zoom="44.6875"
     showgrid="false"
     id="namedview10"
     inkscape:window-height="480"
     inkscape:window-width="640"
     inkscape:pageshadow="2"
     inkscape:pageopacity="0"
     guidetolerance="10"
     gridtolerance="10"
     objecttolerance="10"
     borderopacity="1"
     bordercolor="#666666"
     pagecolor="#ffffff" />
  <defs
     style=""
     fill="#53b7ec"
     color="#53b7ec"
     id="defs3051">
    <style
       id="current-color-scheme"
       type="text/css">
      .ColorScheme-Text {
        color:#232629;
      }
      .ColorScheme-NegativeText {
        color:#da4453;
      }
      </style>
  </defs>
  <path
     id="path4"
     fill="#53b7ec"
     color="#53b7ec"
     class="ColorScheme-Text"
     d="M 8 2 C 5.1217226 2 2.4471588 2.8167177 0.16796875 4.2109375 L 0.79882812 4.9980469 C 2.902248 3.7369058 5.3590869 3 8 3 C 10.640918 3 13.097755 3.7369049 15.201172 4.9980469 L 15.832031 4.2109375 C 13.552841 2.8167214 10.878283 2 8 2 z M 8 5 C 5.8435991 5 3.8425681 5.6235825 2.1484375 6.6875 L 2.7792969 7.4726562 C 4.2984285 6.5437457 6.0817927 6 8 6 C 9.9182124 6 11.701572 6.5437532 13.220703 7.4726562 L 13.851562 6.6875 C 12.157435 5.623599 10.156407 5 8 5 z M 8 8 C 6.5661803 8 5.2366865 8.428369 4.1289062 9.1621094 L 4.7597656 9.9492188 C 5.693648 9.3502154 6.8034854 9 8 9 C 9.1965141 9 10.306354 9.3502173 11.240234 9.9492188 L 11.871094 9.1621094 C 10.763314 8.4283753 9.4338257 8 8 8 z M 8 11 A 1.5 1.5 0 0 0 6.5 12.5 A 1.5 1.5 0 0 0 8 14 A 1.5 1.5 0 0 0 9.5 12.5 A 1.5 1.5 0 0 0 8 11 z "
     style="opacity:0.3" />
  <path
     id="path6"
     fill="#53b7ec"
     color="#53b7ec"
     d="M 13 8 L 13 12 L 14 12 L 14 8 L 13 8 z M 13 13 L 13 14 L 14 14 L 14 13 L 13 13 z "
     class="ColorScheme-NegativeText"
     style="" />
</svg>
