<?xml version="1.0" encoding="UTF-8" standalone="no"?>
<svg
   xmlns:dc="http://purl.org/dc/elements/1.1/"
   xmlns:cc="http://creativecommons.org/ns#"
   xmlns:rdf="http://www.w3.org/1999/02/22-rdf-syntax-ns#"
   xmlns:svg="http://www.w3.org/2000/svg"
   xmlns="http://www.w3.org/2000/svg"
   xmlns:sodipodi="http://sodipodi.sourceforge.net/DTD/sodipodi-0.dtd"
   xmlns:inkscape="http://www.inkscape.org/namespaces/inkscape"
   inkscape:version="1.0rc1 (09960d6, 2020-04-09)"
   sodipodi:docname="phone-symbolic.svg"
   height="16.00005"
   id="svg7384"
   style="enable-background:new"
   version="1.1"
   width="16.000172">
  <metadata
     id="metadata18">
    <rdf:RDF>
      <cc:Work
         rdf:about="">
        <dc:format>image/svg+xml</dc:format>
        <dc:type
           rdf:resource="http://purl.org/dc/dcmitype/StillImage" />
      </cc:Work>
    </rdf:RDF>
  </metadata>
  <sodipodi:namedview
     inkscape:current-layer="svg7384"
     inkscape:cy="8.0000248"
     inkscape:cx="8.0000858"
     inkscape:zoom="44.687361"
     showgrid="false"
     id="namedview16"
     inkscape:window-height="480"
     inkscape:window-width="640"
     inkscape:pageshadow="2"
     inkscape:pageopacity="0"
     guidetolerance="10"
     gridtolerance="10"
     objecttolerance="10"
     borderopacity="1"
     bordercolor="#666666"
     pagecolor="#ffffff" />
  <title
     style=""
     fill="#53b7ec"
     color="#53b7ec"
     id="title8473">Gnome Symbolic Icons</title>
  <defs
     style=""
     fill="#53b7ec"
     color="#53b7ec"
     id="defs7386" />
  <g
     style=""
     fill="#53b7ec"
     color="#53b7ec"
     id="layer1"
     transform="translate(-311.99701,-347.99998)" />
  <g
     style=""
     fill="#53b7ec"
     color="#53b7ec"
     id="layer7"
     transform="translate(-311.99701,-347.99998)" />
  <g
     style=""
     fill="#53b7ec"
     color="#53b7ec"
     id="layer6"
     transform="translate(-311.99701,-347.99998)" />
  <g
     style=""
     fill="#53b7ec"
     color="#53b7ec"
     id="layer5"
     transform="translate(-311.99701,-347.99998)" />
  <g
     style=""
     fill="#53b7ec"
     color="#53b7ec"
     id="layer9"
     transform="translate(-311.99701,-347.99998)" />
  <g
     fill="#53b7ec"
     color="#53b7ec"
     id="layer2"
     transform="translate(-311.49799,-347.49996)">
    <path
       inkscape:connector-curvature="0"
       style="color:#000000;display:inline;overflow:visible;visibility:visible;fill-opacity:1;fill-rule:nonzero;stroke:none;stroke-width:1px;marker:none;enable-background:accumulate"
       id="path3793"
       d="m 315.99805,348 c -1.00916,0.005 -1,1 -1,1 v 12 c 0,0.006 0.002,0.01 0.002,0.0156 v 0.13672 c 0,1.02342 0.85663,1.84766 1.91992,1.84766 h 5.1582 c 1.06324,0 1.91993,-0.82424 1.91993,-1.84766 v -8.15234 c 0,-1.02342 -0.93671,-2 -2,-2 h -5 v -2 c 0,0 -0.009,-0.99447 -1,-1 z m 1.7539,5 h 3.4961 c 0.41622,0 0.75195,0.33573 0.75195,0.75195 v 1.4961 C 322,355.66427 321.66427,356 321.24805,356 h -3.4961 C 317.33573,356 317,355.66427 317,355.24805 v -1.4961 C 317,353.33573 317.33573,353 317.75195,353 Z M 317.5,358 h 1.14258 c 0.277,0 0.5,0.223 0.5,0.5 0,0.277 -0.223,0.5 -0.5,0.5 H 317.5 c -0.277,0 -0.5,-0.223 -0.5,-0.5 0,-0.277 0.223,-0.5 0.5,-0.5 z m 2.85742,0 H 321.5 c 0.277,0 0.5,0.223 0.5,0.5 0,0.277 -0.223,0.5 -0.5,0.5 h -1.14258 c -0.277,0 -0.5,-0.223 -0.5,-0.5 0,-0.277 0.223,-0.5 0.5,-0.5 z M 317.5,360 h 1.14258 c 0.277,0 0.5,0.223 0.5,0.5 0,0.277 -0.223,0.5 -0.5,0.5 H 317.5 c -0.277,0 -0.5,-0.223 -0.5,-0.5 0,-0.277 0.223,-0.5 0.5,-0.5 z m 2.85742,0 H 321.5 c 0.277,0 0.5,0.223 0.5,0.5 0,0.277 -0.223,0.5 -0.5,0.5 h -1.14258 c -0.277,0 -0.5,-0.223 -0.5,-0.5 0,-0.277 0.223,-0.5 0.5,-0.5 z" />
  </g>
  <g
     style=""
     fill="#53b7ec"
     color="#53b7ec"
     id="layer8"
     transform="translate(-311.99701,-347.99998)" />
  <g
     style=""
     fill="#53b7ec"
     color="#53b7ec"
     id="layer3"
     transform="translate(-311.99701,-347.99998)" />
  <g
     style=""
     fill="#53b7ec"
     color="#53b7ec"
     id="layer4"
     transform="translate(-311.99701,-347.99998)" />
  <g
     style=""
     fill="#53b7ec"
     color="#53b7ec"
     id="layer10"
     transform="translate(-311.99701,-411.99998)" />
</svg>
