<?xml version="1.0" encoding="UTF-8" standalone="no"?>
<svg
   xmlns:dc="http://purl.org/dc/elements/1.1/"
   xmlns:cc="http://creativecommons.org/ns#"
   xmlns:rdf="http://www.w3.org/1999/02/22-rdf-syntax-ns#"
   xmlns:svg="http://www.w3.org/2000/svg"
   xmlns="http://www.w3.org/2000/svg"
   xmlns:sodipodi="http://sodipodi.sourceforge.net/DTD/sodipodi-0.dtd"
   xmlns:inkscape="http://www.inkscape.org/namespaces/inkscape"
   inkscape:version="1.0rc1 (09960d6, 2020-04-09)"
   sodipodi:docname="phone-old-symbolic.svg"
   id="svg4"
   version="1.1"
   class="svg-inline--fa fa-phone-rotary fa-w-16 fa-9x"
   viewBox="0 0 512 512"
   role="img"
   data-icon="phone-rotary"
   data-prefix="fas"
   focusable="false"
   aria-hidden="true">
  <metadata
     id="metadata10">
    <rdf:RDF>
      <cc:Work
         rdf:about="">
        <dc:format>image/svg+xml</dc:format>
        <dc:type
           rdf:resource="http://purl.org/dc/dcmitype/StillImage" />
        <dc:title></dc:title>
      </cc:Work>
    </rdf:RDF>
  </metadata>
  <defs
     id="defs8" />
  <sodipodi:namedview
     inkscape:current-layer="svg4"
     inkscape:cy="256"
     inkscape:cx="256"
     inkscape:zoom="1.3964844"
     showgrid="false"
     id="namedview6"
     inkscape:window-height="480"
     inkscape:window-width="640"
     inkscape:pageshadow="2"
     inkscape:pageopacity="0"
     guidetolerance="10"
     gridtolerance="10"
     objecttolerance="10"
     borderopacity="1"
     bordercolor="#666666"
     pagecolor="#ffffff" />
  <path
     style="stroke-width:0.839843"
     inkscape:connector-curvature="0"
     id="path2"
     class=""
     d="M 352.10323,202.46001 A 53.749953,53.749953 0 0 0 305.43316,175.37507 H 206.56684 A 53.749953,53.749953 0 0 0 159.89676,202.46 L 71.419301,357.30187 a 26.874977,26.874977 0 0 0 -3.544137,13.3367 v 46.61129 a 26.874977,26.874977 0 0 0 26.874976,26.87497 h 322.49972 a 26.874977,26.874977 0 0 0 26.87497,-26.87497 V 370.63858 A 26.874977,26.874977 0 0 0 440.5807,357.30187 Z M 256,363.4999 A 60.468697,60.468697 0 1 1 316.46869,303.0312 60.468697,60.468697 0 0 1 256,363.4999 Z M 466.11192,144.30088 C 407.81002,95.589985 332.74485,67.875165 256,67.875165 c -76.74486,0 -151.81002,27.71482 -210.111927,76.425715 a 13.815418,13.815418 0 0 0 -4.887886,10.61561 v 47.33355 a 13.437488,13.437488 0 0 0 13.437489,13.43749 h 58.881394 a 13.437488,13.437488 0 0 0 12.01815,-7.43261 l 23.16287,-59.75483 C 182.00983,133.98761 218.37503,128.34386 256,128.34386 c 37.59977,0 73.96497,5.64375 107.4999,20.15624 l 23.16287,59.75483 a 13.437488,13.437488 0 0 0 12.01816,7.43261 h 58.88139 a 13.437488,13.437488 0 0 0 13.43749,-13.43749 V 154.9165 a 13.815418,13.815418 0 0 0 -4.88789,-10.61562 z"
     fill="#53b7ec" />
</svg>
