<?xml version="1.0" encoding="UTF-8" standalone="no"?>
<svg
   xmlns:dc="http://purl.org/dc/elements/1.1/"
   xmlns:cc="http://creativecommons.org/ns#"
   xmlns:rdf="http://www.w3.org/1999/02/22-rdf-syntax-ns#"
   xmlns:svg="http://www.w3.org/2000/svg"
   xmlns="http://www.w3.org/2000/svg"
   xmlns:sodipodi="http://sodipodi.sourceforge.net/DTD/sodipodi-0.dtd"
   xmlns:inkscape="http://www.inkscape.org/namespaces/inkscape"
   width="512"
   height="512"
   version="1.1"
   id="svg6"
   sodipodi:docname="video-single-display-symbolic.svg"
   inkscape:version="1.0rc1 (09960d6, 2020-04-09)">
  <metadata
     id="metadata12">
    <rdf:RDF>
      <cc:Work
         rdf:about="">
        <dc:format>image/svg+xml</dc:format>
        <dc:type
           rdf:resource="http://purl.org/dc/dcmitype/StillImage" />
        <dc:title />
      </cc:Work>
    </rdf:RDF>
  </metadata>
  <defs
     id="defs10" />
  <sodipodi:namedview
     inkscape:document-rotation="0"
     pagecolor="#ffffff"
     bordercolor="#666666"
     borderopacity="1"
     objecttolerance="10"
     gridtolerance="10"
     guidetolerance="10"
     inkscape:pageopacity="0"
     inkscape:pageshadow="2"
     inkscape:window-width="640"
     inkscape:window-height="480"
     id="namedview8"
     showgrid="false"
     inkscape:zoom="0.83986311"
     inkscape:cx="359.67435"
     inkscape:cy="469.48537"
     inkscape:current-layer="svg6" />
  <g
     id="g833">
    <rect
       y="96.790253"
       x="60.630562"
       height="253.2504"
       width="393.03958"
       id="rect830"
       style="opacity:0.7;fill:#53b7ec;fill-opacity:1;fill-rule:evenodd" />
    <path
       d="M 435.16667,64.888889 H 76.833333 C 57.050348,64.888889 41,80.939237 41,100.72222 v 238.88889 c 0,19.78298 16.050348,35.83333 35.833333,35.83333 H 220.16667 l -11.94445,35.83334 h -53.75 c -9.92882,0 -17.91666,7.98785 -17.91666,17.91666 0,9.92882 7.98784,17.91667 17.91666,17.91667 h 203.05555 c 9.92882,0 17.91667,-7.98785 17.91667,-17.91667 0,-9.92881 -7.98785,-17.91666 -17.91667,-17.91666 H 303.77778 L 291.83333,375.44444 H 435.16667 C 454.94965,375.44444 471,359.39409 471,339.61111 V 100.72222 C 471,80.939237 454.94965,64.888889 435.16667,64.888889 Z M 423.22222,327.66666 H 88.77778 V 112.66667 h 334.44444 z"
       class=""
       id="path2-3"
       inkscape:connector-curvature="0"
       style="color:#53b7ec;fill:#53b7ec;stroke-width:0.746528" />
  </g>
  <g
     fill="#53b7ec"
     color="#53b7ec"
     id="g4"
     transform="matrix(26.875,0,0,26.875,44.4375,9)"
     style="fill:#ffffff">
    <path
       d="m 7,5 h 2 v 6 H 7 V 7 H 6 V 6 C 6.475,5.922 6.82,5.608 7,5 Z"
       id="path2"
       inkscape:connector-curvature="0"
       style="opacity:1;fill:#ffffff"
       sodipodi:nodetypes="cccccccc" />
  </g>
</svg>
