<?xml version="1.0" encoding="UTF-8" standalone="no"?>

<svg

   xmlns:dc="http://purl.org/dc/elements/1.1/"

   xmlns:cc="http://creativecommons.org/ns#"

   xmlns:rdf="http://www.w3.org/1999/02/22-rdf-syntax-ns#"

   xmlns:svg="http://www.w3.org/2000/svg"

   xmlns="http://www.w3.org/2000/svg"

   xmlns:sodipodi="http://sodipodi.sourceforge.net/DTD/sodipodi-0.dtd"

   xmlns:inkscape="http://www.inkscape.org/namespaces/inkscape"

   aria-hidden="true"

   focusable="false"

   data-prefix="fas"

   data-icon="file-image"

   role="img"

   viewBox="0 0 512 512"

   class="svg-inline--fa fa-file-image fa-w-12 fa-9x"

   version="1.1"

   id="svg4"

   sodipodi:docname="video-x-mng-symbolic.svg"

   width="512"

   height="512"

   inkscape:version="1.0rc1 (09960d6, 2020-04-09)">

  <metadata

     fill="#53b7ec"

     color="#53b7ec"

     id="metadata10">

    <rdf:RDF>

      <cc:Work

         rdf:about="">

        <dc:format>image/svg+xml</dc:format>

        <dc:type

           rdf:resource="http://purl.org/dc/dcmitype/StillImage" />

        <dc:title />

      </cc:Work>

    </rdf:RDF>

  </metadata>

  <defs

     fill="#53b7ec"

     color="#53b7ec"

     id="defs8" />

  <sodipodi:namedview

     fill="#53b7ec"

     color="#53b7ec"

     pagecolor="#ffffff"

     bordercolor="#666666"

     inkscape:document-rotation="0"

     borderopacity="1"

     objecttolerance="10"

     gridtolerance="10"

     guidetolerance="10"

     inkscape:pageopacity="0"

     inkscape:pageshadow="2"

     inkscape:window-width="1959"

     inkscape:window-height="1585"

     id="namedview6"

     showgrid="false"

     inkscape:zoom="1.3437791"

     inkscape:cx="172.13818"

     inkscape:cy="272.02023"

     inkscape:window-x="0"

     inkscape:window-y="0"

     inkscape:window-maximized="0"

     inkscape:current-layer="svg4" />

  <path

     style="stroke-width:0.839844"

     fill="#53b7ec"

     d="M 417.25,143.41139 V 148.5 H 309.75 V 41 h 5.08861 a 20.15625,20.15625 0 0 1 14.25215,5.903262 L 411.3459,129.1584 a 20.15793,20.15793 0 0 1 5.9041,14.25299 z M 303.03125,175.375 c -11.08594,0 -20.15625,-9.07031 -20.15625,-20.15625 V 41 H 114.90625 C 103.77412,41 94.75,50.024121 94.75,61.15625 v 389.6875 C 94.75,461.97588 103.77412,471 114.90625,471 h 282.1875 C 408.22588,471 417.25,461.97588 417.25,450.84375 V 175.375 Z m -113.76104,13.4375 c 22.26426,0 40.3125,18.04824 40.3125,40.3125 0,22.26426 -18.04824,40.3125 -40.3125,40.3125 -22.26425,0 -40.3125,-18.04824 -40.3125,-40.3125 0,-22.26426 18.04909,-40.3125 40.3125,-40.3125 z m 174.6875,201.5625 h -215 l 0.40733,-40.71982 33.18642,-33.18643 c 3.93551,-3.93551 9.90932,-3.52818 13.84483,0.40732 l 33.18642,33.18643 86.93643,-86.93643 c 3.93551,-3.9355 10.31664,-3.9355 14.25299,0 l 33.18558,33.18643 z"

     class=""

     color="#53b7ec"

     id="path2"

     inkscape:connector-curvature="0" />

</svg>

