<?xml version="1.0" encoding="UTF-8" standalone="no"?>
<svg
   xmlns:dc="http://purl.org/dc/elements/1.1/"
   xmlns:cc="http://creativecommons.org/ns#"
   xmlns:rdf="http://www.w3.org/1999/02/22-rdf-syntax-ns#"
   xmlns:svg="http://www.w3.org/2000/svg"
   xmlns="http://www.w3.org/2000/svg"
   xmlns:sodipodi="http://sodipodi.sourceforge.net/DTD/sodipodi-0.dtd"
   xmlns:inkscape="http://www.inkscape.org/namespaces/inkscape"
   aria-hidden="true"
   focusable="false"
   data-prefix="fas"
   data-icon="file-spreadsheet"
   role="img"
   viewBox="0 0 512 512"
   class="svg-inline--fa fa-file-spreadsheet fa-w-12 fa-9x"
   version="1.1"
   id="svg4"
   sodipodi:docname="application-vnd.ms-excel-symbolic.svg"
   width="512"
   height="512"
   inkscape:version="1.0rc1 (09960d6, 2020-04-09)">
  <metadata
     id="metadata10">
    <rdf:RDF>
      <cc:Work
         rdf:about="">
        <dc:format>image/svg+xml</dc:format>
        <dc:type
           rdf:resource="http://purl.org/dc/dcmitype/StillImage" />
        <dc:title />
      </cc:Work>
    </rdf:RDF>
  </metadata>
  <defs
     id="defs8" />
  <sodipodi:namedview
     inkscape:document-rotation="0"
     pagecolor="#ffffff"
     bordercolor="#666666"
     borderopacity="1"
     objecttolerance="10"
     gridtolerance="10"
     guidetolerance="10"
     inkscape:pageopacity="0"
     inkscape:pageshadow="2"
     inkscape:window-width="640"
     inkscape:window-height="480"
     id="namedview6"
     showgrid="false"
     inkscape:zoom="1.3964844"
     inkscape:cx="192"
     inkscape:cy="256"
     inkscape:current-layer="svg4" />
  <path
     style="stroke-width:0.839844"
     fill="#53b7ec"
     d="m 343.34375,350.0625 h -40.3125 v 40.3125 h 40.3125 z m -67.1875,-67.1875 h -40.3125 v 40.3125 h 40.3125 z m 67.1875,0 h -40.3125 v 40.3125 h 40.3125 z m -67.1875,67.1875 h -40.3125 v 40.3125 h 40.3125 z M 282.875,155.21875 V 41 H 114.90625 C 103.73633,41 94.75,49.986328 94.75,61.15625 v 389.6875 C 94.75,462.01367 103.73633,471 114.90625,471 h 282.1875 C 408.26367,471 417.25,462.01367 417.25,450.84375 V 175.375 H 303.03125 c -11.08594,0 -20.15625,-9.07031 -20.15625,-20.15625 z m 87.34375,87.34375 v 161.25 c 0,7.42422 -6.01328,13.4375 -13.4375,13.4375 h -201.5625 c -7.42422,0 -13.4375,-6.01328 -13.4375,-13.4375 v -161.25 c 0,-7.42422 6.01328,-13.4375 13.4375,-13.4375 h 201.5625 c 7.42422,0 13.4375,6.01328 13.4375,13.4375 z M 411.37109,129.18359 329.15039,46.878906 C 325.37109,43.099609 320.24805,41 314.87305,41 H 309.75 v 107.5 h 107.5 v -5.12305 c 0,-5.29101 -2.09961,-10.41406 -5.87891,-14.19336 z M 208.96875,282.875 h -40.3125 v 40.3125 h 40.3125 z m 0,67.1875 h -40.3125 v 40.3125 h 40.3125 z"
     class=""
     id="path2"
     inkscape:connector-curvature="0" />
</svg>
