<?xml version="1.0" encoding="UTF-8" standalone="no"?>

<svg

   xmlns:dc="http://purl.org/dc/elements/1.1/"

   xmlns:cc="http://creativecommons.org/ns#"

   xmlns:rdf="http://www.w3.org/1999/02/22-rdf-syntax-ns#"

   xmlns:svg="http://www.w3.org/2000/svg"

   xmlns="http://www.w3.org/2000/svg"

   xmlns:sodipodi="http://sodipodi.sourceforge.net/DTD/sodipodi-0.dtd"

   xmlns:inkscape="http://www.inkscape.org/namespaces/inkscape"

   aria-hidden="true"

   focusable="false"

   data-prefix="fas"

   data-icon="file-alt"

   role="img"

   viewBox="0 0 512 512"

   class="svg-inline--fa fa-file-alt fa-w-12 fa-9x"

   version="1.1"

   id="svg4"

   sodipodi:docname="folder-documents-symbolic.svg"

   width="512"

   height="512"

   inkscape:version="1.0rc1 (09960d6, 2020-04-09)">

  <metadata

     id="metadata10">

    <rdf:RDF>

      <cc:Work

         rdf:about="">

        <dc:format>image/svg+xml</dc:format>

        <dc:type

           rdf:resource="http://purl.org/dc/dcmitype/StillImage" />

        <dc:title />

      </cc:Work>

    </rdf:RDF>

  </metadata>

  <defs

     id="defs8" />

  <sodipodi:namedview

     inkscape:document-rotation="0"

     pagecolor="#ffffff"

     bordercolor="#666666"

     borderopacity="1"

     objecttolerance="10"

     gridtolerance="10"

     guidetolerance="10"

     inkscape:pageopacity="0"

     inkscape:pageshadow="2"

     inkscape:window-width="640"

     inkscape:window-height="480"

     id="namedview6"

     showgrid="false"

     inkscape:zoom="0.8179893"

     inkscape:cx="-15.216011"

     inkscape:cy="304.12391"

     inkscape:current-layer="svg4" />

  <path

     style="stroke-width:0.839844"

     fill="#53b7ec"

     d="M 282.875,155.21875 V 41 H 114.90625 C 103.73633,41 94.75,49.986328 94.75,61.15625 v 389.6875 C 94.75,462.01367 103.73633,471 114.90625,471 h 282.1875 C 408.26367,471 417.25,462.01367 417.25,450.84375 V 175.375 H 303.03125 c -11.08594,0 -20.15625,-9.07031 -20.15625,-20.15625 z m 53.75,198.20312 c 0,5.54297 -4.53516,10.07813 -10.07813,10.07813 H 185.45312 c -5.54296,0 -10.07812,-4.53516 -10.07812,-10.07813 v -6.71875 c 0,-5.54296 4.53516,-10.07812 10.07812,-10.07812 h 141.09375 c 5.54297,0 10.07813,4.53516 10.07813,10.07812 z m 0,-53.75 c 0,5.54297 -4.53516,10.07813 -10.07813,10.07813 H 185.45312 c -5.54296,0 -10.07812,-4.53516 -10.07812,-10.07813 v -6.71875 c 0,-5.54296 4.53516,-10.07812 10.07812,-10.07812 h 141.09375 c 5.54297,0 10.07813,4.53516 10.07813,10.07812 z m 0,-60.46875 v 6.71875 C 336.625,251.46484 332.08984,256 326.54687,256 H 185.45312 c -5.54296,0 -10.07812,-4.53516 -10.07812,-10.07813 v -6.71875 c 0,-5.54296 4.53516,-10.07812 10.07812,-10.07812 h 141.09375 c 5.54297,0 10.07813,4.53516 10.07813,10.07812 z M 417.25,143.37695 V 148.5 H 309.75 V 41 h 5.12305 c 5.375,0 10.49804,2.099609 14.27734,5.878906 l 82.2207,82.304684 c 3.7793,3.7793 5.87891,8.90235 5.87891,14.19336 z"

     class=""

     id="path2"

     inkscape:connector-curvature="0" />

</svg>

