<?xml version="1.0" encoding="UTF-8" standalone="no"?>

<svg

   xmlns:dc="http://purl.org/dc/elements/1.1/"

   xmlns:cc="http://creativecommons.org/ns#"

   xmlns:rdf="http://www.w3.org/1999/02/22-rdf-syntax-ns#"

   xmlns:svg="http://www.w3.org/2000/svg"

   xmlns="http://www.w3.org/2000/svg"

   xmlns:sodipodi="http://sodipodi.sourceforge.net/DTD/sodipodi-0.dtd"

   xmlns:inkscape="http://www.inkscape.org/namespaces/inkscape"

   aria-hidden="true"

   focusable="false"

   data-prefix="fas"

   data-icon="file-powerpoint"

   role="img"

   viewBox="0 0 512 512"

   class="svg-inline--fa fa-file-powerpoint fa-w-12 fa-9x"

   version="1.1"

   id="svg4"

   sodipodi:docname="application-vnd.oasis.opendocument.presentation-symbolic.svg"

   width="512"

   height="512"

   inkscape:version="1.0rc1 (09960d6, 2020-04-09)">

  <metadata

     id="metadata10">

    <rdf:RDF>

      <cc:Work

         rdf:about="">

        <dc:format>image/svg+xml</dc:format>

        <dc:type

           rdf:resource="http://purl.org/dc/dcmitype/StillImage" />

        <dc:title />

      </cc:Work>

    </rdf:RDF>

  </metadata>

  <defs

     id="defs8" />

  <sodipodi:namedview

     inkscape:document-rotation="0"

     pagecolor="#ffffff"

     bordercolor="#666666"

     borderopacity="1"

     objecttolerance="10"

     gridtolerance="10"

     guidetolerance="10"

     inkscape:pageopacity="0"

     inkscape:pageshadow="2"

     inkscape:window-width="640"

     inkscape:window-height="480"

     id="namedview6"

     showgrid="false"

     inkscape:zoom="1.3964844"

     inkscape:cx="192"

     inkscape:cy="256"

     inkscape:current-layer="svg4" />

  <path

     style="stroke-width:0.839844"

     fill="#53b7ec"

     d="m 257.42773,268.76562 c 7.39063,0 13.01758,2.26758 17.04883,6.80274 8.0625,9.1543 8.23047,27.46289 -0.16797,37.03711 -4.11523,4.70312 -9.99414,7.13867 -17.7207,7.13867 h -22.5918 V 268.76562 Z M 411.37109,129.18359 329.06641,46.878906 C 325.28711,43.099609 320.16406,41 314.78906,41 H 309.75 v 107.5 h 107.5 v -5.12305 c 0,-5.29101 -2.09961,-10.41406 -5.87891,-14.19336 z M 282.875,155.21875 V 41 H 114.90625 C 103.73633,41 94.75,49.986328 94.75,61.15625 v 389.6875 C 94.75,462.01367 103.73633,471 114.90625,471 h 282.1875 C 408.26367,471 417.25,462.01367 417.25,450.84375 V 175.375 H 303.03125 c -11.08594,0 -20.15625,-9.07031 -20.15625,-20.15625 z m 44.51172,138.74219 c 0,75.83789 -74.57813,65.17187 -93.30664,65.17187 v 48.03906 c 0,5.54297 -4.53516,10.07813 -10.07813,10.07813 h -25.86718 c -5.54297,0 -10.07813,-4.53516 -10.07813,-10.07813 V 239.37109 c 0,-5.54297 4.53516,-10.07812 10.07813,-10.07812 h 68.02734 c 37.37305,0 61.22461,27.54687 61.22461,64.66797 z"

     class=""

     id="path2"

     inkscape:connector-curvature="0" />

</svg>

