<?xml version="1.0" encoding="UTF-8" standalone="no"?>
<svg
   xmlns:dc="http://purl.org/dc/elements/1.1/"
   xmlns:cc="http://creativecommons.org/ns#"
   xmlns:rdf="http://www.w3.org/1999/02/22-rdf-syntax-ns#"
   xmlns:svg="http://www.w3.org/2000/svg"
   xmlns="http://www.w3.org/2000/svg"
   xmlns:sodipodi="http://sodipodi.sourceforge.net/DTD/sodipodi-0.dtd"
   xmlns:inkscape="http://www.inkscape.org/namespaces/inkscape"
   inkscape:version="1.0rc1 (09960d6, 2020-04-09)"
   height="512"
   width="512"
   sodipodi:docname="application-x-java.svg"
   id="svg4"
   version="1.1"
   class="svg-inline--fa fa-java fa-w-12 fa-9x"
   viewBox="0 0 512 512"
   role="img"
   data-icon="java"
   data-prefix="fab"
   focusable="false"
   aria-hidden="true">
  <metadata
     id="metadata10">
    <rdf:RDF>
      <cc:Work
         rdf:about="">
        <dc:format>image/svg+xml</dc:format>
        <dc:type
           rdf:resource="http://purl.org/dc/dcmitype/StillImage" />
        <dc:title></dc:title>
      </cc:Work>
    </rdf:RDF>
  </metadata>
  <defs
     id="defs8" />
  <sodipodi:namedview
     inkscape:current-layer="svg4"
     inkscape:cy="256"
     inkscape:cx="192"
     inkscape:zoom="1.3964844"
     showgrid="false"
     id="namedview6"
     inkscape:window-height="480"
     inkscape:window-width="640"
     inkscape:pageshadow="2"
     inkscape:pageopacity="0"
     guidetolerance="10"
     gridtolerance="10"
     objecttolerance="10"
     borderopacity="1"
     bordercolor="#666666"
     pagecolor="#ffffff" />
  <path
     style="stroke-width:0.839833"
     inkscape:connector-curvature="0"
     id="path2"
     class=""
     d="m 328.26103,303.78363 c 8.23036,-5.62688 19.65208,-10.49791 19.65208,-10.49791 0,0 -32.50152,5.87883 -64.83508,8.5663 -39.55612,3.27534 -82.05165,3.94721 -103.3834,1.09178 -50.47394,-6.71866 27.71448,-25.27896 27.71448,-25.27896 0,0 -30.31796,-2.0156 -67.69051,15.95682 -44.091215,21.33175 109.17824,31.0738 188.54243,10.16197 z M 256.53932,276.825 c -15.95682,-35.86085 -69.79009,-67.35457 0,-122.44759 C 343.59637,85.679096 298.95087,41 298.95087,41 c 18.0564,70.96586 -63.49135,92.46557 -92.96948,136.55679 -20.072,30.14999 9.82605,62.48355 50.55793,99.26821 z m 96.24482,-147.97851 c 0.084,0 -147.13868,36.78467 -76.84469,117.74454 20.74387,23.85125 -5.45891,45.35096 -5.45891,45.35096 0,0 52.65751,-27.21058 28.47033,-61.2238 -22.5915,-31.74567 -39.89205,-47.53452 53.83327,-101.8717 z m -5.12298,227.17473 a 10.23756,10.23756 0 0 1 -1.67967,2.18357 c 107.75053,-28.30236 68.11043,-99.8561 16.62869,-81.71572 a 14.5543,14.5543 0 0 0 -6.88663,5.29095 59.166209,59.166209 0 0 1 9.23816,-2.5195 c 26.03481,-5.45891 63.40737,34.85305 -17.30055,76.7607 z m 39.60651,52.32158 c 0,0 12.17757,9.994 -13.35334,17.80445 -48.62631,14.69707 -202.2317,19.14818 -244.8952,0.58788 -15.36894,-6.63468 13.43732,-15.95682 22.50752,-17.88843 9.40612,-2.0156 14.86503,-1.67967 14.86503,-1.67967 -17.0486,-12.00961 -110.270022,23.5993 -47.36656,33.76127 171.52742,27.88245 312.75368,-12.5135 268.24255,-32.5855 z M 199.51468,373.57372 c -66.09483,18.47632 40.22799,56.60472 124.37922,20.5759 a 156.11649,156.11649 0 0 1 -23.68328,-11.58969 c -37.54052,7.13858 -54.92506,7.64248 -89.02226,3.77925 -28.1344,-3.19136 -11.67368,-12.76546 -11.67368,-12.76546 z m 151.00191,81.63174 c -66.09483,12.42952 -147.64258,11.0018 -195.93295,3.02339 0,-0.084 9.91002,8.14638 60.80388,11.42173 77.43257,4.95501 196.35287,-2.77145 199.12432,-39.38815 0,0 -5.37493,13.85724 -63.99525,24.94303 z m -36.6167,-117.74454 c -49.71809,9.57409 -78.52435,9.32214 -114.88911,5.5429 -28.13439,-2.93942 -9.74206,-16.54471 -9.74206,-16.54471 -72.89747,24.18718 40.47994,51.56573 142.35164,21.75167 a 50.700696,50.700696 0 0 1 -17.72047,-10.74986 z"
     fill="#53b7ec"
     color="#53b7ec" />
</svg>
