<?xml version="1.0" encoding="UTF-8" standalone="no"?>
<svg
   xmlns:dc="http://purl.org/dc/elements/1.1/"
   xmlns:cc="http://creativecommons.org/ns#"
   xmlns:rdf="http://www.w3.org/1999/02/22-rdf-syntax-ns#"
   xmlns:svg="http://www.w3.org/2000/svg"
   xmlns="http://www.w3.org/2000/svg"
   xmlns:sodipodi="http://sodipodi.sourceforge.net/DTD/sodipodi-0.dtd"
   xmlns:inkscape="http://www.inkscape.org/namespaces/inkscape"
   inkscape:version="1.0rc1 (09960d6, 2020-04-09)"
   height="512"
   width="512"
   sodipodi:docname="audio-mp2-symbolic.svg"
   id="svg4"
   version="1.1"
   class="svg-inline--fa fa-file-audio fa-w-12 fa-9x"
   viewBox="0 0 512 512"
   role="img"
   data-icon="file-audio"
   data-prefix="fas"
   focusable="false"
   aria-hidden="true">
  <metadata
     id="metadata10">
    <rdf:RDF>
      <cc:Work
         rdf:about="">
        <dc:format>image/svg+xml</dc:format>
        <dc:type
           rdf:resource="http://purl.org/dc/dcmitype/StillImage" />
        <dc:title></dc:title>
      </cc:Work>
    </rdf:RDF>
  </metadata>
  <defs
     id="defs8" />
  <sodipodi:namedview
     inkscape:current-layer="svg4"
     inkscape:cy="256"
     inkscape:cx="192"
     inkscape:zoom="1.3964844"
     showgrid="false"
     id="namedview6"
     inkscape:window-height="480"
     inkscape:window-width="640"
     inkscape:pageshadow="2"
     inkscape:pageopacity="0"
     guidetolerance="10"
     gridtolerance="10"
     objecttolerance="10"
     borderopacity="1"
     bordercolor="#666666"
     pagecolor="#ffffff" />
  <path
     style="stroke-width:0.839844"
     inkscape:connector-curvature="0"
     id="path2"
     class=""
     d="M 282.875,155.21875 V 41 H 114.90625 C 103.73633,41 94.75,49.986328 94.75,61.15625 v 389.6875 C 94.75,462.01367 103.73633,471 114.90625,471 h 282.1875 C 408.26367,471 417.25,462.01367 417.25,450.84375 V 175.375 H 303.03125 c -11.08594,0 -20.15625,-9.07031 -20.15625,-20.15625 z m -53.75,225.07812 c 0,8.98633 -10.83398,13.4375 -17.2168,7.13868 l -29.81445,-30.6543 h -23.51562 c -5.54297,0 -10.07813,-4.53516 -10.07813,-10.07813 v -47.03125 c 0,-5.54296 4.53516,-10.07812 10.07813,-10.07812 h 23.51562 l 29.81445,-30.6543 c 6.38282,-6.38281 17.2168,-1.84765 17.2168,7.13867 z m 27.88281,-39.97656 c 7.64258,-7.81054 7.64258,-20.24023 0,-28.05078 -18.56054,-19.14844 10.2461,-47.19922 28.89063,-28.13476 22.84375,23.43164 22.84375,60.80468 0,84.32031 -18.3086,18.72851 -47.78711,-8.73438 -28.89063,-28.13477 z m 72.22656,-98.3457 c 45.6875,46.94726 45.6875,121.60937 0,168.64062 -18.30859,18.8125 -47.87109,-8.65039 -28.89062,-28.13476 30.40234,-31.24219 30.48633,-81.04492 0,-112.3711 -18.56055,-19.14843 10.33008,-47.2832 28.89062,-28.13476 z M 417.25,143.37695 V 148.5 H 309.75 V 41 h 5.12305 c 5.375,0 10.49804,2.099609 14.27734,5.878906 l 82.2207,82.304684 c 3.7793,3.7793 5.87891,8.90235 5.87891,14.19336 z"
     fill="#53b7ec" />
</svg>
