<svg xmlns="http://www.w3.org/2000/svg" viewBox="0 0 16 16">
  <defs id="defs3051" color="#53b7ec" fill="#53b7ec" style="">
    <style type="text/css" id="current-color-scheme">
      .ColorScheme-Text {
        color:#232629;
      }
      </style>
  </defs>
 <path style="" d="m 2,14 0,-1 0,-4 0,-1 12,0 0,1 0,4 0,1 -12,0 z m 1,-1 1,0 0,-2 1,0 0,2 2,0 0,-2 1,0 0,2 2,0 0,-2 1,0 0,2 2,0 0,-4 -10,0 0,4 z M 5,7 2,5 5,3 5,7 Z m 6,0 0,-4 3,2 -3,2 z" class="ColorScheme-Text" color="#53b7ec" fill="#53b7ec"/>
</svg>