<svg xmlns="http://www.w3.org/2000/svg" viewBox="0 0 16 16">
  <defs id="defs3051" color="#53b7ec" fill="#53b7ec" style="">
    <style type="text/css" id="current-color-scheme">
      .ColorScheme-Text {
        color:#232629;
      }
      .ColorScheme-Highlight {
        color:#3daee9;
      }
      </style>
  </defs>
  <path style="" d="M 2 2 L 2 12 L 2 13 L 2 14 L 14 14 L 14 2 L 2 2 z " class="ColorScheme-Text" color="#53b7ec" fill="#53b7ec"/>
  <path style="" d="M 4 2 L 2 4 L 4 6 L 6 4 L 4 2 z M 6 4 L 8 6 L 10 4 L 8 2 L 6 4 z M 10 4 L 12 6 L 14 4 L 12 2 L 10 4 z M 12 6 L 10 8 L 12 10 L 14 8 L 12 6 z M 12 10 L 10 12 L 12 14 L 14 12 L 12 10 z M 10 12 L 8 10 L 6 12 L 8 14 L 10 12 z M 6 12 L 4 10 L 2 12 L 4 14 L 6 12 z M 4 10 L 6 8 L 4 6 L 2 8 L 4 10 z M 6 8 L 8 10 L 10 8 L 8 6 L 6 8 z " color="#53b7ec" fill="#53b7ec"/>
</svg>