<svg xmlns:dc="http://purl.org/dc/elements/1.1/" xmlns:cc="http://creativecommons.org/ns#" xmlns:rdf="http://www.w3.org/1999/02/22-rdf-syntax-ns#" xmlns:svg="http://www.w3.org/2000/svg" xmlns="http://www.w3.org/2000/svg" xmlns:sodipodi="http://sodipodi.sourceforge.net/DTD/sodipodi-0.dtd" xmlns:inkscape="http://www.inkscape.org/namespaces/inkscape" aria-hidden="true" focusable="false" data-prefix="fas" data-icon="palette" role="img" viewBox="0 0 512 512" class="svg-inline--fa fa-palette fa-w-16 fa-9x" version="1.1" id="svg4" sodipodi:docname="preferences-desktop-color-symbolic.svg" inkscape:version="0.92.4 (5da689c313, 2019-01-14)">
  <sodipodi:namedview pagecolor="#ffffff" bordercolor="#666666" borderopacity="1" objecttolerance="10" gridtolerance="10" guidetolerance="10" inkscape:pageopacity="0" inkscape:pageshadow="2" inkscape:window-width="1920" inkscape:window-height="1051" id="namedview6" showgrid="false" inkscape:zoom="0.4609375" inkscape:cx="256" inkscape:cy="256" inkscape:window-x="0" inkscape:window-y="0" inkscape:window-maximized="1" inkscape:current-layer="svg4" color="#53b7ec" fill="#53b7ec"/>
  <path d="M 212.19969,36.852062 C 123.75071,54.11474 52.475429,125.21206 35.034785,213.39409 2.111121,379.79207 152.22523,503.83419 265.32247,486.30457 c 36.66094,-5.69491 54.63548,-48.58465 37.81772,-81.5973 -20.55504,-40.39822 8.8093,-87.55915 54.19057,-87.55915 h 70.91935 c 31.85587,0 57.66091,-26.33893 57.74989,-58.10582 C 485.55509,118.80529 357.95364,8.466525 212.19969,36.852062 Z M 115.83124,317.14812 c -15.74997,0 -28.47452,-12.72455 -28.47452,-28.47452 0,-15.74997 12.72455,-28.47452 28.47452,-28.47452 15.74997,0 28.47452,12.72455 28.47452,28.47452 0,15.74997 -12.72455,28.47452 -28.47452,28.47452 z m 28.47452,-113.89808 c -15.74997,0 -28.47452,-12.72455 -28.47452,-28.47452 0,-15.74997 12.72455,-28.47452 28.47452,-28.47452 15.74997,0 28.47452,12.72455 28.47452,28.47452 0,15.74997 -12.72455,28.47452 -28.47452,28.47452 z M 258.20384,146.301 c -15.74997,0 -28.47452,-12.72455 -28.47452,-28.47452 0,-15.74997 12.72455,-28.47452 28.47452,-28.47452 15.74997,0 28.47452,12.72455 28.47452,28.47452 0,15.74997 -12.72455,28.47452 -28.47452,28.47452 z m 113.89808,56.94904 c -15.74997,0 -28.47452,-12.72455 -28.47452,-28.47452 0,-15.74997 12.72455,-28.47452 28.47452,-28.47452 15.74997,0 28.47452,12.72455 28.47452,28.47452 0,15.74997 -12.72455,28.47452 -28.47452,28.47452 z" class="" id="path2" color="#53b7ec" fill="#53b7ec" inkscape:connector-curvature="0" style="stroke-width:0.88982874"/>
</svg>