<svg xmlns:dc="http://purl.org/dc/elements/1.1/" xmlns:cc="http://creativecommons.org/ns#" xmlns:rdf="http://www.w3.org/1999/02/22-rdf-syntax-ns#" xmlns:svg="http://www.w3.org/2000/svg" xmlns="http://www.w3.org/2000/svg" xmlns:sodipodi="http://sodipodi.sourceforge.net/DTD/sodipodi-0.dtd" xmlns:inkscape="http://www.inkscape.org/namespaces/inkscape" aria-hidden="true" focusable="false" data-prefix="fas" data-icon="lightbulb" role="img" viewBox="0 0 512 512" class="svg-inline--fa fa-lightbulb fa-w-11 fa-9x" version="1.1" id="svg4" sodipodi:docname="preferences-system-power-symbolic.svg" inkscape:version="0.92.4 (5da689c313, 2019-01-14)" width="512" height="512">
  <metadata id="metadata10" color="#53b7ec" fill="#53b7ec">
    <rdf:RDF>
      <cc:Work rdf:about="">
        <dc:format>image/svg+xml</dc:format>
        <dc:type rdf:resource="http://purl.org/dc/dcmitype/StillImage"/>
        <dc:title/>
      </cc:Work>
    </rdf:RDF>
  </metadata>
  <defs id="defs8" color="#53b7ec" fill="#53b7ec"/>
  <sodipodi:namedview pagecolor="#ffffff" bordercolor="#666666" borderopacity="1" objecttolerance="10" gridtolerance="10" guidetolerance="10" inkscape:pageopacity="0" inkscape:pageshadow="2" inkscape:window-width="1920" inkscape:window-height="1051" id="namedview6" showgrid="false" inkscape:zoom="0.921875" inkscape:cx="189.58636" inkscape:cy="260.66438" inkscape:window-x="0" inkscape:window-y="0" inkscape:window-maximized="1" inkscape:current-layer="svg4" color="#53b7ec" fill="#53b7ec"/>
  <path d="m 178.06,454.35 c 0.01,6.29 1.87,12.45 5.36,17.69 l 17.09,25.69 a 31.99,31.99 0 0 0 26.64,14.28 h 61.71 a 31.99,31.99 0 0 0 26.64,-14.28 l 17.09,-25.69 a 31.989,31.989 0 0 0 5.36,-17.69 L 337.99,416 H 178.01 Z M 82,176 c 0,44.37 16.45,84.85 43.56,115.78 16.52,18.85 42.36,58.23 52.21,91.45 0.04,0.26 0.07,0.52 0.11,0.78 h 160.24 c 0.04,-0.26 0.07,-0.51 0.11,-0.78 9.85,-33.22 35.69,-72.6 52.21,-91.45 C 417.55,260.85 434,220.37 434,176 434,78.61 354.91,-0.3 257.45,0 155.44,0.31 82,82.97 82,176 Z M 258,96 c -44.11,0 -80,35.89 -80,80 0,8.84 -7.16,16 -16,16 -8.84,0 -16,-7.16 -16,-16 0,-61.76 50.24,-112 112,-112 8.84,0 16,7.16 16,16 0,8.84 -7.16,16 -16,16 z" class="" id="path2" inkscape:connector-curvature="0" style="color:#53b7ec;fill:#53b7ec"/>
</svg>