<svg xmlns:dc="http://purl.org/dc/elements/1.1/" xmlns:cc="http://creativecommons.org/ns#" xmlns:rdf="http://www.w3.org/1999/02/22-rdf-syntax-ns#" xmlns:svg="http://www.w3.org/2000/svg" xmlns="http://www.w3.org/2000/svg" xmlns:sodipodi="http://sodipodi.sourceforge.net/DTD/sodipodi-0.dtd" xmlns:inkscape="http://www.inkscape.org/namespaces/inkscape" width="64" height="64" version="1" id="svg18" sodipodi:docname="org.gnome.Keysign-symbolic.svg" inkscape:version="0.92.4 (5da689c313, 2019-01-14)">
  <metadata id="metadata24" color="#53b7ec" fill="#53b7ec">
    <rdf:RDF>
      <cc:Work rdf:about="">
        <dc:format>image/svg+xml</dc:format>
        <dc:type rdf:resource="http://purl.org/dc/dcmitype/StillImage"/>
      </cc:Work>
    </rdf:RDF>
  </metadata>
  <defs id="defs22" color="#53b7ec" fill="#53b7ec"/>
  <sodipodi:namedview pagecolor="#ffffff" bordercolor="#666666" borderopacity="1" objecttolerance="10" gridtolerance="10" guidetolerance="10" inkscape:pageopacity="0" inkscape:pageshadow="2" inkscape:window-width="1920" inkscape:window-height="1051" id="namedview20" showgrid="false" inkscape:zoom="3.6875" inkscape:cx="53.564612" inkscape:cy="26.847458" inkscape:window-x="0" inkscape:window-y="0" inkscape:window-maximized="1" inkscape:current-layer="svg18" color="#53b7ec" fill="#53b7ec"/>
  <g transform="matrix(3.8851426,0,0,3.8851426,-0.6765674,1.2828806)" style="color:#53b7ec;fill:#53b7ec" id="g4">
    <path inkscape:connector-curvature="0" d="M 13.63,0 C 10.305,0 9.682,4.735 11.552,4.735 13.422,4.735 16.954,0 13.629,0 Z M 8.11,4.148 C 9.105,4.208 10.198,0.348 8.327,0.591 6.456,0.834 7.114,4.087 8.11,4.148 Z M 3.547,6.547 C 4.255,6.235 3.637,3.187 2.434,4.017 1.23,4.849 2.839,6.858 3.547,6.547 Z M 5.542,4.95 C 6.385,4.779 6.432,1.321 4.928,1.941 3.424,2.561 4.7,5.123 5.542,4.951 Z m 4.402,7.739 c 0.15,1.142 -0.838,1.706 -1.805,0.97 -3.08,-2.344 5.097,-3.513 4.558,-6.716 -0.447,-2.658 -8.603,-1.84 -9.532,2.32 -0.628,2.813 2.588,6.716 5.944,6.716 1.651,0 3.556,-1.491 3.912,-3.38 0.272,-1.44 -3.202,-0.863 -3.077,0.09 z" id="path2-3"/>
  </g>
  <path inkscape:connector-curvature="0" style="opacity:0.2;fill:#ffffff" d="m 47.089232,4.866318 c -3.752446,0 -6.856725,1.505167 -9.210937,3.650391 C 36.550766,7.569599 35.01692,6.87178 33.477904,6.866318 33.02705,6.864718 32.60578,6.897338 32.210326,6.950298 h -0.002 C 30.524758,7.176002 28.990209,7.996816 27.67517,9.036236 L 24.472045,8.87608 c 0,0 -0.002,0 -0.002,0 -0.443345,-0.02216 -0.859846,-0.0052 -1.232422,0.03125 -0.860714,0.08429 -1.652527,0.291145 -2.376953,0.566406 -2.729654,1.037282 -5.066356,3.698929 -5.746093,6.28125 -0.04927,0.187178 -0.005,0.338209 -0.04297,0.521484 -0.618472,0.188477 -1.225142,0.406711 -1.759765,0.701172 v 0.002 c -2.363812,1.302716 -4.424011,4.366456 -4.507813,7.117188 -0.0089,0.292395 0.0018,0.569803 0.01758,0.84375 0.154204,-2.710028 2.17067,-5.682607 4.490234,-6.960938 v -0.002 c 0.534623,-0.294461 1.141293,-0.512695 1.759765,-0.701172 0.03792,-0.183275 -0.0063,-0.334306 0.04297,-0.521484 0.679737,-2.582321 3.016439,-5.243968 5.746093,-6.28125 0.724426,-0.275261 1.516239,-0.482112 2.376953,-0.566406 0.372576,-0.03648 0.789077,-0.05341 1.232422,-0.03125 0,0 0.002,0 0.002,0 l 3.203126,0.160156 c 1.315039,-1.03942 2.849588,-1.860234 4.533203,-2.085938 h 0.002 c 0.395407,-0.05296 0.816677,-0.08558 1.267531,-0.08398 1.539016,0.0055 3.072862,0.703282 4.400391,1.650391 2.354212,-2.145224 5.458491,-3.650391 9.210937,-3.650391 1.839962,0 3.775391,0.300252 5.636719,1.4375 1.861327,1.137249 3.319771,3.271395 3.777344,5.220703 0.168399,0.717418 0.237749,1.378609 0.265625,2.015625 0.05491,-0.920827 -0.0067,-1.912383 -0.265625,-3.015625 C 56.045724,9.575212 54.58728,7.441066 52.725953,6.303818 50.864625,5.16657 48.929196,4.866318 47.089234,4.866318 Z M 13.597046,33.78624 c -0.182686,0.448846 -0.357115,0.902303 -0.462891,1.40039 -0.290055,1.364751 -0.393377,2.707998 -0.353515,4.025391 0.02869,-0.995856 0.136474,-2.004184 0.353515,-3.025391 0.166596,-0.78448 0.50446,-1.45782 0.773438,-2.177734 -0.106486,-0.07147 -0.206258,-0.149139 -0.310547,-0.222656 z m 35.77539,0.599609 c -0.05173,2.792714 0.441498,5.420824 0.855468,7.947266 0.190959,1.171756 0.420641,2.43244 0.472657,3.701172 C 50.770421,44.43374 50.46903,42.8127 50.227904,41.333115 49.863598,39.109767 49.43572,36.809152 49.372436,34.385849 Z" id="path8"/>
  <g id="g45" transform="translate(-21.195628,18.284916)" color="#53b7ec" fill="#53b7ec">
    <circle id="circle12-6" r="16" cy="29.516949" cx="64.271187" style="opacity:0.2"/>
    <circle id="circle14" r="16" cy="28.516949" cx="64.271187" style="fill:#0093dd"/>
    <path id="path16" d="m 59.771186,21.516949 a 7.4999998,7.4999998 0 0 0 -7.5,7.5 7.4999998,7.4999998 0 0 0 7.5,7.5 7.4999998,7.4999998 0 0 0 7.339844,-6 h 4.160156 v 3 h 3 v -3 h 2 v -3 h -9.152344 a 7.4999998,7.4999998 0 0 0 -7.347656,-6 z m 0,3 a 4.4999998,4.4999998 0 0 1 4.5,4.5 4.4999998,4.4999998 0 0 1 -4.5,4.5 4.4999998,4.4999998 0 0 1 -4.5,-4.5 4.4999998,4.4999998 0 0 1 4.5,-4.5 z" style="fill:#ffffff" inkscape:connector-curvature="0"/>
  </g>
</svg>