<svg xmlns:dc="http://purl.org/dc/elements/1.1/" xmlns:cc="http://creativecommons.org/ns#" xmlns:rdf="http://www.w3.org/1999/02/22-rdf-syntax-ns#" xmlns:svg="http://www.w3.org/2000/svg" xmlns="http://www.w3.org/2000/svg" xmlns:sodipodi="http://sodipodi.sourceforge.net/DTD/sodipodi-0.dtd" xmlns:inkscape="http://www.inkscape.org/namespaces/inkscape" width="64" height="64" version="1" id="svg16" sodipodi:docname="org.gnome.tweaks.svg" inkscape:version="0.92.4 (5da689c313, 2019-01-14)">
  <metadata id="metadata22" color="#53b7ec" fill="#53b7ec">
    <rdf:RDF>
      <cc:Work rdf:about="">
        <dc:format>image/svg+xml</dc:format>
        <dc:type rdf:resource="http://purl.org/dc/dcmitype/StillImage"/>
      </cc:Work>
    </rdf:RDF>
  </metadata>
  <defs id="defs20" color="#53b7ec" fill="#53b7ec"/>
  <sodipodi:namedview pagecolor="#ffffff" bordercolor="#666666" borderopacity="1" objecttolerance="10" gridtolerance="10" guidetolerance="10" inkscape:pageopacity="0" inkscape:pageshadow="2" inkscape:window-width="1920" inkscape:window-height="1051" id="namedview18" showgrid="false" inkscape:zoom="3.6875" inkscape:cx="32" inkscape:cy="32" inkscape:window-x="0" inkscape:window-y="0" inkscape:window-maximized="1" inkscape:current-layer="svg16" color="#53b7ec" fill="#53b7ec"/>
  <g transform="matrix(3.8851426,0,0,3.8851426,-1.4767371,0.4165631)" style="color:#53b7ec;fill:#53b7ec" id="g4">
    <path inkscape:connector-curvature="0" d="M 13.63,0 C 10.305,0 9.682,4.735 11.552,4.735 13.422,4.735 16.954,0 13.629,0 Z M 8.11,4.148 C 9.105,4.208 10.198,0.348 8.327,0.591 6.456,0.834 7.114,4.087 8.11,4.148 Z M 3.547,6.547 C 4.255,6.235 3.637,3.187 2.434,4.017 1.23,4.849 2.839,6.858 3.547,6.547 Z M 5.542,4.95 C 6.385,4.779 6.432,1.321 4.928,1.941 3.424,2.561 4.7,5.123 5.542,4.951 Z m 4.402,7.739 c 0.15,1.142 -0.838,1.706 -1.805,0.97 -3.08,-2.344 5.097,-3.513 4.558,-6.716 -0.447,-2.658 -8.603,-1.84 -9.532,2.32 -0.628,2.813 2.588,6.716 5.944,6.716 1.651,0 3.556,-1.491 3.912,-3.38 0.272,-1.44 -3.202,-0.863 -3.077,0.09 z" id="path2-3"/>
  </g>
  <path style="opacity:0.2;fill:#ffffff" d="M 46.289062 4 C 42.536616 4 39.432337 5.5051667 37.078125 7.6503906 C 35.750596 6.7032813 34.21675 6.0054619 32.677734 6 C 32.22688 5.9984 31.80561 6.0310244 31.410156 6.0839844 L 31.408203 6.0839844 C 29.724588 6.309688 28.190039 7.1305022 26.875 8.1699219 L 23.671875 8.0097656 C 23.671875 8.0097656 23.669922 8.0097656 23.669922 8.0097656 C 23.226577 7.9876066 22.810076 8.0045356 22.4375 8.0410156 C 21.576786 8.1253096 20.784973 8.3321615 20.060547 8.6074219 C 17.330893 9.6447042 14.99419 12.306351 14.314453 14.888672 C 14.265183 15.07585 14.309404 15.226881 14.271484 15.410156 C 13.653012 15.598633 13.046342 15.816867 12.511719 16.111328 L 12.511719 16.113281 C 10.147907 17.415997 8.0877084 20.479737 8.0039062 23.230469 C 7.9949983 23.522864 8.0056666 23.800272 8.0214844 24.074219 C 8.1756891 21.364191 10.192155 18.391612 12.511719 17.113281 L 12.511719 17.111328 C 13.046342 16.816867 13.653012 16.598633 14.271484 16.410156 C 14.309404 16.226881 14.265183 16.07585 14.314453 15.888672 C 14.99419 13.306351 17.330893 10.644704 20.060547 9.6074219 C 20.784973 9.3321615 21.576786 9.1253096 22.4375 9.0410156 C 22.810076 9.0045356 23.226577 8.9876066 23.669922 9.0097656 C 23.669922 9.0097656 23.671875 9.0097656 23.671875 9.0097656 L 26.875 9.1699219 C 28.190039 8.1305022 29.724588 7.309688 31.408203 7.0839844 L 31.410156 7.0839844 C 31.80561 7.0310244 32.22688 6.9984 32.677734 7 C 34.21675 7.0054619 35.750596 7.7032813 37.078125 8.6503906 C 39.432337 6.5051667 42.536616 5 46.289062 5 C 48.129024 5 50.064453 5.3002517 51.925781 6.4375 C 53.787108 7.5747483 55.245552 9.7088945 55.703125 11.658203 C 55.871524 12.375621 55.940874 13.036812 55.96875 13.673828 C 56.023656 12.753001 55.962089 11.761445 55.703125 10.658203 C 55.245552 8.7088945 53.787108 6.5747483 51.925781 5.4375 C 50.064453 4.3002517 48.129024 4 46.289062 4 z M 12.796875 32.919922 C 12.614189 33.368768 12.43976 33.822225 12.333984 34.320312 C 12.043929 35.685063 11.940607 37.02831 11.980469 38.345703 C 12.009161 37.349847 12.116943 36.341519 12.333984 35.320312 C 12.50058 34.535832 12.838444 33.862492 13.107422 33.142578 C 13.000936 33.071113 12.901164 32.993439 12.796875 32.919922 z M 48.572266 33.519531 C 48.520538 36.312245 49.013764 38.940355 49.427734 41.466797 C 49.618693 42.638553 49.848375 43.899237 49.900391 45.167969 C 49.970254 43.567422 49.66886 41.946382 49.427734 40.466797 C 49.063428 38.243449 48.63555 35.942834 48.572266 33.519531 z" id="path8"/>
  <circle style="opacity:0.2" cx="39" cy="47" r="16" id="circle10"/>
  <circle style="fill:#cd4242" cx="39" cy="46" r="16" id="circle12"/>
  <path style="fill:#ffffff" d="m 36.927734,38 -0.175781,2.107422 a 6.2858,6.2858 0 0 0 -1.837891,1.0625 L 33,40.267578 l -2,3.464844 1.738281,1.207031 A 6.2858,6.2858 0 0 0 32.642578,46 a 6.2858,6.2858 0 0 0 0.0918,1.064453 L 31,48.269531 l 2,3.462891 1.910156,-0.898438 a 6.2858,6.2858 0 0 0 1.841797,1.054688 L 36.927734,54 h 4 l 0.177735,-2.105469 a 6.2858,6.2858 0 0 0 1.835937,-1.064453 l 1.916016,0.902344 2,-3.462891 -1.740234,-1.208984 A 6.2858,6.2858 0 0 0 45.214844,46 a 6.2858,6.2858 0 0 0 -0.0918,-1.064453 l 1.734375,-1.203125 -2,-3.462891 -1.91211,0.898438 a 6.2858,6.2858 0 0 0 -1.83984,-1.054688 L 40.929688,38 h -4 z M 39,43 a 3,3 0 0 1 3,3 3,3 0 0 1 -3,3 3,3 0 0 1 -3,-3 3,3 0 0 1 3,-3 z" id="path14" inkscape:connector-curvature="0"/>
</svg>