<?xml version="1.0" encoding="UTF-8" standalone="no"?>
<svg
   xmlns:dc="http://purl.org/dc/elements/1.1/"
   xmlns:cc="http://creativecommons.org/ns#"
   xmlns:rdf="http://www.w3.org/1999/02/22-rdf-syntax-ns#"
   xmlns:svg="http://www.w3.org/2000/svg"
   xmlns="http://www.w3.org/2000/svg"
   xmlns:xlink="http://www.w3.org/1999/xlink"
   xmlns:sodipodi="http://sodipodi.sourceforge.net/DTD/sodipodi-0.dtd"
   xmlns:inkscape="http://www.inkscape.org/namespaces/inkscape"
   inkscape:version="1.0alpha (9dee831, 2019-01-15)"
   sodipodi:docname="pattern-kde-addon-symbolic.svg"
   id="svg33"
   version="1.1"
   width="32"
   height="32">
  <metadata
     id="metadata39">
    <rdf:RDF>
      <cc:Work
         rdf:about="">
        <dc:format>image/svg+xml</dc:format>
        <dc:type
           rdf:resource="http://purl.org/dc/dcmitype/StillImage" />
      </cc:Work>
    </rdf:RDF>
  </metadata>
  <defs
     id="defs37" />
  <sodipodi:namedview
     inkscape:current-layer="svg33"
     inkscape:window-maximized="0"
     inkscape:window-y="0"
     inkscape:window-x="0"
     inkscape:cy="16"
     inkscape:cx="16"
     inkscape:zoom="30.40625"
     showgrid="false"
     id="namedview35"
     inkscape:window-height="1474"
     inkscape:window-width="2494"
     inkscape:pageshadow="2"
     inkscape:pageopacity="0"
     guidetolerance="10"
     gridtolerance="10"
     objecttolerance="10"
     borderopacity="1"
     inkscape:document-rotation="0"
     bordercolor="#666666"
     pagecolor="#ffffff" />
  <linearGradient
     id="a">
    <stop
       id="stop2"
       offset="0" />
    <stop
       id="stop4"
       stop-opacity="0"
       offset="1" />
  </linearGradient>
  <linearGradient
     y2="20.159"
     y1="6.9"
     xlink:href="#a"
     x2="23.659"
     x1="10.4"
     gradientUnits="userSpaceOnUse"
     id="c" />
  <linearGradient
     y2="-9.896"
     y1="-9.896"
     xlink:href="#a"
     x2="43.104"
     x1="31.021"
     gradientUnits="userSpaceOnUse"
     gradientTransform="rotate(45 .566 -1.366) scale(.7)"
     id="d" />
  <linearGradient
     y2="10.296"
     y1="8.453"
     xlink:href="#a"
     x2="17.644"
     x1="15.801"
     gradientUnits="userSpaceOnUse"
     id="e" />
  <linearGradient
     y2="40.365"
     y1="1.526"
     x2="-1.987"
     x1="-40.249"
     gradientUnits="userSpaceOnUse"
     gradientTransform="matrix(.7318 0 0 .72092 31.454 .9)"
     id="b">
    <stop
       id="stop10"
       stop-color="#21c9fb"
       offset="0" />
    <stop
       id="stop12"
       stop-color="#1a86f2"
       offset="1" />
  </linearGradient>
  <rect
     style="fill:#53b7ec;fill-opacity:1"
     id="rect15"
     y="2"
     x="2"
     width="28"
     ry="4"
     height="28" />
  <path
     id="path25"
     fill="#fff"
     d="M9.846 9.432a.305.305 0 0 0-.238.09l-1.486 1.486a.35.35 0 0 0 0 .495l1.536 2.412a6.3 6.3 0 0 0-.319.766L6.55 15.3a.35.35 0 0 0-.35.35v2.1c0 .194.16.308.35.35l2.79.62c.087.26.19.514.31.76l-1.54 2.416c-.104.163-.137.357 0 .495l1.485 1.486a.35.35 0 0 0 .495 0l2.417-1.54a6.3 6.3 0 0 0 .773.323l.619 2.789c0 .194.156.35.35.35h2.1c.194 0 .308-.16.35-.35l.62-2.79a6.3 6.3 0 0 0 .77-.315l2.407 1.533a.35.35 0 0 0 .495 0l1.486-1.486c.137-.138.104-.332 0-.495l-.657-1.031-.489.195-1.568-2.351A4.9 4.9 0 0 1 15.3 21.6a4.9 4.9 0 0 1-4.9-4.9 4.9 4.9 0 0 1 2.8-4.421v-1.507a6.3 6.3 0 0 0-.69.283l-2.407-1.533a.538.538 0 0 0-.257-.09z" />
  <path
     id="path27"
     fill="#fff"
     d="M17.4 6.2l-3.5.324V20.2l3.5-.7v-5.6l4.2 6.3 3.5-1.4-4.55-5.89 4.553-6.01-3.666-.7-4.037 5.95z" />
  <rect
     id="rect29"
     y="14"
     x="16"
     width="16"
     ry="2"
     height="16"
     fill="#eff0f1" />
  <path
     id="path31"
     fill="#232629"
     d="M23 16v5h-5v2h5v5h2v-5h5v-2h-5v-5z" />
</svg>
