<svg xmlns:dc="http://purl.org/dc/elements/1.1/" xmlns:cc="http://creativecommons.org/ns#" xmlns:rdf="http://www.w3.org/1999/02/22-rdf-syntax-ns#" xmlns:svg="http://www.w3.org/2000/svg" xmlns="http://www.w3.org/2000/svg" xmlns:sodipodi="http://sodipodi.sourceforge.net/DTD/sodipodi-0.dtd" xmlns:inkscape="http://www.inkscape.org/namespaces/inkscape" aria-hidden="true" focusable="false" data-prefix="fas" data-icon="bell" role="img" viewBox="0 0 512 512" class="svg-inline--fa fa-bell fa-w-14 fa-9x" version="1.1" id="svg4" sodipodi:docname="preferences-desktop-notification-bell-symbolic.svg" width="512" height="512" inkscape:version="0.92.4 (5da689c313, 2019-01-14)">
  <metadata id="metadata10" color="#53b7ec" fill="#53b7ec">
    <rdf:RDF>
      <cc:Work rdf:about="">
        <dc:format>image/svg+xml</dc:format>
        <dc:type rdf:resource="http://purl.org/dc/dcmitype/StillImage"/>
        <dc:title/>
      </cc:Work>
    </rdf:RDF>
  </metadata>
  <defs id="defs8" color="#53b7ec" fill="#53b7ec"/>
  <sodipodi:namedview pagecolor="#ffffff" bordercolor="#666666" borderopacity="1" objecttolerance="10" gridtolerance="10" guidetolerance="10" inkscape:pageopacity="0" inkscape:pageshadow="2" inkscape:window-width="1920" inkscape:window-height="1051" id="namedview6" showgrid="false" inkscape:zoom="0.4609375" inkscape:cx="224" inkscape:cy="256" inkscape:window-x="0" inkscape:window-y="0" inkscape:window-maximized="1" inkscape:current-layer="svg4" color="#53b7ec" fill="#53b7ec"/>
  <path d="m 256,512 c 35.32,0 63.97,-28.65 63.97,-64 H 192.03 c 0,35.35 28.65,64 63.97,64 z M 471.39,362.29 C 452.07,341.53 415.92,310.3 415.92,208 415.92,130.3 361.44,68.1 287.98,52.84 V 32 C 287.98,14.33 273.66,0 256,0 238.34,0 224.02,14.33 224.02,32 V 52.84 C 150.56,68.1 96.08,130.3 96.08,208 c 0,102.3 -36.15,133.53 -55.47,154.29 -6,6.45 -8.66,14.16 -8.61,21.71 0.11,16.4 12.98,32 32.1,32 h 383.8 c 19.12,0 32,-15.6 32.1,-32 0.05,-7.55 -2.61,-15.27 -8.61,-21.71 z" class="" id="path2" inkscape:connector-curvature="0" style="color:#53b7ec;fill:#53b7ec"/>
</svg>