<svg xmlns:dc="http://purl.org/dc/elements/1.1/" xmlns:cc="http://creativecommons.org/ns#" xmlns:rdf="http://www.w3.org/1999/02/22-rdf-syntax-ns#" xmlns:svg="http://www.w3.org/2000/svg" xmlns="http://www.w3.org/2000/svg" xmlns:sodipodi="http://sodipodi.sourceforge.net/DTD/sodipodi-0.dtd" xmlns:inkscape="http://www.inkscape.org/namespaces/inkscape" aria-hidden="true" focusable="false" data-prefix="fas" data-icon="microchip" role="img" viewBox="0 0 512 512" class="svg-inline--fa fa-microchip fa-w-16 fa-9x" version="1.1" id="svg4" sodipodi:docname="preferences-devices-cpu-symbolic.svg" inkscape:version="0.92.4 (5da689c313, 2019-01-14)">
  <metadata id="metadata10" color="#53b7ec" fill="#53b7ec">
    <rdf:RDF>
      <cc:Work rdf:about="">
        <dc:format>image/svg+xml</dc:format>
        <dc:type rdf:resource="http://purl.org/dc/dcmitype/StillImage"/>
        <dc:title/>
      </cc:Work>
    </rdf:RDF>
  </metadata>
  <defs id="defs8" color="#53b7ec" fill="#53b7ec"/>
  <sodipodi:namedview pagecolor="#ffffff" bordercolor="#666666" borderopacity="1" objecttolerance="10" gridtolerance="10" guidetolerance="10" inkscape:pageopacity="0" inkscape:pageshadow="2" inkscape:window-width="1920" inkscape:window-height="1051" id="namedview6" showgrid="false" inkscape:zoom="0.4609375" inkscape:cx="256" inkscape:cy="256" inkscape:window-x="0" inkscape:window-y="0" inkscape:window-maximized="1" inkscape:current-layer="svg4" color="#53b7ec" fill="#53b7ec"/>
  <path d="M 404.91526,61.423729 V 447.45763 c 0,24.60038 -19.942,44.54237 -44.54238,44.54237 H 152.50847 C 127.9081,492 107.9661,472.05801 107.9661,447.45763 V 61.423729 c 0,-24.600382 19.942,-44.542373 44.54237,-44.542373 h 207.86441 c 24.60038,0 44.54238,19.941991 44.54238,44.542373 z M 494,115.24576 v 11.1356 a 5.5677966,5.5677966 0 0 1 -5.5678,5.5678 h -16.70339 v 5.56778 a 5.5677966,5.5677966 0 0 1 -5.56779,5.5678 H 427.18644 V 98.54237 h 38.97458 a 5.5677966,5.5677966 0 0 1 5.56779,5.5678 v 5.5678 H 488.4322 A 5.5677966,5.5677966 0 0 1 494,115.24576 Z m 0,89.08475 v 11.13559 a 5.5677966,5.5677966 0 0 1 -5.5678,5.5678 h -16.70339 v 5.5678 a 5.5677966,5.5677966 0 0 1 -5.56779,5.56779 h -38.97458 v -44.54237 h 38.97458 a 5.5677966,5.5677966 0 0 1 5.56779,5.56779 v 5.5678 h 16.70339 a 5.5677966,5.5677966 0 0 1 5.5678,5.5678 z m 0,89.08475 v 11.13558 a 5.5677966,5.5677966 0 0 1 -5.5678,5.5678 h -16.70339 v 5.5678 a 5.5677966,5.5677966 0 0 1 -5.56779,5.5678 h -38.97458 v -44.54237 h 38.97458 a 5.5677966,5.5677966 0 0 1 5.56779,5.56779 v 5.5678 H 488.4322 A 5.5677966,5.5677966 0 0 1 494,293.41526 Z M 494,382.5 v 11.1356 a 5.5677966,5.5677966 0 0 1 -5.5678,5.56779 h -16.70339 v 5.5678 a 5.5677966,5.5677966 0 0 1 -5.56779,5.56779 h -38.97458 v -44.54237 h 38.97458 a 5.5677966,5.5677966 0 0 1 5.56779,5.56779 v 5.5678 H 488.4322 A 5.5677966,5.5677966 0 0 1 494,382.5 Z M 46.720339,365.79661 h 38.974577 v 44.54237 H 46.720339 a 5.5677966,5.5677966 0 0 1 -5.567796,-5.56779 v -5.5678 H 24.449153 A 5.5677966,5.5677966 0 0 1 18.881356,393.6356 V 382.5 a 5.5677966,5.5677966 0 0 1 5.567797,-5.5678 h 16.70339 v -5.5678 a 5.5677966,5.5677966 0 0 1 5.567796,-5.56779 z m 0,-89.08474 h 38.974577 v 44.54237 H 46.720339 a 5.5677966,5.5677966 0 0 1 -5.567796,-5.5678 v -5.5678 h -16.70339 a 5.5677966,5.5677966 0 0 1 -5.567797,-5.5678 v -11.13558 a 5.5677966,5.5677966 0 0 1 5.567797,-5.5678 h 16.70339 v -5.5678 a 5.5677966,5.5677966 0 0 1 5.567796,-5.56779 z m 0,-89.08475 h 38.974577 v 44.54237 H 46.720339 a 5.5677966,5.5677966 0 0 1 -5.567796,-5.56779 v -5.5678 h -16.70339 a 5.5677966,5.5677966 0 0 1 -5.567797,-5.5678 v -11.13559 a 5.5677966,5.5677966 0 0 1 5.567797,-5.5678 h 16.70339 v -5.5678 a 5.5677966,5.5677966 0 0 1 5.567796,-5.56779 z m 0,-89.08475 h 38.974577 v 44.54237 H 46.720339 a 5.5677966,5.5677966 0 0 1 -5.567796,-5.5678 v -5.56778 h -16.70339 a 5.5677966,5.5677966 0 0 1 -5.567797,-5.5678 v -11.1356 a 5.5677966,5.5677966 0 0 1 5.567797,-5.56779 h 16.70339 v -5.5678 a 5.5677966,5.5677966 0 0 1 5.567796,-5.5678 z" class="" id="path2" inkscape:connector-curvature="0" style="color:#53b7ec;fill:#53b7ec;stroke-width:0.92796612"/>
</svg>