<svg xmlns:dc="http://purl.org/dc/elements/1.1/" xmlns:cc="http://creativecommons.org/ns#" xmlns:rdf="http://www.w3.org/1999/02/22-rdf-syntax-ns#" xmlns:svg="http://www.w3.org/2000/svg" xmlns="http://www.w3.org/2000/svg" xmlns:sodipodi="http://sodipodi.sourceforge.net/DTD/sodipodi-0.dtd" xmlns:inkscape="http://www.inkscape.org/namespaces/inkscape" aria-hidden="true" focusable="false" data-prefix="fas" data-icon="power-off" role="img" viewBox="0 0 512 512" class="svg-inline--fa fa-power-off fa-w-16 fa-9x" version="1.1" id="svg4" sodipodi:docname="system-shutdown-symbolic.svg" inkscape:version="0.92.4 (5da689c313, 2019-01-14)">
  <metadata id="metadata10" color="#53b7ec" fill="#53b7ec">
    <rdf:RDF>
      <cc:Work rdf:about="">
        <dc:format>image/svg+xml</dc:format>
        <dc:type rdf:resource="http://purl.org/dc/dcmitype/StillImage"/>
      </cc:Work>
    </rdf:RDF>
  </metadata>
  <defs id="defs8" color="#53b7ec" fill="#53b7ec"/>
  <sodipodi:namedview pagecolor="#ffffff" bordercolor="#666666" borderopacity="1" objecttolerance="10" gridtolerance="10" guidetolerance="10" inkscape:pageopacity="0" inkscape:pageshadow="2" inkscape:window-width="1920" inkscape:window-height="1051" id="namedview6" showgrid="false" inkscape:zoom="0.4609375" inkscape:cx="256" inkscape:cy="256" inkscape:window-x="0" inkscape:window-y="0" inkscape:window-maximized="1" inkscape:current-layer="svg4" color="#53b7ec" fill="#53b7ec"/>
  <path d="M 386.15936,82.701001 C 441.7936,122.43973 478,187.43465 478,260.99547 478,381.80123 380.15439,479.73515 259.43694,480.00007 138.89611,480.26499 40.167418,381.97785 39.990801,261.3487 39.902493,187.78788 76.108898,122.61636 131.65482,82.789309 141.9869,75.45972 156.38115,78.550511 162.56273,89.58905 l 13.95271,24.81464 c 5.21019,9.27237 2.73756,21.01737 -5.82834,27.37556 -36.64795,27.19897 -60.04965,70.29342 -60.04965,119.12791 -0.0883,81.50857 65.78969,148.44626 148.35795,148.44626 80.8904,0 148.8878,-65.52476 148.35796,-149.32934 -0.26493,-45.7437 -21.81216,-89.89785 -60.13797,-118.33313 -8.5659,-6.3582 -10.95022,-18.10321 -5.74003,-27.28726 l 13.95271,-24.81464 c 6.18159,-10.950231 20.48752,-14.217638 30.73129,-6.888049 z M 294.31872,268.06013 V 56.120201 c 0,-11.745005 -9.44899,-21.193994 -21.19399,-21.193994 h -28.25866 c -11.745,0 -21.19399,9.448989 -21.19399,21.193994 V 268.06013 c 0,11.74501 9.44899,21.194 21.19399,21.194 h 28.25866 c 11.745,0 21.19399,-9.44899 21.19399,-21.194 z" class="" id="path2" inkscape:connector-curvature="0" style="color:#53b7ec;fill:#53b7ec;stroke-width:0.88308305"/>
</svg>