<?xml version="1.0" encoding="UTF-8" standalone="no"?>
<svg
   xmlns:dc="http://purl.org/dc/elements/1.1/"
   xmlns:cc="http://creativecommons.org/ns#"
   xmlns:rdf="http://www.w3.org/1999/02/22-rdf-syntax-ns#"
   xmlns:svg="http://www.w3.org/2000/svg"
   xmlns="http://www.w3.org/2000/svg"
   xmlns:sodipodi="http://sodipodi.sourceforge.net/DTD/sodipodi-0.dtd"
   xmlns:inkscape="http://www.inkscape.org/namespaces/inkscape"
   inkscape:version="1.0alpha (9dee831, 2019-01-15)"
   sodipodi:docname="system-reboot-symbolic.svg"
   id="svg4"
   version="1.1"
   class="svg-inline--fa fa-redo-alt fa-w-16 fa-9x"
   viewBox="0 0 512 512"
   role="img"
   data-icon="redo-alt"
   data-prefix="fas"
   focusable="false"
   aria-hidden="true">
  <metadata
     fill="#53b7ec"
     color="#53b7ec"
     id="metadata10">
    <rdf:RDF>
      <cc:Work
         rdf:about="">
        <dc:format>image/svg+xml</dc:format>
        <dc:type
           rdf:resource="http://purl.org/dc/dcmitype/StillImage" />
      </cc:Work>
    </rdf:RDF>
  </metadata>
  <defs
     fill="#53b7ec"
     color="#53b7ec"
     id="defs8" />
  <sodipodi:namedview
     inkscape:document-rotation="0"
     fill="#53b7ec"
     color="#53b7ec"
     inkscape:current-layer="svg4"
     inkscape:window-maximized="1"
     inkscape:window-y="0"
     inkscape:window-x="0"
     inkscape:cy="288.14771"
     inkscape:cx="280.04598"
     inkscape:zoom="2.6074563"
     showgrid="false"
     id="namedview6"
     inkscape:window-height="2131"
     inkscape:window-width="3840"
     inkscape:pageshadow="2"
     inkscape:pageopacity="0"
     guidetolerance="10"
     gridtolerance="10"
     objecttolerance="10"
     borderopacity="1"
     bordercolor="#666666"
     pagecolor="#ffffff" />
  <g
     transform="matrix(0,-16.562977,-16.562977,0,527.5161,878.88464)"
     id="view-refresh">
    <path
       inkscape:connector-curvature="0"
       style="fill:#53b7ec;fill-opacity:1"
       fill="#53b7ec"
       d="M 38,4 A 12,12 0 0 0 31.916016,5.671875 L 37.293,11.05 38,10.34 33.596,5.936 A 11,11 0 0 1 38,5 11,11 0 0 1 49,16 11,11 0 0 1 47.595703,21.351562 L 48.328,22.08 A 12,12 0 0 0 50,16 12,12 0 0 0 38,4 M 27.671875,9.916016 A 12,12 0 0 0 26,16 12,12 0 0 0 38,28 12,12 0 0 0 44.08398,26.328125 L 38.707,20.949 38,21.656 42.406,26.06 A 11,11 0 0 1 38,27 11,11 0 0 1 27,16 11,11 0 0 1 28.404297,10.648438 Z"
       id="path12" />
    <path
       inkscape:connector-curvature="0"
       fill="none"
       d="M 22,0 V 32 H 54 V 0 Z"
       id="path14" />
  </g>
</svg>
