<svg xmlns:dc="http://purl.org/dc/elements/1.1/" xmlns:cc="http://creativecommons.org/ns#" xmlns:rdf="http://www.w3.org/1999/02/22-rdf-syntax-ns#" xmlns:svg="http://www.w3.org/2000/svg" xmlns="http://www.w3.org/2000/svg" xmlns:sodipodi="http://sodipodi.sourceforge.net/DTD/sodipodi-0.dtd" xmlns:inkscape="http://www.inkscape.org/namespaces/inkscape" aria-hidden="true" focusable="false" data-prefix="fas" data-icon="redo-alt" role="img" viewBox="0 0 512 512" class="svg-inline--fa fa-redo-alt fa-w-16 fa-9x" version="1.1" id="svg4" sodipodi:docname="system-restart-symbolic.svg" inkscape:version="0.92.4 (5da689c313, 2019-01-14)">
  <metadata id="metadata10" color="#53b7ec" fill="#53b7ec">
    <rdf:RDF>
      <cc:Work rdf:about="">
        <dc:format>image/svg+xml</dc:format>
        <dc:type rdf:resource="http://purl.org/dc/dcmitype/StillImage"/>
      </cc:Work>
    </rdf:RDF>
  </metadata>
  <defs id="defs8" color="#53b7ec" fill="#53b7ec"/>
  <sodipodi:namedview pagecolor="#ffffff" bordercolor="#666666" borderopacity="1" objecttolerance="10" gridtolerance="10" guidetolerance="10" inkscape:pageopacity="0" inkscape:pageshadow="2" inkscape:window-width="1920" inkscape:window-height="1051" id="namedview6" showgrid="false" inkscape:zoom="0.4609375" inkscape:cx="256" inkscape:cy="256" inkscape:window-x="0" inkscape:window-y="0" inkscape:window-maximized="1" inkscape:current-layer="svg4" color="#53b7ec" fill="#53b7ec"/>
  <path d="m 257.83294,29.864367 c 59.60225,0.107028 113.71727,23.593925 153.67035,61.775195 L 443.62532,59.51754 c 13.59891,-13.598008 36.84926,-3.967247 36.84926,15.263692 V 195.35372 c 0,11.92153 -9.66404,21.58557 -21.58557,21.58557 H 338.31653 c -19.23094,0 -28.86171,-23.25036 -15.2637,-36.84927 l 37.5499,-37.54989 c -27.75904,-25.99172 -63.67833,-40.3893 -101.83891,-40.71848 -83.10264,-0.71772 -153.15231,66.53482 -152.43369,152.39591 0.68175,81.45044 66.7156,149.79665 151.09358,149.79665 36.98957,0 71.9492,-13.20138 99.49958,-37.37541 4.26584,-3.7424 10.70824,-3.51485 14.72135,0.49736 l 35.67195,35.67195 c 4.38187,4.38187 4.16512,11.5258 -0.43351,15.67922 -39.55105,35.72501 -91.96441,57.47877 -149.45937,57.47877 -123.18703,0 -223.04997,-99.86293 -223.050869,-223.04907 C 34.371941,129.8712 134.78711,29.644014 257.83294,29.864367 Z" class="" id="path2" inkscape:connector-curvature="0" style="color:#53b7ec;fill:#53b7ec;stroke-width:0.89939868"/>
</svg>