<?xml version="1.0" encoding="UTF-8" standalone="no"?>
<svg
   xmlns:dc="http://purl.org/dc/elements/1.1/"
   xmlns:cc="http://creativecommons.org/ns#"
   xmlns:rdf="http://www.w3.org/1999/02/22-rdf-syntax-ns#"
   xmlns:svg="http://www.w3.org/2000/svg"
   xmlns="http://www.w3.org/2000/svg"
   xmlns:sodipodi="http://sodipodi.sourceforge.net/DTD/sodipodi-0.dtd"
   xmlns:inkscape="http://www.inkscape.org/namespaces/inkscape"
   inkscape:version="1.0alpha (9dee831, 2019-01-15)"
   height="512"
   width="512"
   sodipodi:docname="addressbook-symbolic.svg"
   id="svg4"
   version="1.1"
   class="svg-inline--fa fa-address-book fa-w-14 fa-9x"
   viewBox="0 0 512 512"
   role="img"
   data-icon="address-book"
   data-prefix="fas"
   focusable="false"
   aria-hidden="true">
  <metadata
     id="metadata10">
    <rdf:RDF>
      <cc:Work
         rdf:about="">
        <dc:format>image/svg+xml</dc:format>
        <dc:type
           rdf:resource="http://purl.org/dc/dcmitype/StillImage" />
        <dc:title></dc:title>
      </cc:Work>
    </rdf:RDF>
  </metadata>
  <defs
     id="defs8" />
  <sodipodi:namedview
     inkscape:current-layer="svg4"
     inkscape:window-maximized="0"
     inkscape:window-y="616"
     inkscape:window-x="787"
     inkscape:cy="256"
     inkscape:cx="224"
     inkscape:zoom="1.9003906"
     showgrid="false"
     id="namedview6"
     inkscape:window-height="1355"
     inkscape:window-width="1790"
     inkscape:pageshadow="2"
     inkscape:pageopacity="0"
     guidetolerance="10"
     gridtolerance="10"
     objecttolerance="10"
     borderopacity="1"
     inkscape:document-rotation="0"
     bordercolor="#666666"
     pagecolor="#ffffff" />
  <path
     style="stroke-width:0.951912"
     inkscape:connector-curvature="0"
     id="path2"
     class=""
     d="m 476.5222,164.61645 c 6.28262,0 11.42295,-5.14033 11.42295,-11.42295 v -38.07648 c 0,-6.28262 -5.14033,-11.42294 -11.42295,-11.42294 H 457.48396 V 58.002303 c 0,-25.225668 -20.4661,-45.691776 -45.69177,-45.691776 H 107.18034 c -25.225666,0 -45.691774,20.466108 -45.691774,45.691776 V 453.9977 c 0,25.22566 20.466108,45.69177 45.691774,45.69177 h 304.61185 c 25.22567,0 45.69177,-20.46611 45.69177,-45.69177 v -45.69178 h 19.03824 c 6.28262,0 11.42295,-5.14032 11.42295,-11.42294 V 358.8065 c 0,-6.28262 -5.14033,-11.42295 -11.42295,-11.42295 h -19.03824 v -60.92237 h 19.03824 c 6.28262,0 11.42295,-5.14032 11.42295,-11.42294 v -38.07648 c 0,-6.28262 -5.14033,-11.42294 -11.42295,-11.42294 H 457.48396 V 164.61645 Z M 259.48627,134.15526 c 33.60249,0 60.92237,27.31988 60.92237,60.92237 0,33.6025 -27.31988,60.92237 -60.92237,60.92237 -33.6025,0 -60.92237,-27.31987 -60.92237,-60.92237 0,-33.60249 27.31987,-60.92237 60.92237,-60.92237 z m 106.61414,225.41277 c 0,10.09026 -9.51912,18.27671 -21.32283,18.27671 H 174.19495 c -11.80371,0 -21.32283,-8.18645 -21.32283,-18.27671 v -18.27671 c 0,-30.27081 28.65255,-54.83014 63.96849,-54.83014 h 4.75956 c 11.70852,4.85476 24.46414,7.6153 37.8861,7.6153 13.42196,0 26.27277,-2.76054 37.8861,-7.6153 h 4.75956 c 35.31593,0 63.96848,24.55933 63.96848,54.83014 z"
     fill="#53b7ec" />
</svg>
