<?xml version="1.0" encoding="UTF-8" standalone="no"?>
<svg
   xmlns:dc="http://purl.org/dc/elements/1.1/"
   xmlns:cc="http://creativecommons.org/ns#"
   xmlns:rdf="http://www.w3.org/1999/02/22-rdf-syntax-ns#"
   xmlns:svg="http://www.w3.org/2000/svg"
   xmlns="http://www.w3.org/2000/svg"
   xmlns:sodipodi="http://sodipodi.sourceforge.net/DTD/sodipodi-0.dtd"
   xmlns:inkscape="http://www.inkscape.org/namespaces/inkscape"
   sodipodi:docname="nepomuk.svgz"
   inkscape:version="1.0rc1 (09960d6, 2020-04-09)"
   viewBox="0 0 54 32"
   id="svg2"
   version="1.1">
  <sodipodi:namedview
     inkscape:document-rotation="0"
     inkscape:current-layer="svg2"
     inkscape:window-maximized="1"
     inkscape:window-y="0"
     inkscape:window-x="0"
     inkscape:cy="16"
     inkscape:cx="27"
     inkscape:zoom="7.375"
     showgrid="false"
     id="namedview12"
     inkscape:window-height="1015"
     inkscape:window-width="1920"
     inkscape:pageshadow="2"
     inkscape:pageopacity="0"
     guidetolerance="10"
     gridtolerance="10"
     objecttolerance="10"
     borderopacity="1"
     bordercolor="#666666"
     pagecolor="#ffffff" />
  <metadata
     id="metadata18">
    <rdf:RDF>
      <cc:Work
         rdf:about="">
        <dc:format>image/svg+xml</dc:format>
        <dc:type
           rdf:resource="http://purl.org/dc/dcmitype/StillImage" />
        <dc:title />
      </cc:Work>
    </rdf:RDF>
  </metadata>
  <defs
     id="defs3051">
    <style
       id="current-color-scheme"
       type="text/css">
      .ColorScheme-Text {
        color:#31363b;
      }
      .ColorScheme-Background {
        color:#eff0f1;
      }
      .ColorScheme-Highlight {
        color:#3daee9;
      }
      .ColorScheme-ViewText {
        color:#31363b;
      }
      .ColorScheme-ViewBackground {
        color:#fcfcfc;
      }
      .ColorScheme-ViewHover {
        color:#93cee9;
      }
      .ColorScheme-ViewFocus{
        color:#3daee9;
      }
      .ColorScheme-ButtonText {
        color:#31363b;
      }
      .ColorScheme-ButtonBackground {
        color:#eff0f1;
      }
      .ColorScheme-ButtonHover {
        color:#93cee9;
      }
      .ColorScheme-ButtonFocus{
        color:#3daee9;
      }
      </style>
  </defs>
  <g
     id="22-22-nepomuk">
    <path
       style="fill:#3daee9;fill-opacity:1;stroke:none"
       d="m 9.0000001,13 c -3.3240047,0 -6,2.675995 -6,6 0,3.324005 2.6759953,6 6,6 C 10.481206,25 11.830584,24.465318 12.875,23.582031 L 18.292969,29 19,28.292969 13.582032,22.875 C 14.465318,21.830584 15,20.481205 15,19 15,15.675995 12.324005,13 9.0000001,13 Z m 0,1 C 11.770005,14 14,16.229995 14,19 c 0,2.770005 -2.229995,5 -4.9999999,5 -2.7700048,0 -5,-2.229995 -5,-5 0,-2.770005 2.2299952,-5 5,-5 z"
       class="ColorScheme-Text"
       id="path7" />
    <path
       style="opacity:1;fill:none"
       d="M 0 10 L 0 32 L 22 32 L 22 10 L 0 10 z "
       id="path9" />
  </g>
  <g
     id="nepomuk">
    <path
       style="fill:#3daee9;fill-opacity:1;stroke:none"
       d="m 35,4 a 9,9 0 0 0 -9,9 9,9 0 0 0 9,9 9,9 0 0 0 5.994141,-2.298828 L 49.292969,28 50,27.292969 41.699219,18.992187 A 9,9 0 0 0 44,13 9,9 0 0 0 35,4 Z m 0,1 a 8,8 0 0 1 8,8 8,8 0 0 1 -8,8 8,8 0 0 1 -8,-8 8,8 0 0 1 8,-8 z"
       class="ColorScheme-Text"
       id="path12" />
    <path
       style="opacity:1;fill:none"
       d="M 22 0 L 22 32 L 54 32 L 54 0 L 22 0 z "
       id="path14" />
  </g>
</svg>
