<?xml version="1.0" encoding="UTF-8" standalone="no"?>
<svg
   xmlns:dc="http://purl.org/dc/elements/1.1/"
   xmlns:cc="http://creativecommons.org/ns#"
   xmlns:rdf="http://www.w3.org/1999/02/22-rdf-syntax-ns#"
   xmlns:svg="http://www.w3.org/2000/svg"
   xmlns="http://www.w3.org/2000/svg"
   xmlns:sodipodi="http://sodipodi.sourceforge.net/DTD/sodipodi-0.dtd"
   xmlns:inkscape="http://www.inkscape.org/namespaces/inkscape"
   viewBox="0 0 32 32"
   sodipodi:docname="device.svgz"
   inkscape:version="1.0rc1 (09960d6, 2020-04-09)"
   version="1.1"
   id="svg3869"
   height="32"
   width="32">
  <defs
     id="defs3871">
    <style
       id="current-color-scheme"
       type="text/css">
      .ColorScheme-Text {
        color:#31363b;
      }
      .ColorScheme-Background {
        color:#eff0f1;
      }
      .ColorScheme-Highlight {
        color:#3498db;
      }
      .ColorScheme-ViewText {
        color:#31363b;
      }
      .ColorScheme-ViewBackground {
        color:#fcfcfc;
      }
      .ColorScheme-ViewHover {
        color:#93cee9;
      }
      .ColorScheme-ViewFocus{
        color:#3498db;
      }
      .ColorScheme-ButtonText {
        color:#31363b;
      }
      .ColorScheme-ButtonBackground {
        color:#eff0f1;
      }
      .ColorScheme-ButtonHover {
        color:#93cee9;
      }
      .ColorScheme-ButtonFocus{
        color:#3498db;
      }
      </style>
  </defs>
  <sodipodi:namedview
     inkscape:document-rotation="0"
     inkscape:showpageshadow="false"
     inkscape:window-maximized="1"
     inkscape:window-y="-8"
     inkscape:window-x="-8"
     inkscape:window-height="1027"
     inkscape:window-width="2560"
     fit-margin-bottom="0"
     fit-margin-right="0"
     fit-margin-left="0"
     fit-margin-top="0"
     showgrid="true"
     inkscape:current-layer="layer1"
     inkscape:document-units="px"
     inkscape:cy="23.382377"
     inkscape:cx="8.6261397"
     inkscape:zoom="7.1426288"
     inkscape:pageshadow="2"
     inkscape:pageopacity="0.0"
     borderopacity="1.0"
     bordercolor="#666666"
     pagecolor="#ffffff"
     id="base">
    <inkscape:grid
       originy="4.9999826"
       originx="5"
       id="grid4132"
       type="xygrid" />
    <sodipodi:guide
       id="guide4138"
       orientation="18,0"
       position="7,25" />
    <sodipodi:guide
       id="guide4140"
       orientation="0,18"
       position="7,7" />
    <sodipodi:guide
       id="guide4142"
       orientation="-18,0"
       position="25,7" />
    <sodipodi:guide
       id="guide4144"
       orientation="0,-18"
       position="25,25" />
    <sodipodi:guide
       id="guide4146"
       orientation="16,0"
       position="8,24" />
    <sodipodi:guide
       id="guide4148"
       orientation="0,16"
       position="8,8" />
    <sodipodi:guide
       id="guide4150"
       orientation="-16,0"
       position="24,8" />
    <sodipodi:guide
       id="guide4152"
       orientation="0,-16"
       position="24,24" />
    <sodipodi:guide
       id="guide4180"
       orientation="32,0"
       position="0,31.999997" />
    <sodipodi:guide
       id="guide4182"
       orientation="0,32"
       position="0,-2.6171875e-06" />
    <sodipodi:guide
       id="guide4184"
       orientation="-32,0"
       position="32,-2.6171875e-06" />
    <sodipodi:guide
       id="guide4186"
       orientation="0,-32"
       position="32,31.999997" />
    <sodipodi:guide
       id="guide4188"
       orientation="28,0"
       position="2,29.999997" />
    <sodipodi:guide
       id="guide4190"
       orientation="0,28"
       position="2,1.9999974" />
    <sodipodi:guide
       id="guide4192"
       orientation="-28,0"
       position="30,1.9999974" />
    <sodipodi:guide
       id="guide4194"
       orientation="0,-28"
       position="30,29.999997" />
  </sodipodi:namedview>
  <metadata
     id="metadata3874">
    <rdf:RDF>
      <cc:Work
         rdf:about="">
        <dc:format>image/svg+xml</dc:format>
        <dc:type
           rdf:resource="http://purl.org/dc/dcmitype/StillImage" />
        <dc:title />
      </cc:Work>
    </rdf:RDF>
  </metadata>
  <g
     transform="translate(-321,-529.36218)"
     id="layer1"
     inkscape:groupmode="layer"
     inkscape:label="Capa 1">
    <g
       id="device-notifier">
      <path
         class="ColorScheme-Text"
         inkscape:connector-curvature="0"
         style="opacity:1;fill:#3498db;fill-opacity:1;stroke:none;stroke-width:0.1;stroke-linecap:square;stroke-linejoin:miter;stroke-miterlimit:4;stroke-dasharray:none;stroke-dashoffset:0;stroke-opacity:1"
         d="m 9,2 0,14 -1,0 -1,0 0,14 1,0 16,0 1,0 0,-14 -1,0 -1,0 L 23,2 9,2 Z m 1,3 2,0 0,8 -2,0 0,-8 z m 10,0 2,0 0,8 -2,0 0,-8 z m -7,3 2,0 0,5 -2,0 0,-5 z m 4,0 2,0 0,5 -2,0 0,-5 z m -9,9 16,0 0,12 -16,0 0,-12 z m 8,1 -2,2 4,0 -2,-2 z m -6,7 0,1 12,0 0,-1 -12,0 z m 1,2 0,1 10,0 0,-1 -10,0 z"
         transform="translate(321,529.36218)"
         id="rect4196" />
      <rect
         style="opacity:0.2;fill:none;fill-opacity:1;stroke:none"
         id="rect4151"
         width="31.999985"
         height="31.999985"
         x="321"
         y="529.36218" />
    </g>
    <g
       id="22-22-device-notifier">
      <rect
         style="opacity:0.2;fill:none;fill-opacity:1;stroke:none"
         id="rect4157"
         width="21.999985"
         height="21.999985"
         x="358"
         y="534.36218" />
      <path
         class="ColorScheme-Text"
         style="opacity:1;fill:#3498db;fill-opacity:1;stroke:none"
         d="m 365,537.36218 0,8 -1,0 0,1 0,7 1,0 9,0 0,-1 0,-6 0,-1 -1,0 0,-8 -8,0 z m 1,2 1,0 0,4 -1,0 0,-4 z m 5,0 1,0 0,4 -1,0 0,-4 z m -3,2 2,0 0,2 -2,0 0,-2 z m -3,5 8,0 0,6 -8,0 0,-6 z m 4,1 -1,1 2,0 -1,-1 z m -3,3 0,1 6,0 0,-1 -6,0 z"
         id="rect4159"
         inkscape:connector-curvature="0" />
    </g>
    <g
       id="16-16-device-notifier">
      <rect
         y="537.36218"
         x="387"
         height="15.999985"
         width="15.999985"
         id="rect4182"
         style="opacity:0.2;fill:none;fill-opacity:1;stroke:none" />
      <path
         class="ColorScheme-Text"
         inkscape:connector-curvature="0"
         style="opacity:1;fill:#3498db;fill-opacity:1;stroke:none"
         d="m 71,10 0,6 -1,0 0,1 0,4 0,1 1,0 6,0 1,0 0,-1 0,-4 0,-1 -1,0 0,-6 -6,0 z m 1,2 1,0 0,3 -1,0 0,-3 z m 3,0 1,0 0,3 -1,0 0,-3 z m -4,5 6,0 0,4 -6,0 0,-4 z m 1,2 0,1 4,0 0,-1 -4,0 z"
         transform="translate(321,529.36218)"
         id="rect4188" />
    </g>
  </g>
</svg>
