<?xml version="1.0" encoding="UTF-8" standalone="no"?>
<svg
   xmlns:dc="http://purl.org/dc/elements/1.1/"
   xmlns:cc="http://creativecommons.org/ns#"
   xmlns:rdf="http://www.w3.org/1999/02/22-rdf-syntax-ns#"
   xmlns:svg="http://www.w3.org/2000/svg"
   xmlns="http://www.w3.org/2000/svg"
   xmlns:sodipodi="http://sodipodi.sourceforge.net/DTD/sodipodi-0.dtd"
   xmlns:inkscape="http://www.inkscape.org/namespaces/inkscape"
   aria-hidden="true"
   focusable="false"
   data-prefix="fab"
   data-icon="android"
   role="img"
   viewBox="0 0 576 576"
   class="svg-inline--fa fa-android fa-w-18 fa-9x"
   version="1.1"
   id="svg4"
   sodipodi:docname="android-package-archive-symbolic.svg"
   width="576"
   height="576"
   inkscape:version="1.0rc1 (09960d6, 2020-04-09)">
  <metadata
     id="metadata10">
    <rdf:RDF>
      <cc:Work
         rdf:about="">
        <dc:format>image/svg+xml</dc:format>
        <dc:type
           rdf:resource="http://purl.org/dc/dcmitype/StillImage" />
        <dc:title />
      </cc:Work>
    </rdf:RDF>
  </metadata>
  <defs
     id="defs8" />
  <sodipodi:namedview
     inkscape:document-rotation="0"
     pagecolor="#ffffff"
     bordercolor="#666666"
     borderopacity="1"
     objecttolerance="10"
     gridtolerance="10"
     guidetolerance="10"
     inkscape:pageopacity="0"
     inkscape:pageshadow="2"
     inkscape:window-width="640"
     inkscape:window-height="480"
     id="namedview6"
     showgrid="false"
     fit-margin-top="0"
     fit-margin-left="0"
     fit-margin-right="0"
     fit-margin-bottom="0"
     inkscape:zoom="1.3964844"
     inkscape:cx="288"
     inkscape:cy="251.15499"
     inkscape:current-layer="svg4" />
  <path
     fill="#787878"
     d="m 400.62466,356.3913 a 20.392241,20.392241 0 1 1 20.39223,-20.39224 20.392241,20.392241 0 0 1 -20.39223,20.39224 m -225.2493,0 a 20.392241,20.392241 0 1 1 20.39224,-20.39224 20.392241,20.392241 0 0 1 -20.39224,20.39224 m 232.55652,-122.76129 40.7335,-70.52317 a 8.4967672,8.4967672 0 1 0 -14.67392,-8.49676 v 0 l -41.24331,71.43232 a 255.96511,255.96511 0 0 0 -209.49629,0 l -41.24331,-71.43232 a 8.4967672,8.4967672 0 1 0 -14.67392,8.49676 v 0 l 40.73351,70.52317 C 98.122746,271.67004 50.294442,342.4736 43.293105,426.12427 H 532.7069 C 525.70557,342.4736 477.86877,271.67004 407.93188,233.63001"
     class=""
     id="path2"
     inkscape:connector-curvature="0"
     style="stroke-width:0.849677" />
</svg>
