<?xml version="1.0" encoding="UTF-8" standalone="no"?>
<svg
   xmlns:dc="http://purl.org/dc/elements/1.1/"
   xmlns:cc="http://creativecommons.org/ns#"
   xmlns:rdf="http://www.w3.org/1999/02/22-rdf-syntax-ns#"
   xmlns:svg="http://www.w3.org/2000/svg"
   xmlns="http://www.w3.org/2000/svg"
   xmlns:sodipodi="http://sodipodi.sourceforge.net/DTD/sodipodi-0.dtd"
   xmlns:inkscape="http://www.inkscape.org/namespaces/inkscape"
   aria-hidden="true"
   focusable="false"
   data-prefix="fas"
   data-icon="file-archive"
   role="img"
   viewBox="0 0 512 512"
   class="svg-inline--fa fa-file-archive fa-w-12 fa-9x"
   version="1.1"
   id="svg4"
   sodipodi:docname="application-vnd.rar-symbolic.svg"
   width="512"
   height="512"
   inkscape:version="1.0rc1 (09960d6, 2020-04-09)">
  <metadata
     id="metadata10">
    <rdf:RDF>
      <cc:Work
         rdf:about="">
        <dc:format>image/svg+xml</dc:format>
        <dc:type
           rdf:resource="http://purl.org/dc/dcmitype/StillImage" />
        <dc:title />
      </cc:Work>
    </rdf:RDF>
  </metadata>
  <defs
     id="defs8" />
  <sodipodi:namedview
     inkscape:document-rotation="0"
     pagecolor="#ffffff"
     bordercolor="#666666"
     borderopacity="1"
     objecttolerance="10"
     gridtolerance="10"
     guidetolerance="10"
     inkscape:pageopacity="0"
     inkscape:pageshadow="2"
     inkscape:window-width="640"
     inkscape:window-height="480"
     id="namedview6"
     showgrid="false"
     inkscape:zoom="1.3964844"
     inkscape:cx="192"
     inkscape:cy="256"
     inkscape:current-layer="svg4" />
  <path
     style="stroke-width:0.839953"
     fill="#787878"
     d="M 411.41156,129.18359 329.16944,46.878906 C 325.38916,43.099609 320.26478,41 314.88838,41 H 309.764 v 107.5 h 107.52799 v -5.12305 c 0,-5.29101 -2.10015,-10.41406 -5.88043,-14.19336 z M 202.57203,323.1875 c -15.03711,0 -27.21802,10.16211 -27.21802,22.67578 0,12.59766 12.26491,22.67578 27.30202,22.67578 15.03713,0 27.21803,-10.16211 27.21803,-22.67578 0,-12.51367 -12.26491,-22.67578 -27.30203,-22.67578 z M 282.882,155.21875 V 41 h -53.42797 v 26.875 h -26.882 V 41 h -87.70252 c -11.17283,0 -20.1615,8.986328 -20.1615,20.15625 v 389.6875 c 0,11.16992 8.98867,20.15625 20.1615,20.15625 H 397.1305 c 11.17282,0 20.16149,-8.98633 20.16149,-20.15625 V 175.375 H 303.0435 c -11.08882,0 -20.1615,-9.07031 -20.1615,-20.15625 z M 175.27,67.875 h 26.882 V 94.75 H 175.27 Z m 27.13402,322.5 c -27.89008,0 -48.72363,-25.53125 -43.17921,-52.82617 L 175.69003,256 v -26.875 h 26.882 V 202.25 h -26.882 v -26.875 h 26.882 V 148.5 h -26.882 v -26.875 h 26.882 V 94.75 h 26.882 v 26.875 h -26.882 V 148.5 h 26.882 v 26.875 h -26.882 v 26.875 h 26.882 v 26.875 h -26.882 V 256 h 18.56538 c 4.78836,0 8.98867,3.44336 9.91274,8.14648 l 14.53308,73.6543 c 5.3764,27.21094 -15.45715,52.57422 -43.17921,52.57422 z"
     class=""
     id="path2"
     inkscape:connector-curvature="0" />
</svg>
