<?xml version="1.0" encoding="UTF-8" standalone="no"?>
<svg
   xmlns:dc="http://purl.org/dc/elements/1.1/"
   xmlns:cc="http://creativecommons.org/ns#"
   xmlns:rdf="http://www.w3.org/1999/02/22-rdf-syntax-ns#"
   xmlns:svg="http://www.w3.org/2000/svg"
   xmlns="http://www.w3.org/2000/svg"
   xmlns:sodipodi="http://sodipodi.sourceforge.net/DTD/sodipodi-0.dtd"
   xmlns:inkscape="http://www.inkscape.org/namespaces/inkscape"
   aria-hidden="true"
   focusable="false"
   data-prefix="fas"
   data-icon="hdd"
   role="img"
   viewBox="0 0 512 512"
   class="svg-inline--fa fa-hdd fa-w-18 fa-9x"
   version="1.1"
   id="svg4"
   sodipodi:docname="drive-harddisk-solidstate-symbolic.svg"
   width="512"
   height="512"
   inkscape:version="1.0rc1 (09960d6, 2020-04-09)">
  <metadata
     id="metadata10">
    <rdf:RDF>
      <cc:Work
         rdf:about="">
        <dc:format>image/svg+xml</dc:format>
        <dc:type
           rdf:resource="http://purl.org/dc/dcmitype/StillImage" />
        <dc:title />
      </cc:Work>
    </rdf:RDF>
  </metadata>
  <defs
     id="defs8" />
  <sodipodi:namedview
     inkscape:document-rotation="0"
     pagecolor="#ffffff"
     bordercolor="#666666"
     borderopacity="1"
     objecttolerance="10"
     gridtolerance="10"
     guidetolerance="10"
     inkscape:pageopacity="0"
     inkscape:pageshadow="2"
     inkscape:window-width="640"
     inkscape:window-height="480"
     id="namedview6"
     showgrid="false"
     inkscape:zoom="1.3964844"
     inkscape:cx="288"
     inkscape:cy="256"
     inkscape:current-layer="svg4" />
  <ellipse
     ry="44.362236"
     rx="85.396042"
     cy="331.92673"
     cx="359.92474"
     id="path830"
     style="opacity:1;fill:#00ff00;fill-rule:evenodd" />
  <path
     fill="#787878"
     d="M 471,291.83334 V 363.5 c 0,19.79044 -16.04288,35.83334 -35.83333,35.83334 H 76.833333 C 57.042882,399.33334 41,383.29044 41,363.5 V 291.83334 C 41,272.04288 57.042882,256 76.833333,256 H 435.16667 C 454.95712,256 471,272.04288 471,291.83334 Z M 435.16667,232.1111 a 59.39151,59.39151 0 0 1 22.97588,4.60235 L 386.08247,128.62295 A 35.835573,35.835573 0 0 0 356.26689,112.66666 H 155.73311 a 35.833333,35.833333 0 0 0 -29.81483,15.95629 l -72.060832,108.0905 a 59.39151,59.39151 0 0 1 22.975885,-4.60235 z m -35.83334,71.66668 c -13.19338,0 -23.88889,10.69549 -23.88889,23.88888 0,13.19339 10.69551,23.8889 23.88889,23.8889 13.19339,0 23.88889,-10.69551 23.88889,-23.8889 0,-13.19339 -10.6955,-23.88888 -23.88889,-23.88888 z m -71.66666,0 c -13.19339,0 -23.88889,10.69549 -23.88889,23.88888 0,13.19339 10.6955,23.8889 23.88889,23.8889 13.19338,0 23.88889,-10.69551 23.88889,-23.8889 0,-13.19339 -10.69551,-23.88888 -23.88889,-23.88888 z"
     class=""
     id="path2"
     inkscape:connector-curvature="0"
     style="stroke-width:0.746528" />
</svg>
