<?xml version="1.0" encoding="UTF-8" standalone="no"?>
<svg
   xmlns:dc="http://purl.org/dc/elements/1.1/"
   xmlns:cc="http://creativecommons.org/ns#"
   xmlns:rdf="http://www.w3.org/1999/02/22-rdf-syntax-ns#"
   xmlns:svg="http://www.w3.org/2000/svg"
   xmlns="http://www.w3.org/2000/svg"
   xmlns:sodipodi="http://sodipodi.sourceforge.net/DTD/sodipodi-0.dtd"
   xmlns:inkscape="http://www.inkscape.org/namespaces/inkscape"
   aria-hidden="true"
   focusable="false"
   data-prefix="fas"
   data-icon="file-code"
   role="img"
   viewBox="0 0 512 512"
   class="svg-inline--fa fa-file-code fa-w-12 fa-9x"
   version="1.1"
   id="svg4"
   sodipodi:docname="folder-development-symbolic.svg"
   width="512"
   height="512"
   inkscape:version="1.0rc1 (09960d6, 2020-04-09)">
  <metadata
     id="metadata10">
    <rdf:RDF>
      <cc:Work
         rdf:about="">
        <dc:format>image/svg+xml</dc:format>
        <dc:type
           rdf:resource="http://purl.org/dc/dcmitype/StillImage" />
        <dc:title></dc:title>
      </cc:Work>
    </rdf:RDF>
  </metadata>
  <defs
     id="defs8" />
  <sodipodi:namedview
     inkscape:document-rotation="0"
     pagecolor="#ffffff"
     bordercolor="#666666"
     borderopacity="1"
     objecttolerance="10"
     gridtolerance="10"
     guidetolerance="10"
     inkscape:pageopacity="0"
     inkscape:pageshadow="2"
     inkscape:window-width="640"
     inkscape:window-height="480"
     id="namedview6"
     showgrid="false"
     inkscape:zoom="1.3964844"
     inkscape:cx="192"
     inkscape:cy="256"
     inkscape:current-layer="svg4" />
  <path
     style="stroke-width:0.839844"
     fill="#787878"
     d="M 417.25,143.41139 V 148.5 H 309.75 V 41 h 5.08861 c 5.34561,0 10.47285,2.123965 14.25299,5.903262 L 411.34674,129.1584 A 20.160449,20.160449 0 0 1 417.25,143.41139 Z M 303.03125,175.375 c -11.08594,0 -20.15625,-9.07031 -20.15625,-20.15625 V 41 H 114.90625 C 103.77412,41 94.75,50.024121 94.75,61.15625 v 389.6875 C 94.75,461.97588 103.77412,471 114.90625,471 h 282.1875 C 408.22588,471 417.25,461.97588 417.25,450.84375 V 175.375 Z M 198.22379,377.36162 a 4.5351562,4.5351562 0 0 1 -6.41053,0.2066 l -54.4773,-51.07258 a 4.5351562,4.5351562 0 0 1 0,-6.61712 l 54.4773,-51.07258 a 4.5351562,4.5351562 0 0 1 6.41053,0.2066 l 16.4433,17.54014 a 4.5351562,4.5351562 0 0 1 -0.31242,6.50627 l -34.23455,30.12855 34.23455,30.12855 a 4.5351562,4.5351562 0 0 1 0.31242,6.50627 z m 43.07978,42.39447 -23.05623,-6.69355 a 4.5368359,4.5368359 0 0 1 -3.09146,-5.62024 l 51.6,-177.73277 a 4.5368359,4.5368359 0 0 1 5.62023,-3.09146 l 23.05539,6.69355 a 4.5351562,4.5351562 0 0 1 3.09063,5.62024 l -51.6,177.73277 a 4.5326367,4.5326367 0 0 1 -5.61856,3.09146 z m 135.04016,-93.26045 -54.4773,51.07258 a 4.5351562,4.5351562 0 0 1 -6.41053,-0.2066 l -16.44414,-17.54014 a 4.5351562,4.5351562 0 0 1 0.31242,-6.50627 l 34.23539,-30.12771 -34.23455,-30.12855 a 4.5351562,4.5351562 0 0 1 -0.31242,-6.50627 l 16.44414,-17.54014 a 4.5351562,4.5351562 0 0 1 6.41053,-0.2066 l 54.4773,51.07258 a 4.5351562,4.5351562 0 0 1 -8.4e-4,6.61712 z"
     class=""
     id="path2"
     inkscape:connector-curvature="0" />
</svg>
