<?xml version="1.0" encoding="UTF-8" standalone="no"?>
<svg
   xmlns:dc="http://purl.org/dc/elements/1.1/"
   xmlns:cc="http://creativecommons.org/ns#"
   xmlns:rdf="http://www.w3.org/1999/02/22-rdf-syntax-ns#"
   xmlns:svg="http://www.w3.org/2000/svg"
   xmlns="http://www.w3.org/2000/svg"
   xmlns:sodipodi="http://sodipodi.sourceforge.net/DTD/sodipodi-0.dtd"
   xmlns:inkscape="http://www.inkscape.org/namespaces/inkscape"
   inkscape:version="1.0rc1 (09960d6, 2020-04-09)"
   height="512"
   width="512"
   sodipodi:docname="folder-development-symbolic.svg"
   id="svg4"
   version="1.1"
   class="svg-inline--fa fa-file-code fa-w-12 fa-9x"
   viewBox="0 0 512 512"
   role="img"
   data-icon="file-code"
   data-prefix="fas"
   focusable="false"
   aria-hidden="true">
  <metadata
     id="metadata10">
    <rdf:RDF>
      <cc:Work
         rdf:about="">
        <dc:format>image/svg+xml</dc:format>
        <dc:type
           rdf:resource="http://purl.org/dc/dcmitype/StillImage" />
        <dc:title></dc:title>
      </cc:Work>
    </rdf:RDF>
  </metadata>
  <defs
     id="defs8" />
  <sodipodi:namedview
     inkscape:current-layer="svg4"
     inkscape:cy="256"
     inkscape:cx="192"
     inkscape:zoom="1.3964844"
     showgrid="false"
     id="namedview6"
     inkscape:window-height="480"
     inkscape:window-width="640"
     inkscape:pageshadow="2"
     inkscape:pageopacity="0"
     guidetolerance="10"
     gridtolerance="10"
     objecttolerance="10"
     borderopacity="1"
     bordercolor="#666666"
     pagecolor="#ffffff" />
  <path
     inkscape:connector-curvature="0"
     id="path2"
     class=""
     d="M 448,121.941 V 128 H 320 V 0 h 6.059 c 6.365,0 12.47,2.529 16.971,7.029 l 97.941,97.941 A 24.005,24.005 0 0 1 448,121.941 Z M 312,160 c -13.2,0 -24,-10.8 -24,-24 V 0 H 88 C 74.745,0 64,10.745 64,24 v 464 c 0,13.255 10.745,24 24,24 h 336 c 13.255,0 24,-10.745 24,-24 V 160 Z M 187.206,400.505 a 5.4,5.4 0 0 1 -7.633,0.246 l -64.866,-60.812 a 5.4,5.4 0 0 1 0,-7.879 l 64.866,-60.812 a 5.4,5.4 0 0 1 7.633,0.246 l 19.579,20.885 a 5.4,5.4 0 0 1 -0.372,7.747 L 165.65,336 l 40.763,35.874 a 5.4,5.4 0 0 1 0.372,7.747 z m 51.295,50.479 -27.453,-7.97 a 5.402,5.402 0 0 1 -3.681,-6.692 l 61.44,-211.626 a 5.402,5.402 0 0 1 6.692,-3.681 l 27.452,7.97 a 5.4,5.4 0 0 1 3.68,6.692 l -61.44,211.626 a 5.397,5.397 0 0 1 -6.69,3.681 z m 160.792,-111.045 -64.866,60.812 a 5.4,5.4 0 0 1 -7.633,-0.246 l -19.58,-20.885 a 5.4,5.4 0 0 1 0.372,-7.747 L 348.35,336 307.587,300.126 a 5.4,5.4 0 0 1 -0.372,-7.747 l 19.58,-20.885 a 5.4,5.4 0 0 1 7.633,-0.246 l 64.866,60.812 a 5.4,5.4 0 0 1 -10e-4,7.879 z"
     fill="#787878" />
</svg>
