<svg xmlns="http://www.w3.org/2000/svg" viewBox="0 0 16 16">
  <defs id="defs3051" color="#53b7ec" fill="#53b7ec" style="">
    <style type="text/css" id="current-color-scheme">
      .ColorScheme-Text {
        color:#232629;
      }
      </style>
  </defs>
 <path style="" d="M 8 2 A 5 6 0 0 0 3 8 A 5 6 0 0 0 8 14 A 5 6 0 0 0 12.101562 11.417969 L 11.326172 10.771484 A 4 5 0 0 1 8 13 A 4 5 0 0 1 4 8 A 4 5 0 0 1 8 3 A 4 5 0 0 1 11.326172 5.2285156 L 12.105469 4.578125 A 5 6 0 0 0 8 2 z " class="ColorScheme-Text" color="#53b7ec" fill="#53b7ec"/>
</svg>