<?xml version="1.0" encoding="UTF-8" standalone="no"?>
<svg
   xmlns:dc="http://purl.org/dc/elements/1.1/"
   xmlns:cc="http://creativecommons.org/ns#"
   xmlns:rdf="http://www.w3.org/1999/02/22-rdf-syntax-ns#"
   xmlns:svg="http://www.w3.org/2000/svg"
   xmlns="http://www.w3.org/2000/svg"
   xmlns:sodipodi="http://sodipodi.sourceforge.net/DTD/sodipodi-0.dtd"
   xmlns:inkscape="http://www.inkscape.org/namespaces/inkscape"
   inkscape:version="1.0rc1 (09960d6, 2020-04-09)"
   sodipodi:docname="cloud-upload-symbolic.svg"
   id="svg4"
   version="1.1"
   class="svg-inline--fa fa-upload fa-w-16 fa-9x"
   viewBox="0 0 512 512"
   role="img"
   data-icon="upload"
   data-prefix="fas"
   focusable="false"
   aria-hidden="true">
  <metadata
     id="metadata10">
    <rdf:RDF>
      <cc:Work
         rdf:about="">
        <dc:format>image/svg+xml</dc:format>
        <dc:type
           rdf:resource="http://purl.org/dc/dcmitype/StillImage" />
        <dc:title></dc:title>
      </cc:Work>
    </rdf:RDF>
  </metadata>
  <defs
     id="defs8" />
  <sodipodi:namedview
     inkscape:current-layer="svg4"
     inkscape:cy="256"
     inkscape:cx="256"
     inkscape:zoom="1.3964844"
     showgrid="false"
     id="namedview6"
     inkscape:window-height="480"
     inkscape:window-width="640"
     inkscape:pageshadow="2"
     inkscape:pageopacity="0"
     guidetolerance="10"
     gridtolerance="10"
     objecttolerance="10"
     borderopacity="1"
     bordercolor="#666666"
     pagecolor="#ffffff" />
  <path
     style="stroke-width:0.839905"
     inkscape:connector-curvature="0"
     id="path2"
     color="#53b7ec"
     class=""
     d="m 289.59375,363.48425 h -67.1875 c -11.16992,0 -20.15625,-8.98764 -20.15625,-20.1592 V 202.21063 h -73.6543 c -14.94922,0 -22.42382,-18.05929 -11.84179,-28.64287 L 244.49414,45.724813 c 6.29883,-6.299751 16.62891,-6.299751 22.92773,0 L 395.24609,173.56776 c 10.58203,10.58358 3.10742,28.64287 -11.84179,28.64287 H 309.75 v 141.11442 c 0,11.17156 -8.98633,20.1592 -20.15625,20.1592 z M 471,356.76451 V 450.8408 C 471,462.01236 462.01367,471 450.84375,471 H 61.15625 C 49.986328,471 41,462.01236 41,450.8408 v -94.07629 c 0,-11.17155 8.986328,-20.1592 20.15625,-20.1592 H 175.375 v 6.71974 c 0,25.95498 21.08008,47.03814 47.03125,47.03814 h 67.1875 c 25.95117,0 47.03125,-21.08316 47.03125,-47.03814 v -6.71974 h 114.21875 c 11.16992,0 20.15625,8.98765 20.15625,20.1592 z m -104.14063,73.91708 c 0,-9.23963 -7.55859,-16.79933 -16.79687,-16.79933 -9.23828,0 -16.79688,7.5597 -16.79688,16.79933 0,9.23964 7.5586,16.79934 16.79688,16.79934 9.23828,0 16.79687,-7.5597 16.79687,-16.79934 z m 53.75,0 c 0,-9.23963 -7.55859,-16.79933 -16.79687,-16.79933 -9.23828,0 -16.79688,7.5597 -16.79688,16.79933 0,9.23964 7.5586,16.79934 16.79688,16.79934 9.23828,0 16.79687,-7.5597 16.79687,-16.79934 z"
     fill="#53b7ec" />
</svg>
