<?xml version="1.0" encoding="UTF-8" standalone="no"?>
<svg
   xmlns:dc="http://purl.org/dc/elements/1.1/"
   xmlns:cc="http://creativecommons.org/ns#"
   xmlns:rdf="http://www.w3.org/1999/02/22-rdf-syntax-ns#"
   xmlns:svg="http://www.w3.org/2000/svg"
   xmlns="http://www.w3.org/2000/svg"
   xmlns:sodipodi="http://sodipodi.sourceforge.net/DTD/sodipodi-0.dtd"
   xmlns:inkscape="http://www.inkscape.org/namespaces/inkscape"
   inkscape:version="1.0rc1 (09960d6, 2020-04-09)"
   height="512"
   width="512"
   sodipodi:docname="configure-shortcuts-symbolic.svg"
   id="svg4"
   version="1.1"
   class="svg-inline--fa fa-keyboard fa-w-18 fa-9x"
   viewBox="0 0 512 512"
   role="img"
   data-icon="keyboard"
   data-prefix="fas"
   focusable="false"
   aria-hidden="true">
  <metadata
     id="metadata10">
    <rdf:RDF>
      <cc:Work
         rdf:about="">
        <dc:format>image/svg+xml</dc:format>
        <dc:type
           rdf:resource="http://purl.org/dc/dcmitype/StillImage" />
        <dc:title></dc:title>
      </cc:Work>
    </rdf:RDF>
  </metadata>
  <defs
     id="defs8" />
  <sodipodi:namedview
     inkscape:current-layer="svg4"
     inkscape:cy="256"
     inkscape:cx="288"
     inkscape:zoom="1.3964844"
     showgrid="false"
     id="namedview6"
     inkscape:window-height="480"
     inkscape:window-width="640"
     inkscape:pageshadow="2"
     inkscape:pageopacity="0"
     guidetolerance="10"
     gridtolerance="10"
     objecttolerance="10"
     borderopacity="1"
     bordercolor="#666666"
     pagecolor="#ffffff" />
  <path
     style="stroke-width:0.746528"
     inkscape:connector-curvature="0"
     id="path2"
     class=""
     d="M 435.16667,399.33334 H 76.833333 C 57.042882,399.33334 41,383.29044 41,363.5 v -215 c 0,-19.79045 16.042882,-35.83334 35.833333,-35.83334 H 435.16667 C 454.95712,112.66666 471,128.70955 471,148.5 v 215 c 0,19.79044 -16.04288,35.83334 -35.83333,35.83334 z M 136.55556,199.26388 v -29.86111 c 0,-4.94724 -4.0111,-8.95833 -8.95834,-8.95833 H 97.736111 c -4.947239,0 -8.958333,4.01109 -8.958333,8.95833 v 29.86111 c 0,4.94724 4.011094,8.95834 8.958333,8.95834 h 29.861109 c 4.94724,0 8.95834,-4.0111 8.95834,-8.95834 z m 71.66666,0 v -29.86111 c 0,-4.94724 -4.01109,-8.95833 -8.95833,-8.95833 h -29.86111 c -4.94724,0 -8.95834,4.01109 -8.95834,8.95833 v 29.86111 c 0,4.94724 4.0111,8.95834 8.95834,8.95834 h 29.86111 c 4.94724,0 8.95833,-4.0111 8.95833,-8.95834 z m 71.66667,0 v -29.86111 c 0,-4.94724 -4.01109,-8.95833 -8.95833,-8.95833 h -29.86112 c -4.94724,0 -8.95833,4.01109 -8.95833,8.95833 v 29.86111 c 0,4.94724 4.01109,8.95834 8.95833,8.95834 h 29.86112 c 4.94724,0 8.95833,-4.0111 8.95833,-8.95834 z m 71.66667,0 v -29.86111 c 0,-4.94724 -4.0111,-8.95833 -8.95834,-8.95833 h -29.86111 c -4.94724,0 -8.95833,4.01109 -8.95833,8.95833 v 29.86111 c 0,4.94724 4.01109,8.95834 8.95833,8.95834 h 29.86111 c 4.94724,0 8.95834,-4.0111 8.95834,-8.95834 z m 71.66666,0 v -29.86111 c 0,-4.94724 -4.01109,-8.95833 -8.95833,-8.95833 h -29.86111 c -4.94724,0 -8.95834,4.01109 -8.95834,8.95833 v 29.86111 c 0,4.94724 4.0111,8.95834 8.95834,8.95834 h 29.86111 c 4.94724,0 8.95833,-4.0111 8.95833,-8.95834 z m -250.83333,71.66668 v -29.86112 c 0,-4.94724 -4.01109,-8.95834 -8.95833,-8.95834 h -29.86112 c -4.94724,0 -8.95833,4.0111 -8.95833,8.95834 v 29.86112 c 0,4.94723 4.01109,8.95832 8.95833,8.95832 h 29.86112 c 4.94724,0 8.95833,-4.01109 8.95833,-8.95832 z m 71.66667,0 v -29.86112 c 0,-4.94724 -4.0111,-8.95834 -8.95834,-8.95834 h -29.86111 c -4.94724,0 -8.95833,4.0111 -8.95833,8.95834 v 29.86112 c 0,4.94723 4.01109,8.95832 8.95833,8.95832 h 29.86111 c 4.94724,0 8.95834,-4.01109 8.95834,-8.95832 z m 71.66666,0 v -29.86112 c 0,-4.94724 -4.01109,-8.95834 -8.95833,-8.95834 h -29.86111 c -4.94724,0 -8.95834,4.0111 -8.95834,8.95834 v 29.86112 c 0,4.94723 4.0111,8.95832 8.95834,8.95832 h 29.86111 c 4.94724,0 8.95833,-4.01109 8.95833,-8.95832 z m 71.66667,0 v -29.86112 c 0,-4.94724 -4.01109,-8.95834 -8.95833,-8.95834 h -29.86112 c -4.94724,0 -8.95833,4.0111 -8.95833,8.95834 v 29.86112 c 0,4.94723 4.01109,8.95832 8.95833,8.95832 h 29.86112 c 4.94724,0 8.95833,-4.01109 8.95833,-8.95832 z M 136.55556,342.59722 V 312.7361 c 0,-4.94724 -4.0111,-8.95832 -8.95834,-8.95832 H 97.736111 c -4.947239,0 -8.958333,4.01108 -8.958333,8.95832 v 29.86112 c 0,4.94725 4.011094,8.95834 8.958333,8.95834 h 29.861109 c 4.94724,0 8.95834,-4.0111 8.95834,-8.95834 z m 215,0 V 312.7361 c 0,-4.94724 -4.0111,-8.95832 -8.95834,-8.95832 H 169.40278 c -4.94724,0 -8.95834,4.01108 -8.95834,8.95832 v 29.86112 c 0,4.94725 4.0111,8.95834 8.95834,8.95834 h 173.19444 c 4.94724,0 8.95834,-4.0111 8.95834,-8.95834 z m 71.66666,0 V 312.7361 c 0,-4.94724 -4.01109,-8.95832 -8.95833,-8.95832 h -29.86111 c -4.94724,0 -8.95834,4.01108 -8.95834,8.95832 v 29.86112 c 0,4.94725 4.0111,8.95834 8.95834,8.95834 h 29.86111 c 4.94724,0 8.95833,-4.0111 8.95833,-8.95834 z"
     fill="#53b7ec"
     color="#53b7ec" />
</svg>
