<?xml version="1.0" encoding="UTF-8" standalone="no"?>
<svg
   xmlns:dc="http://purl.org/dc/elements/1.1/"
   xmlns:cc="http://creativecommons.org/ns#"
   xmlns:rdf="http://www.w3.org/1999/02/22-rdf-syntax-ns#"
   xmlns:svg="http://www.w3.org/2000/svg"
   xmlns="http://www.w3.org/2000/svg"
   xmlns:sodipodi="http://sodipodi.sourceforge.net/DTD/sodipodi-0.dtd"
   xmlns:inkscape="http://www.inkscape.org/namespaces/inkscape"
   inkscape:version="1.0rc1 (09960d6, 2020-04-09)"
   height="512"
   width="512"
   sodipodi:docname="document-export-ocal-symbolic.svg"
   id="svg4"
   version="1.1"
   class="svg-inline--fa fa-file-export fa-w-18 fa-9x"
   viewBox="0 0 512 512"
   role="img"
   data-icon="file-export"
   data-prefix="fas"
   focusable="false"
   aria-hidden="true">
  <metadata
     id="metadata10">
    <rdf:RDF>
      <cc:Work
         rdf:about="">
        <dc:format>image/svg+xml</dc:format>
        <dc:type
           rdf:resource="http://purl.org/dc/dcmitype/StillImage" />
        <dc:title></dc:title>
      </cc:Work>
    </rdf:RDF>
  </metadata>
  <defs
     id="defs8" />
  <sodipodi:namedview
     inkscape:current-layer="svg4"
     inkscape:cy="256"
     inkscape:cx="288"
     inkscape:zoom="1.3964844"
     showgrid="false"
     id="namedview6"
     inkscape:window-height="480"
     inkscape:window-width="640"
     inkscape:pageshadow="2"
     inkscape:pageopacity="0"
     guidetolerance="10"
     gridtolerance="10"
     objecttolerance="10"
     borderopacity="1"
     bordercolor="#666666"
     pagecolor="#ffffff" />
  <path
     style="stroke-width:0.746593"
     inkscape:connector-curvature="0"
     id="path2"
     color="#53b7ec"
     class=""
     d="m 327.69155,155.88194 c 0,-4.70354 -1.86648,-9.25775 -5.22615,-12.61742 L 249.37399,70.098448 C 246.01432,66.738782 241.46011,64.8723 236.68192,64.8723 h -4.55422 v 95.56385 h 95.56385 z m 139.61282,138.94088 -71.44891,-71.97153 c -7.54059,-7.54058 -20.45664,-2.23978 -20.45664,8.4365 v 48.60317 h -47.78193 v 47.78193 h 47.78193 v 48.67784 c 0,10.67627 12.91605,15.97708 20.45664,8.43649 l 71.44891,-72.04618 c 4.92751,-4.92751 4.92751,-12.99071 0,-17.91822 z m -282.95859,20.90459 v -23.89096 c 0,-6.57002 5.37546,-11.94549 11.94548,-11.94549 H 327.69155 V 184.32711 H 226.15496 c -9.85502,0 -17.91822,-8.0632 -17.91822,-17.91822 V 64.8723 H 58.918221 c -9.929682,0 -17.918222,7.988541 -17.918222,17.918222 V 429.20948 c 0,9.92968 7.98854,17.91822 17.918222,17.91822 H 309.77333 c 9.92968,0 17.91822,-7.98854 17.91822,-17.91822 V 327.67289 H 196.29126 c -6.57002,0 -11.94548,-5.37547 -11.94548,-11.94548 z"
     fill="#53b7ec" />
</svg>
