<?xml version="1.0" encoding="UTF-8" standalone="no"?>
<svg
   xmlns:dc="http://purl.org/dc/elements/1.1/"
   xmlns:cc="http://creativecommons.org/ns#"
   xmlns:rdf="http://www.w3.org/1999/02/22-rdf-syntax-ns#"
   xmlns:svg="http://www.w3.org/2000/svg"
   xmlns="http://www.w3.org/2000/svg"
   xmlns:sodipodi="http://sodipodi.sourceforge.net/DTD/sodipodi-0.dtd"
   xmlns:inkscape="http://www.inkscape.org/namespaces/inkscape"
   inkscape:version="1.0rc1 (09960d6, 2020-04-09)"
   height="512"
   width="512"
   sodipodi:docname="document-new-symbolic.svg"
   id="svg4"
   version="1.1"
   class="svg-inline--fa fa-file-plus fa-w-12 fa-9x"
   viewBox="0 0 512 512"
   role="img"
   data-icon="file-plus"
   data-prefix="fas"
   focusable="false"
   aria-hidden="true">
  <metadata
     id="metadata10">
    <rdf:RDF>
      <cc:Work
         rdf:about="">
        <dc:format>image/svg+xml</dc:format>
        <dc:type
           rdf:resource="http://purl.org/dc/dcmitype/StillImage" />
        <dc:title></dc:title>
      </cc:Work>
    </rdf:RDF>
  </metadata>
  <defs
     id="defs8" />
  <sodipodi:namedview
     inkscape:current-layer="svg4"
     inkscape:cy="256"
     inkscape:cx="192"
     inkscape:zoom="1.3964844"
     showgrid="false"
     id="namedview6"
     inkscape:window-height="480"
     inkscape:window-width="640"
     inkscape:pageshadow="2"
     inkscape:pageopacity="0"
     guidetolerance="10"
     gridtolerance="10"
     objecttolerance="10"
     borderopacity="1"
     bordercolor="#666666"
     pagecolor="#ffffff" />
  <path
     style="stroke-width:0.839844"
     inkscape:connector-curvature="0"
     id="path2"
     class=""
     d="M 411.37105,129.18363 329.15037,46.878968 a 20.156244,20.156244 0 0 0 -14.27734,-5.878904 h -5.12305 V 148.50004 h 107.49997 v -5.12305 a 20.089057,20.089057 0 0 0 -5.8789,-14.19336 z M 282.87499,155.21878 V 41.000064 H 114.90629 A 20.105853,20.105853 0 0 0 94.750049,61.156308 V 450.8437 a 20.105853,20.105853 0 0 0 20.156241,20.15624 H 397.09371 A 20.105853,20.105853 0 0 0 417.24995,450.8437 V 175.37503 H 303.03124 a 20.215033,20.215033 0 0 1 -20.15625,-20.15625 z m 60.46873,147.81246 v 13.4375 a 13.437496,13.437496 0 0 1 -13.43749,13.43749 h -53.74999 v 53.74999 a 13.437496,13.437496 0 0 1 -13.43749,13.43749 h -13.4375 a 13.437496,13.437496 0 0 1 -13.43749,-13.43749 v -53.74999 h -53.74999 a 13.437496,13.437496 0 0 1 -13.43749,-13.43749 v -13.4375 a 13.437496,13.437496 0 0 1 13.43749,-13.4375 h 53.74999 v -53.74998 a 13.437496,13.437496 0 0 1 13.43749,-13.4375 h 13.4375 a 13.437496,13.437496 0 0 1 13.43749,13.4375 v 53.74998 h 53.74999 a 13.437496,13.437496 0 0 1 13.43749,13.4375 z"
     fill="#53b7ec" />
</svg>
