<?xml version="1.0" encoding="UTF-8" standalone="no"?>
<svg
   xmlns:dc="http://purl.org/dc/elements/1.1/"
   xmlns:cc="http://creativecommons.org/ns#"
   xmlns:rdf="http://www.w3.org/1999/02/22-rdf-syntax-ns#"
   xmlns:svg="http://www.w3.org/2000/svg"
   xmlns="http://www.w3.org/2000/svg"
   xmlns:sodipodi="http://sodipodi.sourceforge.net/DTD/sodipodi-0.dtd"
   xmlns:inkscape="http://www.inkscape.org/namespaces/inkscape"
   inkscape:version="1.0rc1 (09960d6, 2020-04-09)"
   sodipodi:docname="format-border-set-external-symbolic.svg"
   id="svg10"
   version="1.1"
   viewBox="0 0 16 16">
  <metadata
     id="metadata14">
    <rdf:RDF>
      <cc:Work
         rdf:about="">
        <dc:format>image/svg+xml</dc:format>
        <dc:type
           rdf:resource="http://purl.org/dc/dcmitype/StillImage" />
      </cc:Work>
    </rdf:RDF>
  </metadata>
  <sodipodi:namedview
     inkscape:current-layer="svg10"
     inkscape:cy="8"
     inkscape:cx="8"
     inkscape:zoom="44.6875"
     showgrid="false"
     id="namedview12"
     inkscape:window-height="480"
     inkscape:window-width="640"
     inkscape:pageshadow="2"
     inkscape:pageopacity="0"
     guidetolerance="10"
     gridtolerance="10"
     objecttolerance="10"
     borderopacity="1"
     bordercolor="#666666"
     pagecolor="#ffffff" />
  <defs
     style=""
     fill="#53b7ec"
     color="#53b7ec"
     id="defs3051">
    <style
       id="current-color-scheme"
       type="text/css">
      .ColorScheme-Text {
        color:#232629;
      }
      .ColorScheme-ViewBackground {
        color:#fcfcfc;
      }
      </style>
  </defs>
  <path
     id="path4"
     fill="#53b7ec"
     color="#53b7ec"
     class="ColorScheme-ViewBackground"
     d="M 8 2 L 8 7 L 3 7 L 3 8 L 8 8 L 8 13 L 9 13 L 9 8 L 14 8 L 14 7 L 9 7 L 9 2 L 8 2 z "
     style="" />
  <path
     id="path6"
     fill="#53b7ec"
     color="#53b7ec"
     class="ColorScheme-Text"
     d="M 2 1 L 2 2 L 2 13 L 2 14 L 3 14 L 14 14 L 15 14 L 15 13 L 15 2 L 15 1 L 14 1 L 3 1 L 2 1 z M 3 2 L 14 2 L 14 13 L 3 13 L 3 2 z "
     style="" />
  <path
     id="path8"
     fill="#53b7ec"
     color="#53b7ec"
     class="ColorScheme-Text"
     transform="matrix(-1,0,0,1,438.71429,-531.79074)"
     d="m 435.71429,533.79074 0,5 -5,0 0,-5 5,0 z m -6,0 0,5 -5,0 0,-5 5,0 z m 6,6 0,5 -5,0 0,-5 5,0 z m -6,0 0,5 -5,0 0,-5 5,0 z"
     style="opacity:0.3" />
</svg>
