<?xml version="1.0" encoding="UTF-8" standalone="no"?>
<svg
   xmlns:dc="http://purl.org/dc/elements/1.1/"
   xmlns:cc="http://creativecommons.org/ns#"
   xmlns:rdf="http://www.w3.org/1999/02/22-rdf-syntax-ns#"
   xmlns:svg="http://www.w3.org/2000/svg"
   xmlns="http://www.w3.org/2000/svg"
   xmlns:sodipodi="http://sodipodi.sourceforge.net/DTD/sodipodi-0.dtd"
   xmlns:inkscape="http://www.inkscape.org/namespaces/inkscape"
   inkscape:version="1.0rc1 (09960d6, 2020-04-09)"
   sodipodi:docname="gnumeric-format-border-thick-outside.svg"
   id="svg10"
   version="1.1"
   viewBox="0 0 24 24">
  <metadata
     id="metadata14">
    <rdf:RDF>
      <cc:Work
         rdf:about="">
        <dc:format>image/svg+xml</dc:format>
        <dc:type
           rdf:resource="http://purl.org/dc/dcmitype/StillImage" />
      </cc:Work>
    </rdf:RDF>
  </metadata>
  <sodipodi:namedview
     inkscape:current-layer="svg10"
     inkscape:cy="12"
     inkscape:cx="12"
     inkscape:zoom="29.791667"
     showgrid="false"
     id="namedview12"
     inkscape:window-height="480"
     inkscape:window-width="640"
     inkscape:pageshadow="2"
     inkscape:pageopacity="0"
     guidetolerance="10"
     gridtolerance="10"
     objecttolerance="10"
     borderopacity="1"
     bordercolor="#666666"
     pagecolor="#ffffff" />
  <defs
     style=""
     fill="#53b7ec"
     color="#53b7ec"
     id="defs3051">
    <style
       id="current-color-scheme"
       type="text/css">
      .ColorScheme-Text {
        color:#232629;
      }
      </style>
  </defs>
  <path
     id="path4"
     fill="#53b7ec"
     color="#53b7ec"
     class="ColorScheme-Text"
     d="M 12 3 L 12 11 L 4 11 L 4 12 L 12 12 L 12 20 L 13 20 L 13 12 L 21 12 L 21 11 L 13 11 L 13 3 L 12 3 z "
     style="" />
  <path
     id="path6"
     fill="#53b7ec"
     color="#53b7ec"
     class="ColorScheme-Text"
     d="M 5 4 L 5 11 L 12 11 L 12 4 L 5 4 z M 13 4 L 13 11 L 20 11 L 20 4 L 13 4 z M 5 12 L 5 19 L 12 19 L 12 12 L 5 12 z M 13 12 L 13 19 L 20 19 L 20 12 L 13 12 z "
     style="opacity:0.3" />
  <path
     id="path8"
     fill="#53b7ec"
     color="#53b7ec"
     class="ColorScheme-Text"
     d="m 4,3 0,1 0,15 0,1 1,0 15,0 1,0 0,-1 L 21,4 21,3 20,3 5,3 Z m 2,2 13,0 0,13 -13,0 z"
     style="" />
</svg>
