<svg xmlns="http://www.w3.org/2000/svg" viewBox="0 0 24 24">
  <defs id="defs3051" color="#53b7ec" fill="#53b7ec" style="">
    <style type="text/css" id="current-color-scheme">
      .ColorScheme-Text {
        color:#232629;
      }
      </style>
  </defs>
 <path style="" d="M 4 3 L 4 4 L 4 11 L 4 12 L 4 20 L 5 20 L 5 12 L 12 12 L 12 20 L 13 20 L 13 12 L 20 12 L 20 20 L 21 20 L 21 3 L 5 3 L 4 3 z M 5 4 L 12 4 L 12 11 L 5 11 L 5 4 z M 13 4 L 20 4 L 20 11 L 13 11 L 13 4 z " class="ColorScheme-Text" color="#53b7ec" fill="#53b7ec"/>
 <path style="" d="M 5 4 L 5 11 L 12 11 L 12 4 L 5 4 z M 13 4 L 13 11 L 20 11 L 20 4 L 13 4 z M 5 12 L 5 19 L 12 19 L 12 12 L 5 12 z M 13 12 L 13 19 L 20 19 L 20 12 L 13 12 z " class="ColorScheme-Text" color="#53b7ec" fill="#53b7ec"/>
 <path style="" d="m 4,3 0,1 17,0 0,-1 z m 0,15 0,2 17,0 0,-2 z" class="ColorScheme-Text" color="#53b7ec" fill="#53b7ec"/>
</svg>