<?xml version="1.0" encoding="UTF-8" standalone="no"?>
<svg
   xmlns:dc="http://purl.org/dc/elements/1.1/"
   xmlns:cc="http://creativecommons.org/ns#"
   xmlns:rdf="http://www.w3.org/1999/02/22-rdf-syntax-ns#"
   xmlns:svg="http://www.w3.org/2000/svg"
   xmlns="http://www.w3.org/2000/svg"
   xmlns:sodipodi="http://sodipodi.sourceforge.net/DTD/sodipodi-0.dtd"
   xmlns:inkscape="http://www.inkscape.org/namespaces/inkscape"
   height="512"
   width="512"
   inkscape:version="1.0rc1 (09960d6, 2020-04-09)"
   sodipodi:docname="akonadi-phone-home-symbolic.svg"
   id="svg4"
   version="1.1"
   class="svg-inline--fa fa-home fa-w-18 fa-9x"
   viewBox="0 0 512 512"
   role="img"
   data-icon="home"
   data-prefix="fas"
   focusable="false"
   aria-hidden="true">
  <metadata
     id="metadata10">
    <rdf:RDF>
      <cc:Work
         rdf:about="">
        <dc:format>image/svg+xml</dc:format>
        <dc:type
           rdf:resource="http://purl.org/dc/dcmitype/StillImage" />
        <dc:title></dc:title>
      </cc:Work>
    </rdf:RDF>
  </metadata>
  <defs
     id="defs8" />
  <sodipodi:namedview
     inkscape:current-layer="svg4"
     inkscape:cy="256"
     inkscape:cx="288"
     inkscape:zoom="1.3964844"
     showgrid="false"
     id="namedview6"
     inkscape:window-height="480"
     inkscape:window-width="640"
     inkscape:pageshadow="2"
     inkscape:pageopacity="0"
     guidetolerance="10"
     gridtolerance="10"
     objecttolerance="10"
     borderopacity="1"
     bordercolor="#666666"
     pagecolor="#ffffff" />
  <path
     inkscape:connector-curvature="0"
     id="path2"
     style="stroke-width:0.74647"
     color="#53b7ec"
     class=""
     d="m 250.29905,175.55664 -137.62672,113.3515 v 122.33901 a 11.943524,11.943524 0 0 0 11.94353,11.94352 l 83.64945,-0.21647 a 11.943524,11.943524 0 0 0 11.88381,-11.94353 v -71.44466 a 11.943524,11.943524 0 0 1 11.94352,-11.94353 h 47.7741 a 11.943524,11.943524 0 0 1 11.94352,11.94353 v 71.39241 a 11.943524,11.943524 0 0 0 11.94353,11.98085 l 83.61959,0.2314 a 11.943524,11.943524 0 0 0 11.94353,-11.94352 V 288.82603 L 261.72005,175.55664 a 9.0994723,9.0994723 0 0 0 -11.421,0 z m 217.39453,77.04319 -62.40491,-51.43926 V 97.766973 a 8.9576429,8.9576429 0 0 0 -8.95764,-8.957643 h -41.80234 a 8.9576429,8.9576429 0 0 0 -8.95764,8.957643 V 151.96818 L 278.73957,96.983179 a 35.830572,35.830572 0 0 0 -45.53469,0 L 44.250868,252.59983 a 8.9576429,8.9576429 0 0 0 -1.194352,12.61535 l 19.034991,23.14058 a 8.9576429,8.9576429 0 0 0 12.622812,1.21674 L 250.29905,144.95136 a 9.0994723,9.0994723 0 0 1 11.421,0 L 437.31224,289.5725 a 8.9576429,8.9576429 0 0 0 12.61535,-1.19435 l 19.03499,-23.14058 a 8.9576429,8.9576429 0 0 0 -1.269,-12.63774 z"
     fill="#53b7ec" />
</svg>
