<?xml version="1.0" encoding="UTF-8" standalone="no"?>
<svg
   xmlns:dc="http://purl.org/dc/elements/1.1/"
   xmlns:cc="http://creativecommons.org/ns#"
   xmlns:rdf="http://www.w3.org/1999/02/22-rdf-syntax-ns#"
   xmlns:svg="http://www.w3.org/2000/svg"
   xmlns="http://www.w3.org/2000/svg"
   xmlns:sodipodi="http://sodipodi.sourceforge.net/DTD/sodipodi-0.dtd"
   xmlns:inkscape="http://www.inkscape.org/namespaces/inkscape"
   inkscape:version="1.0rc1 (09960d6, 2020-04-09)"
   sodipodi:docname="albumfolder-new.svg"
   id="svg4"
   version="1.1"
   class="svg-inline--fa fa-folder-plus fa-w-16 fa-9x"
   viewBox="0 0 512 512"
   role="img"
   data-icon="folder-plus"
   data-prefix="fas"
   focusable="false"
   aria-hidden="true">
  <metadata
     id="metadata10">
    <rdf:RDF>
      <cc:Work
         rdf:about="">
        <dc:format>image/svg+xml</dc:format>
        <dc:type
           rdf:resource="http://purl.org/dc/dcmitype/StillImage" />
      </cc:Work>
    </rdf:RDF>
  </metadata>
  <defs
     id="defs8" />
  <sodipodi:namedview
     inkscape:current-layer="svg4"
     inkscape:cy="256"
     inkscape:cx="256"
     inkscape:zoom="1.3964844"
     showgrid="false"
     id="namedview6"
     inkscape:window-height="480"
     inkscape:window-width="640"
     inkscape:pageshadow="2"
     inkscape:pageopacity="0"
     guidetolerance="10"
     gridtolerance="10"
     objecttolerance="10"
     borderopacity="1"
     bordercolor="#666666"
     pagecolor="#ffffff" />
  <path
     style="stroke-width:0.840495"
     inkscape:connector-curvature="0"
     id="path2"
     class=""
     d="m 430.6875,148.33333 h -161.25 L 215.6875,94.5 H 81.312503 c -22.26426,0 -40.312505,18.07623 -40.312505,40.375 v 242.25 c 0,22.29878 18.048245,40.375 40.312505,40.375 H 430.6875 C 452.95176,417.5 471,399.42378 471,377.125 V 188.70833 c 0,-22.29877 -18.04824,-40.375 -40.3125,-40.375 z m -80.625,141.3125 c 0,7.43573 -6.01328,13.45834 -13.4375,13.45834 h -60.46875 v 60.5625 c 0,7.43573 -6.01328,13.45833 -13.4375,13.45833 h -13.4375 c -7.42422,0 -13.4375,-6.0226 -13.4375,-13.45833 v -60.5625 H 175.375 c -7.42422,0 -13.4375,-6.02261 -13.4375,-13.45834 V 276.1875 c 0,-7.43573 6.01328,-13.45833 13.4375,-13.45833 h 60.46875 v -60.5625 c 0,-7.43573 6.01328,-13.45834 13.4375,-13.45834 h 13.4375 c 7.42422,0 13.4375,6.02261 13.4375,13.45834 v 60.5625 H 336.625 c 7.42422,0 13.4375,6.0226 13.4375,13.45833 z"
     fill="#53b7ec"
     color="#53b7ec" />
</svg>
