<svg xmlns:dc="http://purl.org/dc/elements/1.1/" xmlns:cc="http://creativecommons.org/ns#" xmlns:rdf="http://www.w3.org/1999/02/22-rdf-syntax-ns#" xmlns:svg="http://www.w3.org/2000/svg" xmlns="http://www.w3.org/2000/svg" xmlns:sodipodi="http://sodipodi.sourceforge.net/DTD/sodipodi-0.dtd" xmlns:inkscape="http://www.inkscape.org/namespaces/inkscape" viewBox="0 0 16 16" version="1.1" id="svg8" sodipodi:docname="hidemouse-symbolic.svg" inkscape:version="0.92.4 (5da689c313, 2019-01-14)">
  <metadata id="metadata12" color="#53b7ec" fill="#53b7ec">
    <rdf:RDF>
      <cc:Work rdf:about="">
        <dc:format>image/svg+xml</dc:format>
        <dc:type rdf:resource="http://purl.org/dc/dcmitype/StillImage"/>
      </cc:Work>
    </rdf:RDF>
  </metadata>
  <sodipodi:namedview pagecolor="#ffffff" bordercolor="#666666" borderopacity="1" objecttolerance="10" gridtolerance="10" guidetolerance="10" inkscape:pageopacity="0" inkscape:pageshadow="2" inkscape:window-width="1920" inkscape:window-height="1051" id="namedview10" showgrid="false" inkscape:zoom="29.5" inkscape:cx="4.186739" inkscape:cy="6.8838775" inkscape:window-x="0" inkscape:window-y="0" inkscape:window-maximized="1" inkscape:current-layer="svg8" color="#53b7ec" fill="#53b7ec"/>
  <defs id="defs3051" color="#53b7ec" fill="#53b7ec" style="">
    <style type="text/css" id="current-color-scheme">
      .ColorScheme-Text {
        color:#232629;
      }
      .ColorScheme-NegativeText {
        color:#da4453;
      }
      </style>
  </defs>
  <path style="" class="ColorScheme-NegativeText" d="M 9,2.83 10.667,4.497 9,6.164 9.833,6.997 11.5,5.33 13.167,6.997 14,6.164 12.333,4.497 14,2.83 13.167,1.997 11.5,3.664 9.833,1.997 Z" color="#53b7ec" fill="#53b7ec" id="path6"/>
  <path d="M 10.464863,10.283158 H 7.1843933 l 1.7264795,4.205353 c 0.1202605,0.291545 -0.017158,0.618437 -0.292039,0.742128 L 7.098489,15.893236 C 6.8150769,16.016927 6.4972457,15.875577 6.3769859,15.592844 l -1.640575,-3.993311 -2.679938,2.756443 C 1.6993393,14.723252 1.120177,14.440111 1.120177,13.958426 V 0.67135668 c 0,-0.50714264 0.6160234,-0.75437529 0.9362648,-0.39755077 L 10.851403,9.3201744 c 0.354753,0.345691 0.09299,0.9629836 -0.38654,0.9629836 z" class="" id="path2" inkscape:connector-curvature="0" style="color:#53b7ec;fill:#53b7ec;stroke-width:0.03092332"/>
</svg>