<?xml version="1.0" encoding="UTF-8" standalone="no"?>
<svg
   xmlns:dc="http://purl.org/dc/elements/1.1/"
   xmlns:cc="http://creativecommons.org/ns#"
   xmlns:rdf="http://www.w3.org/1999/02/22-rdf-syntax-ns#"
   xmlns:svg="http://www.w3.org/2000/svg"
   xmlns="http://www.w3.org/2000/svg"
   xmlns:sodipodi="http://sodipodi.sourceforge.net/DTD/sodipodi-0.dtd"
   xmlns:inkscape="http://www.inkscape.org/namespaces/inkscape"
   inkscape:version="1.0alpha (9dee831, 2019-01-15)"
   sodipodi:docname="media-default-track-symbolic.svg"
   id="svg63"
   version="1.1"
   width="64"
   viewBox="0 0 64 64"
   height="64">
  <metadata
     id="metadata69">
    <rdf:RDF>
      <cc:Work
         rdf:about="">
        <dc:format>image/svg+xml</dc:format>
        <dc:type
           rdf:resource="http://purl.org/dc/dcmitype/StillImage" />
      </cc:Work>
    </rdf:RDF>
  </metadata>
  <defs
     id="defs67">
    <radialGradient
       fill="#53b7ec"
       color="#53b7ec"
       r="12.699996"
       gradientUnits="userSpaceOnUse"
       cy="280.06601"
       cx="21.166668"
       id="a-3">
      <stop
         id="stop2-6"
         stop-color="#313437"
         offset="0" />
      <stop
         id="stop4-7"
         stop-opacity=".498039"
         stop-color="#313437"
         offset=".97916687" />
      <stop
         id="stop6-5"
         stop-opacity="0"
         stop-color="#313437"
         offset="1" />
    </radialGradient>
    <linearGradient
       fill="#53b7ec"
       color="#53b7ec"
       y2="267.63126"
       y1="292.50208"
       x2="21.695833"
       x1="21.695833"
       gradientUnits="userSpaceOnUse"
       id="b-3">
      <stop
         id="stop9-5"
         stop-color="#c6cdd1"
         offset="0" />
      <stop
         id="stop11-6"
         stop-color="#e0e5e7"
         offset="1" />
    </linearGradient>
    <linearGradient
       fill="#53b7ec"
       color="#53b7ec"
       y2="278.47922"
       y1="282.71255"
       x2="29.633333"
       x1="29.633333"
       gradientUnits="userSpaceOnUse"
       id="c-2">
      <stop
         id="stop14-9"
         stop-color="#ccc"
         offset="0" />
      <stop
         id="stop16-1"
         stop-opacity="0"
         stop-color="#ccc"
         offset="1" />
    </linearGradient>
  </defs>
  <sodipodi:namedview
     inkscape:current-layer="svg63"
     inkscape:window-maximized="0"
     inkscape:window-y="800"
     inkscape:window-x="464"
     inkscape:cy="76.87166"
     inkscape:cx="85.78488"
     inkscape:zoom="3.8007813"
     showgrid="false"
     id="namedview65"
     inkscape:window-height="1283"
     inkscape:window-width="1412"
     inkscape:pageshadow="2"
     inkscape:pageopacity="0"
     guidetolerance="10"
     gridtolerance="10"
     objecttolerance="10"
     borderopacity="1"
     inkscape:document-rotation="0"
     bordercolor="#666666"
     pagecolor="#ffffff" />
  <radialGradient
     style=""
     fill="#53b7ec"
     color="#53b7ec"
     r="12.699996"
     gradientUnits="userSpaceOnUse"
     gradientTransform="matrix(1.924123 0 0 1.9685039 .927271 -519.31368)"
     cy="280.06671"
     cx="18.520836"
     id="a">
    <stop
       id="stop2"
       stop-color="#313437"
       offset="0" />
    <stop
       id="stop4"
       stop-opacity=".498039"
       stop-color="#313437"
       offset=".97916687" />
    <stop
       id="stop6"
       stop-opacity="0"
       stop-color="#313437"
       offset="1" />
  </radialGradient>
  <linearGradient
     style=""
     fill="#53b7ec"
     color="#53b7ec"
     y2="267.63126"
     y1="292.50208"
     x2="19.049999"
     x1="19.049999"
     gradientUnits="userSpaceOnUse"
     gradientTransform="matrix(1.924123 0 0 1.9685039 .927275 -519.3123)"
     id="b">
    <stop
       id="stop9"
       stop-color="#c6cdd1"
       offset="0" />
    <stop
       id="stop11"
       stop-color="#e0e5e7"
       offset="1" />
  </linearGradient>
  <linearGradient
     style=""
     fill="#53b7ec"
     color="#53b7ec"
     y2="267.36673"
     y1="292.76672"
     x2="6.614583"
     x1="6.614583"
     gradientUnits="userSpaceOnUse"
     gradientTransform="matrix(1.924123 0 0 1.9685039 -3.145448 -519.31231)"
     id="c">
    <stop
       id="stop14"
       stop-color="#42a603"
       offset="0" />
    <stop
       id="stop16"
       stop-color="#78da06"
       offset="1" />
  </linearGradient>
  <linearGradient
     style=""
     fill="#53b7ec"
     color="#53b7ec"
     y2="40.735416"
     y1="27.76189"
     x2="37.84013"
     x1="23.707218"
     gradientUnits="userSpaceOnUse"
     gradientTransform="matrix(1.27402 -.19577 .10158 1 -605.44329 -414.40881)"
     id="d">
    <stop
       id="stop19"
       stop-color="#ffc35a"
       offset="0" />
    <stop
       id="stop21"
       stop-color="#faae2a"
       offset="1" />
  </linearGradient>
  <linearGradient
     style=""
     fill="#53b7ec"
     color="#53b7ec"
     y2="42.685452"
     y1="25.424726"
     x2="32.370899"
     x1="19.027754"
     gradientUnits="userSpaceOnUse"
     id="e">
    <stop
       id="stop24"
       stop-color="#292c2f"
       offset="0" />
    <stop
       id="stop26"
       stop-opacity="0"
       offset="1" />
  </linearGradient>
  <g
     transform="matrix(1.924123,0,0,1.9685039,-5.9881942,-519.2838)"
     id="g60"
     style="color:#53b7ec;opacity:1;fill:#53b7ec;stop-opacity:1">
    <path
       d="m 21.166667,276.36238 a 3.7042129,3.7042129 0 0 0 -3.704212,3.70428 3.7042129,3.7042129 0 0 0 3.704212,3.70428 3.7042129,3.7042129 0 0 0 3.704213,-3.70428 3.7042129,3.7042129 0 0 0 -3.704213,-3.70428 z m 0,2.70103 a 1.0032232,1.0032232 0 0 1 1.003228,1.00325 1.0032232,1.0032232 0 0 1 -1.003228,1.00325 1.0032232,1.0032232 0 0 1 -1.003227,-1.00325 1.0032232,1.0032232 0 0 1 1.003227,-1.00325 z"
       fill-opacity=".156863"
       id="path34"
       inkscape:connector-curvature="0" />
    <path
       d="m 21.166667,267.36666 a 12.699996,12.699996 0 0 0 -12.7000011,12.7 12.699996,12.699996 0 0 0 12.7000011,12.7 12.699996,12.699996 0 0 0 12.700001,-12.7 12.699996,12.699996 0 0 0 -12.700001,-12.7 z m 0,9.26042 a 3.4395781,3.4395781 0 0 1 3.439584,3.43958 3.4395781,3.4395781 0 0 1 -3.439584,3.43959 3.4395781,3.4395781 0 0 1 -3.439583,-3.43959 3.4395781,3.4395781 0 0 1 3.439583,-3.43958 z"
       fill="url(#a)"
       id="path36"
       style="fill:url(#a-3)"
       inkscape:connector-curvature="0" />
    <path
       d="M 21.166667,267.63125 A 12.435412,12.435412 0 0 0 8.7312489,280.06666 12.435412,12.435412 0 0 0 21.166667,292.50208 12.435412,12.435412 0 0 0 33.602084,280.06666 12.435412,12.435412 0 0 0 21.166667,267.63125 Z m 0,8.99583 a 3.4395832,3.4395832 0 0 0 -0.289904,0.0145 3.4395781,3.4395781 0 0 1 0.289904,-0.0145 z m 0.289905,0.0145 a 3.4395781,3.4395781 0 0 1 0.17725,0.0217 3.4395832,3.4395832 0 0 0 -0.17725,-0.0217 z m -0.757059,0.0217 a 3.4395832,3.4395832 0 0 0 -0.166915,0.0248 3.4395781,3.4395781 0 0 1 0.166915,-0.0248 z m 1.101224,0.0248 a 3.4395781,3.4395781 0 0 1 0.172083,0.0388 3.4395832,3.4395832 0 0 0 -0.172083,-0.0388 z m -1.440222,0.0388 a 3.4395832,3.4395832 0 0 0 -0.157096,0.0403 3.4395781,3.4395781 0 0 1 0.157096,-0.0403 z m 1.769401,0.0403 a 3.4395781,3.4395781 0 0 1 0.172083,0.0568 3.4395832,3.4395832 0 0 0 -0.172083,-0.0568 z m -2.09858,0.0568 a 3.4395832,3.4395832 0 0 0 -0.156579,0.0568 3.4395781,3.4395781 0 0 1 0.156579,-0.0568 z m 2.427242,0.0568 a 3.4395781,3.4395781 0 0 1 0.157614,0.0708 3.4395832,3.4395832 0 0 0 -0.157614,-0.0708 z m -2.741435,0.0708 a 3.4395832,3.4395832 0 0 0 -0.155029,0.0754 3.4395781,3.4395781 0 0 1 0.155029,-0.0754 z m 3.054078,0.0754 a 3.4395781,3.4395781 0 0 1 0.143144,0.0816 3.4395832,3.4395832 0 0 0 -0.143144,-0.0816 z m -3.352251,0.0816 a 3.4395832,3.4395832 0 0 0 -0.153995,0.0946 3.4395781,3.4395781 0 0 1 0.153995,-0.0946 z m 3.64939,0.0946 a 3.4395781,3.4395781 0 0 1 0.134876,0.0966 3.4395832,3.4395832 0 0 0 -0.134876,-0.0966 z m -3.938261,0.0966 a 3.4395832,3.4395832 0 0 0 -0.137976,0.10438 3.4395781,3.4395781 0 0 1 0.137976,-0.10438 z m 4.211113,0.10438 a 3.4395781,3.4395781 0 0 1 0.132808,0.11679 3.4395832,3.4395832 0 0 0 -0.132808,-0.11679 z m -4.481897,0.11679 a 3.4395832,3.4395832 0 0 0 -0.123507,0.11472 3.4395781,3.4395781 0 0 1 0.123507,-0.11472 z m 4.738212,0.11472 a 3.4395781,3.4395781 0 0 1 0.114722,0.12351 3.4395832,3.4395832 0 0 0 -0.114722,-0.12351 z m -4.976441,0.12351 a 3.4395832,3.4395832 0 0 0 -0.116788,0.13281 3.4395781,3.4395781 0 0 1 0.116788,-0.13281 z m 5.207951,0.13281 a 3.4395781,3.4395781 0 0 1 0.104387,0.13798 3.4395832,3.4395832 0 0 0 -0.104387,-0.13798 z m -5.429126,0.13798 a 3.4395832,3.4395832 0 0 0 -0.09663,0.13487 3.4395781,3.4395781 0 0 1 0.09663,-0.13487 z m 5.630148,0.13487 a 3.4395781,3.4395781 0 0 1 0.09457,0.154 3.4395832,3.4395832 0 0 0 -0.09457,-0.154 z m -5.821351,0.154 a 3.4395832,3.4395832 0 0 0 -0.08165,0.14314 3.4395781,3.4395781 0 0 1 0.08165,-0.14314 z m 5.997567,0.14314 a 3.4395781,3.4395781 0 0 1 0.07545,0.15503 3.4395832,3.4395832 0 0 0 -0.07545,-0.15503 z m -6.154663,0.15503 a 3.4395832,3.4395832 0 0 0 -0.0708,0.15761 3.4395781,3.4395781 0 0 1 0.0708,-0.15761 z m 3.115055,0.12661 a 1.3229165,1.3229165 0 0 1 1.322917,1.32291 1.3229165,1.3229165 0 0 1 -1.322917,1.32292 1.3229165,1.3229165 0 0 1 -1.322916,-1.32292 1.3229165,1.3229165 0 0 1 1.322916,-1.32291 z m 3.185853,0.031 a 3.4395781,3.4395781 0 0 1 0.05684,0.15658 3.4395832,3.4395832 0 0 0 -0.05684,-0.15658 z m -6.428549,0.15658 a 3.4395832,3.4395832 0 0 0 -0.05684,0.17209 3.4395781,3.4395781 0 0 1 0.05684,-0.17209 z m 6.542237,0.17209 a 3.4395781,3.4395781 0 0 1 0.04031,0.15709 3.4395832,3.4395832 0 0 0 -0.04031,-0.15709 z m -6.639388,0.15709 a 3.4395832,3.4395832 0 0 0 -0.03876,0.17208 3.4395781,3.4395781 0 0 1 0.03876,-0.17208 z m 6.718453,0.17208 a 3.4395781,3.4395781 0 0 1 0.0248,0.16692 3.4395832,3.4395832 0 0 0 -0.0248,-0.16692 z m -6.782015,0.16692 a 3.4395832,3.4395832 0 0 0 -0.0217,0.17725 3.4395781,3.4395781 0 0 1 0.0217,-0.17725 z m 6.828523,0.17725 a 3.4395781,3.4395781 0 0 1 0.01447,0.2899 3.4395832,3.4395832 0 0 0 -0.01447,-0.2899 z m -6.864697,0.2899 a 3.4395832,3.4395832 0 0 0 0.01447,0.28991 3.4395781,3.4395781 0 0 1 -0.01447,-0.28991 z m 6.864697,0.28991 a 3.4395781,3.4395781 0 0 1 -0.0217,0.17725 3.4395832,3.4395832 0 0 0 0.0217,-0.17725 z m -6.828523,0.17725 a 3.4395832,3.4395832 0 0 0 0.0248,0.16691 3.4395781,3.4395781 0 0 1 -0.0248,-0.16691 z m 6.782015,0.16691 a 3.4395781,3.4395781 0 0 1 -0.03876,0.17209 3.4395832,3.4395832 0 0 0 0.03876,-0.17209 z m -6.718453,0.17209 a 3.4395832,3.4395832 0 0 0 0.04031,0.15709 3.4395781,3.4395781 0 0 1 -0.04031,-0.15709 z m 6.639388,0.15709 a 3.4395781,3.4395781 0 0 1 -0.05684,0.17209 3.4395832,3.4395832 0 0 0 0.05684,-0.17209 z m -6.542237,0.17209 a 3.4395832,3.4395832 0 0 0 0.05684,0.15657 3.4395781,3.4395781 0 0 1 -0.05684,-0.15657 z m 6.428549,0.15657 a 3.4395781,3.4395781 0 0 1 -0.0708,0.15762 3.4395832,3.4395832 0 0 0 0.0708,-0.15762 z m -6.300908,0.15762 a 3.4395832,3.4395832 0 0 0 0.07545,0.15503 3.4395781,3.4395781 0 0 1 -0.07545,-0.15503 z m 6.154663,0.15503 a 3.4395781,3.4395781 0 0 1 -0.08165,0.14314 3.4395832,3.4395832 0 0 0 0.08165,-0.14314 z m -5.997567,0.14314 a 3.4395832,3.4395832 0 0 0 0.09457,0.154 3.4395781,3.4395781 0 0 1 -0.09457,-0.154 z m 5.821351,0.154 a 3.4395781,3.4395781 0 0 1 -0.09663,0.13487 3.4395832,3.4395832 0 0 0 0.09663,-0.13487 z m -5.630148,0.13487 a 3.4395832,3.4395832 0 0 0 0.104387,0.13798 3.4395781,3.4395781 0 0 1 -0.104387,-0.13798 z m 5.429126,0.13798 a 3.4395781,3.4395781 0 0 1 -0.116788,0.13281 3.4395832,3.4395832 0 0 0 0.116788,-0.13281 z m -5.207951,0.13281 a 3.4395832,3.4395832 0 0 0 0.114722,0.1235 3.4395781,3.4395781 0 0 1 -0.114722,-0.1235 z m 4.976441,0.1235 a 3.4395781,3.4395781 0 0 1 -0.123507,0.11472 3.4395832,3.4395832 0 0 0 0.123507,-0.11472 z m -4.738212,0.11472 a 3.4395832,3.4395832 0 0 0 0.132808,0.11679 3.4395781,3.4395781 0 0 1 -0.132808,-0.11679 z m 4.481897,0.11679 a 3.4395781,3.4395781 0 0 1 -0.137976,0.10439 3.4395832,3.4395832 0 0 0 0.137976,-0.10439 z m -4.211113,0.10439 a 3.4395832,3.4395832 0 0 0 0.134876,0.0966 3.4395781,3.4395781 0 0 1 -0.134876,-0.0966 z m 3.938261,0.0966 a 3.4395781,3.4395781 0 0 1 -0.153995,0.0946 3.4395832,3.4395832 0 0 0 0.153995,-0.0946 z m -3.64939,0.0946 a 3.4395832,3.4395832 0 0 0 0.143144,0.0816 3.4395781,3.4395781 0 0 1 -0.143144,-0.0816 z m 3.352251,0.0816 a 3.4395781,3.4395781 0 0 1 -0.155029,0.0754 3.4395832,3.4395832 0 0 0 0.155029,-0.0754 z m -3.054078,0.0754 a 3.4395832,3.4395832 0 0 0 0.157614,0.0708 3.4395781,3.4395781 0 0 1 -0.157614,-0.0708 z m 2.741435,0.0708 a 3.4395781,3.4395781 0 0 1 -0.156579,0.0568 3.4395832,3.4395832 0 0 0 0.156579,-0.0568 z m -2.427242,0.0568 a 3.4395832,3.4395832 0 0 0 0.172083,0.0568 3.4395781,3.4395781 0 0 1 -0.172083,-0.0568 z m 2.09858,0.0568 a 3.4395781,3.4395781 0 0 1 -0.157096,0.0403 3.4395832,3.4395832 0 0 0 0.157096,-0.0403 z m -1.769401,0.0403 a 3.4395832,3.4395832 0 0 0 0.172083,0.0388 3.4395781,3.4395781 0 0 1 -0.172083,-0.0388 z m 1.440222,0.0388 a 3.4395781,3.4395781 0 0 1 -0.166915,0.0248 3.4395832,3.4395832 0 0 0 0.166915,-0.0248 z m -1.101224,0.0248 a 3.4395832,3.4395832 0 0 0 0.17725,0.0217 3.4395781,3.4395781 0 0 1 -0.17725,-0.0217 z m 0.757059,0.0217 a 3.4395781,3.4395781 0 0 1 -0.289905,0.0145 3.4395832,3.4395832 0 0 0 0.289905,-0.0145 z"
       fill="url(#b)"
       id="path38"
       style="fill:url(#b-3)"
       inkscape:connector-curvature="0" />
    <path
       d="M 21.166667,268.16041 A 11.906245,11.906245 0 0 0 9.2604156,280.06666 11.906245,11.906245 0 0 0 21.166667,291.97291 11.906245,11.906245 0 0 0 33.072918,280.06666 11.906245,11.906245 0 0 0 21.166667,268.16041 Z m 0,8.46667 a 3.4395781,3.4395781 0 0 1 3.439584,3.43958 3.4395781,3.4395781 0 0 1 -3.439584,3.43959 3.4395781,3.4395781 0 0 1 -3.439583,-3.43959 3.4395781,3.4395781 0 0 1 3.439583,-3.43958 z m 0,0.79375 a 2.6458282,2.6458282 0 0 0 -2.645833,2.64583 2.6458282,2.6458282 0 0 0 2.645833,2.64584 2.6458282,2.6458282 0 0 0 2.645834,-2.64584 2.6458282,2.6458282 0 0 0 -2.645834,-2.64583 z m 0,1.32292 a 1.3229115,1.3229115 0 0 1 1.322917,1.32291 1.3229115,1.3229115 0 0 1 -1.322917,1.32292 1.3229115,1.3229115 0 0 1 -1.322916,-1.32292 1.3229115,1.3229115 0 0 1 1.322916,-1.32291 z"
       fill="#313437"
       id="path40"
       inkscape:connector-curvature="0" />
    <path
       d="m 28.839584,278.47921 v 0.52916 1.66037 c -0.07805,-0.0453 -0.1675,-0.0729 -0.264584,-0.0729 -0.293157,0 -0.529166,0.23601 -0.529166,0.52917 0,0.29316 0.236009,0.52917 0.529166,0.52917 0.293157,0 0.529167,-0.23601 0.529167,-0.52917 v -1.5875 h 1.852083 v 0.60203 c -0.07805,-0.0453 -0.1675,-0.0729 -0.264583,-0.0729 -0.293157,0 -0.529167,0.23601 -0.529167,0.52916 0,0.29316 0.23601,0.52917 0.529167,0.52917 0.293157,0 0.529167,-0.23601 0.529167,-0.52917 v -2.11666 h -2.38125 z m 0.264583,0.52916 h 1.852083 v 0.26459 h -1.852083 z"
       fill="url(#c)"
       id="path42"
       style="fill:url(#c-2)"
       inkscape:connector-curvature="0" />
    <g
       fill="#4c5053"
       id="g56">
      <path
         d="m 26.822133,270.27108 c -0.577927,-0.33354 -1.174773,-0.59804 -1.779756,-0.81944 l -2.062656,5.57723 c 0.294443,0.10736 0.584737,0.23544 0.865846,0.39782 0.281108,0.1621 0.537832,0.34924 0.777498,0.55086 l 3.798623,-4.57478 c -0.494258,-0.41316 -1.021625,-0.79789 -1.599555,-1.13169 z"
         id="path44"
         inkscape:connector-curvature="0" />
      <path
         d="m 15.5112,289.86225 c -0.57793,-0.3338 -1.105322,-0.71828 -1.599559,-1.13168 l 3.798627,-4.57478 c 0.239666,0.20164 0.49639,0.38872 0.777473,0.55085 0.281109,0.16228 0.571405,0.29114 0.865871,0.39783 l -2.062656,5.57723 c -0.604983,-0.2214 -1.201851,-0.48591 -1.779756,-0.81945 z"
         id="path46"
         inkscape:connector-curvature="0" />
      <g
         fill-opacity=".19774"
         id="g54">
        <path
           d="m 13.168606,288.0646 c -0.471869,-0.47172 -0.881699,-0.97979 -1.252166,-1.50679 l 4.853277,-3.43604 c 0.17925,0.25688 0.378869,0.50394 0.608402,0.73344 0.229507,0.22951 0.476562,0.42922 0.733368,0.60841 l -3.435838,4.85325 c -0.527079,-0.37039 -1.035171,-0.7803 -1.507043,-1.25227 z"
           id="path48"
           inkscape:connector-curvature="0" />
        <path
           d="m 30.962223,274.41112 c -0.333669,-0.57785 -0.718373,-1.10524 -1.131581,-1.5994 l -4.574905,3.79852 c 0.201643,0.23977 0.388647,0.49637 0.550928,0.77755 0.162344,0.28118 0.291142,0.57145 0.397851,0.86582 l 5.577156,-2.06273 c -0.2214,-0.60488 -0.485781,-1.20165 -0.819449,-1.77976 z"
           id="path50"
           inkscape:connector-curvature="0" />
        <path
           d="m 11.371085,285.72221 c -0.333644,-0.57811 -0.598023,-1.17488 -0.819424,-1.77976 l 5.577131,-2.06273 c 0.106693,0.29437 0.23557,0.58489 0.397876,0.86582 0.162326,0.28118 0.349261,0.53779 0.550903,0.77755 l -4.57488,3.79853 c -0.413233,-0.49417 -0.797935,-1.02156 -1.131606,-1.59941 z"
           id="path52"
           inkscape:connector-curvature="0" />
      </g>
    </g>
    <path
       d="M 80,52 A 12,12 0 0 0 68,64 12,12 0 0 0 80,76 12,12 0 0 0 92,64 12,12 0 0 0 80,52 Z m 0,1 A 11,11 0 0 1 91,64 11,11 0 0 1 80,75 11,11 0 0 1 69,64 11,11 0 0 1 80,53 Z"
       fill-opacity=".078431"
       transform="matrix(0.26458334,0,0,0.26458334,-1e-6,263.13333)"
       id="path58"
       inkscape:connector-curvature="0" />
  </g>
  <path
     id="path29"
     style=""
     fill="#53b7ec"
     color="#53b7ec"
     fill-opacity=".156863"
     d="m36.563637 24.708113a7.1273612 7.2917575 0 0 0 -7.12736 7.291889 7.1273612 7.2917575 0 0 0 7.12736 7.29189 7.1273612 7.2917575 0 0 0 7.127361-7.29189 7.1273612 7.2917575 0 0 0 -7.127361-7.291889zm0 5.316988a1.9303248 1.9748488 0 0 1 1.930334 1.974901 1.9303248 1.9748488 0 0 1 -1.930334 1.974902 1.9303248 1.9748488 0 0 1 -1.930333-1.974902 1.9303248 1.9748488 0 0 1 1.930333-1.974901z" />
  <path
     id="path51"
     style=""
     fill="#53b7ec"
     color="#53b7ec"
     fill-opacity=".078431"
     d="m36.563635 25.75001a6.1090907 6.2500001 0 0 0 -6.109091 6.25 6.1090907 6.2500001 0 0 0 6.109091 6.25 6.1090907 6.2500001 0 0 0 6.109091-6.25 6.1090907 6.2500001 0 0 0 -6.109091-6.25zm0 .520833a5.5999998 5.7291667 0 0 1 5.6 5.729167 5.5999998 5.7291667 0 0 1 -5.6 5.729167 5.5999998 5.7291667 0 0 1 -5.6-5.729167 5.5999998 5.7291667 0 0 1 5.6-5.729167z" />
  <path
     id="path53"
     style=""
     color="#53b7ec"
     fill="#53b7ec"
     d="m5 7.0000029v49.9999991h48.872725v-21.354153h-4.581818c-1.974254 0-3.563635-1.626043-3.563635-3.645847 0-2.019783 1.589381-3.645826 3.563635-3.645826h4.581818v-21.3541731h-48.872725z" />
  <path
     id="path55"
     style=""
     fill="#53b7ec"
     color="#53b7ec"
     fill-opacity=".313725"
     d="m53.363635 7.0000029v20.8333461h-4.581818c-1.974254 0-3.563635 1.626024-3.563635 3.645827 0 1.142972.509867 2.159468 1.309515 2.826948-.500516-.627598-.800425-1.429291-.800425-2.306122 0-2.019783 1.589381-3.645826 3.563635-3.645826h4.581818v-21.3541731zm0 28.6458461v20.354153h-48.3636346l-.0000004 1h48.872725v-21.354153z" />
  <path
     id="path57"
     style=""
     color="#53b7ec"
     fill-opacity=".235294"
     fill="#53b7ec"
     d="m5 7.0000029.0000004 1h48.3636346v-1zm40.740198 25.2604331c-.006.08642-.01289.17244-.01289.260413 0 2.019783 1.589382 3.645827 3.563636 3.645827h4.581818v-.520827h-4.581818c-1.888175 0-3.420346-1.48878-3.550709-3.385413z" />
  <path
     id="path59"
     style=""
     color="#53b7ec"
     opacity=".2"
     fill-rule="evenodd"
     fill="#53b7ec"
     d="m37 21 8 8v20h-23l-6-7 6-3 10 10h9l-10-10 6-4z" />
  <path
     id="path61"
     style=""
     color="#53b7ec"
     fill="#53b7ec"
     d="m21 21v16.05c-.635-.648-1.517-1.053-2.5-1.053-1.939 0-3.5 1.561-3.5 3.5s1.561 3.5 3.5 3.5c1.905 0 3.437-1.509 3.49-3.4h.01v-13.6h14v8.05c-.635-.648-1.517-1.053-2.5-1.053-1.939 0-3.5 1.561-3.5 3.5s1.561 3.5 3.5 3.5 3.5-1.561 3.5-3.5v-15.5h-15zm1 2h14v2h-14z" />
</svg>
