<?xml version="1.0" encoding="UTF-8" standalone="no"?>
<svg
   xmlns:dc="http://purl.org/dc/elements/1.1/"
   xmlns:cc="http://creativecommons.org/ns#"
   xmlns:rdf="http://www.w3.org/1999/02/22-rdf-syntax-ns#"
   xmlns:svg="http://www.w3.org/2000/svg"
   xmlns="http://www.w3.org/2000/svg"
   xmlns:sodipodi="http://sodipodi.sourceforge.net/DTD/sodipodi-0.dtd"
   xmlns:inkscape="http://www.inkscape.org/namespaces/inkscape"
   inkscape:version="1.0rc1 (09960d6, 2020-04-09)"
   height="512"
   width="512"
   sodipodi:docname="application-pdf-symbolic.svg"
   id="svg4"
   version="1.1"
   class="svg-inline--fa fa-file-pdf fa-w-12 fa-9x"
   viewBox="0 0 512 512"
   role="img"
   data-icon="file-pdf"
   data-prefix="fas"
   focusable="false"
   aria-hidden="true">
  <metadata
     id="metadata10">
    <rdf:RDF>
      <cc:Work
         rdf:about="">
        <dc:format>image/svg+xml</dc:format>
        <dc:type
           rdf:resource="http://purl.org/dc/dcmitype/StillImage" />
        <dc:title></dc:title>
      </cc:Work>
    </rdf:RDF>
  </metadata>
  <defs
     id="defs8" />
  <sodipodi:namedview
     inkscape:current-layer="svg4"
     inkscape:cy="256"
     inkscape:cx="192"
     inkscape:zoom="1.3964844"
     showgrid="false"
     id="namedview6"
     inkscape:window-height="480"
     inkscape:window-width="640"
     inkscape:pageshadow="2"
     inkscape:pageopacity="0"
     guidetolerance="10"
     gridtolerance="10"
     objecttolerance="10"
     borderopacity="1"
     bordercolor="#666666"
     pagecolor="#ffffff" />
  <path
     inkscape:connector-curvature="0"
     id="path2"
     class=""
     d="m 245.9,256.1 c -5,-16 -4.9,-46.9 -2,-46.9 8.4,0 7.6,36.9 2,46.9 z m -1.7,47.2 c -7.7,20.2 -17.3,43.3 -28.4,62.7 18.3,-7 39,-17.2 62.9,-21.9 -12.7,-9.6 -24.9,-23.4 -34.5,-40.8 z m -94.1,124.8 c 0,0.8 13.2,-5.4 34.9,-40.2 -6.7,6.3 -29.1,24.5 -34.9,40.2 z M 312,160 h 136 v 328 c 0,13.3 -10.7,24 -24,24 H 88 C 74.7,512 64,501.3 64,488 V 24 C 64,10.7 74.7,0 88,0 h 200 v 136 c 0,13.2 10.8,24 24,24 z m -8,171.8 c -20,-12.2 -33.3,-29 -42.7,-53.8 4.5,-18.5 11.6,-46.6 6.2,-64.2 -4.7,-29.4 -42.4,-26.5 -47.8,-6.8 -5,18.3 -0.4,44.1 8.1,77 -11.6,27.6 -28.7,64.6 -40.8,85.8 -0.1,0 -0.1,0.1 -0.2,0.1 -27.1,13.9 -73.6,44.5 -54.5,68 5.6,6.9 16,10 21.5,10 17.9,0 35.7,-18 61.1,-61.8 25.8,-8.5 54.1,-19.1 79,-23.2 21.7,11.8 47.1,19.5 64,19.5 29.2,0 31.2,-32 19.7,-43.4 -13.9,-13.6 -54.3,-9.7 -73.6,-7.2 z M 441,105 343,7 C 338.5,2.5 332.4,0 326,0 h -6 v 128 h 128 v -6.1 c 0,-6.3 -2.5,-12.4 -7,-16.9 z m -74.1,255.3 c 4.1,-2.7 -2.5,-11.9 -42.8,-9 37.1,15.8 42.8,9 42.8,9 z"
     fill="#53b7ec" />
</svg>
