<svg xmlns="http://www.w3.org/2000/svg" viewBox="0 0 16 16">
  <defs id="defs3051" color="#53b7ec" fill="#53b7ec" style="">
    <style type="text/css" id="current-color-scheme">
      .ColorScheme-Text {
        color:#232629;
      }
      .ColorScheme-Highlight {
        color:#3daee9;
      }
      </style>
  </defs>
  <path style="" d="M 8,2 A 5,5 0 0 0 3,7 l 0,3 2,0 0,-3 a 3,3 0 0 1 3,-3 3,3 0 0 1 3,3 l 0,2 2,0 0,-2 A 5,5 0 0 0 8,2 m -5,9 0,2 2,0 0,-2 z" class="ColorScheme-Text" color="#53b7ec" fill="#53b7ec"/>
  <path style="" d="m 10,10 0,4 4,0 0,-4 z m 1,1 2,0 0,2 -2,0 z" class="ColorScheme-Highlight" color="#53b7ec" fill="#53b7ec"/>
</svg>