<svg xmlns:dc="http://purl.org/dc/elements/1.1/" xmlns:cc="http://creativecommons.org/ns#" xmlns:rdf="http://www.w3.org/1999/02/22-rdf-syntax-ns#" xmlns:svg="http://www.w3.org/2000/svg" xmlns="http://www.w3.org/2000/svg" xmlns:sodipodi="http://sodipodi.sourceforge.net/DTD/sodipodi-0.dtd" xmlns:inkscape="http://www.inkscape.org/namespaces/inkscape" aria-hidden="true" focusable="false" data-prefix="far" data-icon="trash-alt" role="img" viewBox="0 0 512 512" class="svg-inline--fa fa-trash-alt fa-w-14 fa-9x" version="1.1" id="svg4" sodipodi:docname="user-trash-symbolic.svg" width="512" height="512" inkscape:version="0.92.4 (5da689c313, 2019-01-14)">
  <metadata id="metadata10" color="#53b7ec" fill="#53b7ec">
    <rdf:RDF>
      <cc:Work rdf:about="">
        <dc:format>image/svg+xml</dc:format>
        <dc:type rdf:resource="http://purl.org/dc/dcmitype/StillImage"/>
        <dc:title/>
      </cc:Work>
    </rdf:RDF>
  </metadata>
  <defs id="defs8" color="#53b7ec" fill="#53b7ec"/>
  <sodipodi:namedview pagecolor="#ffffff" bordercolor="#666666" borderopacity="1" objecttolerance="10" gridtolerance="10" guidetolerance="10" inkscape:pageopacity="0" inkscape:pageshadow="2" inkscape:window-width="1920" inkscape:window-height="1051" id="namedview6" showgrid="false" inkscape:zoom="0.4609375" inkscape:cx="-131.79661" inkscape:cy="256" inkscape:window-x="0" inkscape:window-y="0" inkscape:window-maximized="1" inkscape:current-layer="svg4" color="#53b7ec" fill="#53b7ec"/>
  <path d="m 297.94673,391.57385 h 20.51332 a 10.256659,10.256659 0 0 0 10.25666,-10.25666 V 196.69734 a 10.256659,10.256659 0 0 0 -10.25666,-10.25666 h -20.51332 a 10.256659,10.256659 0 0 0 -10.25666,10.25666 v 184.61985 a 10.256659,10.256659 0 0 0 10.25666,10.25666 z M 438.12107,104.38741 H 367.68346 L 338.62293,55.924698 A 41.026634,41.026634 0 0 0 303.4255,36.009686 H 217.25247 A 41.026634,41.026634 0 0 0 182.07213,55.924698 L 152.9945,104.38741 H 82.5569 A 13.675545,13.675545 0 0 0 68.881356,118.06296 V 131.7385 A 13.675545,13.675545 0 0 0 82.5569,145.41404 h 13.67555 v 287.18645 a 41.026634,41.026634 0 0 0 41.02663,41.02663 h 246.15981 a 41.026634,41.026634 0 0 0 41.02663,-41.02663 V 145.41404 h 13.67555 A 13.675545,13.675545 0 0 0 451.79661,131.7385 V 118.06296 A 13.675545,13.675545 0 0 0 438.12107,104.38741 Z M 215.75671,79.523559 a 5.1283293,5.1283293 0 0 1 4.41036,-2.48724 h 80.34383 a 5.1283293,5.1283293 0 0 1 4.40181,2.48724 l 14.92344,24.863851 H 200.84182 Z M 383.41889,432.60049 H 137.25908 V 145.41404 H 383.41889 Z M 202.21792,391.57385 h 20.51331 a 10.256659,10.256659 0 0 0 10.25666,-10.25666 V 196.69734 a 10.256659,10.256659 0 0 0 -10.25666,-10.25666 h -20.51331 a 10.256659,10.256659 0 0 0 -10.25666,10.25666 v 184.61985 a 10.256659,10.256659 0 0 0 10.25666,10.25666 z" class="" style="color:#53b7ec;fill:#53b7ec;stroke-width:0.85472155" id="path2" inkscape:connector-curvature="0"/>
</svg>