<?xml version="1.0" encoding="UTF-8" standalone="no"?>
<svg
   xmlns:dc="http://purl.org/dc/elements/1.1/"
   xmlns:cc="http://creativecommons.org/ns#"
   xmlns:rdf="http://www.w3.org/1999/02/22-rdf-syntax-ns#"
   xmlns:svg="http://www.w3.org/2000/svg"
   xmlns="http://www.w3.org/2000/svg"
   xmlns:sodipodi="http://sodipodi.sourceforge.net/DTD/sodipodi-0.dtd"
   xmlns:inkscape="http://www.inkscape.org/namespaces/inkscape"
   inkscape:version="1.0rc1 (09960d6, 2020-04-09)"
   sodipodi:docname="archive-insert-directory-symbolic.svg"
   id="svg4"
   version="1.1"
   class="svg-inline--fa fa-folder-plus fa-w-16 fa-9x"
   viewBox="0 0 512 512"
   role="img"
   data-icon="folder-plus"
   data-prefix="fas"
   focusable="false"
   aria-hidden="true">
  <metadata
     id="metadata10">
    <rdf:RDF>
      <cc:Work
         rdf:about="">
        <dc:format>image/svg+xml</dc:format>
        <dc:type
           rdf:resource="http://purl.org/dc/dcmitype/StillImage" />
        <dc:title></dc:title>
      </cc:Work>
    </rdf:RDF>
  </metadata>
  <defs
     id="defs8" />
  <sodipodi:namedview
     inkscape:current-layer="svg4"
     inkscape:cy="256"
     inkscape:cx="256"
     inkscape:zoom="1.3964844"
     showgrid="false"
     id="namedview6"
     inkscape:window-height="480"
     inkscape:window-width="640"
     inkscape:pageshadow="2"
     inkscape:pageopacity="0"
     guidetolerance="10"
     gridtolerance="10"
     objecttolerance="10"
     borderopacity="1"
     bordercolor="#666666"
     pagecolor="#ffffff" />
  <path
     style="stroke-width:0.839844"
     inkscape:connector-curvature="0"
     id="path2"
     class=""
     d="m 430.6875,148.5 h -161.25 l -53.75,-53.75 H 81.3125 C 59.048242,94.75 41,112.79824 41,135.0625 v 241.875 c 0,22.26426 18.048242,40.3125 40.3125,40.3125 h 349.375 C 452.95176,417.25 471,399.20176 471,376.9375 V 188.8125 C 471,166.54824 452.95176,148.5 430.6875,148.5 Z m -80.625,141.09375 c 0,7.42422 -6.01328,13.4375 -13.4375,13.4375 H 276.15625 V 363.5 c 0,7.42422 -6.01328,13.4375 -13.4375,13.4375 h -13.4375 c -7.42422,0 -13.4375,-6.01328 -13.4375,-13.4375 V 303.03125 H 175.375 c -7.42422,0 -13.4375,-6.01328 -13.4375,-13.4375 v -13.4375 c 0,-7.42422 6.01328,-13.4375 13.4375,-13.4375 h 60.46875 V 202.25 c 0,-7.42422 6.01328,-13.4375 13.4375,-13.4375 h 13.4375 c 7.42422,0 13.4375,6.01328 13.4375,13.4375 v 60.46875 H 336.625 c 7.42422,0 13.4375,6.01328 13.4375,13.4375 z"
     fill="#787878"
     color="#787878" />
</svg>
