<?xml version="1.0" encoding="UTF-8" standalone="no"?>
<svg
   xmlns:dc="http://purl.org/dc/elements/1.1/"
   xmlns:cc="http://creativecommons.org/ns#"
   xmlns:rdf="http://www.w3.org/1999/02/22-rdf-syntax-ns#"
   xmlns:svg="http://www.w3.org/2000/svg"
   xmlns="http://www.w3.org/2000/svg"
   xmlns:sodipodi="http://sodipodi.sourceforge.net/DTD/sodipodi-0.dtd"
   xmlns:inkscape="http://www.inkscape.org/namespaces/inkscape"
   inkscape:version="1.0rc1 (09960d6, 2020-04-09)"
   height="512"
   width="512"
   sodipodi:docname="application-x-executable-symbolic.svg"
   id="svg4"
   version="1.1"
   class="svg-inline--fa fa-file-exclamation fa-w-12 fa-9x"
   viewBox="0 0 512 512"
   role="img"
   data-icon="file-exclamation"
   data-prefix="fas"
   focusable="false"
   aria-hidden="true">
  <metadata
     id="metadata10">
    <rdf:RDF>
      <cc:Work
         rdf:about="">
        <dc:format>image/svg+xml</dc:format>
        <dc:type
           rdf:resource="http://purl.org/dc/dcmitype/StillImage" />
        <dc:title></dc:title>
      </cc:Work>
    </rdf:RDF>
  </metadata>
  <defs
     id="defs8" />
  <sodipodi:namedview
     inkscape:current-layer="svg4"
     inkscape:cy="256"
     inkscape:cx="192"
     inkscape:zoom="1.3964844"
     showgrid="false"
     id="namedview6"
     inkscape:window-height="480"
     inkscape:window-width="640"
     inkscape:pageshadow="2"
     inkscape:pageopacity="0"
     guidetolerance="10"
     gridtolerance="10"
     objecttolerance="10"
     borderopacity="1"
     bordercolor="#666666"
     pagecolor="#ffffff" />
  <path
     style="stroke-width:0.839844"
     inkscape:connector-curvature="0"
     id="path2"
     class=""
     d="M 417.25,143.37695 V 148.5 H 309.75 V 41 h 5.12305 c 5.375,0 10.49804,2.099609 14.27734,5.878906 l 82.2207,82.304684 c 3.7793,3.7793 5.87891,8.90235 5.87891,14.19336 z m 0,31.99805 V 450.84375 C 417.25,462.01367 408.26367,471 397.09375,471 H 114.90625 C 103.73633,471 94.75,462.01367 94.75,450.84375 V 61.15625 C 94.75,49.986328 103.73633,41 114.90625,41 H 282.875 v 114.21875 c 0,11.08594 9.07031,20.15625 20.15625,20.15625 z M 223.07812,226.4375 229.125,320.5 c 0.33594,5.29102 4.70312,9.40625 10.07812,9.40625 h 33.59375 c 5.29102,0 9.74219,-4.11523 10.07813,-9.40625 l 6.04687,-94.0625 c 0.33594,-5.79492 -4.19921,-10.75 -10.07812,-10.75 h -45.6875 c -5.79492,0 -10.41406,4.87109 -10.07813,10.75 z m 66.51563,150.5 c 0,-18.56055 -15.0332,-33.59375 -33.59375,-33.59375 -18.56055,0 -33.59375,15.0332 -33.59375,33.59375 0,18.56055 15.0332,33.59375 33.59375,33.59375 18.56055,0 33.59375,-15.0332 33.59375,-33.59375 z"
     fill="#787878" />
</svg>
