<svg xmlns="http://www.w3.org/2000/svg" viewBox="0 0 16 16">
    <style type="text/css" id="current-color-scheme" color="#787878" fill="#787878" style="">
        .ColorScheme-Text {
            color:#232629;
        }
        .ColorScheme-Highlight {
            color:#787878;
        }
    </style>
    <rect x="7" y="3" width="3" height="5" class="ColorScheme-Highlight" fill="#787878" fill-rule="evenodd" color="#787878" style=""/>
    <path d="M8 2a4 4 0 0 0-4 4v4a4 4 0 0 0 4 4h1a4 4 0 0 0 4-4V6a4 4 0 0 0-4-4zm0 1h1a3 3 0 0 1 3 3v4a3 3 0 0 1-3 3H8a3 3 0 0 1-3-3V6a3 3 0 0 1 3-3z" fill="#787878" class="ColorScheme-Text" color="#787878" style=""/>
</svg>