<?xml version="1.0" encoding="UTF-8" standalone="no"?>
<svg
   xmlns:dc="http://purl.org/dc/elements/1.1/"
   xmlns:cc="http://creativecommons.org/ns#"
   xmlns:rdf="http://www.w3.org/1999/02/22-rdf-syntax-ns#"
   xmlns:svg="http://www.w3.org/2000/svg"
   xmlns="http://www.w3.org/2000/svg"
   xmlns:sodipodi="http://sodipodi.sourceforge.net/DTD/sodipodi-0.dtd"
   xmlns:inkscape="http://www.inkscape.org/namespaces/inkscape"
   inkscape:version="1.0rc1 (09960d6, 2020-04-09)"
   sodipodi:docname="document-import-ocal-symbolic.svg"
   id="svg4"
   version="1.1"
   class="svg-inline--fa fa-file-import fa-w-16 fa-9x"
   viewBox="0 0 512 512"
   role="img"
   data-icon="file-import"
   data-prefix="fas"
   focusable="false"
   aria-hidden="true">
  <metadata
     id="metadata10">
    <rdf:RDF>
      <cc:Work
         rdf:about="">
        <dc:format>image/svg+xml</dc:format>
        <dc:type
           rdf:resource="http://purl.org/dc/dcmitype/StillImage" />
        <dc:title></dc:title>
      </cc:Work>
    </rdf:RDF>
  </metadata>
  <defs
     id="defs8" />
  <sodipodi:namedview
     inkscape:current-layer="svg4"
     inkscape:cy="256"
     inkscape:cx="256"
     inkscape:zoom="1.3964844"
     showgrid="false"
     id="namedview6"
     inkscape:window-height="480"
     inkscape:window-width="640"
     inkscape:pageshadow="2"
     inkscape:pageopacity="0"
     guidetolerance="10"
     gridtolerance="10"
     objecttolerance="10"
     borderopacity="1"
     bordercolor="#666666"
     pagecolor="#ffffff" />
  <path
     style="stroke-width:0.839844"
     inkscape:connector-curvature="0"
     id="path2"
     color="#787878"
     class=""
     d="M 54.4375,282.875 C 47.046875,282.875 41,288.92187 41,296.3125 v 26.875 c 0,7.39062 6.046875,13.4375 13.4375,13.4375 H 148.5 v -53.75 z M 465.12109,129.18359 382.90039,46.878906 C 379.12109,43.099609 373.99805,41 368.62305,41 H 363.5 V 148.5 H 471 v -5.12305 c 0,-5.29101 -2.09961,-10.41406 -5.87891,-14.19336 z M 336.625,155.21875 V 41 H 168.65625 C 157.48633,41 148.5,49.986328 148.5,61.15625 V 282.875 H 256 v -54.75781 c 0,-12.00977 14.5293,-17.97266 23.01172,-9.49024 l 80.28906,81.04492 c 5.54297,5.62696 5.54297,14.61329 0,20.15625 l -80.37305,80.96094 c -8.48242,8.48242 -23.01171,2.51953 -23.01171,-9.49023 V 336.625 H 148.5 V 450.84375 C 148.5,462.01367 157.48633,471 168.65625,471 h 282.1875 C 462.01367,471 471,462.01367 471,450.84375 V 175.375 H 356.78125 c -11.08594,0 -20.15625,-9.07031 -20.15625,-20.15625 z"
     fill="#787878" />
</svg>
