<svg xmlns:dc="http://purl.org/dc/elements/1.1/" xmlns:cc="http://creativecommons.org/ns#" xmlns:rdf="http://www.w3.org/1999/02/22-rdf-syntax-ns#" xmlns:svg="http://www.w3.org/2000/svg" xmlns="http://www.w3.org/2000/svg" xmlns:sodipodi="http://sodipodi.sourceforge.net/DTD/sodipodi-0.dtd" xmlns:inkscape="http://www.inkscape.org/namespaces/inkscape" aria-hidden="true" focusable="false" data-prefix="fas" data-icon="globe" role="img" viewBox="0 0 496 512" class="svg-inline--fa fa-globe fa-w-16 fa-9x" version="1.1" id="svg4" sodipodi:docname="applications-webbrowsers-symbolic.svg" inkscape:version="0.92.4 (5da689c313, 2019-01-14)">
  <metadata id="metadata10" color="#53b7ec" fill="#53b7ec">
    <rdf:RDF>
      <cc:Work rdf:about="">
        <dc:format>image/svg+xml</dc:format>
        <dc:type rdf:resource="http://purl.org/dc/dcmitype/StillImage"/>
      </cc:Work>
    </rdf:RDF>
  </metadata>
  <defs id="defs8" color="#53b7ec" fill="#53b7ec"/>
  <sodipodi:namedview pagecolor="#ffffff" bordercolor="#666666" borderopacity="1" objecttolerance="10" gridtolerance="10" guidetolerance="10" inkscape:pageopacity="0" inkscape:pageshadow="2" inkscape:window-width="1920" inkscape:window-height="1051" id="namedview6" showgrid="false" inkscape:zoom="0.4609375" inkscape:cx="248" inkscape:cy="256" inkscape:window-x="0" inkscape:window-y="0" inkscape:window-maximized="1" inkscape:current-layer="svg4" color="#53b7ec" fill="#53b7ec"/>
  <path d="M 333.05234,165.08911 C 319.69418,82.82126 288.18734,25.058722 251.52149,25.058722 c -36.66586,0 -68.17269,57.762538 -81.53086,140.030388 z m -169.9711,88.44025 c 0,20.45181 1.1055,40.07449 3.04013,58.96017 h 170.7081 c 1.93464,-18.88568 3.04014,-38.50836 3.04014,-58.96017 0,-20.45181 -1.1055,-40.07449 -3.04014,-58.96016 h -170.7081 c -1.93463,18.88567 -3.04013,38.50835 -3.04013,58.96016 z M 462.21195,165.08911 C 435.86413,102.53606 382.5236,54.170304 316.65404,34.639749 339.13261,65.778086 354.60965,112.66984 362.71667,165.08911 Z M 186.2968,34.639749 C 120.51937,54.170304 67.086721,102.53606 40.831022,165.08911 H 140.3263 c 8.0149,-52.41927 23.49194,-99.311024 45.9705,-130.449361 z M 472.06935,194.5692 H 366.40168 c 1.93463,19.3463 3.04014,39.15323 3.04014,58.96016 0,19.80693 -1.10551,39.61386 -3.04014,58.96017 h 105.57555 c 5.06689,-18.88568 7.92277,-38.50836 7.92277,-58.96017 0,-20.45181 -2.85588,-40.07449 -7.83065,-58.96016 z m -338.46819,58.96016 c 0,-19.80693 1.1055,-39.61386 3.04013,-58.96016 H 30.97362 c -4.974764,18.88567 -7.922773,38.50835 -7.922773,58.96016 0,20.45181 2.948009,40.07449 7.922773,58.96017 h 105.57554 c -1.8425,-19.34631 -2.948,-39.15324 -2.948,-58.96017 z m 36.38947,88.44025 C 183.3488,424.23746 214.85563,482 251.52149,482 c 36.66585,0 68.17269,-57.76254 81.53085,-140.03039 z M 316.74617,472.41897 C 382.5236,452.88842 435.95625,404.52266 462.30408,341.96961 H 362.8088 c -8.10703,52.41927 -23.58407,99.31103 -46.06263,130.44936 z M 40.831022,341.96961 C 67.178846,404.52266 120.51937,452.88842 186.38893,472.41897 163.91037,441.28064 148.43332,394.38888 140.3263,341.96961 Z" class="" id="path2" inkscape:connector-curvature="0" style="color:#53b7ec;fill:#000000;stroke-width:0.92125255"/>
</svg>