<svg xmlns:dc="http://purl.org/dc/elements/1.1/" xmlns:cc="http://creativecommons.org/ns#" xmlns:rdf="http://www.w3.org/1999/02/22-rdf-syntax-ns#" xmlns:svg="http://www.w3.org/2000/svg" xmlns="http://www.w3.org/2000/svg" xmlns:sodipodi="http://sodipodi.sourceforge.net/DTD/sodipodi-0.dtd" xmlns:inkscape="http://www.inkscape.org/namespaces/inkscape" aria-hidden="true" focusable="false" data-prefix="fas" data-icon="lock" role="img" viewBox="0 0 448 512" class="svg-inline--fa fa-lock fa-w-14 fa-9x" version="1.1" id="svg4" sodipodi:docname="preferences-desktop-user-password-symbolic.svg" inkscape:version="0.92.4 (5da689c313, 2019-01-14)">
  <metadata id="metadata10" color="#53b7ec" fill="#53b7ec">
    <rdf:RDF>
      <cc:Work rdf:about="">
        <dc:format>image/svg+xml</dc:format>
        <dc:type rdf:resource="http://purl.org/dc/dcmitype/StillImage"/>
      </cc:Work>
    </rdf:RDF>
  </metadata>
  <defs id="defs8" color="#53b7ec" fill="#53b7ec"/>
  <sodipodi:namedview pagecolor="#ffffff" bordercolor="#666666" borderopacity="1" objecttolerance="10" gridtolerance="10" guidetolerance="10" inkscape:pageopacity="0" inkscape:pageshadow="2" inkscape:window-width="1920" inkscape:window-height="1051" id="namedview6" showgrid="false" inkscape:zoom="0.4609375" inkscape:cx="224" inkscape:cy="256" inkscape:window-x="0" inkscape:window-y="0" inkscape:window-maximized="1" inkscape:current-layer="svg4" color="#53b7ec" fill="#53b7ec"/>
  <path d="m 379.11864,222.37288 h -20.33898 v -61.01695 c 0,-71.016942 -57.79661,-128.813557 -128.81356,-128.813557 -71.01695,0 -128.81356,57.796615 -128.81356,128.813557 v 61.01695 H 80.81356 c -22.457628,0 -40.677967,18.22034 -40.677967,40.67797 v 162.71186 c 0,22.45763 18.220339,40.67797 40.677967,40.67797 h 298.30508 c 22.45763,0 40.67797,-18.22034 40.67797,-40.67797 V 263.05085 c 0,-22.45763 -18.22034,-40.67797 -40.67797,-40.67797 z m -88.13559,0 h -122.0339 v -61.01695 c 0,-33.64406 27.37288,-61.01694 61.01695,-61.01694 33.64407,0 61.01695,27.37288 61.01695,61.01694 z" class="" id="path2" inkscape:connector-curvature="0" style="stroke-width:0.84745765;fill:#000000;"/>
</svg>