<?xml version="1.0" encoding="UTF-8" standalone="no"?>
<svg
   xmlns:dc="http://purl.org/dc/elements/1.1/"
   xmlns:cc="http://creativecommons.org/ns#"
   xmlns:rdf="http://www.w3.org/1999/02/22-rdf-syntax-ns#"
   xmlns:svg="http://www.w3.org/2000/svg"
   xmlns="http://www.w3.org/2000/svg"
   xmlns:sodipodi="http://sodipodi.sourceforge.net/DTD/sodipodi-0.dtd"
   xmlns:inkscape="http://www.inkscape.org/namespaces/inkscape"
   aria-hidden="true"
   focusable="false"
   data-prefix="fas"
   data-icon="folder-open"
   role="img"
   viewBox="0 0 576 512"
   class="svg-inline--fa fa-folder-open fa-w-18 fa-9x"
   version="1.1"
   id="svg4"
   sodipodi:docname="folder-open-symbolic.svg"
   inkscape:version="1.0rc1 (09960d6, 2020-04-09)">
  <metadata
     id="metadata10">
    <rdf:RDF>
      <cc:Work
         rdf:about="">
        <dc:format>image/svg+xml</dc:format>
        <dc:type
           rdf:resource="http://purl.org/dc/dcmitype/StillImage" />
      </cc:Work>
    </rdf:RDF>
  </metadata>
  <defs
     id="defs8" />
  <sodipodi:namedview
     inkscape:document-rotation="0"
     pagecolor="#ffffff"
     bordercolor="#666666"
     borderopacity="1"
     objecttolerance="10"
     gridtolerance="10"
     guidetolerance="10"
     inkscape:pageopacity="0"
     inkscape:pageshadow="2"
     inkscape:window-width="640"
     inkscape:window-height="480"
     id="namedview6"
     showgrid="false"
     inkscape:zoom="1.3964844"
     inkscape:cx="288"
     inkscape:cy="256"
     inkscape:current-layer="svg4" />
  <path
     fill="#53b7ec"
     d="m 520.30239,289.18349 -59.09612,114.14723 a 52.219781,58.838323 0 0 1 -45.10761,29.19246 H 89.739214 c -15.114339,0 -24.531458,-18.47314 -16.915995,-33.18348 L 131.91908,285.19247 a 52.22222,58.841086 0 0 1 45.10873,-29.19246 h 326.35946 c 15.11433,0 24.53161,18.47352 16.91512,33.18348 z M 177.02781,226.57934 h 267.63874 v -44.1306 c 0,-24.37316 -17.53529,-44.13099 -39.16654,-44.13099 H 274.94435 L 222.72219,79.47682 H 92.166534 c -21.631298,0 -39.166541,19.75782 -39.166541,44.13098 V 379.24101 L 109.36508,270.36824 c 13.98325,-27.00999 39.91058,-43.7889 67.66273,-43.7889 z"
     class=""
     color="#53b7ec"
     style="stroke-width:0.866146"
     id="path2"
     inkscape:connector-curvature="0" />
</svg>
