<?xml version="1.0" encoding="UTF-8" standalone="no"?>
<svg
   xmlns:dc="http://purl.org/dc/elements/1.1/"
   xmlns:cc="http://creativecommons.org/ns#"
   xmlns:rdf="http://www.w3.org/1999/02/22-rdf-syntax-ns#"
   xmlns:svg="http://www.w3.org/2000/svg"
   xmlns="http://www.w3.org/2000/svg"
   xmlns:sodipodi="http://sodipodi.sourceforge.net/DTD/sodipodi-0.dtd"
   xmlns:inkscape="http://www.inkscape.org/namespaces/inkscape"
   inkscape:version="1.0rc1 (09960d6, 2020-04-09)"
   height="512"
   width="512"
   sodipodi:docname="vcs-removed-symbolic.svg"
   id="svg4"
   version="1.1"
   class="svg-inline--fa fa-times fa-w-11 fa-9x"
   viewBox="0 0 512 512"
   role="img"
   data-icon="times"
   data-prefix="fas"
   focusable="false"
   aria-hidden="true">
  <metadata
     id="metadata10">
    <rdf:RDF>
      <cc:Work
         rdf:about="">
        <dc:format>image/svg+xml</dc:format>
        <dc:type
           rdf:resource="http://purl.org/dc/dcmitype/StillImage" />
        <dc:title></dc:title>
      </cc:Work>
    </rdf:RDF>
  </metadata>
  <defs
     id="defs8" />
  <sodipodi:namedview
     inkscape:current-layer="svg4"
     inkscape:cy="256"
     inkscape:cx="176"
     inkscape:zoom="1.3964844"
     showgrid="false"
     id="namedview6"
     inkscape:window-height="480"
     inkscape:window-width="640"
     inkscape:pageshadow="2"
     inkscape:pageopacity="0"
     guidetolerance="10"
     gridtolerance="10"
     objecttolerance="10"
     borderopacity="1"
     bordercolor="#666666"
     pagecolor="#ffffff" />
  <path
     style="stroke-width:1.22159;fill:#ff0000"
     inkscape:connector-curvature="0"
     id="path2"
     d="m 337.50455,256 122.2446,-122.2446 c 15.00113,-15.00114 15.00113,-39.323009 0,-54.336369 L 432.58097,52.250853 c -15.00114,-15.001136 -39.32302,-15.001136 -54.33637,0 L 256,174.49545 133.7554,52.250853 c -15.00114,-15.001136 -39.323013,-15.001136 -54.336365,0 L 52.250853,79.419031 c -15.001136,15.00114 -15.001136,39.323019 0,54.336369 L 174.49545,256 52.250853,378.2446 c -15.001136,15.00114 -15.001136,39.32301 0,54.33637 l 27.168182,27.16818 c 15.001136,15.00113 39.335225,15.00113 54.336365,0 L 256,337.50455 378.2446,459.74915 c 15.00114,15.00113 39.33523,15.00113 54.33637,0 l 27.16818,-27.16818 c 15.00113,-15.00114 15.00113,-39.32302 0,-54.33637 z" />
</svg>
