<?xml version="1.0" encoding="UTF-8" standalone="no"?><svg   xmlns:dc="http://purl.org/dc/elements/1.1/"   xmlns:cc="http://creativecommons.org/ns#"   xmlns:rdf="http://www.w3.org/1999/02/22-rdf-syntax-ns#"   xmlns:svg="http://www.w3.org/2000/svg"   xmlns="http://www.w3.org/2000/svg"   xmlns:sodipodi="http://sodipodi.sourceforge.net/DTD/sodipodi-0.dtd"   xmlns:inkscape="http://www.inkscape.org/namespaces/inkscape"   inkscape:version="1.0rc1 (09960d6, 2020-04-09)"   sodipodi:docname="folder-music-symbolic.svg"   id="svg4"   version="1.1"   class="svg-inline--fa fa-music fa-w-16 fa-9x"   viewBox="0 0 512 512"   role="img"   data-icon="music"   data-prefix="fas"   focusable="false"   aria-hidden="true">  <metadata     id="metadata10">    <rdf:RDF>      <cc:Work         rdf:about="">        <dc:format>image/svg+xml</dc:format>        <dc:type           rdf:resource="http://purl.org/dc/dcmitype/StillImage" />        <dc:title></dc:title>      </cc:Work>    </rdf:RDF>  </metadata>  <defs     id="defs8" />  <sodipodi:namedview     inkscape:current-layer="svg4"     inkscape:cy="256"     inkscape:cx="256"     inkscape:zoom="1.3964844"     showgrid="false"     id="namedview6"     inkscape:window-height="480"     inkscape:window-width="640"     inkscape:pageshadow="2"     inkscape:pageopacity="0"     guidetolerance="10"     gridtolerance="10"     objecttolerance="10"     borderopacity="1"     bordercolor="#666666"     pagecolor="#ffffff" />  <path     style="fill:#53b7ec;fill-opacity:1"     id="path2"     d="M 436.0457,42.255668 167.3209,121.6125 A 26.875,26.875 0 0 0 148.5,147.23614 v 219.54355 a 116.73828,116.73828 0 0 0 -26.875,-3.29218 c -44.511719,0 -80.625,24.06992 -80.625,53.75 0,29.68007 36.113281,53.75 80.625,53.75 44.51172,0 80.625,-24.06993 80.625,-53.75 V 220.98282 l 215,-62.98828 v 155.04355 a 116.23438,116.23437 0 0 0 -26.875,-3.30058 c -44.51172,0 -80.625,24.06992 -80.625,53.75 0,29.68007 36.11328,53.75 80.625,53.75 44.51172,0 80.625,-24.06153 80.625,-53.75 V 67.862504 A 26.875,26.875 0 0 0 436.0457,42.255668 Z" /></svg>