<?xml version="1.0" encoding="UTF-8" standalone="no"?>
<svg
   xmlns:dc="http://purl.org/dc/elements/1.1/"
   xmlns:cc="http://creativecommons.org/ns#"
   xmlns:rdf="http://www.w3.org/1999/02/22-rdf-syntax-ns#"
   xmlns:svg="http://www.w3.org/2000/svg"
   xmlns="http://www.w3.org/2000/svg"
   xmlns:sodipodi="http://sodipodi.sourceforge.net/DTD/sodipodi-0.dtd"
   xmlns:inkscape="http://www.inkscape.org/namespaces/inkscape"
   aria-hidden="true"
   focusable="false"
   data-prefix="fas"
   data-icon="arrow-down"
   role="img"
   viewBox="0 0 512 512"
   class="svg-inline--fa fa-arrow-down fa-w-14 fa-9x"
   version="1.1"
   id="svg4"
   sodipodi:docname="vcs-update-required-symbolic.svg"
   inkscape:version="1.0rc1 (09960d6, 2020-04-09)"
   width="512"
   height="512">
  <metadata
     id="metadata10">
    <rdf:RDF>
      <cc:Work
         rdf:about="">
        <dc:format>image/svg+xml</dc:format>
        <dc:type
           rdf:resource="http://purl.org/dc/dcmitype/StillImage" />
        <dc:title />
      </cc:Work>
    </rdf:RDF>
  </metadata>
  <defs
     id="defs8" />
  <sodipodi:namedview
     inkscape:document-rotation="0"
     pagecolor="#ffffff"
     bordercolor="#666666"
     borderopacity="1"
     objecttolerance="10"
     gridtolerance="10"
     guidetolerance="10"
     inkscape:pageopacity="0"
     inkscape:pageshadow="2"
     inkscape:window-width="640"
     inkscape:window-height="480"
     id="namedview6"
     showgrid="false"
     inkscape:zoom="1.3964844"
     inkscape:cx="224"
     inkscape:cy="256"
     inkscape:current-layer="svg4" />
  <path
     d="m 445.1,222.475 22.2,22.2 c 9.4,9.4 9.4,24.6 0,33.9 L 273,472.975 c -9.4,9.4 -24.6,9.4 -33.9,0 L 44.7,278.575 c -9.4,-9.4 -9.4,-24.6 0,-33.9 l 22.2,-22.2 c 9.5,-9.5 25,-9.3 34.3,0.4 l 114.8,120.5 v -287.4 c 0,-13.3 10.7,-24 24,-24 h 32 c 13.3,0 24,10.7 24,24 v 287.4 l 114.8,-120.5 c 9.3,-9.8 24.8,-10 34.3,-0.4 z"
     id="path2"
     style="fill:#ff7f2a"
     inkscape:connector-curvature="0" />
</svg>
