<?xml version="1.0" encoding="UTF-8" standalone="no"?>
<svg
   xmlns:dc="http://purl.org/dc/elements/1.1/"
   xmlns:cc="http://creativecommons.org/ns#"
   xmlns:rdf="http://www.w3.org/1999/02/22-rdf-syntax-ns#"
   xmlns:svg="http://www.w3.org/2000/svg"
   xmlns="http://www.w3.org/2000/svg"
   xmlns:sodipodi="http://sodipodi.sourceforge.net/DTD/sodipodi-0.dtd"
   xmlns:inkscape="http://www.inkscape.org/namespaces/inkscape"
   height="512"
   width="512"
   inkscape:version="1.0rc1 (09960d6, 2020-04-09)"
   sodipodi:docname="vcs-locally-modified-symbolic.svg"
   id="svg4"
   version="1.1"
   class="svg-inline--fa fa-arrow-right fa-w-14 fa-9x"
   viewBox="0 0 512 512"
   role="img"
   data-icon="arrow-right"
   data-prefix="fas"
   focusable="false"
   aria-hidden="true">
  <metadata
     id="metadata10">
    <rdf:RDF>
      <cc:Work
         rdf:about="">
        <dc:format>image/svg+xml</dc:format>
        <dc:type
           rdf:resource="http://purl.org/dc/dcmitype/StillImage" />
        <dc:title></dc:title>
      </cc:Work>
    </rdf:RDF>
  </metadata>
  <defs
     id="defs8" />
  <sodipodi:namedview
     inkscape:current-layer="svg4"
     inkscape:cy="256"
     inkscape:cx="224"
     inkscape:zoom="1.3964844"
     showgrid="false"
     id="namedview6"
     inkscape:window-height="480"
     inkscape:window-width="640"
     inkscape:pageshadow="2"
     inkscape:pageopacity="0"
     guidetolerance="10"
     gridtolerance="10"
     objecttolerance="10"
     borderopacity="1"
     bordercolor="#666666"
     pagecolor="#ffffff" />
  <path
     inkscape:connector-curvature="0"
     style="fill:#008000;fill-opacity:1;stroke-width:0.959714"
     id="path2"
     class=""
     d="m 223.82558,74.518023 21.30566,-21.305658 c 9.02131,-9.021315 23.60897,-9.021315 32.53431,0 L 464.23401,239.68486 c 9.02132,9.02131 9.02132,23.60897 0,32.53431 L 277.66555,458.78764 c -9.02131,9.02131 -23.60897,9.02131 -32.53431,0 l -21.30566,-21.30566 c -9.11729,-9.11729 -8.92535,-23.99286 0.38388,-32.9182 L 339.85504,294.38857 H 64.033144 C 51.268943,294.38857 41,284.11963 41,271.35543 v -30.71086 c 0,-12.7642 10.268943,-23.03314 23.033144,-23.03314 H 339.85504 L 224.20946,107.43622 c -9.4052,-8.925339 -9.59714,-23.800911 -0.38388,-32.918197 z" />
</svg>
