<?xml version="1.0" encoding="UTF-8" standalone="no"?>
<svg
   xmlns:dc="http://purl.org/dc/elements/1.1/"
   xmlns:cc="http://creativecommons.org/ns#"
   xmlns:rdf="http://www.w3.org/1999/02/22-rdf-syntax-ns#"
   xmlns:svg="http://www.w3.org/2000/svg"
   xmlns="http://www.w3.org/2000/svg"
   xmlns:sodipodi="http://sodipodi.sourceforge.net/DTD/sodipodi-0.dtd"
   xmlns:inkscape="http://www.inkscape.org/namespaces/inkscape"
   inkscape:version="1.0rc1 (09960d6, 2020-04-09)"
   height="512"
   width="512"
   sodipodi:docname="vcs-conflicting-symbolic.svg"
   id="svg4"
   version="1.1"
   class="svg-inline--fa fa-exclamation fa-w-6 fa-9x"
   viewBox="0 0 512 512"
   role="img"
   data-icon="exclamation"
   data-prefix="fas"
   focusable="false"
   aria-hidden="true">
  <metadata
     id="metadata10">
    <rdf:RDF>
      <cc:Work
         rdf:about="">
        <dc:format>image/svg+xml</dc:format>
        <dc:type
           rdf:resource="http://purl.org/dc/dcmitype/StillImage" />
        <dc:title></dc:title>
      </cc:Work>
    </rdf:RDF>
  </metadata>
  <defs
     id="defs8" />
  <sodipodi:namedview
     inkscape:current-layer="svg4"
     inkscape:cy="256"
     inkscape:cx="96"
     inkscape:zoom="1.3964844"
     showgrid="false"
     id="namedview6"
     inkscape:window-height="480"
     inkscape:window-width="640"
     inkscape:pageshadow="2"
     inkscape:pageopacity="0"
     guidetolerance="10"
     gridtolerance="10"
     objecttolerance="10"
     borderopacity="1"
     bordercolor="#666666"
     pagecolor="#ffffff" />
  <path
     style="fill:#ff7f2a"
     inkscape:connector-curvature="0"
     id="path2"
     d="m 336,432 c 0,44.112 -35.888,80 -80,80 -44.112,0 -80,-35.888 -80,-80 0,-44.112 35.888,-80 80,-80 44.112,0 80,35.888 80,80 z M 185.26,25.199 l 13.6,272 C 199.499,309.972 210.041,320 222.83,320 h 66.34 c 12.789,0 23.331,-10.028 23.97,-22.801 l 13.6,-272 C 327.425,11.49 316.496,0 302.77,0 h -93.54 c -13.726,0 -24.655,11.49 -23.97,25.199 z" />
</svg>
