<?xml version="1.0" encoding="UTF-8" standalone="no"?>
<svg
   xmlns:dc="http://purl.org/dc/elements/1.1/"
   xmlns:cc="http://creativecommons.org/ns#"
   xmlns:rdf="http://www.w3.org/1999/02/22-rdf-syntax-ns#"
   xmlns:svg="http://www.w3.org/2000/svg"
   xmlns="http://www.w3.org/2000/svg"
   xmlns:sodipodi="http://sodipodi.sourceforge.net/DTD/sodipodi-0.dtd"
   xmlns:inkscape="http://www.inkscape.org/namespaces/inkscape"
   inkscape:version="1.0rc1 (09960d6, 2020-04-09)"
   height="512"
   width="512"
   sodipodi:docname="vcs-locally-modified-unstaged-symbolic.svg"
   id="svg4"
   version="1.1"
   class="svg-inline--fa fa-arrow-up fa-w-14 fa-9x"
   viewBox="0 0 512 512"
   role="img"
   data-icon="arrow-up"
   data-prefix="fas"
   focusable="false"
   aria-hidden="true">
  <metadata
     id="metadata10">
    <rdf:RDF>
      <cc:Work
         rdf:about="">
        <dc:format>image/svg+xml</dc:format>
        <dc:type
           rdf:resource="http://purl.org/dc/dcmitype/StillImage" />
        <dc:title></dc:title>
      </cc:Work>
    </rdf:RDF>
  </metadata>
  <defs
     id="defs8" />
  <sodipodi:namedview
     inkscape:current-layer="svg4"
     inkscape:cy="256"
     inkscape:cx="224"
     inkscape:zoom="1.3964844"
     showgrid="false"
     id="namedview6"
     inkscape:window-height="480"
     inkscape:window-width="640"
     inkscape:pageshadow="2"
     inkscape:pageopacity="0"
     guidetolerance="10"
     gridtolerance="10"
     objecttolerance="10"
     borderopacity="1"
     bordercolor="#666666"
     pagecolor="#ffffff" />
  <path
     style="fill:#008000"
     inkscape:connector-curvature="0"
     id="path2"
     d="m 66.95,289.525 -22.2,-22.2 c -9.4,-9.4 -9.4,-24.6 0,-33.9 l 194.3,-194.4 c 9.4,-9.4 24.6,-9.4 33.9,0 l 194.3,194.3 c 9.4,9.4 9.4,24.6 0,33.9 l -22.2,22.2 c -9.5,9.5 -25,9.3 -34.3,-0.4 l -114.7,-120.4 v 287.4 c 0,13.3 -10.7,24 -24,24 h -32 c -13.3,0 -24,-10.7 -24,-24 v -287.4 l -114.8,120.5 c -9.3,9.8 -24.8,10 -34.3,0.4 z" />
</svg>
