<?xml version="1.0" encoding="UTF-8" standalone="no"?>
<svg
   xmlns:dc="http://purl.org/dc/elements/1.1/"
   xmlns:cc="http://creativecommons.org/ns#"
   xmlns:rdf="http://www.w3.org/1999/02/22-rdf-syntax-ns#"
   xmlns:svg="http://www.w3.org/2000/svg"
   xmlns="http://www.w3.org/2000/svg"
   xmlns:sodipodi="http://sodipodi.sourceforge.net/DTD/sodipodi-0.dtd"
   xmlns:inkscape="http://www.inkscape.org/namespaces/inkscape"
   inkscape:version="1.0rc1 (09960d6, 2020-04-09)"
   height="512"
   width="512"
   sodipodi:docname="application-vnd.ms-access-symbolic.svg"
   id="svg4"
   version="1.1"
   class="svg-inline--fa fa-database fa-w-14 fa-9x"
   viewBox="0 0 512 512"
   role="img"
   data-icon="database"
   data-prefix="fas"
   focusable="false"
   aria-hidden="true">
  <metadata
     id="metadata10">
    <rdf:RDF>
      <cc:Work
         rdf:about="">
        <dc:format>image/svg+xml</dc:format>
        <dc:type
           rdf:resource="http://purl.org/dc/dcmitype/StillImage" />
        <dc:title></dc:title>
      </cc:Work>
    </rdf:RDF>
  </metadata>
  <defs
     id="defs8" />
  <sodipodi:namedview
     inkscape:current-layer="svg4"
     inkscape:cy="256"
     inkscape:cx="224"
     inkscape:zoom="1.3964844"
     showgrid="false"
     id="namedview6"
     inkscape:window-height="480"
     inkscape:window-width="640"
     inkscape:pageshadow="2"
     inkscape:pageopacity="0"
     guidetolerance="10"
     gridtolerance="10"
     objecttolerance="10"
     borderopacity="1"
     bordercolor="#666666"
     pagecolor="#ffffff" />
  <path
     style="stroke-width:0.839844"
     inkscape:connector-curvature="0"
     id="path2"
     class=""
     d="m 444.125,102.42869 v 38.39262 C 444.125,174.65525 359.86096,202.25 256,202.25 152.13904,202.25 67.875,174.65525 67.875,140.82131 V 102.42869 C 67.875,68.594746 152.13904,41 256,41 c 103.86096,0 188.125,27.594746 188.125,61.42869 z m 0,86.38381 v 86.38381 c 0,33.83394 -84.26404,61.42869 -188.125,61.42869 -103.86096,0 -188.125,-27.59475 -188.125,-61.42869 V 188.8125 c 40.41748,27.83494 114.39344,40.79289 188.125,40.79289 73.73156,0 147.70668,-12.95795 188.125,-40.79289 z m 0,134.375 v 86.38381 C 444.125,443.40525 359.86096,471 256,471 152.13904,471 67.875,443.40525 67.875,409.57131 V 323.1875 c 40.41748,27.83494 114.39344,40.79289 188.125,40.79289 73.73156,0 147.70668,-12.95795 188.125,-40.79289 z"
     fill="#787878" />
</svg>
