<?xml version="1.0" encoding="UTF-8" standalone="no"?>

<svg

   xmlns:dc="http://purl.org/dc/elements/1.1/"

   xmlns:cc="http://creativecommons.org/ns#"

   xmlns:rdf="http://www.w3.org/1999/02/22-rdf-syntax-ns#"

   xmlns:svg="http://www.w3.org/2000/svg"

   xmlns="http://www.w3.org/2000/svg"

   xmlns:sodipodi="http://sodipodi.sourceforge.net/DTD/sodipodi-0.dtd"

   xmlns:inkscape="http://www.inkscape.org/namespaces/inkscape"

   inkscape:version="1.0rc1 (09960d6, 2020-04-09)"

   sodipodi:docname="preferences-theme-symbolic.svg"

   id="svg32"

   version="1.1"

   height="64"

   width="64">

  <metadata

     id="metadata38">

    <rdf:RDF>

      <cc:Work

         rdf:about="">

        <dc:format>image/svg+xml</dc:format>

        <dc:type

           rdf:resource="http://purl.org/dc/dcmitype/StillImage" />

      </cc:Work>

    </rdf:RDF>

  </metadata>

  <defs

     id="defs36" />

  <sodipodi:namedview

     inkscape:current-layer="svg32"

     inkscape:cy="32"

     inkscape:cx="32"

     inkscape:zoom="11.171875"

     showgrid="false"

     id="namedview34"

     inkscape:window-height="480"

     inkscape:window-width="640"

     inkscape:pageshadow="2"

     inkscape:pageopacity="0"

     guidetolerance="10"

     gridtolerance="10"

     objecttolerance="10"

     borderopacity="1"

     bordercolor="#666666"

     pagecolor="#ffffff" />

  <path

     inkscape:connector-curvature="0"

     id="path2"

     d="m 6.7998,56.9 c -1.5512,0 -2.8,-1.2388 -2.8,-2.7778 V 50.9 h 56 v 3.2222 c 0,1.539 -1.2488,2.7778 -2.8,2.7778 z"

     style="fill:#787878;fill-opacity:1" />

  <path

     id="path4"

     d="M 6.801,7 C 5.2498,7 4.0002,8.238361 4.0002,9.777312 l 0,41.222688 56,0 0,-41.220688 c 0,-1.538951 -1.25,-2.777312 -2.8,-2.777312 l -50.4,0 z"

     style="fill:#787878;fill-opacity:1" />

  <path

     id="path6"

     d="M 6.8007812 7 C 5.2496034 7 4 8.2383437 4 9.7773438 L 4 10.777344 C 4 9.2383437 5.2496034 8 6.8007812 8 L 57.199219 8 C 58.749197 8 60 9.2383438 60 10.777344 L 60 9.7773438 C 60 8.2383438 58.749197 7 57.199219 7 L 6.8007812 7 z"

     style="opacity:0.1;fill:#ffffff" />

  <path

     id="path10"

     d="m 20.0002,27 0,10.668 c 0,0.738 0.668,1.332 1.5,1.332 l 21,0 c 0.832,0 1.5,-0.594 1.5,-1.332 l 0,-10.668 -24,0 z"

     style="fill:#ffffff" />

  <path

     inkscape:connector-curvature="0"

     id="path12"

     d="m 21.5002,23.1 h 21 c 0.832,0 1.5,0.594 1.5,1.334 V 27.1 h -24 v -2.6666 c 0,-0.73866 0.669,-1.33334 1.5,-1.33334 z"

     style="fill:#ffffff" />

  <rect

     id="rect18"

     ry=".75"

     rx=".75"

     y="9"

     x="6"

     height="6"

     width="6"

     style="fill:#ffffff" />

  <rect

     id="rect22"

     ry=".75"

     rx=".75"

     y="17"

     x="6"

     height="6"

     width="6"

     style="fill:#ffffff" />

  <rect

     id="rect26"

     ry=".75"

     rx=".75"

     y="25"

     x="6"

     height="6"

     width="6"

     style="fill:#ffffff" />

  <rect

     id="rect28"

     ry=".75"

     rx=".75"

     y="33"

     x="6"

     height="6"

     width="6"

     style="fill:#ffffff" />

</svg>

