<?xml version="1.0" encoding="UTF-8" standalone="no"?>

<svg

   xmlns:dc="http://purl.org/dc/elements/1.1/"

   xmlns:cc="http://creativecommons.org/ns#"

   xmlns:rdf="http://www.w3.org/1999/02/22-rdf-syntax-ns#"

   xmlns:svg="http://www.w3.org/2000/svg"

   xmlns="http://www.w3.org/2000/svg"

   xmlns:sodipodi="http://sodipodi.sourceforge.net/DTD/sodipodi-0.dtd"

   xmlns:inkscape="http://www.inkscape.org/namespaces/inkscape"

   aria-hidden="true"

   focusable="false"

   data-prefix="fas"

   data-icon="file-pdf"

   role="img"

   viewBox="0 0 512 512"

   class="svg-inline--fa fa-file-pdf fa-w-12 fa-9x"

   version="1.1"

   id="svg4"

   sodipodi:docname="application-pdf-symbolic.svg"

   width="512"

   height="512"

   inkscape:version="1.0rc1 (09960d6, 2020-04-09)">

  <metadata

     id="metadata10">

    <rdf:RDF>

      <cc:Work

         rdf:about="">

        <dc:format>image/svg+xml</dc:format>

        <dc:type

           rdf:resource="http://purl.org/dc/dcmitype/StillImage" />

        <dc:title />

      </cc:Work>

    </rdf:RDF>

  </metadata>

  <defs

     id="defs8" />

  <sodipodi:namedview

     inkscape:document-rotation="0"

     pagecolor="#ffffff"

     bordercolor="#666666"

     borderopacity="1"

     objecttolerance="10"

     gridtolerance="10"

     guidetolerance="10"

     inkscape:pageopacity="0"

     inkscape:pageshadow="2"

     inkscape:window-width="640"

     inkscape:window-height="480"

     id="namedview6"

     showgrid="false"

     inkscape:zoom="1.3964844"

     inkscape:cx="192"

     inkscape:cy="256"

     inkscape:current-layer="svg4" />

  <path

     style="stroke-width:0.839844"

     fill="#787878"

     d="m 247.51758,256.08398 c -4.19922,-13.4375 -4.11524,-39.38867 -1.67969,-39.38867 7.05469,0 6.38281,30.99024 1.67969,39.38867 z m -1.42774,39.64063 c -6.46679,16.96484 -14.52929,36.36523 -23.85156,52.6582 15.36914,-5.8789 32.75391,-14.44531 52.82617,-18.39258 -10.66601,-8.0625 -20.91211,-19.65234 -28.97461,-34.26562 z m -79.02929,104.8125 c 0,0.67187 11.08593,-4.53516 29.31054,-33.76172 -5.62695,5.29102 -24.43945,20.57617 -29.31054,33.76172 z M 303.03125,175.375 H 417.25 V 450.84375 C 417.25,462.01367 408.26367,471 397.09375,471 H 114.90625 C 103.73633,471 94.75,462.01367 94.75,450.84375 V 61.15625 C 94.75,49.986328 103.73633,41 114.90625,41 H 282.875 v 114.21875 c 0,11.08594 9.07031,20.15625 20.15625,20.15625 z m -6.71875,144.28516 c -16.79688,-10.2461 -27.9668,-24.35547 -35.86133,-45.1836 3.7793,-15.53711 9.74219,-39.13672 5.20703,-53.91797 -3.94726,-24.6914 -35.60937,-22.25586 -40.14453,-5.71093 -4.19922,15.36914 -0.33594,37.03711 6.80274,64.66796 -9.74219,23.17969 -24.10352,54.25391 -34.26563,72.0586 -0.084,0 -0.084,0.084 -0.16797,0.084 -22.75976,11.67383 -61.8125,37.37305 -45.77148,57.10938 4.70312,5.79492 13.4375,8.39844 18.05664,8.39844 15.0332,0 29.98242,-15.11719 51.31445,-51.90235 21.66797,-7.13867 45.43555,-16.04101 66.34766,-19.48437 18.22461,9.91015 39.55664,16.37695 53.75,16.37695 24.52344,0 26.20312,-26.875 16.54492,-36.44922 -11.67383,-11.42187 -45.60352,-8.14648 -61.8125,-6.04687 z M 411.37109,129.18359 329.06641,46.878906 C 325.28711,43.099609 320.16406,41 314.78906,41 H 309.75 v 107.5 h 107.5 v -5.12305 c 0,-5.29101 -2.09961,-10.41406 -5.87891,-14.19336 z M 349.13867,343.5957 c 3.44336,-2.26758 -2.09961,-9.99414 -35.94531,-7.55859 31.1582,13.26953 35.94531,7.55859 35.94531,7.55859 z"

     class=""

     id="path2"

     inkscape:connector-curvature="0" />

</svg>

