<?xml version="1.0" encoding="UTF-8" standalone="no"?>
<svg
   xmlns:dc="http://purl.org/dc/elements/1.1/"
   xmlns:cc="http://creativecommons.org/ns#"
   xmlns:rdf="http://www.w3.org/1999/02/22-rdf-syntax-ns#"
   xmlns:svg="http://www.w3.org/2000/svg"
   xmlns="http://www.w3.org/2000/svg"
   xmlns:sodipodi="http://sodipodi.sourceforge.net/DTD/sodipodi-0.dtd"
   xmlns:inkscape="http://www.inkscape.org/namespaces/inkscape"
   inkscape:version="1.0alpha (9dee831, 2019-01-15)"
   sodipodi:docname="kdenlive-hide-audio-symbolic.svg"
   id="svg4"
   version="1.1"
   class="svg-inline--fa fa-volume-mute fa-w-16 fa-9x"
   viewBox="0 0 512 512"
   role="img"
   data-icon="volume-mute"
   data-prefix="fas"
   focusable="false"
   aria-hidden="true">
  <metadata
     id="metadata10">
    <rdf:RDF>
      <cc:Work
         rdf:about="">
        <dc:format>image/svg+xml</dc:format>
        <dc:type
           rdf:resource="http://purl.org/dc/dcmitype/StillImage" />
        <dc:title></dc:title>
      </cc:Work>
    </rdf:RDF>
  </metadata>
  <defs
     id="defs8" />
  <sodipodi:namedview
     inkscape:current-layer="svg4"
     inkscape:window-maximized="0"
     inkscape:window-y="856"
     inkscape:window-x="1656"
     inkscape:cy="256"
     inkscape:cx="256"
     inkscape:zoom="1.9003906"
     showgrid="false"
     id="namedview6"
     inkscape:window-height="1243"
     inkscape:window-width="1936"
     inkscape:pageshadow="2"
     inkscape:pageopacity="0"
     guidetolerance="10"
     gridtolerance="10"
     objecttolerance="10"
     borderopacity="1"
     inkscape:document-rotation="0"
     bordercolor="#666666"
     pagecolor="#ffffff" />
  <path
     id="path30"
     d="M -0.155142,-0.5359155 H 511.66854 V 511.28777 H -0.155142 Z"
     fill="none"
     inkscape:connector-curvature="0"
     style="opacity:1;stroke-width:23.2647;stop-opacity:1" />
  <path
     id="path32"
     d="M 255.7567,69.258223 139.43314,185.58179 V 325.17007 L 255.7567,441.49363 h 23.26471 V 69.258223 Z M 69.638997,185.58179 V 325.17007 H 116.16842 V 185.58179 Z"
     class="ColorScheme-Text"
     inkscape:connector-curvature="0"
     style="opacity:1;fill:#53b7ec;fill-opacity:1;stroke-width:23.2647;stop-opacity:1" />
  <path
     id="path34"
     d="m 395.34498,162.31708 a 93.058852,93.058852 0 0 0 -93.05885,93.05885 93.058852,93.058852 0 0 0 93.05885,93.05885 93.058852,93.058852 0 0 0 93.05885,-93.05885 93.058852,93.058852 0 0 0 -93.05885,-93.05885 z m 0,23.26471 a 69.794139,69.794139 0 0 1 69.79414,69.79414 69.794139,69.794139 0 0 1 -12.95845,40.38754 l -97.1767,-97.15344 a 69.794139,69.794139 0 0 1 40.34101,-13.02824 z m -56.83569,29.4066 97.1767,97.1767 a 69.794139,69.794139 0 0 1 -40.34101,13.00498 69.794139,69.794139 0 0 1 -69.79414,-69.79414 69.794139,69.794139 0 0 1 12.95845,-40.38754 z"
     class="ColorScheme-NegativeText"
     inkscape:connector-curvature="0"
     style="opacity:1;stroke-width:23.2647;stop-opacity:1;fill:#ff0000" />
</svg>
