<?xml version="1.0" encoding="UTF-8" standalone="no"?>
<svg
   xmlns:dc="http://purl.org/dc/elements/1.1/"
   xmlns:cc="http://creativecommons.org/ns#"
   xmlns:rdf="http://www.w3.org/1999/02/22-rdf-syntax-ns#"
   xmlns:svg="http://www.w3.org/2000/svg"
   xmlns="http://www.w3.org/2000/svg"
   xmlns:sodipodi="http://sodipodi.sourceforge.net/DTD/sodipodi-0.dtd"
   xmlns:inkscape="http://www.inkscape.org/namespaces/inkscape"
   inkscape:version="1.0alpha (9dee831, 2019-01-15)"
   height="576"
   width="576"
   sodipodi:docname="audio-volume-high-symbolic.svg"
   id="svg4"
   version="1.1"
   class="svg-inline--fa fa-volume-up fa-w-18 fa-9x"
   viewBox="0 0 576 576"
   role="img"
   data-icon="volume-up"
   data-prefix="fas"
   focusable="false"
   aria-hidden="true">
  <metadata
     id="metadata10">
    <rdf:RDF>
      <cc:Work
         rdf:about="">
        <dc:format>image/svg+xml</dc:format>
        <dc:type
           rdf:resource="http://purl.org/dc/dcmitype/StillImage" />
        <dc:title></dc:title>
      </cc:Work>
    </rdf:RDF>
  </metadata>
  <defs
     id="defs8" />
  <sodipodi:namedview
     inkscape:current-layer="svg4"
     inkscape:window-maximized="0"
     inkscape:window-y="715"
     inkscape:window-x="1599"
     inkscape:cy="256"
     inkscape:cx="288"
     inkscape:zoom="1.6892361"
     showgrid="false"
     id="namedview6"
     inkscape:window-height="1343"
     inkscape:window-width="1894"
     inkscape:pageshadow="2"
     inkscape:pageopacity="0"
     guidetolerance="10"
     gridtolerance="10"
     objecttolerance="10"
     borderopacity="1"
     inkscape:document-rotation="0"
     bordercolor="#666666"
     pagecolor="#ffffff" />
  <g
     transform="matrix(26.179457,0,0,26.179457,-0.12028209,0.2476579)"
     id="g942">
    <path
       style="opacity:1;stop-opacity:1"
       inkscape:connector-curvature="0"
       fill="none"
       d="M 0,0 H 22 V 22 H 0 Z"
       id="path22" />
    <g
       style="opacity:1;fill:#53b7ec;fill-opacity:1;stop-opacity:1"
       fill="currentColor"
       class="ColorScheme-Text"
       id="g25">
      <path
         inkscape:connector-curvature="0"
         d="M 13.865,3.537 13.621,4.514 A 7,7 0 0 1 18,11 7,7 0 0 1 13.62,17.479 l 0.243,0.974 A 8,8 0 0 0 19,11 8,8 0 0 0 13.865,3.537 Z"
         id="path854"
         style="fill:#53b7ec;fill-opacity:1" />
      <path
         inkscape:connector-curvature="0"
         d="M 14.324,7.281 13.785,8.143 A 4,4 0 0 1 15,11 4,4 0 0 1 13.79,13.861 l 0.538,0.864 A 5,5 0 0 0 16,11 5,5 0 0 0 14.324,7.281 Z"
         id="path24"
         style="fill:#53b7ec;fill-opacity:1" />
      <path
         inkscape:connector-curvature="0"
         d="M 11,3 6,8 v 6 l 5,5 h 1 V 3 Z M 3,8 v 6 H 5 V 8 Z"
         id="path852"
         style="fill:#53b7ec;fill-opacity:1" />
    </g>
  </g>
</svg>
