<?xml version="1.0" encoding="UTF-8" standalone="no"?>
<svg
   xmlns:dc="http://purl.org/dc/elements/1.1/"
   xmlns:cc="http://creativecommons.org/ns#"
   xmlns:rdf="http://www.w3.org/1999/02/22-rdf-syntax-ns#"
   xmlns:svg="http://www.w3.org/2000/svg"
   xmlns="http://www.w3.org/2000/svg"
   xmlns:sodipodi="http://sodipodi.sourceforge.net/DTD/sodipodi-0.dtd"
   xmlns:inkscape="http://www.inkscape.org/namespaces/inkscape"
   inkscape:version="1.0rc1 (09960d6, 2020-04-09)"
   sodipodi:docname="battery-020-charging-symbolic.svg"
   id="svg11"
   version="1.1"
   width="32"
   height="32">
  <metadata
     id="metadata17">
    <rdf:RDF>
      <cc:Work
         rdf:about="">
        <dc:format>image/svg+xml</dc:format>
        <dc:type
           rdf:resource="http://purl.org/dc/dcmitype/StillImage" />
      </cc:Work>
    </rdf:RDF>
  </metadata>
  <defs
     id="defs15" />
  <sodipodi:namedview
     inkscape:current-layer="svg11"
     inkscape:cy="16"
     inkscape:cx="16"
     inkscape:zoom="22.34375"
     showgrid="false"
     id="namedview13"
     inkscape:window-height="480"
     inkscape:window-width="640"
     inkscape:pageshadow="2"
     inkscape:pageopacity="0"
     guidetolerance="10"
     gridtolerance="10"
     objecttolerance="10"
     borderopacity="1"
     bordercolor="#666666"
     pagecolor="#ffffff" />
  <style
     style=""
     fill="#53b7ec"
     color="#53b7ec"
     id="current-color-scheme"
     type="text/css">
        .ColorScheme-Text {
            color:#232629;
        }
        .ColorScheme-PositiveText {
            color:#27ae60;
        }
    </style>
  <g
     id="g7"
     style=""
     color="#53b7ec"
     fill="#53b7ec"
     class="ColorScheme-Text">
    <path
       id="path3"
       d="M3 10v12h25v-3c.554 0 1-.446 1-1v-4c0-.554-.446-1-1-1v-3zm1 1h23v10H4z" />
    <path
       id="path5"
       d="M5 12h3l2 8H5z" />
  </g>
  <path
     style="fill:#2b87f9;fill-opacity:1;stroke-width:0.727273"
     d="M 20.250268,13 H 16.644021 L 17.975272,8.9437528 C 18.100261,8.4687565 17.740893,8.0000001 17.250268,8.0000001 h -4.5 c -0.374996,0 -0.693745,0.2781236 -0.743745,0.6500072 l -1,7.4999997 c -0.05935,0.449993 0.290625,0.85 0.743753,0.85 h 3.709374 l -1.440633,6.078117 C 13.906523,23.553127 14.269024,24 14.747141,24 c 0.262502,0 0.512502,-0.137498 0.650007,-0.375004 l 5.499993,-9.499992 C 21.187766,13.628131 20.828411,13 20.250268,13 Z"
     id="path2-361"
     inkscape:connector-curvature="0" />
</svg>
