<svg xmlns="http://www.w3.org/2000/svg" viewBox="0 0 16 16">
  <defs id="defs3051" color="#53b7ec" fill="#53b7ec" style="">
    <style type="text/css" id="current-color-scheme">
      .ColorScheme-Text {
        color:#eff0f1;
      }
      .ColorScheme-PositiveText {
        color:#27ae60;
      }
      </style>
  </defs>
 <path style="" d="m 4,2 0,2 -2,0 0,1 2,0 0,6 -2,0 0,1 2,0 0,2 1,0 0,-2 6,0 0,2 1,0 0,-2 2,0 0,-1 -2,0 0,-6 2.310547,0 0,-1 L 12,4 12,2 11,2 11,4 5,4 5,2 4,2 Z m 1,3 6,0 0,6 -6,0 0,-6 z" class="ColorScheme-Text" color="#53b7ec" fill="#53b7ec"/>
  <path d="m 10.499991,6.9999781 c 1.939,0 3.5,1.561 3.5,3.4999999 0,1.939 -1.561,3.5 -3.5,3.5 -1.939,0 -3.5,-1.561 -3.5,-3.5 0,-1.9389999 1.561,-3.4999999 3.5,-3.4999999 z" color="#53b7ec" fill="#53b7ec"/>
</svg>