<?xml version="1.0" encoding="UTF-8" standalone="no"?>
<svg
   xmlns:dc="http://purl.org/dc/elements/1.1/"
   xmlns:cc="http://creativecommons.org/ns#"
   xmlns:rdf="http://www.w3.org/1999/02/22-rdf-syntax-ns#"
   xmlns:svg="http://www.w3.org/2000/svg"
   xmlns="http://www.w3.org/2000/svg"
   xmlns:sodipodi="http://sodipodi.sourceforge.net/DTD/sodipodi-0.dtd"
   xmlns:inkscape="http://www.inkscape.org/namespaces/inkscape"
   inkscape:version="1.0rc1 (09960d6, 2020-04-09)"
   sodipodi:docname="network-wired-error-symbolic.svg"
   id="svg6"
   version="1.1"
   height="512"
   width="512">
  <metadata
     id="metadata12">
    <rdf:RDF>
      <cc:Work
         rdf:about="">
        <dc:format>image/svg+xml</dc:format>
        <dc:type
           rdf:resource="http://purl.org/dc/dcmitype/StillImage" />
        <dc:title></dc:title>
      </cc:Work>
    </rdf:RDF>
  </metadata>
  <defs
     id="defs10" />
  <sodipodi:namedview
     inkscape:current-layer="svg6"
     inkscape:cy="347.11346"
     inkscape:cx="152.46317"
     inkscape:zoom="0.61494064"
     showgrid="false"
     id="namedview8"
     inkscape:window-height="480"
     inkscape:window-width="640"
     inkscape:pageshadow="2"
     inkscape:pageopacity="0"
     guidetolerance="10"
     gridtolerance="10"
     objecttolerance="10"
     borderopacity="1"
     bordercolor="#666666"
     pagecolor="#ffffff" />
  <path
     style="color:#53b7ec;fill:#53b7ec;stroke-width:0.839844"
     inkscape:connector-curvature="0"
     id="path2"
     class=""
     d="M 457.5625,202.25 H 417.25 v -40.3125 c 0,-7.39063 -6.04687,-13.4375 -13.4375,-13.4375 H 363.5 v -40.3125 c 0,-7.39062 -6.04688,-13.4375 -13.4375,-13.4375 h -188.125 c -7.39062,0 -13.4375,6.04688 -13.4375,13.4375 V 148.5 h -40.3125 c -7.39063,0 -13.4375,6.04687 -13.4375,13.4375 V 202.25 H 54.4375 C 47.04687,202.25 41,208.29688 41,215.6875 v 188.125 c 0,7.39062 6.04687,13.4375 13.4375,13.4375 H 121.625 V 309.75 H 148.5 v 107.5 h 53.75 v -107.5 h 26.875 v 107.5 h 53.75 v -107.5 h 26.875 v 107.5 h 53.75 v -107.5 h 26.875 v 107.5 h 67.1875 c 7.39062,0 13.4375,-6.04688 13.4375,-13.4375 v -188.125 c 0,-7.39062 -6.04688,-13.4375 -13.4375,-13.4375 z" />
  <path
     style="fill:#ff0000"
     inkscape:connector-curvature="0"
     id="path4"
     d="m 225.28572,117.78572 v 122.85715 l 7.67857,61.42856 h 46.07143 l 7.67857,-61.42857 V 117.78572 Z m 0,214.99999 v 61.42857 h 61.42857 v -61.42857 z"
     class="warning" />
</svg>
