<?xml version="1.0" encoding="UTF-8" standalone="no"?>
<svg
   xmlns:dc="http://purl.org/dc/elements/1.1/"
   xmlns:cc="http://creativecommons.org/ns#"
   xmlns:rdf="http://www.w3.org/1999/02/22-rdf-syntax-ns#"
   xmlns:svg="http://www.w3.org/2000/svg"
   xmlns="http://www.w3.org/2000/svg"
   xmlns:sodipodi="http://sodipodi.sourceforge.net/DTD/sodipodi-0.dtd"
   xmlns:inkscape="http://www.inkscape.org/namespaces/inkscape"
   inkscape:version="1.0rc1 (09960d6, 2020-04-09)"
   sodipodi:docname="network-wired-no-route-symbolic.svg"
   id="svg4"
   version="1.1"
   height="512"
   width="512">
  <metadata
     id="metadata10">
    <rdf:RDF>
      <cc:Work
         rdf:about="">
        <dc:format>image/svg+xml</dc:format>
        <dc:type
           rdf:resource="http://purl.org/dc/dcmitype/StillImage" />
        <dc:title></dc:title>
      </cc:Work>
    </rdf:RDF>
  </metadata>
  <defs
     id="defs8" />
  <sodipodi:namedview
     inkscape:current-layer="svg4"
     inkscape:cy="316.56526"
     inkscape:cx="-224.93493"
     inkscape:zoom="0.43773969"
     showgrid="false"
     id="namedview6"
     inkscape:window-height="480"
     inkscape:window-width="640"
     inkscape:pageshadow="2"
     inkscape:pageopacity="0"
     guidetolerance="10"
     gridtolerance="10"
     objecttolerance="10"
     borderopacity="1"
     bordercolor="#666666"
     pagecolor="#ffffff" />
  <path
     style="fill:#ff0000;stroke-width:0.839844"
     inkscape:connector-curvature="0"
     id="path2-3"
     class=""
     d="M 457.5625,202.25 H 417.25 v -40.3125 c 0,-7.39063 -6.04687,-13.4375 -13.4375,-13.4375 H 363.5 v -40.3125 c 0,-7.39062 -6.04688,-13.437501 -13.4375,-13.437501 h -188.125 c -7.39062,0 -13.4375,6.046881 -13.4375,13.437501 V 148.5 h -40.3125 c -7.39063,0 -13.437499,6.04687 -13.437499,13.4375 V 202.25 h -40.3125 c -7.39062,0 -13.4375,6.04688 -13.4375,13.4375 v 188.125 c 0,7.39062 6.04688,13.4375 13.4375,13.4375 H 121.625 V 309.75 H 148.5 v 107.5 h 53.75 v -107.5 h 26.875 v 107.5 h 53.75 v -107.5 h 26.875 v 107.5 h 53.75 v -107.5 h 26.875 v 107.5 h 67.1875 c 7.39062,0 13.4375,-6.04688 13.4375,-13.4375 v -188.125 c 0,-7.39062 -6.04688,-13.4375 -13.4375,-13.4375 z" />
</svg>
