<svg xmlns:dc="http://purl.org/dc/elements/1.1/" xmlns:cc="http://creativecommons.org/ns#" xmlns:rdf="http://www.w3.org/1999/02/22-rdf-syntax-ns#" xmlns:svg="http://www.w3.org/2000/svg" xmlns="http://www.w3.org/2000/svg" xmlns:sodipodi="http://sodipodi.sourceforge.net/DTD/sodipodi-0.dtd" xmlns:inkscape="http://www.inkscape.org/namespaces/inkscape" aria-hidden="true" focusable="false" data-prefix="fas" data-icon="question" role="img" viewBox="0 0 512 512" class="svg-inline--fa fa-question fa-w-12 fa-9x" version="1.1" id="svg4" sodipodi:docname="weather-none-available-symbolic.svg" width="512" height="512" inkscape:version="0.92.4 (5da689c313, 2019-01-14)">
  <metadata id="metadata10" color="#53b7ec" fill="#53b7ec">
    <rdf:RDF>
      <cc:Work rdf:about="">
        <dc:format>image/svg+xml</dc:format>
        <dc:type rdf:resource="http://purl.org/dc/dcmitype/StillImage"/>
        <dc:title/>
      </cc:Work>
    </rdf:RDF>
  </metadata>
  <defs id="defs8" color="#53b7ec" fill="#53b7ec"/>
  <sodipodi:namedview pagecolor="#ffffff" bordercolor="#666666" borderopacity="1" objecttolerance="10" gridtolerance="10" guidetolerance="10" inkscape:pageopacity="0" inkscape:pageshadow="2" inkscape:window-width="1920" inkscape:window-height="1051" id="namedview6" showgrid="false" inkscape:zoom="0.4609375" inkscape:cx="192" inkscape:cy="256" inkscape:window-x="0" inkscape:window-y="0" inkscape:window-maximized="1" inkscape:current-layer="svg4" color="#53b7ec" fill="#53b7ec"/>
  <path d="M 260.021,0 C 180.202,0 128.503,32.703 87.914,91.026 c -7.363,10.58 -5.093,25.086 5.178,32.874 l 43.138,32.709 c 10.373,7.865 25.132,6.026 33.253,-4.148 25.049,-31.381 43.63,-49.449 82.757,-49.449 30.764,0 68.816,19.799 68.816,49.631 0,22.552 -18.617,34.134 -48.993,51.164 -35.423,19.86 -82.299,44.576 -82.299,106.405 V 320 c 0,13.255 10.745,24 24,24 h 72.471 c 13.255,0 24,-10.745 24,-24 v -5.773 c 0,-42.86 125.268,-44.645 125.268,-160.627 C 435.504,66.256 344.902,0 260.021,0 Z M 250,373.459 c -38.196,0 -69.271,31.075 -69.271,69.271 0,38.195 31.075,69.27 69.271,69.27 38.196,0 69.271,-31.075 69.271,-69.271 0,-38.196 -31.075,-69.27 -69.271,-69.27 z" class="" id="path2" inkscape:connector-curvature="0" style="color:#53b7ec;fill:#53b7ec"/>
</svg>