<?xml version="1.0" encoding="UTF-8" standalone="no"?>
<svg
   xmlns:dc="http://purl.org/dc/elements/1.1/"
   xmlns:cc="http://creativecommons.org/ns#"
   xmlns:rdf="http://www.w3.org/1999/02/22-rdf-syntax-ns#"
   xmlns:svg="http://www.w3.org/2000/svg"
   xmlns="http://www.w3.org/2000/svg"
   xmlns:sodipodi="http://sodipodi.sourceforge.net/DTD/sodipodi-0.dtd"
   xmlns:inkscape="http://www.inkscape.org/namespaces/inkscape"
   inkscape:version="1.0rc1 (09960d6, 2020-04-09)"
   sodipodi:docname="drive.svgz"
   version="1.1"
   viewBox="0 0 54 32"
   id="svg2">
  <metadata
     id="metadata17">
    <rdf:RDF>
      <cc:Work
         rdf:about="">
        <dc:format>image/svg+xml</dc:format>
        <dc:type
           rdf:resource="http://purl.org/dc/dcmitype/StillImage" />
      </cc:Work>
    </rdf:RDF>
  </metadata>
  <defs
     id="defs15" />
  <sodipodi:namedview
     inkscape:current-layer="svg2"
     inkscape:cy="15.141004"
     inkscape:cx="27.102939"
     inkscape:zoom="10.008076"
     showgrid="false"
     id="namedview13"
     inkscape:window-height="480"
     inkscape:window-width="640"
     inkscape:pageshadow="2"
     inkscape:pageopacity="0"
     guidetolerance="10"
     gridtolerance="10"
     objecttolerance="10"
     borderopacity="1"
     bordercolor="#666666"
     pagecolor="#ffffff" />
  <style
     id="current-color-scheme"
     type="text/css">
        .ColorScheme-Text {
            color:#232629;
        }
    </style>
  <g
     id="22-22-drive">
    <path
       fill="none"
       d="m0 10v22h22v-22z"
       id="path9" />
    <path
       style="fill:#3daee9;fill-opacity:1"
       fill="#3daee9"
       class="ColorScheme-Text"
       d="m5 13v16h12v-16zm4 1h4a3 3 0 0 1 3 3v2.088a1.5 1.5 0 0 0-1 1.412 1.5 1.5 0 0 0 1 1.412v2.088l-2 2h-6l-2-2v-2.088a1.5 1.5 0 0 0 1-1.412 1.5 1.5 0 0 0-1-1.412v-2.088a3 3 0 0 1 3-3zm-2 13h4v1h-4zm6 0h2v1h-2z"
       id="path854" />
  </g>
  <g
     id="drive">
    <path
       fill="none"
       d="m22 0v32h32v-32z"
       id="path14" />
    <path
       style="fill:#3daee9;fill-opacity:1"
       fill="#3daee9"
       class="ColorScheme-Text"
       d="m29 4v24h18v-24zm5 1h8c2.209139 0 4 1.790861 4 4v3.054688c-1.162442.237281-1.998017 1.258902-2 2.445312.000129 1.187878.836122 2.211643 2 2.449219v4.050781l-4 4h-8l-4-4v-4.054688c1.162442-.237281 1.998017-1.258902 2-2.445312-.000129-1.187878-.836122-2.211643-2-2.449219v-3.050781c0-2.209139 1.790861-4 4-4zm-2 21h7v1h-7zm9 0h3v1h-3z"
       id="path927" />
  </g>
  <g
     transform="translate(0 13)"
     id="16-16-drive">
    <path
       fill="none"
       d="m-16 3v16h16v-16z"
       id="path17" />
    <path
       style="fill:#3daee9;fill-opacity:1"
       fill="#3daee9"
       class="ColorScheme-Text"
       d="m-13 5v12h10v-12zm3 1h4a2 2 0 0 1 2 2v1a1 1 0 1 0 0 2v2l-1 1h-6l-1-1v-2a1 1 0 1 0 0-2v-1a2 2 0 0 1 2-2zm-2 9h4v1h-4zm6 0h2v1h-2z"
       id="path825" />
  </g>
</svg>
