<?xml version="1.0" encoding="UTF-8" standalone="no"?>
<svg
   xmlns:dc="http://purl.org/dc/elements/1.1/"
   xmlns:cc="http://creativecommons.org/ns#"
   xmlns:rdf="http://www.w3.org/1999/02/22-rdf-syntax-ns#"
   xmlns:svg="http://www.w3.org/2000/svg"
   xmlns="http://www.w3.org/2000/svg"
   xmlns:sodipodi="http://sodipodi.sourceforge.net/DTD/sodipodi-0.dtd"
   xmlns:inkscape="http://www.inkscape.org/namespaces/inkscape"
   inkscape:version="1.0rc1 (09960d6, 2020-04-09)"
   height="512"
   width="512"
   sodipodi:docname="folder-documents.svg"
   id="svg4"
   version="1.1"
   class="svg-inline--fa fa-file-alt fa-w-12 fa-9x"
   viewBox="0 0 512 512"
   role="img"
   data-icon="file-alt"
   data-prefix="fas"
   focusable="false"
   aria-hidden="true">
  <metadata
     id="metadata10">
    <rdf:RDF>
      <cc:Work
         rdf:about="">
        <dc:format>image/svg+xml</dc:format>
        <dc:type
           rdf:resource="http://purl.org/dc/dcmitype/StillImage" />
        <dc:title></dc:title>
      </cc:Work>
    </rdf:RDF>
  </metadata>
  <defs
     id="defs8" />
  <sodipodi:namedview
     inkscape:current-layer="svg4"
     inkscape:cy="304.12391"
     inkscape:cx="-15.216011"
     inkscape:zoom="0.8179893"
     showgrid="false"
     id="namedview6"
     inkscape:window-height="480"
     inkscape:window-width="640"
     inkscape:pageshadow="2"
     inkscape:pageopacity="0"
     guidetolerance="10"
     gridtolerance="10"
     objecttolerance="10"
     borderopacity="1"
     bordercolor="#666666"
     pagecolor="#ffffff" />
  <path
     inkscape:connector-curvature="0"
     id="path2"
     class=""
     d="M 288,136 V 0 H 88 C 74.7,0 64,10.7 64,24 v 464 c 0,13.3 10.7,24 24,24 h 336 c 13.3,0 24,-10.7 24,-24 V 160 H 312 c -13.2,0 -24,-10.8 -24,-24 z m 64,236 c 0,6.6 -5.4,12 -12,12 H 172 c -6.6,0 -12,-5.4 -12,-12 v -8 c 0,-6.6 5.4,-12 12,-12 h 168 c 6.6,0 12,5.4 12,12 z m 0,-64 c 0,6.6 -5.4,12 -12,12 H 172 c -6.6,0 -12,-5.4 -12,-12 v -8 c 0,-6.6 5.4,-12 12,-12 h 168 c 6.6,0 12,5.4 12,12 z m 0,-72 v 8 c 0,6.6 -5.4,12 -12,12 H 172 c -6.6,0 -12,-5.4 -12,-12 v -8 c 0,-6.6 5.4,-12 12,-12 h 168 c 6.6,0 12,5.4 12,12 z M 448,121.9 V 128 H 320 V 0 h 6.1 c 6.4,0 12.5,2.5 17,7 l 97.9,98 c 4.5,4.5 7,10.6 7,16.9 z"
     fill="#53b7ec" />
</svg>
