<svg xmlns:dc="http://purl.org/dc/elements/1.1/" xmlns:cc="http://creativecommons.org/ns#" xmlns:rdf="http://www.w3.org/1999/02/22-rdf-syntax-ns#" xmlns:svg="http://www.w3.org/2000/svg" xmlns="http://www.w3.org/2000/svg" xmlns:sodipodi="http://sodipodi.sourceforge.net/DTD/sodipodi-0.dtd" xmlns:inkscape="http://www.inkscape.org/namespaces/inkscape" aria-hidden="true" focusable="false" data-prefix="fas" data-icon="envelope" role="img" viewBox="0 0 512 512" class="svg-inline--fa fa-envelope fa-w-16 fa-9x" version="1.1" id="svg4" sodipodi:docname="stock_mail-priority-high.svg" inkscape:version="0.92.4 (5da689c313, 2019-01-14)">
  <metadata id="metadata10" color="#53b7ec" fill="#53b7ec">
    <rdf:RDF>
      <cc:Work rdf:about="">
        <dc:format>image/svg+xml</dc:format>
        <dc:type rdf:resource="http://purl.org/dc/dcmitype/StillImage"/>
      </cc:Work>
    </rdf:RDF>
  </metadata>
  <defs id="defs8" color="#53b7ec" fill="#53b7ec"/>
  <sodipodi:namedview pagecolor="#ffffff" bordercolor="#666666" borderopacity="1" objecttolerance="10" gridtolerance="10" guidetolerance="10" inkscape:pageopacity="0" inkscape:pageshadow="2" inkscape:window-width="1920" inkscape:window-height="1051" id="namedview6" showgrid="false" inkscape:zoom="0.4609375" inkscape:cx="256" inkscape:cy="256" inkscape:window-x="0" inkscape:window-y="0" inkscape:window-maximized="1" inkscape:current-layer="svg4" color="#53b7ec" fill="#53b7ec"/>
  <path d="M 479.32754,216.04576 C 482.81441,213.27415 488,215.86695 488,220.24788 V 403.08475 C 488,426.77754 468.77754,446 445.08475,446 H 73.152542 C 49.459746,446 30.237288,426.77754 30.237288,403.08475 V 220.33729 c 0,-4.47034 5.096187,-6.97373 8.672458,-4.20212 20.027118,15.55678 46.580934,35.31568 137.775844,101.5661 18.86483,13.76865 50.69365,42.73644 82.43305,42.55763 31.91822,0.26822 64.37289,-29.32543 82.52246,-42.55763 91.19492,-66.25042 117.65932,-86.09873 137.68644,-101.65551 z m -220.2089,115.51356 c 20.74238,0.35763 50.60424,-26.10678 65.62458,-37.0144 C 443.38602,208.44619 452.4161,200.93602 479.77458,179.47839 484.96017,175.45508 488,169.19661 488,162.58051 v -16.98729 c 0,-23.6928 -19.22246,-42.91525 -42.91525,-42.91525 H 73.152542 c -23.692796,0 -42.915254,19.22245 -42.915254,42.91525 v 16.98729 c 0,6.6161 3.039831,12.78517 8.225424,16.89788 27.358474,21.36822 36.388559,28.9678 155.031358,115.06653 15.02034,10.90762 44.8822,37.37203 65.62457,37.0144 z" class="" style="stroke-width:0.89406782;fill:#000000;" id="path2" inkscape:connector-curvature="0"/>
</svg>