<?xml version="1.0" encoding="UTF-8" standalone="no"?>
<svg
   xmlns:dc="http://purl.org/dc/elements/1.1/"
   xmlns:cc="http://creativecommons.org/ns#"
   xmlns:rdf="http://www.w3.org/1999/02/22-rdf-syntax-ns#"
   xmlns:svg="http://www.w3.org/2000/svg"
   xmlns="http://www.w3.org/2000/svg"
   xmlns:sodipodi="http://sodipodi.sourceforge.net/DTD/sodipodi-0.dtd"
   xmlns:inkscape="http://www.inkscape.org/namespaces/inkscape"
   inkscape:version="1.0rc1 (09960d6, 2020-04-09)"
   sodipodi:docname="network-wireless-acquiring-symbolic.svg"
   id="svg10"
   version="1.1"
   height="16"
   width="16">
  <metadata
     id="metadata16">
    <rdf:RDF>
      <cc:Work
         rdf:about="">
        <dc:format>image/svg+xml</dc:format>
        <dc:type
           rdf:resource="http://purl.org/dc/dcmitype/StillImage" />
      </cc:Work>
    </rdf:RDF>
  </metadata>
  <defs
     id="defs14" />
  <sodipodi:namedview
     inkscape:current-layer="svg10"
     inkscape:cy="13.06172"
     inkscape:cx="-11.347799"
     inkscape:zoom="22.673778"
     showgrid="false"
     id="namedview12"
     inkscape:window-height="480"
     inkscape:window-width="640"
     inkscape:pageshadow="2"
     inkscape:pageopacity="0"
     guidetolerance="10"
     gridtolerance="10"
     objecttolerance="10"
     borderopacity="1"
     bordercolor="#666666"
     pagecolor="#ffffff" />
  <path
     style="fill:#008000"
     inkscape:connector-curvature="0"
     d="M 8.0000003,2 C 5.1217229,2 2.4471592,2.8167177 0.1679691,4.2109375 L 0.7988284,4.9980469 C 2.9022484,3.7369058 5.3590873,3 8.0000003,3 10.640918,3 13.097755,3.7369049 15.201172,4.9980469 L 15.832031,4.2109375 C 13.552841,2.8167214 10.878283,2 8.0000003,2 Z m 0,3 C 5.8435994,5 3.8425684,5.6235825 2.1484378,6.6875 L 2.7792972,7.4726562 C 4.2984288,6.5437457 6.081793,6 8.0000003,6 9.9182129,6 11.701572,6.5437532 13.220703,7.4726562 L 13.851562,6.6875 C 12.157435,5.623599 10.156407,5 8.0000003,5 Z m 0,3 C 6.5661806,8 5.2366868,8.428369 4.1289066,9.1621094 L 4.7597659,9.9492188 C 5.6936483,9.3502154 6.8034857,9 8.0000003,9 9.1965149,9 10.306354,9.3502173 11.240234,9.9492188 l 0.63086,-0.7871094 C 10.763314,8.4283753 9.4338259,8 8.0000003,8 Z m 0,3 a 1.5,1.5 0 0 0 -1.5,1.5 1.5,1.5 0 0 0 1.5,1.5 A 1.5,1.5 0 0 0 9.4999999,12.5 1.5,1.5 0 0 0 8.0000003,11 Z"
     id="path4-3" />
  <path
     style="fill:#787878"
     sodipodi:nodetypes="sccsccssssss"
     id="path4-3-6"
     d="m 8.0000003,7.9999998 c -1.433819,0 -2.763313,0.428369 -3.871093,1.16211 l 0.630859,0.7871092 c 0.933882,-0.599003 2.04372,-0.9492192 3.240234,-0.9492192 1.196515,0 2.3063537,0.3502182 3.2402337,0.9492192 l 0.63086,-0.7871092 c -1.10778,-0.733734 -2.4372676,-1.16211 -3.8710937,-1.16211 z m 0,3.0000002 c -0.828427,0 -1.5,0.671573 -1.5,1.5 0,0.828427 0.671573,1.5 1.5,1.5 0.828427,0 1.5000001,-0.671573 1.5000001,-1.5 0,-0.828427 -0.6715731,-1.5 -1.5000001,-1.5 z" />
</svg>
