<?xml version="1.0" encoding="UTF-8" standalone="no"?>
<svg
   xmlns:dc="http://purl.org/dc/elements/1.1/"
   xmlns:cc="http://creativecommons.org/ns#"
   xmlns:rdf="http://www.w3.org/1999/02/22-rdf-syntax-ns#"
   xmlns:svg="http://www.w3.org/2000/svg"
   xmlns="http://www.w3.org/2000/svg"
   xmlns:sodipodi="http://sodipodi.sourceforge.net/DTD/sodipodi-0.dtd"
   xmlns:inkscape="http://www.inkscape.org/namespaces/inkscape"
   inkscape:version="1.0rc1 (09960d6, 2020-04-09)"
   height="512"
   width="512"
   sodipodi:docname="webcam-symbolic.svg"
   id="svg4"
   version="1.1"
   class="svg-inline--fa fa-webcam fa-w-14 fa-9x"
   viewBox="0 0 512 512"
   role="img"
   data-icon="webcam"
   data-prefix="fas"
   focusable="false"
   aria-hidden="true">
  <metadata
     id="metadata10">
    <rdf:RDF>
      <cc:Work
         rdf:about="">
        <dc:format>image/svg+xml</dc:format>
        <dc:type
           rdf:resource="http://purl.org/dc/dcmitype/StillImage" />
        <dc:title></dc:title>
      </cc:Work>
    </rdf:RDF>
  </metadata>
  <defs
     id="defs8" />
  <sodipodi:namedview
     inkscape:current-layer="svg4"
     inkscape:cy="256"
     inkscape:cx="224"
     inkscape:zoom="1.3964844"
     showgrid="false"
     id="namedview6"
     inkscape:window-height="480"
     inkscape:window-width="640"
     inkscape:pageshadow="2"
     inkscape:pageopacity="0"
     guidetolerance="10"
     gridtolerance="10"
     objecttolerance="10"
     borderopacity="1"
     bordercolor="#666666"
     pagecolor="#ffffff" />
  <path
     style="stroke-width:0.839844"
     inkscape:connector-curvature="0"
     id="path2"
     class=""
     d="m 404.61875,409.35547 -41.31191,-25.8252 C 412.11016,349.5502 444.125,293.1127 444.125,229.125 444.125,125.22793 359.89707,41 256,41 152.10293,41 67.875,125.22793 67.875,229.125 c 0,63.9877 32.014844,120.4252 80.81816,154.40527 l -41.31191,25.8252 A 26.875,26.875 0 0 0 94.783594,432.14883 V 444.125 A 26.875,26.875 0 0 0 121.65859,471 h 268.75 a 26.875,26.875 0 0 0 26.875,-26.875 V 432.14883 A 26.875,26.875 0 0 0 404.61875,409.35547 Z M 255.96641,363.5 A 134.375,134.375 0 1 1 390.34141,229.125 134.375,134.375 0 0 1 256,363.5 Z m 0,-241.875 a 107.5,107.5 0 1 0 107.5,107.5 A 107.5,107.5 0 0 0 256,121.625 Z m 0,67.1875 a 40.354492,40.354492 0 0 0 -40.3125,40.3125 13.4375,13.4375 0 0 1 -26.875,0 67.263086,67.263086 0 0 1 67.1875,-67.1875 13.4375,13.4375 0 1 1 0,26.875 z"
     fill="#787878" />
</svg>
