<?xml version="1.0" encoding="UTF-8" standalone="no"?>
<svg
   xmlns:dc="http://purl.org/dc/elements/1.1/"
   xmlns:cc="http://creativecommons.org/ns#"
   xmlns:rdf="http://www.w3.org/1999/02/22-rdf-syntax-ns#"
   xmlns:svg="http://www.w3.org/2000/svg"
   xmlns="http://www.w3.org/2000/svg"
   xmlns:sodipodi="http://sodipodi.sourceforge.net/DTD/sodipodi-0.dtd"
   xmlns:inkscape="http://www.inkscape.org/namespaces/inkscape"
   inkscape:version="1.0rc1 (09960d6, 2020-04-09)"
   height="512"
   width="512"
   sodipodi:docname="document-multiple.svg"
   id="svg4"
   version="1.1"
   class="svg-inline--fa fa-copy fa-w-14 fa-9x"
   viewBox="0 0 512 512"
   role="img"
   data-icon="copy"
   data-prefix="fas"
   focusable="false"
   aria-hidden="true">
  <metadata
     id="metadata10">
    <rdf:RDF>
      <cc:Work
         rdf:about="">
        <dc:format>image/svg+xml</dc:format>
        <dc:type
           rdf:resource="http://purl.org/dc/dcmitype/StillImage" />
        <dc:title></dc:title>
      </cc:Work>
    </rdf:RDF>
  </metadata>
  <defs
     id="defs8" />
  <sodipodi:namedview
     inkscape:current-layer="svg4"
     inkscape:cy="256"
     inkscape:cx="224"
     inkscape:zoom="1.3964844"
     showgrid="false"
     id="namedview6"
     inkscape:window-height="480"
     inkscape:window-width="640"
     inkscape:pageshadow="2"
     inkscape:pageopacity="0"
     guidetolerance="10"
     gridtolerance="10"
     objecttolerance="10"
     borderopacity="1"
     bordercolor="#666666"
     pagecolor="#ffffff" />
  <path
     style="stroke-width:0.839844"
     inkscape:connector-curvature="0"
     id="path2"
     class=""
     d="m 336.625,417.25 v 33.59375 C 336.625,461.97588 327.60088,471 316.46875,471 H 88.03125 C 76.899121,471 67.875,461.97588 67.875,450.84375 v -309.0625 c 0,-11.13213 9.024121,-20.15625 20.15625,-20.15625 H 148.5 v 248.59375 c 0,25.93354 21.09771,47.03125 47.03125,47.03125 z m 0,-288.90624 V 41.000003 H 195.53125 c -11.13213,0 -20.15625,9.024121 -20.15625,20.15625 V 370.21875 c 0,11.13212 9.02412,20.15624 20.15625,20.15624 h 228.4375 c 11.13213,0 20.15625,-9.02412 20.15625,-20.15624 V 148.5 h -87.34375 c -11.08594,0 -20.15625,-9.07031 -20.15625,-20.15624 z M 438.22174,102.28424 382.84076,46.903265 A 20.15625,20.15625 0 0 0 368.58861,41.000003 H 363.5 V 121.625 h 80.625 v -5.08861 a 20.15625,20.15625 0 0 0 -5.90326,-14.25215 z"
     fill="#787878" />
</svg>
