<?xml version="1.0" encoding="UTF-8" standalone="no"?>
<svg
   xmlns:dc="http://purl.org/dc/elements/1.1/"
   xmlns:cc="http://creativecommons.org/ns#"
   xmlns:rdf="http://www.w3.org/1999/02/22-rdf-syntax-ns#"
   xmlns:svg="http://www.w3.org/2000/svg"
   xmlns="http://www.w3.org/2000/svg"
   xmlns:sodipodi="http://sodipodi.sourceforge.net/DTD/sodipodi-0.dtd"
   xmlns:inkscape="http://www.inkscape.org/namespaces/inkscape"
   width="22"
   height="22"
   id="svg7229"
   sodipodi:version="0.32"
   inkscape:version="1.0rc1 (09960d6, 2020-04-09)"
   version="1.0"
   sodipodi:docname="battery.svg"
   inkscape:output_extension="org.inkscape.output.svgz.inkscape"
   viewBox="0 0 22 22">
  <defs
     id="defs7231">
    <style
       id="current-color-scheme"
       type="text/css">
      .ColorScheme-Text {
        color:#31363b;
      }
      .ColorScheme-Background{
        color:#eff0f1;
      }
      .ColorScheme-ViewText {
        color:#31363b;
      }
      .ColorScheme-ViewBackground{
        color:#ffffff;
      }
      .ColorScheme-ViewHover {
        color:#000000;
      }
      .ColorScheme-ViewFocus{
        color:#5a5a5a;
      }
      .ColorScheme-ButtonText {
        color:#31363b;
      }
      .ColorScheme-ButtonBackground{
        color:#E9E8E8;
      }
      .ColorScheme-ButtonHover {
        color:#1489ff;
      }
      .ColorScheme-ButtonFocus{
        color:#2B74C7;
      }
</style>
    <style
       type="text/css"
       id="style5">
      .ColorScheme-Text {
        color:#31363b;
      }
      .ColorScheme-Background {
        color:#eff0f1;
      }
      .ColorScheme-Highlight {
        color:#787878;
      }
      .ColorScheme-ViewText {
        color:#31363b;
      }
      .ColorScheme-ViewBackground {
        color:#fcfcfc;
      }
      .ColorScheme-ViewHover {
        color:#93cee9;
      }
      .ColorScheme-ViewFocus{
        color:#787878;
      }
      .ColorScheme-ButtonText {
        color:#31363b;
      }
      .ColorScheme-ButtonBackground {
        color:#eff0f1;
      }
      .ColorScheme-ButtonHover {
        color:#93cee9;
      }
      .ColorScheme-ButtonFocus{
        color:#787878;
      }
      </style>
  </defs>
  <sodipodi:namedview
     id="base"
     pagecolor="#ffffff"
     bordercolor="#666666"
     borderopacity="1.0"
     inkscape:pageopacity="0"
     inkscape:pageshadow="2"
     inkscape:zoom="18.820277"
     inkscape:cx="61.299145"
     inkscape:cy="65.562396"
     inkscape:document-units="px"
     inkscape:current-layer="layer1"
     showgrid="true"
     inkscape:window-width="1872"
     inkscape:window-height="1031"
     inkscape:window-x="48"
     inkscape:window-y="0"
     showguides="true"
     inkscape:guide-bbox="true"
     gridtolerance="10000"
     inkscape:window-maximized="1"
     inkscape:snap-bbox="true"
     inkscape:showpageshadow="false"
     borderlayer="true"
     inkscape:object-nodes="true"
     inkscape:document-rotation="0">
    <inkscape:grid
       type="xygrid"
       id="grid3780"
       empspacing="5"
       visible="true"
       enabled="true"
       snapvisiblegridlinesonly="true" />
    <sodipodi:guide
       position="-31.999999,30.000005"
       orientation="32,0"
       id="guide4222" />
    <sodipodi:guide
       position="-31.999999,-1.9999954"
       orientation="0,32"
       id="guide4224" />
    <sodipodi:guide
       position="8.2519531e-07,-1.9999954"
       orientation="-32,0"
       id="guide4226" />
    <sodipodi:guide
       position="8.2519531e-07,30.000005"
       orientation="0,-32"
       id="guide4228" />
    <sodipodi:guide
       position="-27.999999,26.000005"
       orientation="24,0"
       id="guide4230" />
    <sodipodi:guide
       position="-27.999999,2.0000046"
       orientation="0,24"
       id="guide4232" />
    <sodipodi:guide
       position="-3.9999992,2.0000046"
       orientation="-24,0"
       id="guide4234" />
    <sodipodi:guide
       position="-3.9999992,26.000005"
       orientation="0,-24"
       id="guide4236" />
  </sodipodi:namedview>
  <metadata
     id="metadata7234">
    <rdf:RDF>
      <cc:Work
         rdf:about="">
        <dc:format>image/svg+xml</dc:format>
        <dc:type
           rdf:resource="http://purl.org/dc/dcmitype/StillImage" />
        <dc:title />
      </cc:Work>
    </rdf:RDF>
  </metadata>
  <g
     inkscape:label="Camada 1"
     inkscape:groupmode="layer"
     id="layer1"
     transform="translate(-214.53572,-404.50504)">
    <g
       id="22-22-Battery">
      <rect
         y="404.50504"
         x="214.53572"
         height="22"
         width="22"
         id="rect4185"
         style="opacity:1;fill:none;fill-opacity:1;stroke:none;stroke-width:0.1;stroke-linecap:square;stroke-linejoin:miter;stroke-miterlimit:4;stroke-dasharray:none;stroke-dashoffset:0;stroke-opacity:1" />
      <path
         style="opacity:1;fill:#787878;fill-opacity:1;stroke:none;stroke-width:0.1;stroke-linecap:square;stroke-linejoin:miter;stroke-miterlimit:4;stroke-dasharray:none;stroke-dashoffset:0;stroke-opacity:1"
         d="m 215.53572,409.50504 0,2 0,8 0,2 3,0 15,0 1,0 0,-2 0,-2 0.5,0 c 0.277,0 0.5,-0.223 0.5,-0.5 l 0,-3 c 0,-0.277 -0.223,-0.5 -0.5,-0.5 l -0.5,0 0,-2 0,-2 -1,0 -15,0 z m 1,1 17,0 0,3.5 0,3 0,3.5 -17,0 z"
         id="rect4168"
         inkscape:connector-curvature="0"
         class="ColorScheme-Text"
         sodipodi:nodetypes="cccccccccssssccccccccccccc" />
    </g>
    <g
       id="22-22-Fill100">
      <rect
         style="opacity:1;fill:none;fill-opacity:1;stroke:none;stroke-width:0.1;stroke-linecap:square;stroke-linejoin:miter;stroke-miterlimit:4;stroke-dasharray:none;stroke-dashoffset:0;stroke-opacity:1"
         id="rect4193"
         width="22"
         height="22"
         x="236.53572"
         y="404.50504" />
      <path
         style="opacity:1;fill:#787878;fill-opacity:1;stroke:none;stroke-width:0.1;stroke-linecap:square;stroke-linejoin:miter;stroke-miterlimit:4;stroke-dasharray:none;stroke-dashoffset:0;stroke-opacity:1"
         d="m 237.53572,409.50504 0,2 0,8 0,2 3,0 15,0 1,0 0,-2 0,-2 0.5,0 c 0.277,0 0.5,-0.223 0.5,-0.5 l 0,-3 c 0,-0.277 -0.223,-0.5 -0.5,-0.5 l -0.5,0 0,-2 0,-2 -1,0 -16,0 z m 1,1 17,0 0,3.5 0,3 0,3.5 -17,0 z"
         id="path4191"
         inkscape:connector-curvature="0"
         class="ColorScheme-Text"
         sodipodi:nodetypes="cccccccccssssccccccccccccc" />
      <path
         inkscape:connector-curvature="0"
         id="path4199"
         d="m 239.53572,419.50504 0,-8 15,0 0,8 z"
         style="fill:#787878;fill-opacity:1;fill-rule:evenodd;stroke:none;stroke-width:1px;stroke-linecap:butt;stroke-linejoin:miter;stroke-opacity:1"
         class="ColorScheme-Text"
         sodipodi:nodetypes="ccccc" />
    </g>
    <g
       id="22-22-Fill90">
      <rect
         y="404.50504"
         x="258.53571"
         height="22"
         width="22"
         id="rect4197"
         style="opacity:1;fill:none;fill-opacity:1;stroke:none;stroke-width:0.1;stroke-linecap:square;stroke-linejoin:miter;stroke-miterlimit:4;stroke-dasharray:none;stroke-dashoffset:0;stroke-opacity:1" />
      <path
         style="opacity:1;fill:#787878;fill-opacity:1;stroke:none;stroke-width:0.1;stroke-linecap:square;stroke-linejoin:miter;stroke-miterlimit:4;stroke-dasharray:none;stroke-dashoffset:0;stroke-opacity:1"
         d="m 259.53572,409.50504 0,2 0,8 0,2 3,0 15,0 1,0 0,-2 0,-2 0.5,0 c 0.277,0 0.5,-0.223 0.5,-0.5 l 0,-3 c 0,-0.277 -0.223,-0.5 -0.5,-0.5 l -0.5,0 0,-2 0,-2 -1,0 -16,0 z m 1,1 17,0 0,3.5 0,3 0,3.5 -17,0 z"
         id="path4195"
         inkscape:connector-curvature="0"
         class="ColorScheme-Text"
         sodipodi:nodetypes="cccccccccssssccccccccccccc" />
      <path
         sodipodi:nodetypes="ccccc"
         inkscape:connector-curvature="0"
         id="path4201"
         d="m 261.53572,411.50504 0,8 14,0 -2,-8 z"
         style="fill:#787878;fill-opacity:1;fill-rule:evenodd;stroke:none;stroke-width:1px;stroke-linecap:butt;stroke-linejoin:miter;stroke-opacity:1"
         class="ColorScheme-Text" />
    </g>
    <g
       id="22-22-Fill80">
      <rect
         style="opacity:1;fill:none;fill-opacity:1;stroke:none;stroke-width:0.1;stroke-linecap:square;stroke-linejoin:miter;stroke-miterlimit:4;stroke-dasharray:none;stroke-dashoffset:0;stroke-opacity:1"
         id="rect4203"
         width="22"
         height="22"
         x="280.53571"
         y="404.50504" />
      <path
         style="opacity:1;fill:#787878;fill-opacity:1;stroke:none;stroke-width:0.1;stroke-linecap:square;stroke-linejoin:miter;stroke-miterlimit:4;stroke-dasharray:none;stroke-dashoffset:0;stroke-opacity:1"
         d="m 281.53572,409.50504 0,2 0,8 0,2 3,0 15,0 1,0 0,-2 0,-2 0.5,0 c 0.277,0 0.5,-0.223 0.5,-0.5 l 0,-3 c 0,-0.277 -0.223,-0.5 -0.5,-0.5 l -0.5,0 0,-2 0,-2 -1,0 -15,0 z m 1,1 17,0 0,3.5 0,3 0,3.5 -17,0 z"
         id="path4205"
         inkscape:connector-curvature="0"
         class="ColorScheme-Text"
         sodipodi:nodetypes="cccccccccssssccccccccccccc" />
      <path
         style="fill:#787878;fill-opacity:1;fill-rule:evenodd;stroke:none;stroke-width:1px;stroke-linecap:butt;stroke-linejoin:miter;stroke-opacity:1"
         d="m 283.53572,411.50504 0,8 12,0 0,-8 z"
         id="path4207"
         inkscape:connector-curvature="0"
         sodipodi:nodetypes="ccccc"
         class="ColorScheme-Text" />
    </g>
    <g
       id="22-22-Fill70">
      <rect
         y="404.50504"
         x="302.53571"
         height="22"
         width="22"
         id="rect4209"
         style="opacity:1;fill:none;fill-opacity:1;stroke:none;stroke-width:0.1;stroke-linecap:square;stroke-linejoin:miter;stroke-miterlimit:4;stroke-dasharray:none;stroke-dashoffset:0;stroke-opacity:1" />
      <path
         style="opacity:1;fill:#787878;fill-opacity:1;stroke:none;stroke-width:0.1;stroke-linecap:square;stroke-linejoin:miter;stroke-miterlimit:4;stroke-dasharray:none;stroke-dashoffset:0;stroke-opacity:1"
         d="m 303.53572,409.50504 0,2 0,8 0,2 3,0 15,0 1,0 0,-2 0,-2 0.5,0 c 0.277,0 0.5,-0.223 0.5,-0.5 l 0,-3 c 0,-0.277 -0.223,-0.5 -0.5,-0.5 l -0.5,0 0,-2 0,-2 -1,0 -15,0 z m 1,1 17,0 0,3.5 0,3 0,3.5 -17,0 z"
         id="path4211"
         inkscape:connector-curvature="0"
         class="ColorScheme-Text"
         sodipodi:nodetypes="cccccccccssssccccccccccccc" />
      <path
         sodipodi:nodetypes="ccccc"
         inkscape:connector-curvature="0"
         id="path4213"
         d="m 305.53572,411.50504 0,8 11,0 -2,-8 z"
         style="fill:#787878;fill-opacity:1;fill-rule:evenodd;stroke:none;stroke-width:1px;stroke-linecap:butt;stroke-linejoin:miter;stroke-opacity:1"
         class="ColorScheme-Text" />
    </g>
    <g
       id="22-22-Fill60">
      <rect
         style="opacity:1;fill:none;fill-opacity:1;stroke:none;stroke-width:0.1;stroke-linecap:square;stroke-linejoin:miter;stroke-miterlimit:4;stroke-dasharray:none;stroke-dashoffset:0;stroke-opacity:1"
         id="rect4215"
         width="22"
         height="22"
         x="324.53571"
         y="404.50504" />
      <path
         style="opacity:1;fill:#787878;fill-opacity:1;stroke:none;stroke-width:0.1;stroke-linecap:square;stroke-linejoin:miter;stroke-miterlimit:4;stroke-dasharray:none;stroke-dashoffset:0;stroke-opacity:1"
         d="m 325.53572,409.50504 0,2 0,8 0,2 3,0 15,0 1,0 0,-2 0,-2 0.5,0 c 0.277,0 0.5,-0.223 0.5,-0.5 l 0,-3 c 0,-0.277 -0.223,-0.5 -0.5,-0.5 l -0.5,0 0,-2 0,-2 -1,0 -15,0 z m 1,1 17,0 0,3.5 0,3 0,3.5 -17,0 z"
         id="path4217"
         inkscape:connector-curvature="0"
         class="ColorScheme-Text"
         sodipodi:nodetypes="cccccccccssssccccccccccccc" />
      <path
         style="fill:#787878;fill-opacity:1;fill-rule:evenodd;stroke:none;stroke-width:1px;stroke-linecap:butt;stroke-linejoin:miter;stroke-opacity:1"
         d="m 327.53572,411.50504 0,8 9,0 0,-8 z"
         id="path4219"
         inkscape:connector-curvature="0"
         sodipodi:nodetypes="ccccc"
         class="ColorScheme-Text" />
    </g>
    <g
       id="22-22-Fill50">
      <rect
         y="404.50504"
         x="346.53571"
         height="22"
         width="22"
         id="rect4221"
         style="opacity:1;fill:none;fill-opacity:1;stroke:none;stroke-width:0.1;stroke-linecap:square;stroke-linejoin:miter;stroke-miterlimit:4;stroke-dasharray:none;stroke-dashoffset:0;stroke-opacity:1" />
      <path
         style="opacity:1;fill:#787878;fill-opacity:1;stroke:none;stroke-width:0.1;stroke-linecap:square;stroke-linejoin:miter;stroke-miterlimit:4;stroke-dasharray:none;stroke-dashoffset:0;stroke-opacity:1"
         d="m 347.53572,409.50504 0,2 0,8 0,2 3,0 15,0 1,0 0,-2 0,-2 0.5,0 c 0.277,0 0.5,-0.223 0.5,-0.5 l 0,-3 c 0,-0.277 -0.223,-0.5 -0.5,-0.5 l -0.5,0 0,-2 0,-2 -1,0 -15,0 z m 1,1 17,0 0,3.5 0,3 0,3.5 -17,0 z"
         id="path4223"
         inkscape:connector-curvature="0"
         class="ColorScheme-Text"
         sodipodi:nodetypes="cccccccccssssccccccccccccc" />
      <path
         sodipodi:nodetypes="ccccc"
         inkscape:connector-curvature="0"
         id="path4225"
         d="m 349.53572,411.50504 0,8 8,0 -2,-8 z"
         style="fill:#787878;fill-opacity:1;fill-rule:evenodd;stroke:none;stroke-width:1px;stroke-linecap:butt;stroke-linejoin:miter;stroke-opacity:1"
         class="ColorScheme-Text" />
    </g>
    <g
       id="22-22-Fill40">
      <rect
         style="opacity:1;fill:none;fill-opacity:1;stroke:none;stroke-width:0.1;stroke-linecap:square;stroke-linejoin:miter;stroke-miterlimit:4;stroke-dasharray:none;stroke-dashoffset:0;stroke-opacity:1"
         id="rect4227"
         width="22"
         height="22"
         x="368.53571"
         y="404.50504" />
      <path
         style="opacity:1;fill:#787878;fill-opacity:1;stroke:none;stroke-width:0.1;stroke-linecap:square;stroke-linejoin:miter;stroke-miterlimit:4;stroke-dasharray:none;stroke-dashoffset:0;stroke-opacity:1"
         d="m 369.53572,409.50504 0,2 0,8 0,2 3,0 15,0 1,0 0,-2 0,-2 0.5,0 c 0.277,0 0.5,-0.223 0.5,-0.5 l 0,-3 c 0,-0.277 -0.223,-0.5 -0.5,-0.5 l -0.5,0 0,-2 0,-2 -1,0 -15,0 z m 1,1 17,0 0,3.5 0,3 0,3.5 -17,0 z"
         id="path4229"
         inkscape:connector-curvature="0"
         class="ColorScheme-Text"
         sodipodi:nodetypes="cccccccccssssccccccccccccc" />
      <path
         style="fill:#787878;fill-opacity:1;fill-rule:evenodd;stroke:none;stroke-width:1px;stroke-linecap:butt;stroke-linejoin:miter;stroke-opacity:1"
         d="m 371.53572,411.50504 0,8 6,0 0,-8 z"
         id="path4231"
         inkscape:connector-curvature="0"
         sodipodi:nodetypes="ccccc"
         class="ColorScheme-Text" />
    </g>
    <g
       id="22-22-Fill30">
      <rect
         y="404.50504"
         x="390.53571"
         height="22"
         width="22"
         id="rect4233"
         style="opacity:1;fill:none;fill-opacity:1;stroke:none;stroke-width:0.1;stroke-linecap:square;stroke-linejoin:miter;stroke-miterlimit:4;stroke-dasharray:none;stroke-dashoffset:0;stroke-opacity:1" />
      <path
         style="opacity:1;fill:#787878;fill-opacity:1;stroke:none;stroke-width:0.1;stroke-linecap:square;stroke-linejoin:miter;stroke-miterlimit:4;stroke-dasharray:none;stroke-dashoffset:0;stroke-opacity:1"
         d="m 391.53572,409.50504 0,2 0,8 0,2 3,0 15,0 1,0 0,-2 0,-2 0.5,0 c 0.277,0 0.5,-0.223 0.5,-0.5 l 0,-3 c 0,-0.277 -0.223,-0.5 -0.5,-0.5 l -0.5,0 0,-2 0,-2 -1,0 -15,0 z m 1,1 17,0 0,3.5 0,3 0,3.5 -17,0 z"
         id="path4235"
         inkscape:connector-curvature="0"
         class="ColorScheme-Text"
         sodipodi:nodetypes="cccccccccssssccccccccccccc" />
      <path
         sodipodi:nodetypes="ccccc"
         inkscape:connector-curvature="0"
         id="path4237"
         d="m 393.53572,411.50504 0,8 5,0 -2,-8 z"
         style="fill:#787878;fill-opacity:1;fill-rule:evenodd;stroke:none;stroke-width:1px;stroke-linecap:butt;stroke-linejoin:miter;stroke-opacity:1"
         class="ColorScheme-Text" />
    </g>
    <g
       id="22-22-Fill20">
      <rect
         style="opacity:1;fill:none;fill-opacity:1;stroke:none;stroke-width:0.1;stroke-linecap:square;stroke-linejoin:miter;stroke-miterlimit:4;stroke-dasharray:none;stroke-dashoffset:0;stroke-opacity:1"
         id="rect4239"
         width="22"
         height="22"
         x="412.53571"
         y="404.50504" />
      <path
         style="fill:#787878;fill-opacity:1;stroke:none"
         d="m 413.53572,409.50504 0,2 0,8 0,2 3,0 15,0 1,0 0,-2 0,-2 0.5,0 c 0.277,0 0.5,-0.223 0.5,-0.5 l 0,-3 c 0,-0.277 -0.223,-0.5 -0.5,-0.5 l -0.5,0 0,-2 0,-2 -1,0 -15,0 z m 1,1 17,0 0,3.5 0,3 0,3.5 -17,0 z"
         id="path4241"
         inkscape:connector-curvature="0"
         class="ColorScheme-Text"
         sodipodi:nodetypes="cccccccccssssccccccccccccc" />
      <path
         style="fill:#787878;fill-opacity:1;stroke:none"
         d="m 415.53572,411.50504 0,8 3,0 0,-8 z"
         id="path4243"
         inkscape:connector-curvature="0"
         sodipodi:nodetypes="ccccc"
         class="ColorScheme-Text" />
    </g>
    <g
       id="22-22-Fill10"
       transform="translate(22,0)">
      <rect
         y="404.50504"
         x="412.53571"
         height="22"
         width="22"
         id="rect4336"
         style="opacity:1;fill:none;fill-opacity:1;stroke:none;stroke-width:0.1;stroke-linecap:square;stroke-linejoin:miter;stroke-miterlimit:4;stroke-dasharray:none;stroke-dashoffset:0;stroke-opacity:1" />
      <path
         style="opacity:1;fill:#da4453;fill-opacity:1;stroke:none;stroke-width:0.1;stroke-linecap:square;stroke-linejoin:miter;stroke-miterlimit:4;stroke-dasharray:none;stroke-dashoffset:0;stroke-opacity:1"
         d="m 413.53572,409.50504 0,2 0,8 0,2 3,0 15,0 1,0 0,-2 0,-2 0.5,0 c 0.277,0 0.5,-0.223 0.5,-0.5 l 0,-3 c 0,-0.277 -0.223,-0.5 -0.5,-0.5 l -0.5,0 0,-2 0,-2 -1,0 -15,0 z m 1,1 17,0 0,3.5 0,3 0,3.5 -17,0 z"
         id="path4338"
         inkscape:connector-curvature="0"
         sodipodi:nodetypes="cccccccccssssccccccccccccc" />
      <path
         sodipodi:nodetypes="ccccc"
         inkscape:connector-curvature="0"
         id="path4340"
         d="m 415.53572,411.50504 0,8 3,0 -2,-8 z"
         style="fill:#da4453;fill-opacity:1;fill-rule:evenodd;stroke:none;stroke-width:1px;stroke-linecap:butt;stroke-linejoin:miter;stroke-opacity:1" />
    </g>
    <g
       transform="translate(44,0)"
       id="22-22-Fill0">
      <rect
         style="opacity:1;fill:none;fill-opacity:1;stroke:none;stroke-width:0.1;stroke-linecap:square;stroke-linejoin:miter;stroke-miterlimit:4;stroke-dasharray:none;stroke-dashoffset:0;stroke-opacity:1"
         id="rect4344"
         width="22"
         height="22"
         x="412.53571"
         y="404.50504" />
      <path
         style="opacity:1;fill:#da4453;fill-opacity:1;stroke:none;stroke-width:0.1;stroke-linecap:square;stroke-linejoin:miter;stroke-miterlimit:4;stroke-dasharray:none;stroke-dashoffset:0;stroke-opacity:1"
         d="m 413.53572,409.50504 0,2 0,8 0,2 3,0 15,0 1,0 0,-2 0,-2 0.5,0 c 0.277,0 0.5,-0.223 0.5,-0.5 l 0,-3 c 0,-0.277 -0.223,-0.5 -0.5,-0.5 l -0.5,0 0,-2 0,-2 -1,0 -15,0 z m 1,1 17,0 0,3.5 0,3 0,3.5 -17,0 z"
         id="path4346"
         inkscape:connector-curvature="0"
         sodipodi:nodetypes="cccccccccssssccccccccccccc" />
    </g>
    <g
       id="22-22-Unavailable"
       transform="translate(11.517625,21.249997)">
      <rect
         style="opacity:1;fill:none;fill-opacity:1;stroke:none;stroke-width:0.1;stroke-linecap:square;stroke-linejoin:miter;stroke-miterlimit:4;stroke-dasharray:none;stroke-dashoffset:0;stroke-opacity:1"
         id="rect4614"
         width="22"
         height="22"
         x="258.53571"
         y="426.50504" />
      <rect
         ry="1"
         y="439.25504"
         x="270.0181"
         height="6"
         width="9"
         id="rect962"
         style="opacity:1;fill:#ffffff;fill-rule:evenodd" />
      <path
         style="fill:#ff0000;stroke-width:0.0234375"
         inkscape:connector-curvature="0"
         id="path2-3"
         class=""
         d="m 274.53571,436.50504 c -3.31406,0 -6,2.35078 -6,5.25 0,1.64297 0.86485,3.10781 2.21486,4.07109 0.22499,0.16172 0.35624,0.42422 0.31639,0.70078 l -0.22031,1.55157 c -0.0328,0.225 0.14062,0.42656 0.36797,0.42656 h 1.82109 v -1.3125 c 0,-0.10313 0.0844,-0.1875 0.1875,-0.1875 h 0.375 c 0.10312,0 0.1875,0.0844 0.1875,0.1875 v 1.3125 h 1.5 v -1.3125 c 0,-0.10313 0.0844,-0.1875 0.1875,-0.1875 h 0.375 c 0.10312,0 0.1875,0.0844 0.1875,0.1875 v 1.3125 h 1.8211 c 0.22735,0 0.40077,-0.20156 0.36797,-0.42656 l -0.22032,-1.55157 c -0.0398,-0.27422 0.0891,-0.53906 0.3164,-0.70078 1.35,-0.96328 2.21485,-2.42812 2.21485,-4.07109 0,-2.89922 -2.68593,-5.25 -6,-5.25 z m -2.25,7.5 c -0.82735,0 -1.5,-0.67265 -1.5,-1.5 0,-0.82735 0.67265,-1.5 1.5,-1.5 0.82736,0 1.5,0.67265 1.5,1.5 0,0.82735 -0.67264,1.5 -1.5,1.5 z m 4.5,0 c -0.82735,0 -1.5,-0.67265 -1.5,-1.5 0,-0.82735 0.67265,-1.5 1.5,-1.5 0.82736,0 1.5,0.67265 1.5,1.5 0,0.82735 -0.67264,1.5 -1.5,1.5 z"
         fill="#000000" />
    </g>
    <g
       id="Battery">
      <rect
         ry="0"
         y="396.50504"
         x="182.53572"
         height="32"
         width="32"
         id="rect4246"
         style="opacity:1;fill:none;fill-opacity:1;stroke:none" />
      <path
         sodipodi:nodetypes="ccccsscccccccccc"
         inkscape:connector-curvature="0"
         id="rect4238"
         d="m 185.53572,404.50504 v 16 h 25 v -5 c 0.554,0 1,-0.446 1,-1 v -4 c 0,-0.55401 -0.446,-1 -1,-1 v -5 z m 1,1 h 23 v 5 4 5 h -23 z"
         style="opacity:1;fill:#787878;fill-opacity:1;stroke:none"
         class="ColorScheme-Text" />
    </g>
    <g
       id="Fill100">
      <rect
         style="opacity:1;fill:none;fill-opacity:1;stroke:none"
         id="rect4248"
         width="32"
         height="32"
         x="150.53572"
         y="396.50504"
         ry="0" />
      <path
         style="opacity:1;fill:#787878;fill-opacity:1;stroke:none"
         d="m 153.53572,404.50504 v 16 h 25 v -5 c 0.554,0 1,-0.446 1,-1 v -4 c 0,-0.554 -0.446,-1 -1,-1 v -5 z m 1,1 h 23 v 5 4 5 h -23 z"
         id="path4250"
         inkscape:connector-curvature="0"
         sodipodi:nodetypes="ccccsscccccccccc"
         class="ColorScheme-Text" />
      <rect
         y="406.50504"
         x="155.53572"
         height="11.999995"
         width="20.999985"
         id="rect4254"
         style="opacity:1;fill:#787878;fill-opacity:1;stroke:none"
         class="ColorScheme-Text" />
    </g>
    <g
       id="Fill90">
      <rect
         ry="0"
         y="396.50504"
         x="118.53572"
         height="32"
         width="32"
         id="rect4256"
         style="opacity:1;fill:none;fill-opacity:1;stroke:none" />
      <path
         sodipodi:nodetypes="ccccsscccccccccc"
         inkscape:connector-curvature="0"
         id="path4260"
         d="m 121.53572,404.50504 v 16 h 25 v -5 c 0.554,0 1,-0.446 1,-1 v -4 c 0,-0.554 -0.446,-1 -1,-1 v -5 z m 1,1 h 23 v 5 4 5 h -23 z"
         style="opacity:1;fill:#787878;fill-opacity:1;stroke:none"
         class="ColorScheme-Text" />
      <path
         sodipodi:nodetypes="ccccc"
         inkscape:connector-curvature="0"
         id="rect4262"
         d="m 123.53572,406.50504 h 19 l 2,12 h -21 z"
         style="opacity:1;fill:#787878;fill-opacity:1;stroke:none"
         class="ColorScheme-Text" />
    </g>
    <g
       id="Fill80">
      <rect
         style="opacity:1;fill:none;fill-opacity:1;stroke:none"
         id="rect4265"
         width="32"
         height="32"
         x="86.535721"
         y="396.50504"
         ry="0" />
      <path
         style="opacity:1;fill:#787878;fill-opacity:1;stroke:none"
         d="m 89.53572,404.50504 v 16 h 25 v -5 c 0.554,0 1,-0.446 1,-1 v -4 c 0,-0.554 -0.446,-1 -1,-1 v -5 z m 1,1 h 23 v 5 4 5 h -23 z"
         id="path4269"
         inkscape:connector-curvature="0"
         sodipodi:nodetypes="ccccsscccccccccc"
         class="ColorScheme-Text" />
      <path
         style="opacity:1;fill:#787878;fill-opacity:1;stroke:none"
         d="m 91.53572,406.50504 h 17 l 2,12 h -19 z"
         id="path4271"
         inkscape:connector-curvature="0"
         sodipodi:nodetypes="ccccc"
         class="ColorScheme-Text" />
    </g>
    <g
       id="Fill70">
      <rect
         ry="0"
         y="396.50504"
         x="56.535721"
         height="32"
         width="32"
         id="rect4273"
         style="opacity:1;fill:none;fill-opacity:1;stroke:none" />
      <path
         sodipodi:nodetypes="ccccsscccccccccc"
         inkscape:connector-curvature="0"
         id="path4277"
         d="m 59.53572,404.50504 v 16 h 25 v -5 c 0.554,0 1,-0.446 1,-1 v -4 c 0,-0.554 -0.446,-1 -1,-1 v -5 z m 1,1 h 23 v 5 4 5 h -23 z"
         style="opacity:1;fill:#787878;fill-opacity:1;stroke:none"
         class="ColorScheme-Text" />
      <path
         sodipodi:nodetypes="ccccc"
         inkscape:connector-curvature="0"
         id="path4279"
         d="m 61.53572,406.50504 h 15 l 2,12 h -17 z"
         style="opacity:1;fill:#787878;fill-opacity:1;stroke:none"
         class="ColorScheme-Text" />
    </g>
    <g
       id="Fill60">
      <rect
         style="opacity:1;fill:none;fill-opacity:1;stroke:none"
         id="rect4281"
         width="32"
         height="32"
         x="24.535721"
         y="396.50504"
         ry="0" />
      <path
         style="opacity:1;fill:#787878;fill-opacity:1;stroke:none"
         d="m 27.53572,404.50504 v 16 h 25 v -5 c 0.554,0 1,-0.446 1,-1 v -4 c 0,-0.554 -0.446,-1 -1,-1 v -5 z m 1,1 h 23 v 5 4 5 h -23 z"
         id="path4285"
         inkscape:connector-curvature="0"
         sodipodi:nodetypes="ccccsscccccccccc"
         class="ColorScheme-Text" />
      <path
         style="opacity:1;fill:#787878;fill-opacity:1;stroke:none"
         d="m 29.53572,406.50504 h 13 l 2,12 h -15 z"
         id="path4287"
         inkscape:connector-curvature="0"
         sodipodi:nodetypes="ccccc"
         class="ColorScheme-Text" />
    </g>
    <g
       id="Fill50">
      <rect
         ry="0"
         y="396.50504"
         x="-7.4642792"
         height="32"
         width="32"
         id="rect4289"
         style="opacity:1;fill:none;fill-opacity:1;stroke:none" />
      <path
         sodipodi:nodetypes="ccccsscccccccccc"
         inkscape:connector-curvature="0"
         id="path4293"
         d="m -4.46428,404.50504 v 16 h 25 v -5 c 0.554,0 1,-0.446 1,-1 v -4 c 0,-0.554 -0.446,-1 -1,-1 v -5 z m 1,1 h 23 v 5 4 5 h -23 z"
         style="opacity:1;fill:#787878;fill-opacity:1;stroke:none"
         class="ColorScheme-Text" />
      <path
         sodipodi:nodetypes="ccccc"
         inkscape:connector-curvature="0"
         id="path4295"
         d="m -2.46428,406.50504 h 11 l 2,12 h -13 z"
         style="opacity:1;fill:#787878;fill-opacity:1;stroke:none"
         class="ColorScheme-Text" />
    </g>
    <g
       id="Fill40">
      <rect
         style="opacity:1;fill:none;fill-opacity:1;stroke:none"
         id="rect4297"
         width="32"
         height="32"
         x="-39.464279"
         y="396.50504"
         ry="0" />
      <path
         style="opacity:1;fill:#787878;fill-opacity:1;stroke:none"
         d="m -36.46428,404.50504 v 16 h 25 v -5 c 0.554,0 1,-0.446 1,-1 v -4 c 0,-0.554 -0.446,-1 -1,-1 v -5 z m 1,1 h 23 v 5 4 5 h -23 z"
         id="path4301"
         inkscape:connector-curvature="0"
         sodipodi:nodetypes="ccccsscccccccccc"
         class="ColorScheme-Text" />
      <path
         style="opacity:1;fill:#787878;fill-opacity:1;stroke:none"
         d="m -34.46428,406.50504 h 9 l 2,12 h -11 z"
         id="path4303"
         inkscape:connector-curvature="0"
         sodipodi:nodetypes="ccccc"
         class="ColorScheme-Text" />
    </g>
    <g
       id="Fill30">
      <rect
         ry="0"
         y="396.50504"
         x="-71.464279"
         height="32"
         width="32"
         id="rect4321"
         style="opacity:1;fill:none;fill-opacity:1;stroke:none" />
      <path
         sodipodi:nodetypes="ccccsscccccccccc"
         inkscape:connector-curvature="0"
         id="path4325"
         d="m -68.46428,404.50504 v 16 h 25 v -5 c 0.554,0 1,-0.446 1,-1 v -4 c 0,-0.554 -0.446,-1 -1,-1 v -5 z m 1,1 h 23 v 5 4 5 h -23 z"
         style="fill:#787878;fill-opacity:1;stroke:none"
         class="ColorScheme-Text" />
      <path
         sodipodi:nodetypes="ccccc"
         inkscape:connector-curvature="0"
         id="path4327"
         d="m -66.46428,406.50504 h 5 l 2,12 h -7 z"
         style="fill:#787878;fill-opacity:1;stroke:none"
         class="ColorScheme-Text" />
    </g>
    <g
       id="Fill20">
      <rect
         style="opacity:1;fill:none;fill-opacity:1;stroke:none"
         id="rect4329"
         width="32"
         height="32"
         x="-103.46428"
         y="396.50504"
         ry="0" />
      <path
         style="fill:#787878;fill-opacity:1;stroke:none"
         d="m -100.46428,404.50504 v 16 h 25 v -5 c 0.554,0 1,-0.446 1,-1 v -4 c 0,-0.554 -0.446,-1 -1,-1 v -5 z m 1,1 h 23 v 5 4 5 h -23 z"
         id="path4333"
         inkscape:connector-curvature="0"
         sodipodi:nodetypes="ccccsscccccccccc"
         class="ColorScheme-Text" />
      <path
         style="fill:#787878;fill-opacity:1;stroke:none"
         d="m -98.46428,406.50504 h 3 l 2,12 h -5 z"
         id="path4335"
         inkscape:connector-curvature="0"
         sodipodi:nodetypes="ccccc"
         class="ColorScheme-Text" />
    </g>
    <g
       id="Fill10">
      <rect
         ry="0"
         y="396.50504"
         x="-135.46428"
         height="32"
         width="32"
         id="rect4337"
         style="opacity:1;fill:none;fill-opacity:1;stroke:none" />
      <path
         sodipodi:nodetypes="ccccsscccccccccc"
         inkscape:connector-curvature="0"
         id="path4341"
         d="m -132.46428,404.50504 v 16 h 25 v -5 c 0.554,0 1,-0.446 1,-1 v -4 c 0,-0.554 -0.446,-1 -1,-1 v -5 z m 1,1 h 23 v 5 4 5 h -23 z"
         style="opacity:1;fill:#da4453;fill-opacity:1;stroke:none" />
      <path
         sodipodi:nodetypes="ccccc"
         inkscape:connector-curvature="0"
         id="path4343"
         d="m -130.46428,406.50504 h 1 l 2,12 h -3 z"
         style="opacity:1;fill:#da4453;fill-opacity:1;stroke:none" />
    </g>
    <g
       id="Fill0">
      <rect
         style="opacity:1;fill:none;fill-opacity:1;stroke:none"
         id="rect4345"
         width="32"
         height="32"
         x="-167.46428"
         y="396.50504"
         ry="0" />
      <path
         style="opacity:1;fill:#da4453;fill-opacity:1;stroke:none"
         d="m -164.46428,404.50504 v 16 h 25 v -5 c 0.554,0 1,-0.446 1,-1 v -4 c 0,-0.554 -0.446,-1 -1,-1 v -5 z m 1,1 h 23 v 5 4 5 h -23 z"
         id="path4349"
         inkscape:connector-curvature="0"
         sodipodi:nodetypes="ccccsscccccccccc" />
    </g>
    <g
       id="Unavailable"
       transform="translate(-39.492404,14.25003)">
      <rect
         ry="1"
         y="449.255"
         x="138.02812"
         height="6"
         width="11"
         id="rect960"
         style="opacity:1;fill:#ffffff;fill-rule:evenodd" />
      <path
         style="fill:#ff0000"
         inkscape:connector-curvature="0"
         id="path2"
         d="m 143.53572,444.505 c -4.41875,0 -8,3.13438 -8,7 0,2.19063 1.15313,4.14375 2.95313,5.42812 0.3,0.21563 0.47499,0.56563 0.42187,0.93438 l -0.29375,2.06875 c -0.0438,0.3 0.1875,0.56875 0.49063,0.56875 h 2.42812 v -1.75 c 0,-0.1375 0.1125,-0.25 0.25,-0.25 h 0.5 c 0.1375,0 0.25,0.1125 0.25,0.25 v 1.75 h 2 v -1.75 c 0,-0.1375 0.1125,-0.25 0.25,-0.25 h 0.5 c 0.1375,0 0.25,0.1125 0.25,0.25 v 1.75 h 2.42812 c 0.30313,0 0.53438,-0.26875 0.49063,-0.56875 l -0.29375,-2.06875 c -0.0531,-0.36563 0.11875,-0.71875 0.42187,-0.93438 1.8,-1.28437 2.95313,-3.23749 2.95313,-5.42812 0,-3.86562 -3.58125,-7 -8,-7 z m -3,10 c -1.10313,0 -2,-0.89687 -2,-2 0,-1.10313 0.89687,-2 2,-2 1.10313,0 2,0.89687 2,2 0,1.10313 -0.89687,2 -2,2 z m 6,0 c -1.10313,0 -2,-0.89687 -2,-2 0,-1.10313 0.89687,-2 2,-2 1.10313,0 2,0.89687 2,2 0,1.10313 -0.89687,2 -2,2 z" />
      <rect
         y="428.505"
         x="119.53572"
         height="32"
         width="32"
         id="rect4480"
         style="opacity:1;fill:none;fill-opacity:1;stroke:none;stroke-width:0.1;stroke-linecap:square;stroke-linejoin:miter;stroke-miterlimit:4;stroke-dasharray:none;stroke-dashoffset:0;stroke-opacity:1" />
    </g>
    <g
       id="AcAdapter"
       transform="translate(2.4275957,7.6131284)">
      <path
         inkscape:connector-curvature="0"
         id="path2-361"
         d="m 141.46184,447.01691 h -4.95859 l 1.83047,-5.57734 c 0.17186,-0.65312 -0.32227,-1.29766 -0.99688,-1.29766 h -6.1875 c -0.51562,0 -0.9539,0.38242 -1.02265,0.89376 l -1.375,10.3125 c -0.0816,0.61874 0.39961,1.16875 1.02266,1.16875 h 5.10039 l -1.98087,8.35741 c -0.15468,0.65313 0.34376,1.26758 1.00117,1.26758 0.36094,0 0.70469,-0.18906 0.89376,-0.51563 l 7.56249,-13.06249 c 0.39961,-0.6832 -0.0945,-1.54688 -0.88945,-1.54688 z"
         style="fill:#2b87f9;fill-opacity:1" />
      <rect
         style="fill:none;fill-rule:evenodd;stroke-width:0.964836"
         id="rect919-62"
         width="32"
         height="32"
         x="119.61772"
         y="435.14191" />
    </g>
    <g
       id="22-22-AcAdapter"
       transform="translate(-4.3607179,13.25)">
      <path
         d="m 257.66231,442.50504 h -3.60625 l 1.33125,-4.05625 c 0.12493,-0.47499 -0.23437,-0.94375 -0.725,-0.94375 h -4.5 c -0.375,0 -0.69375,0.27812 -0.74375,0.65001 l -1,7.5 c -0.0593,0.44999 0.29063,0.85 0.74376,0.85 h 3.70938 l -1.44064,6.07811 c -0.11254,0.47501 0.25001,0.92188 0.72812,0.92188 0.2625,0 0.5125,-0.13749 0.65001,-0.375 l 5.49999,-9.5 c 0.29062,-0.49687 -0.0687,-1.125 -0.64687,-1.125 z"
         id="path2-361-0"
         inkscape:connector-curvature="0"
         style="fill:#2b87f9;fill-opacity:1;stroke-width:1.33333" />
      <rect
         y="434.50504"
         x="242.41205"
         height="22"
         width="22"
         id="rect919-6-0-1-9"
         style="fill:none;fill-rule:evenodd;stroke-width:0.663325" />
    </g>
    <g
       id="battery-ups"
       transform="translate(-1.5713961,-12.25)">
      <rect
         y="455.00504"
         x="165.61871"
         height="32"
         width="32"
         id="rect919"
         style="fill:none;fill-rule:evenodd;stroke-width:0.964836" />
      <path
         style="color:#787878;fill:#787878;stroke-width:0.0625"
         d="m 195.61872,463.00504 h -2 v -3 c 0,-0.5525 -0.4475,-1 -1,-1 h -6 c -0.5525,0 -1,0.4475 -1,1 v 3 h -8 v -3 c 0,-0.5525 -0.4475,-1 -1,-1 h -6 c -0.5525,0 -1,0.4475 -1,1 v 3 h -2 c -1.10438,0 -2,0.89562 -2,2 v 16 c 0,1.10438 0.89562,2 2,2 h 28 c 1.10437,0 2,-0.89562 2,-2 v -16 c 0,-1.10438 -0.89563,-2 -2,-2 z m -18,8.5 c 0,0.27625 -0.22375,0.5 -0.5,0.5 h -7 c -0.27625,0 -0.5,-0.22375 -0.5,-0.5 v -1 c 0,-0.27625 0.22375,-0.5 0.5,-0.5 h 7 c 0.27625,0 0.5,0.22375 0.5,0.5 z m 16,0 c 0,0.27625 -0.22375,0.5 -0.5,0.5 h -2.5 v 2.5 c 0,0.27625 -0.22375,0.5 -0.5,0.5 h -1 c -0.27625,0 -0.5,-0.22375 -0.5,-0.5 v -2.5 h -2.5 c -0.27625,0 -0.5,-0.22375 -0.5,-0.5 v -1 c 0,-0.27625 0.22375,-0.5 0.5,-0.5 h 2.5 v -2.5 c 0,-0.27625 0.22375,-0.5 0.5,-0.5 h 1 c 0.27625,0 0.5,0.22375 0.5,0.5 v 2.5 h 2.5 c 0.27625,0 0.5,0.22375 0.5,0.5 z"
         class=""
         id="path1205"
         inkscape:connector-curvature="0" />
    </g>
    <g
       id="22-22-battery-ups"
       transform="translate(-5.3617261,1.0468747)">
      <rect
         y="446.70816"
         x="211.41106"
         height="22"
         width="22"
         id="rect919-6-0-1-2"
         style="fill:none;fill-rule:evenodd;stroke-width:0.663325" />
      <path
         inkscape:connector-curvature="0"
         id="path1439"
         class=""
         d="m 232.03605,452.20816 h -1.375 v -2.0625 c 0,-0.37984 -0.30766,-0.6875 -0.6875,-0.6875 h -4.125 c -0.37984,0 -0.6875,0.30766 -0.6875,0.6875 v 2.0625 h -5.5 v -2.0625 c 0,-0.37984 -0.30766,-0.6875 -0.6875,-0.6875 h -4.125 c -0.37984,0 -0.6875,0.30766 -0.6875,0.6875 v 2.0625 h -1.375 c -0.75926,0 -1.375,0.61574 -1.375,1.375 v 11 c 0,0.75926 0.61574,1.375 1.375,1.375 h 19.25 c 0.75925,0 1.375,-0.61574 1.375,-1.375 v -11 c 0,-0.75926 -0.61575,-1.375 -1.375,-1.375 z m -12.375,5.84375 c 0,0.18992 -0.15383,0.34375 -0.34375,0.34375 h -4.8125 c -0.18992,0 -0.34375,-0.15383 -0.34375,-0.34375 v -0.6875 c 0,-0.18992 0.15383,-0.34375 0.34375,-0.34375 h 4.8125 c 0.18992,0 0.34375,0.15383 0.34375,0.34375 z m 11,0 c 0,0.18992 -0.15383,0.34375 -0.34375,0.34375 h -1.71875 v 1.71875 c 0,0.18992 -0.15383,0.34375 -0.34375,0.34375 h -0.6875 c -0.18992,0 -0.34375,-0.15383 -0.34375,-0.34375 v -1.71875 h -1.71875 c -0.18992,0 -0.34375,-0.15383 -0.34375,-0.34375 v -0.6875 c 0,-0.18992 0.15383,-0.34375 0.34375,-0.34375 h 1.71875 v -1.71875 c 0,-0.18992 0.15383,-0.34375 0.34375,-0.34375 h 0.6875 c 0.18992,0 0.34375,0.15383 0.34375,0.34375 v 1.71875 h 1.71875 c 0.18992,0 0.34375,0.15383 0.34375,0.34375 z"
         style="color:#787878;fill:#787878;stroke-width:0.0429688" />
    </g>
  </g>
</svg>
