<?xml version="1.0" encoding="UTF-8" standalone="no"?>
<svg
   xmlns:dc="http://purl.org/dc/elements/1.1/"
   xmlns:cc="http://creativecommons.org/ns#"
   xmlns:rdf="http://www.w3.org/1999/02/22-rdf-syntax-ns#"
   xmlns:svg="http://www.w3.org/2000/svg"
   xmlns="http://www.w3.org/2000/svg"
   xmlns:sodipodi="http://sodipodi.sourceforge.net/DTD/sodipodi-0.dtd"
   xmlns:inkscape="http://www.inkscape.org/namespaces/inkscape"
   viewBox="0 0 22 22"
   sodipodi:docname="kpackagekit.svg"
   height="22"
   width="22"
   inkscape:version="1.0rc1 (09960d6, 2020-04-09)"
   version="1.1"
   id="svg4153">
  <metadata
     id="metadata4159">
    <rdf:RDF>
      <cc:Work
         rdf:about="">
        <dc:format>image/svg+xml</dc:format>
        <dc:type
           rdf:resource="http://purl.org/dc/dcmitype/StillImage" />
        <dc:title />
      </cc:Work>
    </rdf:RDF>
  </metadata>
  <defs
     id="defs4157">
    <style
       id="current-color-scheme"
       type="text/css">
      .ColorScheme-Text {
        color:#31363b;
      }
      .ColorScheme-Background {
        color:#eff0f1;
      }
      .ColorScheme-Highlight {
        color:#787878;
      }
      .ColorScheme-ViewText {
        color:#31363b;
      }
      .ColorScheme-ViewBackground {
        color:#fcfcfc;
      }
      .ColorScheme-ViewHover {
        color:#93cee9;
      }
      .ColorScheme-ViewFocus{
        color:#787878;
      }
      .ColorScheme-ButtonText {
        color:#31363b;
      }
      .ColorScheme-ButtonBackground {
        color:#eff0f1;
      }
      .ColorScheme-ButtonHover {
        color:#93cee9;
      }
      .ColorScheme-ButtonFocus{
        color:#787878;
      }
      </style>
  </defs>
  <sodipodi:namedview
     inkscape:document-rotation="0"
     inkscape:current-layer="svg4153"
     inkscape:window-maximized="1"
     inkscape:window-y="0"
     inkscape:window-x="0"
     inkscape:cy="-4.4427185"
     inkscape:cx="16.423986"
     inkscape:zoom="5.8979134"
     borderlayer="true"
     inkscape:showpageshadow="false"
     showgrid="true"
     inkscape:document-units="px"
     id="namedview4155"
     inkscape:window-height="544"
     inkscape:window-width="1024"
     inkscape:pageshadow="2"
     inkscape:pageopacity="0"
     guidetolerance="10"
     gridtolerance="10000"
     objecttolerance="10"
     borderopacity="1"
     bordercolor="#666666"
     pagecolor="#ffffff">
    <inkscape:grid
       id="grid4140"
       type="xygrid" />
    <sodipodi:guide
       id="guide4146"
       orientation="22,0"
       position="0,22" />
    <sodipodi:guide
       id="guide4148"
       orientation="0,22"
       position="0,0" />
    <sodipodi:guide
       id="guide4150"
       orientation="-22,0"
       position="22,0" />
    <sodipodi:guide
       id="guide4152"
       orientation="0,-22"
       position="22,22" />
    <sodipodi:guide
       id="guide4154"
       orientation="16,0"
       position="3,19" />
    <sodipodi:guide
       id="guide4156"
       orientation="0,16"
       position="18,3" />
    <sodipodi:guide
       id="guide4158"
       orientation="-16,0"
       position="19,3" />
    <sodipodi:guide
       id="guide4160"
       orientation="0,-16"
       position="19,19" />
  </sodipodi:namedview>
  <inkscape:clipboard
     max="22,22"
     min="0,0"
     style="opacity:0.01000001;fill:#00000f;fill-opacity:0;stroke-width:1;stroke-linecap:butt;stroke-linejoin:miter;stroke-miterlimit:4;stroke-dasharray:none;stroke-dashoffset:0;stroke-opacity:1;stroke:none" />
  <g
     id="kpackagekit-important">
    <g
       id="g4216">
      <path
         class="ColorScheme-Text"
         sodipodi:nodetypes="ccccccccccccccccccccccccc"
         inkscape:connector-curvature="0"
         id="path4198"
         d="m 51,7 -3,3 0,9 5.099609,0 L 57,19 l 5.099609,0 0,-9 -3,-3 L 57,7 53.099609,7 Z m 0.3,1 3.7,0 3.7,0 2,2 -11.4,0 z m 1.7,3 4,0 0,5 -1,-1 -1,1 -1,-1 -1,1 z"
         style="fill:#787878;fill-rule:evenodd;stroke:none;stroke-width:1px;stroke-linecap:butt;stroke-linejoin:miter;stroke-opacity:1" />
      <path
         inkscape:connector-curvature="0"
         id="path4202"
         d="m 60,3 3,5 -6,0 z"
         style="fill:#fdbc4b;fill-opacity:1;fill-rule:evenodd;stroke:none;stroke-width:1px;stroke-linecap:butt;stroke-linejoin:miter;stroke-opacity:1" />
    </g>
    <rect
       style="opacity:1;fill:none;fill-opacity:0.59905659;stroke:none"
       id="rect4206"
       width="22"
       height="22"
       x="44"
       y="-2.6645353e-15" />
  </g>
  <g
     id="kpackagekit-security">
    <g
       id="g4225">
      <path
         class="ColorScheme-Text"
         style="fill:#787878;fill-rule:evenodd;stroke:none;stroke-width:1px;stroke-linecap:butt;stroke-linejoin:miter;stroke-opacity:1"
         d="m 29,7 -3,3 0,9 5.099609,0 L 35,19 l 5.099609,0 0,-9 -3,-3 L 35,7 31.099609,7 Z m 0.3,1 3.7,0 3.7,0 2,2 -11.4,0 z m 1.7,3 4,0 0,5 -1,-1 -1,1 -1,-1 -1,1 z"
         id="path4185"
         inkscape:connector-curvature="0"
         sodipodi:nodetypes="ccccccccccccccccccccccccc" />
      <path
         id="path4191"
         d="m 38,3 c 0,1 -2,1 -2,1 l 0,3 c 0,1 1,1 2,2 1,-1 2,-1 2,-2 l 0,-3 c 0,0 -2,0 -2,-1 z"
         style="fill:#fdbc4b;fill-opacity:1;fill-rule:evenodd;stroke:none;stroke-width:1px;stroke-linecap:butt;stroke-linejoin:miter;stroke-opacity:1"
         inkscape:connector-curvature="0" />
    </g>
    <rect
       y="-2.6645353e-15"
       x="22"
       height="22"
       width="22"
       id="rect4208"
       style="opacity:1;fill:none;fill-opacity:0.59905659;stroke:none" />
  </g>
  <g
     id="kpackagekit-updates">
    <g
       id="g4220">
      <path
         class="ColorScheme-Text"
         sodipodi:nodetypes="ccccccccccccccccccccccccc"
         inkscape:connector-curvature="0"
         id="path4149"
         d="M 7,7 4,10 4,19 9.0996094,19 13,19 l 5.099609,0 0,-9 -3,-3 L 13,7 9.0996094,7 Z m 0.3,1 3.7,0 3.7,0 2,2 -11.4,0 z m 1.7,3 4,0 0,5 -1,-1 -1,1 -1,-1 -1,1 z"
         style="fill:#787878;fill-rule:evenodd;stroke:none;stroke-width:1px;stroke-linecap:butt;stroke-linejoin:miter;stroke-opacity:1" />
      <path
         inkscape:connector-curvature="0"
         id="path4180"
         d="M 16,3 A 3,3 0 0 0 13,6 3,3 0 0 0 16,9 3,3 0 0 0 19,6 3,3 0 0 0 16,3 Z"
         style="opacity:1;fill:#2ecc71;fill-opacity:1;stroke:none" />
      <path
         class="ColorScheme-Background"
         inkscape:connector-curvature="0"
         id="path4167"
         d="m 16,4 2,2 -1,0 0,2 -2,0 0,-2 -1,0 1,-1 1,-1 z"
         style="opacity:1;fill:#ffffff;fill-opacity:1;stroke:none" />
    </g>
    <rect
       y="-2.6645353e-15"
       x="0"
       height="22"
       width="22"
       id="rect4212"
       style="opacity:1;fill:none;fill-opacity:0.59905659;stroke:none" />
  </g>
  <g
     id="kpackagekit-inactive">
    <path
       class="ColorScheme-Text"
       sodipodi:nodetypes="ccccccccccccccccccccccccc"
       inkscape:connector-curvature="0"
       id="path4204"
       d="m -15,7 -3,3 0,9 5.099609,0 L -9,19 l 5.099609,0 0,-9 -3,-3 L -9,7 -12.900391,7 Z m 0.3,1 3.7,0 3.7,0 2,2 -11.4,0 z m 1.7,3 4,0 0,5 -1,-1 -1,1 -1,-1 -1,1 z"
       style="fill:#787878;fill-rule:evenodd;stroke:none;stroke-width:1px;stroke-linecap:butt;stroke-linejoin:miter;stroke-opacity:1" />
    <rect
       style="opacity:1;fill:none;fill-opacity:0.59905659;stroke:none"
       id="rect4214"
       width="22"
       height="22"
       x="-22"
       y="-2.6645353e-15" />
  </g>
</svg>
