<?xml version="1.0" encoding="UTF-8" standalone="no"?>
<svg
   xmlns:dc="http://purl.org/dc/elements/1.1/"
   xmlns:cc="http://creativecommons.org/ns#"
   xmlns:rdf="http://www.w3.org/1999/02/22-rdf-syntax-ns#"
   xmlns:svg="http://www.w3.org/2000/svg"
   xmlns="http://www.w3.org/2000/svg"
   xmlns:sodipodi="http://sodipodi.sourceforge.net/DTD/sodipodi-0.dtd"
   xmlns:inkscape="http://www.inkscape.org/namespaces/inkscape"
   inkscape:version="1.0rc1 (09960d6, 2020-04-09)"
   sodipodi:docname="user.svg"
   viewBox="0 0 22 22"
   version="1.1"
   id="svg4153">
  <metadata
     id="metadata64">
    <rdf:RDF>
      <cc:Work
         rdf:about="">
        <dc:format>image/svg+xml</dc:format>
        <dc:type
           rdf:resource="http://purl.org/dc/dcmitype/StillImage" />
      </cc:Work>
    </rdf:RDF>
  </metadata>
  <defs
     id="defs62" />
  <sodipodi:namedview
     inkscape:current-layer="svg4153"
     inkscape:cy="11.159688"
     inkscape:cx="-61.988946"
     inkscape:zoom="17.766013"
     showgrid="false"
     id="namedview60"
     inkscape:window-height="480"
     inkscape:window-width="640"
     inkscape:pageshadow="2"
     inkscape:pageopacity="0"
     guidetolerance="10"
     gridtolerance="10"
     objecttolerance="10"
     borderopacity="1"
     bordercolor="#666666"
     pagecolor="#ffffff"
     inkscape:document-rotation="0" />
  <style
     type="text/css"
     id="current-color-scheme">
        .ColorScheme-Text {
            color:#232629;
        }
        .ColorScheme-Background {
            color:#eff0f1;
        }
    </style>
  <g
     id="user-away">
    <path
       opacity=".97"
       fill="none"
       d="m-44 0h22v22h-22z"
       id="rect4562" />
    <path
       fill="#fdbc4b"
       d="m-33 2.99961a3.9999902 4.0000296 0 0 0-4 4 3.9999902 4.0000296 0 0 0 4 4 3.9999902 4.0000296 0 0 0 4-4 3.9999902 4.0000296 0 0 0-4-4zm0 1a3 3.0000296 0 0 1 3 3 3 3.0000296 0 0 1-3 3 3 3.0000296 0 0 1-3-3 3 3.0000296 0 0 1 3-3z"
       id="path4149" />
    <path
       fill="#fdbc4b"
       d="m-33 12a7.9999504 8.0000296 0 0 0-7.927734 7h1.007812a6.9999604 7.0000296 0 0 1 6.919922-6 6.9999604 7.0000296 0 0 1 1 0.08008v-1.009766a7.9999504 8.0000296 0 0 0-1-0.070314z"
       id="ellipse4156" />
    <path
       fill-rule="evenodd"
       fill="#fdbc4b"
       d="m-25 11-8 4 2 1 1 3 1-2 2 1z"
       id="path4227" />
  </g>
  <g
     id="user-busy">
    <path
       opacity=".97"
       fill="none"
       d="m-66 0h22v22h-22z"
       id="rect4560" />
    <path
       fill="#f47750"
       d="m-55 2.99961a3.9999902 4.0000296 0 0 0-4 4 3.9999902 4.0000296 0 0 0 4 4 3.9999902 4.0000296 0 0 0 4-4 3.9999902 4.0000296 0 0 0-4-4zm0 1a3 3.0000296 0 0 1 3 3 3 3.0000296 0 0 1-3 3 3 3.0000296 0 0 1-3-3 3 3.0000296 0 0 1 3-3z"
       id="path4149-4" />
    <path
       fill="#f47750"
       d="m-55 12a7.9999504 8.0000296 0 0 0-7.927734 7h1.007812a6.9999604 7.0000296 0 0 1 6.919922-6 6.9999604 7.0000296 0 0 1 1 0.08008v-1.009766a7.9999504 8.0000296 0 0 0-1-0.070314z"
       id="ellipse4156-7" />
    <path
       fill="#f47750"
       d="m-50.5 12a3.5 3.5 0 0 0-3.5 3.5 3.5 3.5 0 0 0 3.5 3.5 3.5 3.5 0 0 0 3.5-3.5 3.5 3.5 0 0 0-3.5-3.5z"
       id="path4169" />
    <path
       fill="#ffffff"
       d="m-51 13v3h2v-1h-1v-2z"
       class="ColorScheme-Background"
       id="rect4146" />
  </g>
  <g
     id="user-invisible">
    <path
       opacity=".97"
       fill="none"
       d="m22 0h22v22h-22z"
       id="rect4556" />
    <path
       fill="#787878"
       d="m33 2.99961a3.9999902 4.0000296 0 0 0-4 4 3.9999902 4.0000296 0 0 0 4 4 3.9999902 4.0000296 0 0 0 4-4 3.9999902 4.0000296 0 0 0-4-4zm0 1a3 3.0000296 0 0 1 3 3 3 3.0000296 0 0 1-3 3 3 3.0000296 0 0 1-3-3 3 3.0000296 0 0 1 3-3z"
       class="ColorScheme-Text"
       id="path4149-7" />
    <path
       fill="#787878"
       d="m33 12a7.9999504 8.0000296 0 0 0-7.927734 7h1.007812a6.9999604 7.0000296 0 0 1 6.919922-6 6.9999604 7.0000296 0 0 1 1 0.08008v-1.009766a7.9999504 8.0000296 0 0 0-1-0.070314z"
       class="ColorScheme-Text"
       id="ellipse4156-0" />
    <circle
       fill="#666"
       r="3.5"
       cy="15.5"
       cx="37.500004"
       id="path4167" />
    <path
       fill="#ffffff"
       d="m36.976669-17.884859h1v4.657h-1z"
       transform="matrix(.70710678 .70710678 -.70710678 .70710678 0 0)"
       class="ColorScheme-Background"
       id="rect4152" />
  </g>
  <g
     id="user-offline">
    <path
       opacity=".97"
       fill="none"
       d="m-22 0h22v22h-22z"
       id="rect4564" />
    <ellipse
       style="fill:#ffffff"
       fill="#787878"
       ry="3.249986"
       rx="3.250001"
       cy="15.5"
       cx="-6.499996"
       class="ColorScheme-Background"
       id="path4146" />
    <path
       fill="#bdc3c7"
       d="m-11 2.99961a3.9999902 4.0000296 0 0 0-4 4 3.9999902 4.0000296 0 0 0 4 4 3.9999902 4.0000296 0 0 0 4-4 3.9999902 4.0000296 0 0 0-4-4zm0 1a3 3.0000296 0 0 1 3 3 3 3.0000296 0 0 1-3 3 3 3.0000296 0 0 1-3-3 3 3.0000296 0 0 1 3-3z"
       id="path4149-3" />
    <path
       fill="#bdc3c7"
       d="m-11 12a7.9999504 8.0000296 0 0 0-7.927734 7h1.007812a6.9999604 7.0000296 0 0 1 6.919922-6 6.9999604 7.0000296 0 0 1 1 0.08008v-1.009766a7.9999504 8.0000296 0 0 0-1-0.070314z"
       id="ellipse4156-75" />
    <path
       fill="#bdc3c7"
       d="m-6.5 12a3.5 3.5 0 0 0-3.5 3.5 3.5 3.5 0 0 0 3.5 3.5 3.5 3.5 0 0 0 3.5-3.5 3.5 3.5 0 0 0-3.5-3.5zm0 1a2.5 2.5 0 0 1 2.5 2.5 2.5 2.5 0 0 1-2.5 2.5 2.5 2.5 0 0 1-2.5-2.5 2.5 2.5 0 0 1 2.5-2.5z"
       id="path4167-8" />
    <path
       fill="#bdc3c7"
       d="m15 4.999996h.999971v2.999991h-.999971z"
       transform="rotate(90)"
       id="rect4152-8" />
  </g>
  <g
     id="user-online">
    <path
       opacity=".97"
       fill="none"
       d="m0 0h22v22h-22z"
       id="rect4554" />
    <path
       fill="#43be80"
       d="m10.96392 2.99961a3.9999902 4.0000296 0 0 0-4 4 3.9999902 4.0000296 0 0 0 4 4 3.9999902 4.0000296 0 0 0 4-4 3.9999902 4.0000296 0 0 0-4-4zm0 1a3 3.0000296 0 0 1 3 3 3 3.0000296 0 0 1-3 3 3 3.0000296 0 0 1-3-3 3 3.0000296 0 0 1 3-3z"
       id="path4149-8" />
    <path
       fill="#43be80"
       d="m10.96392 12a7.9999504 8.0000296 0 0 0-7.9277344 7h1.0078125a6.9999604 7.0000296 0 0 1 6.9199219-6 6.9999604 7.0000296 0 0 1 1 0.08008v-1.009766a7.9999504 8.0000296 0 0 0-1-0.07031z"
       id="ellipse4156-8" />
    <circle
       fill="#43be80"
       r="3.5"
       cy="15.5"
       cx="15.463924"
       id="path4144" />
    <path
       fill-rule="evenodd"
       fill="#ffffff"
       d="m16.96391 14.00003 1 1-3 3-2-2 1-1 1 1z"
       class="ColorScheme-Background"
       id="path4166" />
  </g>
  <g
     id="user-identity">
    <path
       opacity=".97"
       fill="none"
       d="m-88 0h22v22h-22z"
       id="rect4585" />
    <path
       fill="#787878"
       d="m-77 3a3.9999902 4.0000296 0 0 0-4 4 3.9999902 4.0000296 0 0 0 4 4 3.9999902 4.0000296 0 0 0 4-4 3.9999902 4.0000296 0 0 0-4-4zm0 1a3 3.0000296 0 0 1 3 3 3 3.0000296 0 0 1-3 3 3 3.0000296 0 0 1-3-3 3 3.0000296 0 0 1 3-3zm0 8a7.9999504 8.0000296 0 0 0-7.927734 7h1.007812a6.9999604 7.0000296 0 0 1 6.919922-6 6.9999604 7.0000296 0 0 1 6.921875 6h1.007813a7.9999504 8.0000296 0 0 0-7.929688-7z"
       class="ColorScheme-Text"
       id="path4149-2" />
  </g>
  <g
     id="user-away-extended">
    <path
       opacity=".97"
       fill="none"
       d="m44 0h22v22h-22z"
       id="rect4649" />
    <circle
       fill="#9b59b6"
       r="3.499985"
       cy="15.5"
       cx="59.500015"
       id="circle4653" />
    <path
       fill="#9b59b6"
       d="m55.00004 2.99961a3.9999902 4.0000296 0 0 0-4 4 3.9999902 4.0000296 0 0 0 4 4 3.9999902 4.0000296 0 0 0 4-4 3.9999902 4.0000296 0 0 0-4-4zm0 1a3 3.0000296 0 0 1 3 3 3 3.0000296 0 0 1-3 3 3 3.0000296 0 0 1-3-3 3 3.0000296 0 0 1 3-3z"
       id="path4655" />
    <path
       fill="#9b59b6"
       d="m55.00004 12a7.9999504 8.0000296 0 0 0-7.927734 7h1.007812a6.9999604 7.0000296 0 0 1 6.919922-6 6.9999604 7.0000296 0 0 1 1 0.08008v-1.009766a7.9999504 8.0000296 0 0 0-1-0.07031z"
       id="path4657" />
    <circle
       opacity=".7"
       fill="#ffffff"
       r=".5"
       cy="-57.500046"
       cx="15.5"
       transform="rotate(90)"
       class="ColorScheme-Background"
       id="circle4659" />
    <circle
       opacity=".4"
       fill="#ffffff"
       r=".5"
       cy="15.5"
       cx="59.500046"
       class="ColorScheme-Background"
       id="circle4661" />
    <circle
       opacity=".3"
       fill="#ffffff"
       r=".5"
       cy="15.5"
       cx="61.500046"
       class="ColorScheme-Background"
       id="circle4663" />
  </g>
  <g
     transform="translate(-270)"
     id="16-16-user-desktop">
    <path
       fill="none"
       d="m-48 16h16v16h-16z"
       id="rect856" />
    <path
       fill="#787878"
       d="m-46 18v12h12v-12zm1 1h10v10h-10v-1zm1 8v1h8v-1z"
       class="ColorScheme-Text"
       id="path828" />
  </g>
  <g
     transform="translate(-270)"
     id="22-22-user-desktop">
    <path
       fill="none"
       d="m-22 10h22v22h-22z"
       id="rect850" />
    <path
       fill="#787878"
       d="m-19 13v16h16v-16zm1 1h14v14h-14zm1 12v1h12v-1z"
       class="ColorScheme-Text"
       id="path840" />
  </g>
  <g
     transform="translate(-260)"
     id="32-32-user-desktop">
    <path
       fill="none"
       d="m0 0h32v32h-32z"
       id="rect844" />
    <path
       fill="#787878"
       d="m4 4v24h24v-24zm1 1h22v22h-22zm2 19v1h18v-1z"
       class="ColorScheme-Text"
       id="path819" />
  </g>
  <g
     transform="translate(-260)"
     id="48-48-user-desktop">
    <path
       fill="none"
       d="m42-16h48v48h-48z"
       id="rect846" />
    <path
       fill="#787878"
       d="m48-10v36h36v-36zm2 2h32v32h-32zm2 28v2h28v-2z"
       class="ColorScheme-Text"
       id="path819-3" />
  </g>
  <g
     transform="translate(-260)"
     id="user-desktop">
    <path
       fill="none"
       d="m100-32h64v64h-64z"
       id="rect846-6" />
    <path
       fill="#787878"
       d="m108-24v48h48v-48zm2 2h44v44h-44zm3 39v2h38v-2z"
       class="ColorScheme-Text"
       id="path819-3-7" />
  </g>
</svg>
