<?xml version="1.0" encoding="UTF-8" standalone="no"?>
<svg
   xmlns:dc="http://purl.org/dc/elements/1.1/"
   xmlns:cc="http://creativecommons.org/ns#"
   xmlns:rdf="http://www.w3.org/1999/02/22-rdf-syntax-ns#"
   xmlns:svg="http://www.w3.org/2000/svg"
   xmlns="http://www.w3.org/2000/svg"
   xmlns:sodipodi="http://sodipodi.sourceforge.net/DTD/sodipodi-0.dtd"
   xmlns:inkscape="http://www.inkscape.org/namespaces/inkscape"
   inkscape:version="1.0rc1 (09960d6, 2020-04-09)"
   sodipodi:docname="radio-symbolic.svg"
   id="svg4"
   version="1.1"
   class="svg-inline--fa fa-radio fa-w-16 fa-9x"
   viewBox="0 0 512 512"
   role="img"
   data-icon="radio"
   data-prefix="fas"
   focusable="false"
   aria-hidden="true">
  <metadata
     id="metadata10">
    <rdf:RDF>
      <cc:Work
         rdf:about="">
        <dc:format>image/svg+xml</dc:format>
        <dc:type
           rdf:resource="http://purl.org/dc/dcmitype/StillImage" />
        <dc:title></dc:title>
      </cc:Work>
    </rdf:RDF>
  </metadata>
  <defs
     id="defs8" />
  <sodipodi:namedview
     inkscape:current-layer="svg4"
     inkscape:cy="256"
     inkscape:cx="256"
     inkscape:zoom="1.3964844"
     showgrid="false"
     id="namedview6"
     inkscape:window-height="480"
     inkscape:window-width="640"
     inkscape:pageshadow="2"
     inkscape:pageopacity="0"
     guidetolerance="10"
     gridtolerance="10"
     objecttolerance="10"
     borderopacity="1"
     bordercolor="#666666"
     pagecolor="#ffffff" />
  <path
     style="stroke-width:0.839844"
     inkscape:connector-curvature="0"
     id="path2"
     class=""
     d="M 417.25,148.49962 H 218.62695 L 461.19902,80.295912 a 13.4375,13.4375 0 0 0 9.29707,-16.578516 L 466.85957,50.8006 A 13.4375,13.4375 0 0 0 450.28105,41.503529 L 94.75,148.49962 a 53.75,53.75 0 0 0 -53.75,53.75 v 215 a 53.75,53.75 0 0 0 53.75,53.75 h 322.5 a 53.75,53.75 0 0 0 53.75,-53.75 v -215 a 53.75,53.75 0 0 0 -53.75,-53.75 z M 215.6875,249.28087 v 13.4375 a 6.71875,6.71875 0 0 1 -6.71875,6.71875 h -94.0625 a 6.71875,6.71875 0 0 1 -6.71875,-6.71875 v -13.4375 a 6.71875,6.71875 0 0 1 6.71875,-6.71875 h 94.0625 a 6.71875,6.71875 0 0 1 6.71875,6.71875 z m 0,120.9375 a 6.71875,6.71875 0 0 1 -6.71875,6.71875 h -94.0625 a 6.71875,6.71875 0 0 1 -6.71875,-6.71875 v -13.4375 a 6.71875,6.71875 0 0 1 6.71875,-6.71875 h 94.0625 a 6.71875,6.71875 0 0 1 6.71875,6.71875 z m 13.4375,-53.75 a 6.71875,6.71875 0 0 1 -6.71875,6.71875 H 101.46875 A 6.71875,6.71875 0 0 1 94.75,316.46837 v -13.4375 a 6.71875,6.71875 0 0 1 6.71875,-6.71875 h 120.9375 a 6.71875,6.71875 0 0 1 6.71875,6.71875 z m 120.9375,60.46875 a 67.1875,67.1875 0 1 1 67.1875,-67.1875 67.1875,67.1875 0 0 1 -67.1875,67.1875 z"
     fill="#787878" />
</svg>
