<?xml version="1.0" encoding="UTF-8" standalone="no"?>
<svg
   xmlns:dc="http://purl.org/dc/elements/1.1/"
   xmlns:cc="http://creativecommons.org/ns#"
   xmlns:rdf="http://www.w3.org/1999/02/22-rdf-syntax-ns#"
   xmlns:svg="http://www.w3.org/2000/svg"
   xmlns="http://www.w3.org/2000/svg"
   xmlns:sodipodi="http://sodipodi.sourceforge.net/DTD/sodipodi-0.dtd"
   xmlns:inkscape="http://www.inkscape.org/namespaces/inkscape"
   inkscape:version="1.0rc1 (09960d6, 2020-04-09)"
   sodipodi:docname="tv-symbolic.svg"
   id="svg8"
   version="1.1"
   class="svg-inline--fa fa-tv-retro fa-w-16 fa-9x"
   viewBox="0 0 512 512"
   role="img"
   data-icon="tv-retro"
   data-prefix="fad"
   focusable="false"
   aria-hidden="true">
  <metadata
     id="metadata14">
    <rdf:RDF>
      <cc:Work
         rdf:about="">
        <dc:format>image/svg+xml</dc:format>
        <dc:type
           rdf:resource="http://purl.org/dc/dcmitype/StillImage" />
        <dc:title></dc:title>
      </cc:Work>
    </rdf:RDF>
  </metadata>
  <defs
     id="defs12" />
  <sodipodi:namedview
     inkscape:current-layer="svg8"
     inkscape:cy="256"
     inkscape:cx="256"
     inkscape:zoom="1.3964844"
     showgrid="false"
     id="namedview10"
     inkscape:window-height="480"
     inkscape:window-width="640"
     inkscape:pageshadow="2"
     inkscape:pageopacity="0"
     guidetolerance="10"
     gridtolerance="10"
     objecttolerance="10"
     borderopacity="1"
     bordercolor="#666666"
     pagecolor="#ffffff" />
  <g
     transform="matrix(0.83972577,0,0,0.83972577,41.072103,41.001626)"
     id="g6"
     class="fa-group">
    <path
       inkscape:connector-curvature="0"
       style="opacity:0.3"
       id="path2"
       class="fa-secondary"
       d="m 392,168.07 c 0,0 0,-8 -168,-8 -152,0 -152,8 -152,8 0,0 -8,0 -8,120 0,120 8,120 8,120 0,0 0,8 152,8 168,0 168,-8 168,-8 0,0 8,0 8,-120 0,-120 -8,-120 -8,-120 z M 173.14,96 H 338.86 L 374.5,54.68 A 32.031937,32.031937 0 1 0 329.2,9.38 L 256,94.27 182.8,9.48 a 32.028402,32.028402 0 0 0 -45.3,45.29 z"
       fill="#787878" />
    <path
       inkscape:connector-curvature="0"
       id="path4"
       class="fa-primary"
       d="M 464,96.07 H 48 a 48,48 0 0 0 -48,48 v 288 a 48,48 0 0 0 48,48 h 16 v 32 h 48 l 21.3,-32 h 245.3 l 21.3,32 h 48 v -32 h 16 a 48,48 0 0 0 48,-48 v -288 a 47.86,47.86 0 0 0 -47.9,-48 z m -72,312 c 0,0 0,8 -168,8 -152,0 -152,-8 -152,-8 0,0 -8,0 -8,-120 0,-120 8,-120 8,-120 0,0 0,-8 152,-8 168,0 168,8 168,8 0,0 8,0 8,120 0,120 -8,120 -8,120 z m 72,-100 a 12,12 0 0 1 -12,12 h -8 a 12,12 0 0 1 -12,-12 v -8 a 12,12 0 0 1 12,-12 h 8 a 12,12 0 0 1 12,12 z m 0,-64 a 12,12 0 0 1 -12,12 h -8 a 12,12 0 0 1 -12,-12 v -8 a 12,12 0 0 1 12,-12 h 8 a 12,12 0 0 1 12,12 z"
       fill="#787878" />
  </g>
</svg>
