<?xml version="1.0" encoding="UTF-8" standalone="no"?>

<svg

   xmlns:dc="http://purl.org/dc/elements/1.1/"

   xmlns:cc="http://creativecommons.org/ns#"

   xmlns:rdf="http://www.w3.org/1999/02/22-rdf-syntax-ns#"

   xmlns:svg="http://www.w3.org/2000/svg"

   xmlns="http://www.w3.org/2000/svg"

   xmlns:sodipodi="http://sodipodi.sourceforge.net/DTD/sodipodi-0.dtd"

   xmlns:inkscape="http://www.inkscape.org/namespaces/inkscape"

   aria-hidden="true"

   focusable="false"

   data-prefix="fas"

   data-icon="desktop"

   role="img"

   viewBox="0 0 512 512"

   class="svg-inline--fa fa-desktop fa-w-18 fa-9x"

   version="1.1"

   id="svg4"

   sodipodi:docname="cs-display-symbolic.svg"

   inkscape:version="1.0rc1 (09960d6, 2020-04-09)"

   width="512"

   height="512">

  <metadata

     id="metadata10"

     color="#787878"

     fill="#787878">

    <rdf:RDF>

      <cc:Work

         rdf:about="">

        <dc:format>image/svg+xml</dc:format>

        <dc:type

           rdf:resource="http://purl.org/dc/dcmitype/StillImage" />

        <dc:title />

      </cc:Work>

    </rdf:RDF>

  </metadata>

  <defs

     id="defs8"

     color="#787878"

     fill="#787878" />

  <sodipodi:namedview

     pagecolor="#ffffff"

     bordercolor="#666666"

     borderopacity="1"

     objecttolerance="10"

     gridtolerance="10"

     guidetolerance="10"

     inkscape:pageopacity="0"

     inkscape:pageshadow="2"

     inkscape:window-width="1920"

     inkscape:window-height="1051"

     id="namedview6"

     showgrid="false"

     inkscape:zoom="0.4609375"

     inkscape:cx="288"

     inkscape:cy="256"

     inkscape:window-x="0"

     inkscape:window-y="0"

     inkscape:window-maximized="1"

     inkscape:current-layer="svg4"

     color="#787878"

     fill="#787878"

     inkscape:document-rotation="0" />

  <rect

     y="96.790253"

     x="60.630562"

     height="253.2504"

     width="393.03958"

     id="rect830"

     style="opacity:0.3;fill:#787878;fill-rule:evenodd;fill-opacity:1" />

  <path

     d="M 435.16667,64.888889 H 76.833333 C 57.050348,64.888889 41,80.939237 41,100.72222 v 238.88889 c 0,19.78298 16.050348,35.83333 35.833333,35.83333 H 220.16667 l -11.94445,35.83334 h -53.75 c -9.92882,0 -17.91666,7.98785 -17.91666,17.91666 0,9.92882 7.98784,17.91667 17.91666,17.91667 h 203.05555 c 9.92882,0 17.91667,-7.98785 17.91667,-17.91667 0,-9.92881 -7.98785,-17.91666 -17.91667,-17.91666 H 303.77778 L 291.83333,375.44444 H 435.16667 C 454.94965,375.44444 471,359.39409 471,339.61111 V 100.72222 C 471,80.939237 454.94965,64.888889 435.16667,64.888889 Z M 423.22222,327.66666 H 88.77778 V 112.66667 h 334.44444 z"

     class=""

     id="path2"

     inkscape:connector-curvature="0"

     style="color:#787878;fill:#787878;stroke-width:0.746528" />

</svg>

