<svg xmlns:dc="http://purl.org/dc/elements/1.1/" xmlns:cc="http://creativecommons.org/ns#" xmlns:rdf="http://www.w3.org/1999/02/22-rdf-syntax-ns#" xmlns:svg="http://www.w3.org/2000/svg" xmlns="http://www.w3.org/2000/svg" xmlns:sodipodi="http://sodipodi.sourceforge.net/DTD/sodipodi-0.dtd" xmlns:inkscape="http://www.inkscape.org/namespaces/inkscape" inkscape:version="1.0alpha (9dee831, 2019-01-15)" height="512" width="512" sodipodi:docname="x-shape-image-symbolic.svg" id="svg4" version="1.1" class="svg-inline--fa fa-file-image fa-w-12 fa-9x" viewBox="0 0 512 512" role="img" data-icon="file-image" data-prefix="far" focusable="false" aria-hidden="true">
  <metadata fill="#53b7ec" color="#53b7ec" id="metadata10">
    <rdf:RDF>
      <cc:Work rdf:about="">
        <dc:format>image/svg+xml</dc:format>
        <dc:type rdf:resource="http://purl.org/dc/dcmitype/StillImage"/>
        <dc:title/>
      </cc:Work>
    </rdf:RDF>
  </metadata>
  <defs fill="#53b7ec" color="#53b7ec" id="defs8"/>
  <sodipodi:namedview inkscape:document-rotation="0" fill="#53b7ec" color="#53b7ec" inkscape:current-layer="svg4" inkscape:window-maximized="1" inkscape:window-y="0" inkscape:window-x="0" inkscape:cy="256" inkscape:cx="192" inkscape:zoom="0.4609375" showgrid="false" id="namedview6" inkscape:window-height="2131" inkscape:window-width="3840" inkscape:pageshadow="2" inkscape:pageopacity="0" guidetolerance="10" gridtolerance="10" objecttolerance="10" borderopacity="1" bordercolor="#666666" pagecolor="#ffffff"/>
  <path style="color:#53b7ec;fill:#53b7ec;stroke-width:0.867819" inkscape:connector-curvature="0" id="path2" class="" d="M 418.83303,115.91861 346.02299,43.108577 C 338.21262,35.298204 327.62522,30.872325 316.60392,30.872325 H 139.48201 C 116.48479,30.959109 97.826678,49.617224 97.826678,72.614429 V 433.62725 c 0,22.99721 18.658112,41.65532 41.655332,41.65532 h 249.93195 c 22.99721,0 41.65532,-18.65811 41.65532,-41.65532 V 145.42447 c 0,-11.02131 -4.42588,-21.69548 -12.23625,-29.50586 z m -32.80357,26.12136 H 319.98841 V 75.998929 Z M 139.48201,433.62725 V 72.614429 h 138.85107 v 90.253211 c 0,11.54199 9.28567,20.82766 20.82767,20.82766 h 90.25321 v 249.93195 z m 27.77022,-41.65533 h 194.3915 V 280.89105 L 341.24998,260.4973 c -4.07875,-4.07875 -10.67417,-4.07875 -14.75292,0 l -75.93418,75.93419 -34.27887,-34.27886 c -4.07875,-4.07876 -10.67418,-4.07876 -14.75293,0 l -34.27885,34.27886 z M 208.90755,183.6953 c -22.99721,0 -41.65532,18.65811 -41.65532,41.65532 0,22.99722 18.65811,41.65533 41.65532,41.65533 22.9972,0 41.65533,-18.65811 41.65533,-41.65533 0,-22.99721 -18.65813,-41.65532 -41.65533,-41.65532 z"/>
</svg>