<?xml version="1.0" encoding="UTF-8" standalone="no"?>
<svg
   xmlns:dc="http://purl.org/dc/elements/1.1/"
   xmlns:cc="http://creativecommons.org/ns#"
   xmlns:rdf="http://www.w3.org/1999/02/22-rdf-syntax-ns#"
   xmlns:svg="http://www.w3.org/2000/svg"
   xmlns="http://www.w3.org/2000/svg"
   xmlns:sodipodi="http://sodipodi.sourceforge.net/DTD/sodipodi-0.dtd"
   xmlns:inkscape="http://www.inkscape.org/namespaces/inkscape"
   inkscape:version="1.0rc1 (09960d6, 2020-04-09)"
   sodipodi:docname="bookmarks.svgz"
   version="1.1"
   id="svg3613"
   height="32"
   width="54">
  <sodipodi:namedview
     inkscape:current-layer="svg3613"
     inkscape:cy="16"
     inkscape:cx="27"
     inkscape:zoom="16.537037"
     showgrid="false"
     id="namedview12"
     inkscape:window-height="480"
     inkscape:window-width="640"
     inkscape:pageshadow="2"
     inkscape:pageopacity="0"
     guidetolerance="10"
     gridtolerance="10"
     objecttolerance="10"
     borderopacity="1"
     bordercolor="#666666"
     pagecolor="#ffffff" />
  <metadata
     id="metadata13">
    <rdf:RDF>
      <cc:Work
         rdf:about="">
        <dc:format>image/svg+xml</dc:format>
        <dc:type
           rdf:resource="http://purl.org/dc/dcmitype/StillImage" />
        <dc:title />
      </cc:Work>
    </rdf:RDF>
  </metadata>
  <defs
     id="defs3615">
    <style
       id="current-color-scheme"
       type="text/css">
      .ColorScheme-Text {
        color:#31363b;
      }
      .ColorScheme-Background{
        color:#E9E8E8;
      }
      .ColorScheme-ViewText {
        color:#31363b;
      }
      .ColorScheme-ViewBackground{
        color:#ffffff;
      }
      .ColorScheme-ViewHover {
        color:#000000;
      }
      .ColorScheme-ViewFocus{
        color:#5a5a5a;
      }
      .ColorScheme-ButtonText {
        color:#31363b;
      }
      .ColorScheme-ButtonBackground{
        color:#E9E8E8;
      }
      .ColorScheme-ButtonHover {
        color:#1489ff;
      }
      .ColorScheme-ButtonFocus{
        color:#2B74C7;
      }
</style>
  </defs>
  <g
     style="fill:#787878;fill-opacity:1"
     id="22-22-bookmarks"
     transform="matrix(1.0000029,0,0,1.000001,-420.71555,-516.79125)">
    <rect
       transform="matrix(0.99999706,0,0,0.99999899,420.71433,524.79072)"
       y="2.0000052"
       x="-7.1556997e-08"
       height="22"
       width="22"
       id="rect3028"
       style="opacity:0.01000001;fill:#787878;fill-opacity:1;stroke:none" />
    <path
       class="ColorScheme-Text"
       id="rect4298"
       d="m 426.71431,529.79072 0,1 0,13.99999 0,1 4.99999,-2 4.99998,2 0,-1 0,-13.99999 0,-1 -9.99997,0 m 1,1 7.99997,0 0,13.5996 -3.99998,-1.59961 -3.99999,1.59961 0,-13.5996"
       style="fill:#787878;fill-opacity:1;stroke:none" />
  </g>
  <g
     style="fill:#787878;fill-opacity:1"
     id="bookmarks"
     transform="matrix(1.0000028,0,0,1.0000009,-398.71551,-516.79118)">
    <rect
       transform="matrix(0.99999706,0,0,0.99999899,420.71433,524.79072)"
       y="-7.9999948"
       x="-7.1557004e-08"
       height="32"
       width="32"
       id="rect2994"
       style="opacity:0.01000001;fill:#787878;fill-opacity:1;stroke:none" />
    <path
       class="ColorScheme-Text"
       id="path2996"
       d="m 428.71434,520.79071 0,23.99998 7.99998,-3.99999 7.99998,3.99999 0,-23.99998 z m 1,1 13.99996,0 0,21.55698 -6.99998,-3.55699 -6.99998,3.55699 z"
       style="fill:#787878;fill-opacity:1;stroke:none" />
  </g>
</svg>
