<svg xmlns="http://www.w3.org/2000/svg" height="16" width="16">
    <defs id="defs3051" color="#53b7ec" fill="#53b7ec" style="">
        <style type="text/css" id="current-color-scheme">
            .ColorScheme-NegativeText {
                color:#da4453;
            }
        </style>
    </defs>
    <path style="" class="ColorScheme-NegativeText" d="M7 2L4 5h4V2zm2 0v3h5V2zM2 7v2h2V6H3zm3-1v3h1V6zm-3 4v3h4v-3z" color="#53b7ec" fill="#53b7ec"/>
    <path style="" class="ColorScheme-NegativeText" d="M8 6c-.554 0-1 .446-1 1v6c0 .554.446 1 1 1h6c.554 0 1-.446 1-1V7c0-.554-.446-1-1-1z" color="#53b7ec" fill="#53b7ec"/>
    <path d="M9 7L8 8l2 2-2 2 1 1 2-2 2 2 1-1-2-2 2-2-1-1-2 2z" fill="#53b7ec" color="#53b7ec" style=""/>
</svg>