<?xml version="1.0" encoding="UTF-8" standalone="no"?>
<svg
   xmlns:dc="http://purl.org/dc/elements/1.1/"
   xmlns:cc="http://creativecommons.org/ns#"
   xmlns:rdf="http://www.w3.org/1999/02/22-rdf-syntax-ns#"
   xmlns:svg="http://www.w3.org/2000/svg"
   xmlns="http://www.w3.org/2000/svg"
   xmlns:sodipodi="http://sodipodi.sourceforge.net/DTD/sodipodi-0.dtd"
   xmlns:inkscape="http://www.inkscape.org/namespaces/inkscape"
   inkscape:version="1.0alpha (9dee831, 2019-01-15)"
   sodipodi:docname="audio-input-microphone-medium.svg"
   id="svg20"
   version="1.1"
   viewBox="0 0 16 16">
  <metadata
     id="metadata24">
    <rdf:RDF>
      <cc:Work
         rdf:about="">
        <dc:format>image/svg+xml</dc:format>
        <dc:type
           rdf:resource="http://purl.org/dc/dcmitype/StillImage" />
      </cc:Work>
    </rdf:RDF>
  </metadata>
  <sodipodi:namedview
     inkscape:current-layer="svg20"
     inkscape:window-maximized="0"
     inkscape:window-y="575"
     inkscape:window-x="488"
     inkscape:cy="9.2703117"
     inkscape:cx="8.2145567"
     inkscape:zoom="43.000931"
     showgrid="false"
     id="namedview22"
     inkscape:window-height="1214"
     inkscape:window-width="1564"
     inkscape:pageshadow="2"
     inkscape:pageopacity="0"
     guidetolerance="10"
     gridtolerance="10"
     objecttolerance="10"
     borderopacity="1"
     inkscape:document-rotation="0"
     bordercolor="#666666"
     pagecolor="#ffffff" />
  <defs
     style=""
     fill="#53b7ec"
     color="#53b7ec"
     id="defs3051">
    <style
       id="current-color-scheme"
       type="text/css">
      .ColorScheme-Text {
        color:#232629;
      }
      .ColorScheme-PositiveText {
        color:#27ae60;
      }
      </style>
  </defs>
  <path
     id="path16"
     fill="#53b7ec"
     color="#53b7ec"
     class="ColorScheme-Text"
     d="M 5 2 C 3.892 2 3 2.892 3 4 L 3 8 C 3 9.108 3.892 10 5 10 C 6.108 10 7 9.108 7 8 L 7 4 C 7 2.892 6.108 2 5 2 z M 1 7 L 1 8 C 1 9.847 2.286 11.405469 4 11.855469 L 4 13 L 3 13 L 3 14 L 7 14 L 7 13 L 6 13 L 6 11.855469 C 7.714 11.404469 9 9.845 9 8 L 9 7 L 8 7 L 8 8 C 8 9.645 6.645 11 5 11 C 3.355 11 2 9.645 2 8 L 2 7 L 1 7 z "
     style="" />
  <path
     sodipodi:nodetypes="cccccsc"
     inkscape:connector-curvature="0"
     id="path18"
     fill="#53b7ec"
     color="#53b7ec"
     class="ColorScheme-PositiveText"
     d="M 10.767578,4.4609375 10,4.9472656 c 0.698954,0.9271285 1.06889,1.981008 1.072266,3.0546875 -0.0023,1.0742041 -0.371613,2.1287919 -1.070313,3.0566409 l 0.767578,0.486328 C 11.607241,10.476929 12.055212,9.2516804 12.054688,8.0019531 12.054164,6.752743 11.60553,5.5282095 10.767578,4.4609375 Z" />
</svg>
