<?xml version="1.0" encoding="UTF-8" standalone="no"?>
<svg
   xmlns:dc="http://purl.org/dc/elements/1.1/"
   xmlns:cc="http://creativecommons.org/ns#"
   xmlns:rdf="http://www.w3.org/1999/02/22-rdf-syntax-ns#"
   xmlns:svg="http://www.w3.org/2000/svg"
   xmlns="http://www.w3.org/2000/svg"
   xmlns:sodipodi="http://sodipodi.sourceforge.net/DTD/sodipodi-0.dtd"
   xmlns:inkscape="http://www.inkscape.org/namespaces/inkscape"
   inkscape:version="1.0alpha (9dee831, 2019-01-15)"
   sodipodi:docname="drive-harddisk-root-symbolic.svg"
   id="svg8"
   version="1.1"
   height="16"
   width="16">
  <metadata
     id="metadata14">
    <rdf:RDF>
      <cc:Work
         rdf:about="">
        <dc:format>image/svg+xml</dc:format>
        <dc:type
           rdf:resource="http://purl.org/dc/dcmitype/StillImage" />
      </cc:Work>
    </rdf:RDF>
  </metadata>
  <defs
     id="defs12" />
  <sodipodi:namedview
     inkscape:current-layer="svg8"
     inkscape:window-maximized="0"
     inkscape:window-y="638"
     inkscape:window-x="603"
     inkscape:cy="6.9356623"
     inkscape:cx="4.6334554"
     inkscape:zoom="30.40625"
     showgrid="false"
     id="namedview10"
     inkscape:window-height="1244"
     inkscape:window-width="1583"
     inkscape:pageshadow="2"
     inkscape:pageopacity="0"
     guidetolerance="10"
     gridtolerance="10"
     objecttolerance="10"
     borderopacity="1"
     inkscape:document-rotation="0"
     bordercolor="#666666"
     pagecolor="#ffffff" />
  <path
     d="M 3.197,0 A 2.217,2.217 0 0 0 1,2.201 V 13.8 C 1,14.999 1.995,16 3.197,16 h 9.607 A 2.215,2.215 0 0 0 15,13.799 V 2.2 C 15,1.001 14.006,0 12.804,0 Z m 0,2 h 9.607 C 12.928,2 13,2.07 13,2.201 V 13.8 c 0,0.13 -0.072,0.201 -0.196,0.201 H 3.197 C 3.073,14 3,13.93 3,13.799 V 2.2 C 3,2.07 3.073,1.999 3.197,1.999 Z"
     style="color:#53b7ec;line-height:normal;font-variant-ligatures:normal;font-variant-position:normal;font-variant-caps:normal;font-variant-numeric:normal;font-variant-alternates:normal;font-feature-settings:normal;text-indent:0;text-align:start;text-decoration:none;text-decoration-line:none;text-decoration-style:solid;text-decoration-color:#000000;text-transform:none;text-orientation:mixed;shape-padding:0;opacity:1;isolation:auto;mix-blend-mode:normal;fill:#53b7ec;marker:none;stop-opacity:1"
     font-weight="400"
     font-family="sans-serif"
     white-space="normal"
     overflow="visible"
     id="path4"
     inkscape:connector-curvature="0" />
  <path
     style="color:#232629;opacity:1;fill:#ff0000;stroke-width:0.74533;stop-opacity:1"
     inkscape:connector-curvature="0"
     id="path3"
     d="M 9.3943211,3.506311 H 7.9036605 l -4.4719817,8.943963 h 1.4906606 z" />
  <rect
     style="color:#232629;opacity:1;fill:#ff0000;stroke-width:0.74533;stop-opacity:1"
     id="rect5"
     y="11.704944"
     x="7.9036603"
     width="4.4719815"
     height="0.74533027" />
</svg>
