<?xml version="1.0" encoding="UTF-8" standalone="no"?>
<svg
   xmlns:dc="http://purl.org/dc/elements/1.1/"
   xmlns:cc="http://creativecommons.org/ns#"
   xmlns:rdf="http://www.w3.org/1999/02/22-rdf-syntax-ns#"
   xmlns:svg="http://www.w3.org/2000/svg"
   xmlns="http://www.w3.org/2000/svg"
   xmlns:sodipodi="http://sodipodi.sourceforge.net/DTD/sodipodi-0.dtd"
   xmlns:inkscape="http://www.inkscape.org/namespaces/inkscape"
   inkscape:version="1.0rc1 (09960d6, 2020-04-09)"
   sodipodi:docname="7596_iexplore.0-symbolic.svg"
   id="svg4"
   version="1.1"
   class="svg-inline--fa fa-globe-americas fa-w-16 fa-9x"
   viewBox="0 0 496 512"
   role="img"
   data-icon="globe-americas"
   data-prefix="fas"
   focusable="false"
   aria-hidden="true">
  <metadata
     id="metadata10">
    <rdf:RDF>
      <cc:Work
         rdf:about="">
        <dc:format>image/svg+xml</dc:format>
        <dc:type
           rdf:resource="http://purl.org/dc/dcmitype/StillImage" />
      </cc:Work>
    </rdf:RDF>
  </metadata>
  <defs
     id="defs8" />
  <sodipodi:namedview
     inkscape:current-layer="svg4"
     inkscape:cy="256"
     inkscape:cx="215"
     inkscape:zoom="1.7439516"
     showgrid="false"
     id="namedview6"
     inkscape:window-height="480"
     inkscape:window-width="640"
     inkscape:pageshadow="2"
     inkscape:pageopacity="0"
     guidetolerance="10"
     gridtolerance="10"
     objecttolerance="10"
     borderopacity="1"
     bordercolor="#666666"
     pagecolor="#ffffff" />
  <path
     inkscape:connector-curvature="0"
     id="path2"
     style="stroke-width:0.866936"
     color="#53b7ec"
     class=""
     d="M 248,41 C 129.25585,41 33,137.25585 33,256 33,374.74415 129.25585,471 248,471 366.74415,471 463,374.74415 463,256 463,137.25585 366.74415,41 248,41 Z m 71.34012,310.01613 c -3.38105,3.36371 -6.92681,6.89214 -9.80504,9.77903 -2.59214,2.60081 -4.42137,5.80847 -5.34899,9.28488 -1.30907,4.90686 -2.36674,9.86573 -4.13528,14.6252 L 284.9748,425.32117 C 273.04577,427.92198 260.7006,429.3871 248,429.3871 v -23.7367 c 1.46512,-10.94072 -6.62339,-31.43508 -19.61875,-44.43044 -5.20161,-5.20161 -8.12319,-12.25847 -8.12319,-19.61875 V 313.8506 c 0,-10.09112 -5.43568,-19.36733 -14.26975,-24.24818 -12.45787,-6.89214 -30.17803,-16.52379 -42.31512,-22.63569 -9.95242,-5.01088 -19.15928,-11.39153 -27.43851,-18.85584 l -0.69355,-0.6242 A 99.517258,99.517258 0 0 1 119.88427,229.50645 C 111.75242,217.56875 98.505645,197.93266 89.896976,185.17137 107.64315,145.72581 139.6244,114.04798 179.36472,96.839315 l 20.81512,10.411895 c 9.22419,4.6121 20.07822,-2.08931 20.07822,-12.405847 v -9.796371 c 6.92682,-1.118347 13.975,-1.829234 21.14456,-2.097984 l 24.53428,24.534272 c 5.41834,5.41835 5.41834,14.2004 0,19.61875 l -4.06593,4.05726 -8.96412,8.96411 c -2.70483,2.70484 -2.70483,7.1002 0,9.80504 l 4.06593,4.06593 c 2.70484,2.70484 2.70484,7.1002 0,9.80504 l -6.93548,6.93549 a 6.9424194,6.9424194 0 0 1 -4.90686,2.02862 h -7.79375 c -1.80322,0 -3.53709,0.70222 -4.8375,1.96795 l -8.6,8.36593 a 6.9424194,6.9424194 0 0 0 -1.36975,8.07116 l 13.51552,27.03972 c 2.30605,4.6121 -1.04899,10.03912 -6.19859,10.03912 h -4.88952 c -1.67318,0 -3.28568,-0.60686 -4.54274,-1.6992 l -8.04516,-6.9875 a 13.885706,13.885706 0 0 0 -13.48085,-2.6875 l -27.02237,9.00746 a 10.359879,10.359879 0 0 0 -7.08287,9.83105 c 0,3.92722 2.21936,7.50766 5.73045,9.26754 l 9.60564,4.80282 c 8.15786,4.08327 17.15665,6.20726 26.27682,6.20726 9.12016,0 19.58407,23.65867 27.74193,27.74194 h 57.86795 c 7.36028,0 14.40846,2.92157 19.61875,8.12318 l 11.86834,11.86835 a 26.444133,26.444133 0 0 1 7.74174,18.6998 40.34371,40.34371 0 0 1 -11.89436,28.59153 z m 75.17198,-79.19456 c -5.01956,-1.25705 -9.39758,-4.33467 -12.26714,-8.64334 l -15.5875,-23.38125 a 20.780444,20.780444 0 0 1 0,-23.07783 l 16.98327,-25.47056 c 2.01129,-3.00827 4.76814,-5.45303 8.01048,-7.06553 l 11.25282,-5.62641 C 414.625,201.89456 421.3871,228.14536 421.3871,256 c 0,7.51633 -0.64154,14.87661 -1.57783,22.14153 z"
     fill="#53b7ec" />
</svg>
