<?xml version="1.0" encoding="UTF-8" standalone="no"?>
<svg
   xmlns:dc="http://purl.org/dc/elements/1.1/"
   xmlns:cc="http://creativecommons.org/ns#"
   xmlns:rdf="http://www.w3.org/1999/02/22-rdf-syntax-ns#"
   xmlns:svg="http://www.w3.org/2000/svg"
   xmlns="http://www.w3.org/2000/svg"
   xmlns:sodipodi="http://sodipodi.sourceforge.net/DTD/sodipodi-0.dtd"
   xmlns:inkscape="http://www.inkscape.org/namespaces/inkscape"
   inkscape:version="1.0rc1 (09960d6, 2020-04-09)"
   sodipodi:docname="accept_time_event-symbolic.svg"
   id="svg4"
   version="1.1"
   class="svg-inline--fa fa-clock fa-w-16 fa-9x"
   viewBox="0 0 512 512"
   role="img"
   data-icon="clock"
   data-prefix="fas"
   focusable="false"
   aria-hidden="true">
  <metadata
     fill="#53b7ec"
     color="#53b7ec"
     id="metadata10">
    <rdf:RDF>
      <cc:Work
         rdf:about="">
        <dc:format>image/svg+xml</dc:format>
        <dc:type
           rdf:resource="http://purl.org/dc/dcmitype/StillImage" />
      </cc:Work>
    </rdf:RDF>
  </metadata>
  <defs
     fill="#53b7ec"
     color="#53b7ec"
     id="defs8" />
  <sodipodi:namedview
     inkscape:document-rotation="0"
     fill="#53b7ec"
     color="#53b7ec"
     inkscape:current-layer="svg4"
     inkscape:window-maximized="1"
     inkscape:window-y="0"
     inkscape:window-x="0"
     inkscape:cy="256"
     inkscape:cx="256"
     inkscape:zoom="0.4609375"
     showgrid="false"
     id="namedview6"
     inkscape:window-height="1051"
     inkscape:window-width="1920"
     inkscape:pageshadow="2"
     inkscape:pageopacity="0"
     guidetolerance="10"
     gridtolerance="10"
     objecttolerance="10"
     borderopacity="1"
     bordercolor="#666666"
     pagecolor="#ffffff" />
  <path
     style="color:#53b7ec;fill:#53b7ec;stroke-width:0.866935"
     inkscape:connector-curvature="0"
     id="path2"
     class=""
     d="M 255.99999,40.999998 C 137.22984,40.999998 40.999998,137.22984 40.999998,255.99999 40.999998,374.77016 137.22984,471 255.99999,471 374.77016,471 471,374.77016 471,255.99999 471,137.22984 374.77016,40.999998 255.99999,40.999998 Z M 305.50201,344.51411 229.0383,288.94354 c -2.6875,-1.99395 -4.24798,-5.11492 -4.24798,-8.40927 V 134.62903 c 0,-5.72178 4.68145,-10.40323 10.40322,-10.40323 h 41.61291 c 5.72177,0 10.40323,4.68145 10.40323,10.40323 v 119.37701 l 55.0504,40.05242 c 4.68145,3.38106 5.63507,9.88306 2.25403,14.56452 l -24.44758,33.6371 c -3.38105,4.59476 -9.88307,5.63507 -14.56452,2.25403 z" />
</svg>
