<?xml version="1.0" encoding="UTF-8" standalone="no"?>
<svg
   xmlns:dc="http://purl.org/dc/elements/1.1/"
   xmlns:cc="http://creativecommons.org/ns#"
   xmlns:rdf="http://www.w3.org/1999/02/22-rdf-syntax-ns#"
   xmlns:svg="http://www.w3.org/2000/svg"
   xmlns="http://www.w3.org/2000/svg"
   xmlns:sodipodi="http://sodipodi.sourceforge.net/DTD/sodipodi-0.dtd"
   xmlns:inkscape="http://www.inkscape.org/namespaces/inkscape"
   aria-hidden="true"
   focusable="false"
   data-prefix="fas"
   data-icon="power-off"
   role="img"
   viewBox="0 0 512 512"
   class="svg-inline--fa fa-power-off fa-w-16 fa-9x"
   version="1.1"
   id="svg4"
   sodipodi:docname="gnome-shutdown-symbolic.svg"
   inkscape:version="1.0alpha (9dee831, 2019-01-15)">
  <metadata
     id="metadata10"
     color="#53b7ec"
     fill="#53b7ec">
    <rdf:RDF>
      <cc:Work
         rdf:about="">
        <dc:format>image/svg+xml</dc:format>
        <dc:type
           rdf:resource="http://purl.org/dc/dcmitype/StillImage" />
      </cc:Work>
    </rdf:RDF>
  </metadata>
  <defs
     id="defs8"
     color="#53b7ec"
     fill="#53b7ec" />
  <sodipodi:namedview
     pagecolor="#ffffff"
     bordercolor="#666666"
     borderopacity="1"
     objecttolerance="10"
     gridtolerance="10"
     guidetolerance="10"
     inkscape:pageopacity="0"
     inkscape:pageshadow="2"
     inkscape:window-width="3840"
     inkscape:window-height="2131"
     id="namedview6"
     showgrid="false"
     inkscape:zoom="1.84375"
     inkscape:cx="307.52949"
     inkscape:cy="150.91193"
     inkscape:window-x="0"
     inkscape:window-y="0"
     inkscape:window-maximized="1"
     inkscape:current-layer="svg4"
     color="#53b7ec"
     fill="#53b7ec"
     inkscape:document-rotation="0" />
  <g
     id="system-shutdown"
     transform="matrix(15.548509,0,0,15.548509,-331.76352,0.59650391)">
    <path
       id="path52"
       class="ColorScheme-Text"
       d="m 37,4 v 9 h 2 V 4 h -1 z m 3,0.1699219 V 5.1914062 A 11,11 0 0 1 49,16 11,11 0 0 1 38,27 11,11 0 0 1 27,16 11,11 0 0 1 36,5.1894532 V 4.1816407 A 12,12 0 0 0 26,16 12,12 0 0 0 38,28 12,12 0 0 0 50,16 12,12 0 0 0 40,4.1699219 Z"
       fill="#53b7ec"
       style="fill:#53b7ec;fill-opacity:1"
       inkscape:connector-curvature="0" />
    <path
       id="path54"
       d="M 22,0 V 32 H 54 V 0 Z"
       fill="none"
       inkscape:connector-curvature="0" />
  </g>
</svg>
