<svg xmlns:dc="http://purl.org/dc/elements/1.1/" xmlns:cc="http://creativecommons.org/ns#" xmlns:rdf="http://www.w3.org/1999/02/22-rdf-syntax-ns#" xmlns:svg="http://www.w3.org/2000/svg" xmlns="http://www.w3.org/2000/svg" xmlns:sodipodi="http://sodipodi.sourceforge.net/DTD/sodipodi-0.dtd" xmlns:inkscape="http://www.inkscape.org/namespaces/inkscape" aria-hidden="true" focusable="false" data-prefix="fas" data-icon="wallet" role="img" viewBox="0 0 512 512" class="svg-inline--fa fa-wallet fa-w-16 fa-9x" version="1.1" id="svg4" sodipodi:docname="kwalletmanager-symbolic.svg" inkscape:version="0.92.4 (5da689c313, 2019-01-14)">
  <metadata id="metadata10" color="#53b7ec" fill="#53b7ec">
    <rdf:RDF>
      <cc:Work rdf:about="">
        <dc:format>image/svg+xml</dc:format>
        <dc:type rdf:resource="http://purl.org/dc/dcmitype/StillImage"/>
      </cc:Work>
    </rdf:RDF>
  </metadata>
  <defs id="defs8" color="#53b7ec" fill="#53b7ec"/>
  <sodipodi:namedview pagecolor="#ffffff" bordercolor="#666666" borderopacity="1" objecttolerance="10" gridtolerance="10" guidetolerance="10" inkscape:pageopacity="0" inkscape:pageshadow="2" inkscape:window-width="1920" inkscape:window-height="1051" id="namedview6" showgrid="false" inkscape:zoom="0.4609375" inkscape:cx="256" inkscape:cy="256" inkscape:window-x="0" inkscape:window-y="0" inkscape:window-maximized="1" inkscape:current-layer="svg4" color="#53b7ec" fill="#53b7ec"/>
  <path d="M 434.11429,150.63923 H 110.14044 c -7.51293,0 -13.598064,-6.08514 -13.598064,-13.59807 0,-7.51293 6.085134,-13.59806 13.598064,-13.59806 h 326.35351 c 7.51293,0 13.59806,-6.08513 13.59806,-13.59806 0,-22.53029 -18.26389,-40.794193 -40.79418,-40.794193 H 96.542376 c -30.04322,0 -54.392255,24.349033 -54.392255,54.392253 v 271.96126 c 0,30.04322 24.349035,54.39225 54.392255,54.39225 H 434.11429 c 23.81361,0 43.17385,-18.29789 43.17385,-40.79419 V 191.43341 c 0,-22.49629 -19.36024,-40.79418 -43.17385,-40.79418 z m -38.41453,176.77481 c -15.01736,0 -27.19612,-12.17876 -27.19612,-27.19612 0,-15.01736 12.17876,-27.19613 27.19612,-27.19613 15.01736,0 27.19613,12.17877 27.19613,27.19613 0,15.01736 -12.17877,27.19612 -27.19613,27.19612 z" class="" id="path2" inkscape:connector-curvature="0" style="color:#53b7ec;fill:#53b7ec;stroke-width:0.84987891"/>
</svg>