<?xml version="1.0" encoding="UTF-8" standalone="no"?>
<svg
   xmlns:dc="http://purl.org/dc/elements/1.1/"
   xmlns:cc="http://creativecommons.org/ns#"
   xmlns:rdf="http://www.w3.org/1999/02/22-rdf-syntax-ns#"
   xmlns:svg="http://www.w3.org/2000/svg"
   xmlns="http://www.w3.org/2000/svg"
   xmlns:sodipodi="http://sodipodi.sourceforge.net/DTD/sodipodi-0.dtd"
   xmlns:inkscape="http://www.inkscape.org/namespaces/inkscape"
   inkscape:version="1.0rc1 (09960d6, 2020-04-09)"
   sodipodi:docname="preferences-system-network-symbolic.svg"
   id="svg4"
   version="1.1"
   class="svg-inline--fa fa-ethernet fa-w-16 fa-9x"
   viewBox="0 0 512 512"
   role="img"
   data-icon="ethernet"
   data-prefix="fas"
   focusable="false"
   aria-hidden="true">
  <metadata
     fill="#53b7ec"
     color="#53b7ec"
     id="metadata10">
    <rdf:RDF>
      <cc:Work
         rdf:about="">
        <dc:format>image/svg+xml</dc:format>
        <dc:type
           rdf:resource="http://purl.org/dc/dcmitype/StillImage" />
        <dc:title></dc:title>
      </cc:Work>
    </rdf:RDF>
  </metadata>
  <defs
     fill="#53b7ec"
     color="#53b7ec"
     id="defs8" />
  <sodipodi:namedview
     inkscape:document-rotation="0"
     fill="#53b7ec"
     color="#53b7ec"
     inkscape:current-layer="svg4"
     inkscape:window-maximized="1"
     inkscape:window-y="0"
     inkscape:window-x="0"
     inkscape:cy="256"
     inkscape:cx="256"
     inkscape:zoom="0.4609375"
     showgrid="false"
     id="namedview6"
     inkscape:window-height="1051"
     inkscape:window-width="1920"
     inkscape:pageshadow="2"
     inkscape:pageopacity="0"
     guidetolerance="10"
     gridtolerance="10"
     objecttolerance="10"
     borderopacity="1"
     bordercolor="#666666"
     pagecolor="#ffffff" />
  <path
     style="color:#53b7ec;fill:#53b7ec;stroke-width:0.839844"
     inkscape:connector-curvature="0"
     id="path2"
     class=""
     d="M 457.5625,202.25 H 417.25 v -40.3125 c 0,-7.39063 -6.04687,-13.4375 -13.4375,-13.4375 H 363.5 v -40.3125 c 0,-7.39062 -6.04688,-13.4375 -13.4375,-13.4375 h -188.125 c -7.39062,0 -13.4375,6.04688 -13.4375,13.4375 V 148.5 h -40.3125 c -7.39063,0 -13.4375,6.04687 -13.4375,13.4375 V 202.25 H 54.4375 C 47.046875,202.25 41,208.29688 41,215.6875 v 188.125 c 0,7.39062 6.046875,13.4375 13.4375,13.4375 H 121.625 V 309.75 H 148.5 v 107.5 h 53.75 v -107.5 h 26.875 v 107.5 h 53.75 v -107.5 h 26.875 v 107.5 h 53.75 v -107.5 h 26.875 v 107.5 h 67.1875 c 7.39062,0 13.4375,-6.04688 13.4375,-13.4375 v -188.125 c 0,-7.39062 -6.04688,-13.4375 -13.4375,-13.4375 z" />
</svg>
