<svg xmlns:dc="http://purl.org/dc/elements/1.1/" xmlns:cc="http://creativecommons.org/ns#" xmlns:rdf="http://www.w3.org/1999/02/22-rdf-syntax-ns#" xmlns:svg="http://www.w3.org/2000/svg" xmlns="http://www.w3.org/2000/svg" xmlns:sodipodi="http://sodipodi.sourceforge.net/DTD/sodipodi-0.dtd" xmlns:inkscape="http://www.inkscape.org/namespaces/inkscape" aria-hidden="true" focusable="false" data-prefix="fas" data-icon="concierge-bell" role="img" viewBox="0 0 512 512" class="svg-inline--fa fa-concierge-bell fa-w-16 fa-9x" version="1.1" id="svg4" sodipodi:docname="preferences-system-session-services-symbolic.svg" inkscape:version="0.92.4 (5da689c313, 2019-01-14)">
  <metadata id="metadata10" color="#53b7ec" fill="#53b7ec">
    <rdf:RDF>
      <cc:Work rdf:about="">
        <dc:format>image/svg+xml</dc:format>
        <dc:type rdf:resource="http://purl.org/dc/dcmitype/StillImage"/>
      </cc:Work>
    </rdf:RDF>
  </metadata>
  <defs id="defs8" color="#53b7ec" fill="#53b7ec"/>
  <sodipodi:namedview pagecolor="#ffffff" bordercolor="#666666" borderopacity="1" objecttolerance="10" gridtolerance="10" guidetolerance="10" inkscape:pageopacity="0" inkscape:pageshadow="2" inkscape:window-width="1920" inkscape:window-height="1051" id="namedview6" showgrid="false" inkscape:zoom="0.4609375" inkscape:cx="256" inkscape:cy="256" inkscape:window-x="0" inkscape:window-y="0" inkscape:window-maximized="1" inkscape:current-layer="svg4" color="#53b7ec" fill="#53b7ec"/>
  <path d="m 282.40678,130.2817 v -16.65458 h 14.37288 c 7.94102,0 14.37288,-6.43186 14.37288,-14.372883 v -14.37288 c 0,-7.94102 -6.43186,-14.37288 -14.37288,-14.37288 h -86.23729 c -7.94101,0 -14.37288,6.43186 -14.37288,14.37288 v 14.37288 c 0,7.941023 6.43187,14.372883 14.37288,14.372883 h 14.37289 V 130.2817 C 127.44017,144.26831 52.440678,227.87356 52.440678,329.22034 H 454.88136 c 0,-101.34678 -74.99949,-184.95203 -172.47458,-198.93864 z M 469.25424,357.9661 H 38.067797 c -7.941017,0 -14.372881,6.43187 -14.372881,14.37289 v 28.74576 c 0,7.94102 6.431864,14.37288 14.372881,14.37288 H 469.25424 c 7.94102,0 14.37288,-6.43186 14.37288,-14.37288 v -28.74576 c 0,-7.94102 -6.43186,-14.37289 -14.37288,-14.37289 z" class="" id="path2" inkscape:connector-curvature="0" style="color:#53b7ec;fill:#53b7ec;stroke-width:0.89830506"/>
</svg>